<svg id="Layer_1" data-name="Layer 1" xmlns="http://www.w3.org/2000/svg" viewBox="0 0 777.8 236.42"><title>amanda</title><path d="M244.54,16.11q-4.42,8.94-8.33,16.78t-9,18.46Q222.16,62,216.69,74.53q-3.65,7.73-7.42,16.66t-7.68,18.58A67,67,0,0,0,215.13,105a5.34,5.34,0,0,1,4.16-.24,5.47,5.47,0,0,1,3.13,2.65,4.71,4.71,0,0,1,.39,3.86,4.89,4.89,0,0,1-2.73,2.9,102.67,102.67,0,0,1-11.33,4.22q-5.85,1.81-11.84,3.26-6,15.94-11.32,32.11t-9,30.9a23,23,0,0,1-.66,2.53,47.53,47.53,0,0,0-1.17,6.28,90.66,90.66,0,0,0-.65,9.42A59.15,59.15,0,0,0,175,214.3a3.81,3.81,0,0,1-.91,3.62,6.47,6.47,0,0,1-3.77,2.18,5.69,5.69,0,0,1-3.91-1,5.43,5.43,0,0,1-2.34-3.38,74.21,74.21,0,0,1-1-12.07,72.48,72.48,0,0,1,.65-10.26c.43-3,.87-5.43,1.3-7.36s.74-3.14.91-3.62q3.13-13.77,7.94-28.61t10.54-29.57q-8.58,1.44-16.13,2.17t-12.76,1H143.29q-6.25,0-13-.49L11.58,241.58a5.31,5.31,0,0,1-3.52,1.69,4.94,4.94,0,0,1-4-1.45,4.31,4.31,0,0,1-1.82-3.5,5.38,5.38,0,0,1,1.56-3.74L115.7,126.67q-3.92-.24-8.2-.24H74.57a88.25,88.25,0,0,0-15.88,1.21q-15.36,2.65-25.38,6.76A56.59,56.59,0,0,0,15.48,146a6.08,6.08,0,0,1-3.64,1.44A5.1,5.1,0,0,1,7.67,146a5.42,5.42,0,0,1-1.56-3.75,4.62,4.62,0,0,1,1.56-3.5,71.42,71.42,0,0,1,20.7-13.39q11.56-4.95,28.5-7.61a115.21,115.21,0,0,1,16.92-1.33q9.63-.12,24.21-.12,9.1,0,15.87.12t12,.37L235.69,10.32A6.41,6.41,0,0,1,243,9.59a5.79,5.79,0,0,1,2.08,3A4.2,4.2,0,0,1,244.54,16.11Zm-56,97q4.68-11.58,9.24-22.45t8.72-20.27q4.16-8.7,7.81-16.66T221.12,39l-80.7,78q3.65.24,7.16.24h7.68q5.73-.24,14.58-1.21T188.58,113.15Z" transform="translate(-2.21 -8.78)" style="fill:#231f20"/><path d="M196.13,220.82a6.93,6.93,0,0,1-2.87-.72,5,5,0,0,1-2.47-2.78,5.11,5.11,0,0,1,.13-3.74c.35-.81,1.22-2.57,2.6-5.31s3-6.08,4.95-10,3.94-8.25,6.12-12.92,4.25-9.33,6.24-14,3.86-9.17,5.6-13.52,3.12-8.12,4.16-11.34a15.61,15.61,0,0,0,.92-3.38c.08-.8.13-1.37.13-1.69a7.57,7.57,0,0,0-3.13.24,8.17,8.17,0,0,0-4.16,2.9,4.94,4.94,0,0,1-3.52,1.93,5.32,5.32,0,0,1-4-1.21,4.41,4.41,0,0,1-2.08-3.26,4.88,4.88,0,0,1,1-3.74,20.49,20.49,0,0,1,14.31-7,13.66,13.66,0,0,1,9.64,3.38,7.7,7.7,0,0,1,2.34,3.86,18.53,18.53,0,0,1,.52,4.23,14.17,14.17,0,0,1-.52,3.86c-.35,1.21-.61,2.13-.78,2.78q-1.31,3.62-3.13,8.32T224,168q2.86-3.62,5.33-6.76t4.82-5.79q4.43-5.31,7.81-8.93a71,71,0,0,1,6.25-6,55.45,55.45,0,0,1,5.85-4,8,8,0,0,1,7.94-.36c1.21.48,2.52,1.73,3.91,3.74s1.73,5.51,1,10.5a37.86,37.86,0,0,1-1.69,8.21c-.78,2.25-1.61,4.51-2.48,6.76a71.74,71.74,0,0,0-2.6,7.72,31,31,0,0,0-1.43,7.61,13.4,13.4,0,0,0,.39,4.7q1.56-.48,5.2-4.82A76.05,76.05,0,0,0,269,174q2.34-3.63,4.69-7.49,6.24-9.41,11.45-16.05t11.71-6.64a14.12,14.12,0,0,1,13.28,10.26c.34,1.53.6,2.62.78,3.26a28.44,28.44,0,0,1-.13,8.09c-.44,2.65-.83,5.11-1.17,7.36-.18,1-.48,2.29-.91,4a34.64,34.64,0,0,0-.92,5.07,29.22,29.22,0,0,0-.13,4.71c.09,1.45.57,2.34,1.44,2.66a4,4,0,0,0,2.86-.12,37.86,37.86,0,0,0,3.9-1.57,43.38,43.38,0,0,0,3.91-2c1.21-.73,2.25-1.33,3.12-1.82,0-.15,2-1.36,6-3.62s8.59-4.9,13.79-8q4.17-2.42,9-4.83a102.45,102.45,0,0,1,12.63-5.07,4.75,4.75,0,0,1,4.16,0,5.36,5.36,0,0,1,2.87,2.9,4.65,4.65,0,0,1-.13,3.86,5,5,0,0,1-3,2.65,111.29,111.29,0,0,0-11.58,4.83q-4.29,2.17-8.2,4.35-7.8,4.33-13.66,7.84c-3.91,2.34-5.95,3.5-6.12,3.5a91,91,0,0,1-9.76,5.19,21.72,21.72,0,0,1-9,2.05,13.62,13.62,0,0,1-5.21-1,12.18,12.18,0,0,1-6.77-6.76,17.52,17.52,0,0,1-1-10.38q1-5.55,1.82-10.14.78-3.37,1.31-6.52a17.94,17.94,0,0,0,0-6,4.44,4.44,0,0,0-.53-2.17c-.52-1.45-1.3-2.26-2.34-2.42a12.49,12.49,0,0,0-1.69,1.09,26.1,26.1,0,0,0-3.77,4q-4.17,5.79-8.33,12.8-2.86,4.34-5.73,8.44t-5.73,7.49a35.91,35.91,0,0,1-5.46,5.43A12,12,0,0,1,258.6,196q-5.73,0-8.33-4.35a12.29,12.29,0,0,1-2.08-5.19,22.27,22.27,0,0,1-.26-5.91c.17-1.94.39-3.78.65-5.56a29.6,29.6,0,0,1,.91-4.34,28.4,28.4,0,0,1,1.3-4.71c.52-1.36,1-2.69,1.56-4,1-2.74,2-5.27,2.73-7.61a21.32,21.32,0,0,0,1.18-6.88,81.54,81.54,0,0,0-6.12,5.8q-4,4.11-10.54,12.07Q232,174.71,222.29,188t-21.74,30.42A5.38,5.38,0,0,1,196.13,220.82Z" transform="translate(-2.21 -8.78)" style="fill:#231f20"/><path d="M402.54,219.61a11,11,0,0,1-4.68-1,11.33,11.33,0,0,1-6.51-6.52,44.08,44.08,0,0,1-2.6-9.66,8,8,0,0,1-.27-2.17v-2.41a79.57,79.57,0,0,1-12.75,9.05,64.33,64.33,0,0,1-11.45,5.19c-2.09.64-4,1.17-5.86,1.57a41.56,41.56,0,0,1-5.34.84q-9.36.74-14.05-3.86a10.91,10.91,0,0,1-3.13-6,24.69,24.69,0,0,1-.13-6.64,25.55,25.55,0,0,1,1.44-6,35.15,35.15,0,0,1,1.82-4.22,50.92,50.92,0,0,1,5.33-9.42,86.78,86.78,0,0,1,6-7.36,52,52,0,0,1,5.73-5.43l4.55-3.62q8.33-6.28,13.8-8.57c3.64-1.53,6.25-2.54,7.81-3,1.21-.32,2.82-.68,4.81-1.09a33.21,33.21,0,0,1,6.51-.6,24.81,24.81,0,0,1,7.16,1.09,18.6,18.6,0,0,1,6.77,3.74,9.45,9.45,0,0,1,3,6.15,22.23,22.23,0,0,1-.78,8.09,37,37,0,0,1-3.65,8.69,91.46,91.46,0,0,1-5.07,8q-2.09,11.34-1.56,16.66a27.15,27.15,0,0,0,1.56,6.63c.52,1.05.95,1.66,1.3,1.81a5.91,5.91,0,0,0,3-.48,14.11,14.11,0,0,0,4.56-2.65q6-3.87,12.88-8.94t13.54-10.13q6.63-5.07,12.49-9.42c3.91-2.9,7.07-5.31,9.51-7.24a36.2,36.2,0,0,1,4.68-3.62,6.44,6.44,0,0,1,4-1.09,4.56,4.56,0,0,1,3.52,1.81,4.51,4.51,0,0,1,1.3,3.74,5.21,5.21,0,0,1-2.08,3.5,17.61,17.61,0,0,1-1.69,1.33c-.78.57-1.79,1.25-3,2.05q-3.64,2.89-9.37,7.37t-12.49,9.53q-6.78,5.07-13.8,10.14t-13,9.17a23.65,23.65,0,0,1-5.34,3.14A19.33,19.33,0,0,1,402.54,219.61ZM385.62,160a39,39,0,0,0-6.38,2.41,65.85,65.85,0,0,0-11.58,7.48,102.3,102.3,0,0,0-9.11,7.73,39.67,39.67,0,0,0-9.37,14q-3.12,7.24-2.73,9.54a7.68,7.68,0,0,0,.65,2.53,7,7,0,0,0,2.6.73,14.78,14.78,0,0,0,4.17-.13,42.76,42.76,0,0,0,7-1.81,30.43,30.43,0,0,0,4.17-1.57,51.22,51.22,0,0,0,7.29-4,92.3,92.3,0,0,0,9.11-6.76,60.24,60.24,0,0,0,9.63-10.38c1.38-2.09,2.73-4.1,4-6a31.37,31.37,0,0,0,3.26-6.28,19.14,19.14,0,0,0,1.17-4.59c.08-1.12.13-1.93.13-2.41a11.33,11.33,0,0,0-6.9-1.57Q389.27,159.26,385.62,160Z" transform="translate(-2.21 -8.78)" style="fill:#231f20"/><path d="M443.93,218.89a7,7,0,0,1-2.87-.72,6.17,6.17,0,0,1-2.47-3,4.46,4.46,0,0,1,.39-3.74q7.29-13.28,13.28-24.27t10.41-19.43c2.43-4.5,4.51-8.33,6.25-11.46s3-5.44,3.9-6.88a26.42,26.42,0,0,1,1-2.54c.35-.72-.17-1.25-1.56-1.57a4.92,4.92,0,0,1-3-2.65,4.64,4.64,0,0,1-.13-3.87,5.35,5.35,0,0,1,2.86-2.89,5.41,5.41,0,0,1,4.17-.25,12.85,12.85,0,0,1,5.33,3,16.52,16.52,0,0,1,2.47,3.26,9.15,9.15,0,0,1,.52,7.36,27.84,27.84,0,0,1-2.08,4.71q-1.31,2.18-3.77,6.88t-6.12,11.47c-.52,1-1,2-1.56,3s-1.13,2.13-1.82,3.25q2.34-1.92,4.81-4t5.08-4a150.83,150.83,0,0,1,17.57-11.83q7.41-4.11,14.44-2.9a16.1,16.1,0,0,1,8.59,4,16.31,16.31,0,0,1,5,8.32A65.83,65.83,0,0,1,527,179.54c.35,3.38.69,6.44,1,9.17.17,2.58.35,4.67.52,6.28s.7,2.58,1.57,2.9q3.9,1.94,12.23-3.62a91.89,91.89,0,0,0,8.72-6.52q4.29-3.63,7.42-6.52,6.24-5.31,12-10.14a63,63,0,0,1,12.5-8.21q4.94-1.92,7.55,2.18a4.71,4.71,0,0,1,.39,3.86,4.9,4.9,0,0,1-2.74,2.9,64.36,64.36,0,0,0-11.71,7.72q-5.2,4.35-10.15,8.93-3.39,2.9-7.94,6.88a85.07,85.07,0,0,1-9.76,7.36q-14.33,8.94-23.69,4.11a12,12,0,0,1-6.51-8,35.24,35.24,0,0,1-.78-4.58c-.17-1.61-.35-3.3-.52-5.07-.35-2.42-.65-5.15-.91-8.21a55,55,0,0,0-1.95-10.14q-1.56-4.35-5-5.07-3.9-.48-10.41,3.74t-13,9a170.37,170.37,0,0,0-37.49,37.9A5.37,5.37,0,0,1,443.93,218.89Z" transform="translate(-2.21 -8.78)" style="fill:#231f20"/><path d="M616.76,245.2a5.63,5.63,0,0,1-3.77-1.45,4.32,4.32,0,0,1-1.69-3.38,66.18,66.18,0,0,1,1.17-15.08q1.42-7.36,3-13.88a8.47,8.47,0,0,0,.65-2.18,16.92,16.92,0,0,1,.39-1.93q-2.6,1.94-5.33,3.62a40.25,40.25,0,0,1-5.6,2.9q-13.55,6.52-23.43,1.93-7-3.37-9.89-12.07A40,40,0,0,1,570.82,185,50.56,50.56,0,0,1,577.2,166c.52-1,1.38-2.33,2.6-4.1a42.39,42.39,0,0,1,5-5.8,46.52,46.52,0,0,1,7.54-6,43.12,43.12,0,0,1,10.42-4.83,50,50,0,0,1,7.81-2.17,17.86,17.86,0,0,1,9.89,1,19.8,19.8,0,0,1,7.29,4.23,28.3,28.3,0,0,1,5.72,7.12q3.65-8.93,6.77-17.38T647,121.36q5.71-14.72,10-25.59t8.46-22.45q1-3.37,3.12-8.69t4.69-10.86q2.6-5.55,5.46-10.5a38.85,38.85,0,0,1,5.73-7.85,24.18,24.18,0,0,1,3.64-2.65,25.45,25.45,0,0,1,5.21-2.42,19.14,19.14,0,0,1,6.12-1A14.69,14.69,0,0,1,706,31.08q5.73,2.89,5.73,12.07,0,5.79-2.86,15.21-1.56,5.07-3.52,10.26t-4,10.13q-2.08,4.95-4,9.06t-3.52,7Q688.86,105,682.1,116.05t-13.93,22q-7.15,10.86-14,20.76t-12.37,17.38q-2.87,4.11-5.2,7.36c-1.57,2.18-2.78,3.91-3.65,5.19l-4.68,15.94L627.17,209c-.34,1.45-.69,3-1,4.59q-1.3,6.27-2.73,12.91a53,53,0,0,0-1.17,13.4,5,5,0,0,1-1.69,3.74A5.42,5.42,0,0,1,616.76,245.2Zm-10.41-90.52a28,28,0,0,0-8.07,3.86,49.51,49.51,0,0,0-5.86,4.83,32.14,32.14,0,0,0-3.9,4.46,15.42,15.42,0,0,0-1.69,2.78,41.56,41.56,0,0,0-5.08,15.21,32.43,32.43,0,0,0,.91,14.72,16.9,16.9,0,0,0,1.57,3.5,6.69,6.69,0,0,0,3.12,2.78,9.05,9.05,0,0,0,6,.48,32.46,32.46,0,0,0,7.67-2.65,60.23,60.23,0,0,0,8.07-4.71,42.09,42.09,0,0,0,7.16-6.16c.87-1,2-2.25,3.26-3.86a27,27,0,0,0,3.25-5.07,31.88,31.88,0,0,0,2.21-5.19,25.58,25.58,0,0,0,1.17-4.95,21.6,21.6,0,0,0-.13-8.57,23.73,23.73,0,0,0-2.47-6.39,16.83,16.83,0,0,0-3.38-4.23,10,10,0,0,0-3.39-2.05,14.91,14.91,0,0,0-5.33,0A39.88,39.88,0,0,0,606.35,154.68ZM699,39.53a5.58,5.58,0,0,0-2.35.48l-2.08,1-2.08,1.45a22.76,22.76,0,0,0-3.9,5.31q-2.1,3.63-4.3,8.33t-4.43,10q-2.21,5.31-4,10.38-2.08,5.79-4.16,11.35t-4.43,11.34q-2.34,5.8-4.81,12.07t-5.34,13.52q-2.61,7-5.21,12.92c-1.73,3.94-3.3,8-4.68,12.19q4.68-6.76,9.76-14.37t9.89-15.33q4.82-7.71,9.24-15.2t7.81-14.25q4.43-8.92,7.94-17.26t5.6-15.08q3.38-10.14,3.38-14a21.6,21.6,0,0,0-.26-4.58A3.91,3.91,0,0,0,699,39.53Z" transform="translate(-2.21 -8.78)" style="fill:#231f20"/><path d="M710.73,219.61a11.08,11.08,0,0,1-4.69-1,11.34,11.34,0,0,1-6.5-6.52,44.1,44.1,0,0,1-2.61-9.66,8.44,8.44,0,0,1-.26-2.17v-2.41a80.47,80.47,0,0,1-12.75,9.05,64.71,64.71,0,0,1-11.46,5.19c-2.08.64-4,1.17-5.85,1.57a41.84,41.84,0,0,1-5.34.84q-9.37.74-14-3.86a10.84,10.84,0,0,1-3.13-6A24.69,24.69,0,0,1,644,198a26,26,0,0,1,1.43-6,36.58,36.58,0,0,1,1.83-4.22,50.92,50.92,0,0,1,5.33-9.42,86.78,86.78,0,0,1,6-7.36,51.1,51.1,0,0,1,5.73-5.43c1.82-1.45,3.33-2.66,4.55-3.62q8.32-6.28,13.8-8.57t7.8-3c1.22-.32,2.82-.68,4.82-1.09a33.14,33.14,0,0,1,6.51-.6,24.86,24.86,0,0,1,7.16,1.09,18.56,18.56,0,0,1,6.76,3.74,9.42,9.42,0,0,1,3,6.15,22.23,22.23,0,0,1-.78,8.09,37,37,0,0,1-3.65,8.69,91.46,91.46,0,0,1-5.07,8q-2.08,11.34-1.57,16.66a27.5,27.5,0,0,0,1.57,6.63c.52,1.05,1,1.66,1.3,1.81a5.91,5.91,0,0,0,3-.48,14.21,14.21,0,0,0,4.56-2.65q6-3.87,12.88-8.94t13.54-10.13q6.63-5.07,12.49-9.42t9.5-7.24a36.78,36.78,0,0,1,4.69-3.62,6.44,6.44,0,0,1,4-1.09,4.56,4.56,0,0,1,3.52,1.81,4.51,4.51,0,0,1,1.3,3.74,5.25,5.25,0,0,1-2.08,3.5,18,18,0,0,1-1.7,1.33c-.78.57-1.78,1.25-3,2.05q-3.65,2.89-9.37,7.37t-12.5,9.53q-6.76,5.07-13.79,10.14t-13,9.17a23.51,23.51,0,0,1-5.33,3.14A19.33,19.33,0,0,1,710.73,219.61ZM693.81,160a38.61,38.61,0,0,0-6.38,2.41,65.85,65.85,0,0,0-11.58,7.48,100.88,100.88,0,0,0-9.11,7.73,39.67,39.67,0,0,0-9.37,14q-3.12,7.24-2.74,9.54a7.29,7.29,0,0,0,.66,2.53,7,7,0,0,0,2.6.73,14.71,14.71,0,0,0,4.16-.13,42.58,42.58,0,0,0,7-1.81,30.94,30.94,0,0,0,4.17-1.57,50.64,50.64,0,0,0,7.28-4,90,90,0,0,0,9.11-6.76,59.88,59.88,0,0,0,9.64-10.38c1.38-2.09,2.73-4.1,4-6a31.33,31.33,0,0,0,3.25-6.28,19.26,19.26,0,0,0,1.18-4.59c.08-1.12.13-1.93.13-2.41a11.33,11.33,0,0,0-6.9-1.57Q697.46,159.26,693.81,160Z" transform="translate(-2.21 -8.78)" style="fill:#231f20"/></svg>