<svg id="Layer_1" data-name="Layer 1" xmlns="http://www.w3.org/2000/svg" viewBox="0 0 780 144.56"><title>amsterdam</title><path d="M114.31,164.18A3.81,3.81,0,0,1,116.9,166a3.94,3.94,0,0,1,.47,3.05,45.38,45.38,0,0,1-3.16,8.15,36.67,36.67,0,0,1-4.88,7.43,40.94,40.94,0,0,1-6.22,6,34.28,34.28,0,0,1-7,4.21q-8.61,3.57-15.7,0-6.7-3.4-8-14.61T75.25,149q-8.62-2-17.14-3.4T41,143.22q-9.18,14.86-17.8,31A319.91,319.91,0,0,0,8.23,206.1a3.87,3.87,0,0,1-4,2.51,3.45,3.45,0,0,1-1.34-.18,4.76,4.76,0,0,1-2.49-2.15,3.21,3.21,0,0,1,0-3q5-12.36,12.06-26.43t15.7-28.58c.64-.95,1.22-1.88,1.73-2.77s1.08-1.82,1.72-2.78c-2.94-.24-5.93-.39-9-.45a89.1,89.1,0,0,0-9,.27,4.46,4.46,0,0,1-3.16-1.16,3.69,3.69,0,0,1-1.24-2.78,3.12,3.12,0,0,1,1.05-2.78,4.22,4.22,0,0,1,3-1.16q5.74-.36,11.58-.18t11.59.54q5.35-8.43,10.63-16t10.24-13.88c.25-.36,1-1.29,2.11-2.78S61.94,99,63.66,97s3.7-4.32,5.94-6.89,4.5-5.11,6.8-7.62q3.82-4.11,7.08-7.43a70,70,0,0,1,5.94-5.47A43,43,0,0,1,96.12,65a6.25,6.25,0,0,1,6.51-.09,6,6,0,0,1,2.2,2,6.87,6.87,0,0,1,1,4.12,30.62,30.62,0,0,1-.95,6.09,101.31,101.31,0,0,1-3.35,11.28q-2,5.56-3.93,11.11-4.41,13.26-7.85,25.08t-5.55,22q-1.92,8.59-2.87,15.68a74,74,0,0,0-.77,12.45q0,7.53,1.44,10.12c1,1.74,1.75,2.72,2.39,3,2.17,1.19,4.91,1.14,8.23-.18a26.56,26.56,0,0,0,10.25-8.15,33.25,33.25,0,0,0,6.41-12.27,3.94,3.94,0,0,1,1.82-2.51A4.14,4.14,0,0,1,114.31,164.18ZM64.14,109.54q-4.41,5.55-9,12.18t-9.38,14.15a234.75,234.75,0,0,1,31,5.38q2.3-9.85,5.74-20.79T89.8,97.17q1.73-5.91,3.83-11.64A92.13,92.13,0,0,0,97.08,73.7Q95,75.32,91.14,78.9T80.8,89.65q-3.26,3.59-6,6.9t-5.07,6.09c-1.54,1.85-2.78,3.37-3.74,4.57S64.4,109.18,64.14,109.54Z" transform="translate(0 -64.05)" style="fill:#231f20"/><path d="M237.62,163.82a3.7,3.7,0,0,1,2.39,1.79,3.56,3.56,0,0,1,.48,2.87,36.89,36.89,0,0,1-3.16,8,54,54,0,0,1-5.26,8.15,40.85,40.85,0,0,1-15.9,11.83,28.6,28.6,0,0,1-4.69,1.79,21.31,21.31,0,0,1-6.22.9,10.88,10.88,0,0,1-5.55-1.44q-5.94-3.59-5-11.28a54.08,54.08,0,0,1,2.3-8.87,76.57,76.57,0,0,1,3.64-8.69q1.34-3.94,2-6.63a25.13,25.13,0,0,0,.76-4.3,8.64,8.64,0,0,0-.09-2.33,5.53,5.53,0,0,0-.39-1.08,2.2,2.2,0,0,0-.38-.53,2.92,2.92,0,0,0-1.15-.36,11.82,11.82,0,0,0-4,.63c-2,.53-5.11,2.36-9.19,5.46q-10.72,8.43-25.28,26.7c-.64,1.67-1.27,3.19-1.91,4.56s-1.28,2.72-1.92,4a5.4,5.4,0,0,1-2.58,2.06,3.53,3.53,0,0,1-3.16-.27,4,4,0,0,1-2.11-2.24,3.42,3.42,0,0,1,.2-3q1.71-3.22,3.44-7.43t4.41-10.49l.57-1.61a100.87,100.87,0,0,0,4-10.75,89.52,89.52,0,0,0,2.3-9,23.23,23.23,0,0,0,.38-7.07c-.26-1.85-.89-3-1.91-3.5h-1.06a7.57,7.57,0,0,0-2.48.63,24.18,24.18,0,0,0-4.12,2.24,53.35,53.35,0,0,0-5.94,4.66,160.65,160.65,0,0,0-17.42,18.36q-9.77,11.75-21.64,28.58a4.65,4.65,0,0,1-3.64,1.79,6.6,6.6,0,0,1-1.91-.36q-3.25-1.78-1.92-5a286.88,286.88,0,0,0,14.17-46.94,3.94,3.94,0,0,1,1.82-2.51,4.14,4.14,0,0,1,3.16-.54,4.24,4.24,0,0,1,2.68,1.7,3.21,3.21,0,0,1,.58,2.78q-2.31,11.28-5.75,22.75,13.59-17.19,24.13-26.51,7.28-6.27,12.73-8.33a14.58,14.58,0,0,1,9.86-.63,8.76,8.76,0,0,1,4.5,3.58,13,13,0,0,1,2.2,4.84,27.8,27.8,0,0,1-.19,10.75q-1,4.83-2.49,10,2.88-3,5.56-5.46a67.13,67.13,0,0,1,5.36-4.39q11.87-9.14,19.91-7.88a10.11,10.11,0,0,1,4.88,1.88,16.18,16.18,0,0,1,2.59,2.59q3.82,6.28-1.72,21.15c-.39.95-1,2.39-1.82,4.3a56.7,56.7,0,0,0-2.21,6,40,40,0,0,0-1.34,5.73c-.25,1.73.13,2.9,1.15,3.49a5.35,5.35,0,0,0,2.88,0,24.4,24.4,0,0,0,5.93-2,29.27,29.27,0,0,0,12.06-9,42.94,42.94,0,0,0,5.37-8.6,45.29,45.29,0,0,0,1.91-5,3.54,3.54,0,0,1,1.92-2.24A4.69,4.69,0,0,1,237.62,163.82Z" transform="translate(0 -64.05)" style="fill:#231f20"/><path d="M302.15,164.62a4.63,4.63,0,0,1,2.1,2.41,3.06,3.06,0,0,1-.38,2.95,45.83,45.83,0,0,1-2.77,4.38,42.07,42.07,0,0,1-4.5,5.27,39.18,39.18,0,0,1-6.23,5,36.67,36.67,0,0,1-16.75,5.54,19.77,19.77,0,0,1-5.36,6.26,29.54,29.54,0,0,1-7.95,4.34,28.69,28.69,0,0,1-10.05,1.75,27.12,27.12,0,0,1-13.79-3.76,19,19,0,0,1-8.81-11.83,32.43,32.43,0,0,1-1.15-6.89,19.22,19.22,0,0,1,.68-6.45,14.4,14.4,0,0,1,2.58-5.11,9.29,9.29,0,0,1,4.6-3,8.53,8.53,0,0,1,2.87-.26,6.74,6.74,0,0,1,3.64,1.52,35.93,35.93,0,0,1,4.88,4.75,29.31,29.31,0,0,0,5.46,4.92,21.19,21.19,0,0,1,2.68,1.44,38.46,38.46,0,0,0,6.7,2.86,23.66,23.66,0,0,0,7.08,1.61,23.06,23.06,0,0,0,.48-5.82,62.83,62.83,0,0,0-.67-7.25,56.83,56.83,0,0,0-2.68-9.77q-1.72-4.56-3.64-8.69c-1.15-2.51-2.17-4.92-3.06-7.25a27.49,27.49,0,0,1-1.72-6.72q-1.15-8.24,6.12-13.44a13.31,13.31,0,0,1,6.8-1.88,15.85,15.85,0,0,1,8.33,1.7,14.92,14.92,0,0,1,4.69,3.67q2.58,2.76,2.39,8.48a4.19,4.19,0,0,1-1.43,2.87,4.42,4.42,0,0,1-3,1.07,5,5,0,0,1-3-1.34,3.11,3.11,0,0,1-1.05-2.77,6.64,6.64,0,0,0-.67-3.49,3.82,3.82,0,0,0-1.44-1.34,7.8,7.8,0,0,0-3.83-1.07,6.15,6.15,0,0,0-2.87.53c-2.3,1.67-3.22,3.76-2.78,6.26s1.89,6.37,4.31,11.62q2.12,4.47,4,9.47a55.62,55.62,0,0,1,2.88,10.72c.25,1.91.48,4.08.67,6.53a34.27,34.27,0,0,1-.29,7.59c.64-.12,1.21-.24,1.72-.36a12.62,12.62,0,0,0,1.73-.53,24.47,24.47,0,0,0,6-2.95,31.88,31.88,0,0,0,4.88-4,32.92,32.92,0,0,0,3.54-4.2,34.64,34.64,0,0,0,2.2-3.49,4.83,4.83,0,0,1,2.59-2A4.12,4.12,0,0,1,302.15,164.62Zm-49,29.84q6.9-1.08,10.72-4.66a28.65,28.65,0,0,1-5.93-1.61,44.64,44.64,0,0,1-8.14-3.41,32,32,0,0,1-3.54-2.15,27.28,27.28,0,0,1-5-3.94c-1.28-1.31-2.43-2.51-3.45-3.58a4,4,0,0,0-1.53-1.61,6.31,6.31,0,0,0-1.15,2.68,22.08,22.08,0,0,0,.58,8.6,12.9,12.9,0,0,0,7.94,8.69,18,18,0,0,0,5.17,1.17A16.5,16.5,0,0,0,253.13,194.46Z" transform="translate(0 -64.05)" style="fill:#231f20"/><path d="M355,163.82a3.69,3.69,0,0,1,2.39,2.06,4.11,4.11,0,0,1,.09,3.14,44.63,44.63,0,0,1-7,11.37,66.35,66.35,0,0,1-9.39,9.14,64.2,64.2,0,0,1-10.43,6.81,50,50,0,0,1-10.15,4,25.31,25.31,0,0,1-4.5,1,36,36,0,0,1-4.12.26q-5.93,0-9.38-2.5-5.17-3.23-6.32-11.11a50.79,50.79,0,0,1,.19-14.51,80.23,80.23,0,0,1,1.73-9.32q1.14-4.65,2.39-8.78c.83-2.75,1.63-5.19,2.39-7.35s1.41-3.88,1.92-5.19a155.08,155.08,0,0,1,8.42-18.63q4.78-9,9.39-16.31T331,95.29c2.48-3.52,4.37-6.12,5.64-7.79a3.44,3.44,0,0,1,2.59-1.61,5.1,5.1,0,0,1,3.16.71A3.23,3.23,0,0,1,344.08,89a4.28,4.28,0,0,1-.76,3q-1.54,2-4.5,6.18t-6.61,9.94q-3.65,5.75-7.56,12.72t-7.57,14.69c4.47,0,9.42,0,14.84-.18s11-.41,16.76-.89a3.5,3.5,0,0,1,3.06.72,3.94,3.94,0,0,1,1.53,2.68,3.46,3.46,0,0,1-1,3,4.48,4.48,0,0,1-2.87,1.34q-9.18.9-17.61,1.08t-15.13.18h-3.06a2.49,2.49,0,0,0-.48,1.07,2.86,2.86,0,0,1-.48,1.08c-.38,1.19-1,2.84-1.72,4.92s-1.54,4.42-2.3,7-1.5,5.32-2.2,8.24a81.33,81.33,0,0,0-1.63,8.87,50.11,50.11,0,0,0-.67,8.51,23.13,23.13,0,0,0,.67,5.38,10.51,10.51,0,0,0,1.24,3,4.63,4.63,0,0,0,1.25,1.35q3.26,2,10.91,0a48.78,48.78,0,0,0,8.81-3.68,54.09,54.09,0,0,0,8.9-5.91,59.68,59.68,0,0,0,7.95-7.79,34.93,34.93,0,0,0,5.74-9.5,3.68,3.68,0,0,1,2.21-2.06A4.43,4.43,0,0,1,355,163.82Z" transform="translate(0 -64.05)" style="fill:#231f20"/><path d="M416.65,165.25a4.27,4.27,0,0,1,2,2.42,3.31,3.31,0,0,1-.48,3,66.49,66.49,0,0,1-8.52,10.48A72.82,72.82,0,0,1,399,190a62.91,62.91,0,0,1-22.6,10,43.56,43.56,0,0,1-9.19,1.08,23.15,23.15,0,0,1-12.06-2.87,19.55,19.55,0,0,1-10-15.41,29.93,29.93,0,0,1,.77-10.48,50.52,50.52,0,0,1,4.4-11.55,61.11,61.11,0,0,1,6.7-10.49,73,73,0,0,1,8.62-9.22,54.92,54.92,0,0,1,6.7-5,48.62,48.62,0,0,1,7.47-3.94,50,50,0,0,1,7.46-2.51,24.07,24.07,0,0,1,6.9-.72,12.66,12.66,0,0,1,5.46,1,13,13,0,0,1,3,1.88,10.88,10.88,0,0,1,2.87,9q-.37,5.55-4.5,11.73a42.86,42.86,0,0,1-10.43,10.84,67.13,67.13,0,0,1-11.87,7.08,100.67,100.67,0,0,1-10.15,4,57.85,57.85,0,0,1-8.81,2.51,60.14,60.14,0,0,1-6.13.9,11.41,11.41,0,0,0,0,4.12,12.27,12.27,0,0,0,5.94,9.67q5.36,2.86,14.74.72a54,54,0,0,0,8.81-2.87,63.39,63.39,0,0,0,9.77-5.11,57.15,57.15,0,0,0,9.57-7.61,63.64,63.64,0,0,0,8.43-10.21,4,4,0,0,1,2.58-1.79A4.28,4.28,0,0,1,416.65,165.25Zm-58.59-1.07c-.51,1-1,1.88-1.34,2.78s-.77,1.76-1.15,2.59A81.09,81.09,0,0,0,368.78,166a64,64,0,0,0,16.66-8.78,29.77,29.77,0,0,0,8.33-9,26.08,26.08,0,0,0,3.35-8.24,3.31,3.31,0,0,0,.1-1.43,1.58,1.58,0,0,0-.67-1.25,2.48,2.48,0,0,0-1.44-.45l-1.24-.09q-4.22,0-10.63,2.6a39.75,39.75,0,0,0-11.78,7.43A56.76,56.76,0,0,0,364,155,72.09,72.09,0,0,0,358.06,164.18Z" transform="translate(0 -64.05)" style="fill:#231f20"/><path d="M484.62,165.61a4.27,4.27,0,0,1,2,2.42,3.34,3.34,0,0,1-.47,3,72.06,72.06,0,0,1-17.81,18.81q-9.59,6.81-19,8.24a26.08,26.08,0,0,1-6.13,0,11.18,11.18,0,0,1-6.31-2.87q-5-4.29-2.69-12.36a37.86,37.86,0,0,1,2.21-6q1.42-3.13,3-6.18c1-1.91,1.95-3.79,2.78-5.64a53.35,53.35,0,0,0,2-5.11,16.26,16.26,0,0,0,.67-6.09,6.35,6.35,0,0,0-1.82-4.12l-9.38-7.89a68.84,68.84,0,0,1-3.45,8.25q-2.69,5.73-6.12,11.64a109,109,0,0,1-6.51,10,3.53,3.53,0,0,1-2.69,1.62,5.2,5.2,0,0,1-3.25-.72,3.21,3.21,0,0,1-1.72-2.42,4.26,4.26,0,0,1,.76-3q2.49-3.58,5.36-8.43t5.56-10a83.3,83.3,0,0,0,3.92-9.05,37.86,37.86,0,0,0,1.25-4.21,4.4,4.4,0,0,1-.29-2.15,3.18,3.18,0,0,1,1.05-2.15,3.77,3.77,0,0,1,2.87-1.25A4.82,4.82,0,0,1,433.5,131q5.55,4.84,8.71,7.44l4.69,3.85,1.92,1.61a13.38,13.38,0,0,1,4.21,7.62,22.05,22.05,0,0,1-.57,10.3,49.57,49.57,0,0,1-2.4,6.09q-1.44,3-3,6.09c-.76,1.44-1.53,2.93-2.29,4.48a38.54,38.54,0,0,0-1.92,4.57,19.38,19.38,0,0,0-1,3.94,2.44,2.44,0,0,0,.77,2.42q1.72,1.26,5.55.72a25.06,25.06,0,0,0,7.28-2.15,47,47,0,0,0,7.85-4.48,60.48,60.48,0,0,0,15.51-16.48,4.39,4.39,0,0,1,2.58-1.88A4,4,0,0,1,484.62,165.61Z" transform="translate(0 -64.05)" style="fill:#231f20"/><path d="M550.3,137q-3.82,8.6-7.56,17.11a121.47,121.47,0,0,0-5.84,16,74.81,74.81,0,0,0-2.11,8.6,21.62,21.62,0,0,0-.38,5.38,8.81,8.81,0,0,0,.67,3,4.75,4.75,0,0,0,.86,1.35,3,3,0,0,0,1.82.8,7.43,7.43,0,0,0,2-.09q5-.71,12.35-6.45t14.65-16.84a4.1,4.1,0,0,1,2.58-1.79,4.24,4.24,0,0,1,3.16.54,3.87,3.87,0,0,1,1.92,2.42,3.57,3.57,0,0,1-.58,2.95,79.66,79.66,0,0,1-16.08,18.55q-8.81,7.24-16.66,8.33a21.65,21.65,0,0,1-5.46,0,9.72,9.72,0,0,1-5.26-2.33,12.13,12.13,0,0,1-4.31-9.05,40.92,40.92,0,0,1,1-11.38,111,111,0,0,1-18.76,17.2A45.07,45.07,0,0,1,494.2,198a17.1,17.1,0,0,1-5.94.81,13.08,13.08,0,0,1-5.93-1.53,15.1,15.1,0,0,1-7.66-10q-1.53-6.45,1.43-15.23a66.7,66.7,0,0,1,9.67-17.91q8.63-11.65,17-17.74,12.65-9,25.09-7.17a22.91,22.91,0,0,1,7.08,2.15,19.8,19.8,0,0,1,6.51,4.84A4.24,4.24,0,0,0,542,135a2.58,2.58,0,0,1,.48-1.08l30.25-67a3.61,3.61,0,0,1,2.21-2.24,4.4,4.4,0,0,1,5.55,2.24,3.43,3.43,0,0,1-.1,3Zm-46.91,47.83a103.05,103.05,0,0,0,13.88-12.09q8.33-8.33,18.67-24.1c1-2.38,1-4.48-.19-6.27a9.48,9.48,0,0,0-4.41-3.76,23.63,23.63,0,0,0-4.78-1.61,15.35,15.35,0,0,0-2.68-.18q-7.86,0-15.9,5.91-7.46,5.37-15.31,15.95a59.43,59.43,0,0,0-8.24,14.87c-1.79,4.89-2.3,8.9-1.53,12a6.93,6.93,0,0,0,3.64,4.84c1.27.71,3.38.69,6.32-.09S499.3,187.65,503.39,184.78Z" transform="translate(0 -64.05)" style="fill:#231f20"/><path d="M654.27,165.61a4.71,4.71,0,0,1,2.11,2.42,3.13,3.13,0,0,1-.38,3,74.34,74.34,0,0,1-7.37,10.66,67.79,67.79,0,0,1-7.38,7.52,47.84,47.84,0,0,1-7.18,5.2,70,70,0,0,1-6.8,3.49,19.19,19.19,0,0,1-4,1.26,19.86,19.86,0,0,1-5.36.35q-7.65-.53-10.91-6.45-1.72-2.85-1.34-7.7c-1.41,1.32-3,2.66-4.79,4s-3.64,2.72-5.55,4q-11.88,8.07-20.3,8.07a14.51,14.51,0,0,1-6.89-1.62,11.23,11.23,0,0,1-6.32-7q-1.72-5.39,0-13.08a48.71,48.71,0,0,1,2.2-7.08,60.94,60.94,0,0,1,3.54-7.44,88.82,88.82,0,0,1,10.34-14.6,59.09,59.09,0,0,1,12.45-10.84q14-9.5,28.53-7.52a15,15,0,0,1,6.22,2.42,12.74,12.74,0,0,1,4.31,4.92c1,2,1.37,5,1,8.87s-2.46,8.87-6.41,15a10,10,0,0,1-1,1.53,15.18,15.18,0,0,0-1.25,1.7,54.05,54.05,0,0,0-2.87,4.84,44.15,44.15,0,0,0-2.68,6.09,27.33,27.33,0,0,0-2.11,7.79,8.28,8.28,0,0,0,.39,4,3,3,0,0,0,1.91,1.7,8.66,8.66,0,0,0,2.78.45,14,14,0,0,0,2.77-.27,6.2,6.2,0,0,0,1.92-.62,50.15,50.15,0,0,0,12.54-8.07q6-5.19,12.16-15.4a4.88,4.88,0,0,1,2.58-2A3.76,3.76,0,0,1,654.27,165.61Zm-49.21,8.78a94.91,94.91,0,0,0,6-7.34q2.77-3.77,5.65-7.53a37.1,37.1,0,0,0,5-9.76q1.34-4.39,0-6.9a4.52,4.52,0,0,0-3.06-2.51,18.54,18.54,0,0,0-4.6-.54q-9.57,0-18.95,6.45a54.14,54.14,0,0,0-10.82,9.5A78.28,78.28,0,0,0,575,168.84a46.5,46.5,0,0,0-5,12.27q-1.34,5.82-.19,9.23a3.47,3.47,0,0,0,1,1.7q.57.45,1,.81c2,1,4.65.86,7.85-.27a47.74,47.74,0,0,0,9.67-4.84,79,79,0,0,0,9.19-6.9A66.46,66.46,0,0,0,605.06,174.39Z" transform="translate(0 -64.05)" style="fill:#231f20"/><path d="M777,163.82a3.7,3.7,0,0,1,2.39,1.79,3.56,3.56,0,0,1,.48,2.87,36.89,36.89,0,0,1-3.16,8,54,54,0,0,1-5.26,8.15,40.85,40.85,0,0,1-15.9,11.83,28.6,28.6,0,0,1-4.69,1.79,21.31,21.31,0,0,1-6.22.9,10.86,10.86,0,0,1-5.55-1.44q-5.94-3.59-5-11.28a54.08,54.08,0,0,1,2.3-8.87,78.36,78.36,0,0,1,3.63-8.69q1.35-3.94,2-6.63a25.33,25.33,0,0,0,.77-4.3,8.64,8.64,0,0,0-.09-2.33,5.53,5.53,0,0,0-.39-1.08A2.51,2.51,0,0,0,742,154a2.92,2.92,0,0,0-1.15-.36,11.82,11.82,0,0,0-4,.63c-2,.53-5.11,2.36-9.19,5.46q-10.73,8.43-25.28,26.7c-.64,1.67-1.27,3.19-1.91,4.56s-1.28,2.72-1.92,4a5.4,5.4,0,0,1-2.58,2.06,3.53,3.53,0,0,1-3.16-.27,4,4,0,0,1-2.11-2.24,3.45,3.45,0,0,1,.19-3,81.53,81.53,0,0,0,3.45-7.43q1.73-4.22,4.41-10.49l.57-1.61a100.87,100.87,0,0,0,4-10.75,89.52,89.52,0,0,0,2.3-9,23.23,23.23,0,0,0,.38-7.07c-.26-1.85-.89-3-1.91-3.5H703a7.67,7.67,0,0,0-2.49.63,24.15,24.15,0,0,0-4.11,2.24,53.35,53.35,0,0,0-5.94,4.66A159.78,159.78,0,0,0,673,167.67q-9.76,11.75-21.64,28.58a4.65,4.65,0,0,1-3.64,1.79,6.6,6.6,0,0,1-1.91-.36q-3.26-1.78-1.92-5a286.88,286.88,0,0,0,14.17-46.94,3.94,3.94,0,0,1,1.82-2.51,4.14,4.14,0,0,1,3.16-.54,4.24,4.24,0,0,1,2.68,1.7,3.17,3.17,0,0,1,.57,2.78q-2.3,11.28-5.74,22.75,13.59-17.19,24.13-26.51,7.28-6.27,12.73-8.33a14.58,14.58,0,0,1,9.86-.63,8.76,8.76,0,0,1,4.5,3.58,13,13,0,0,1,2.2,4.84,27.8,27.8,0,0,1-.19,10.75q-1,4.83-2.49,10,2.88-3,5.56-5.46a67.13,67.13,0,0,1,5.36-4.39q11.87-9.14,19.91-7.88a10.11,10.11,0,0,1,4.88,1.88,16.18,16.18,0,0,1,2.59,2.59q3.82,6.28-1.72,21.15c-.39.95-1,2.39-1.82,4.3a54.58,54.58,0,0,0-2.21,6,40,40,0,0,0-1.34,5.73c-.25,1.73.13,2.9,1.15,3.49a5.32,5.32,0,0,0,2.87,0,24.45,24.45,0,0,0,5.94-2,29.34,29.34,0,0,0,12.06-9,42.36,42.36,0,0,0,5.36-8.6,43.92,43.92,0,0,0,1.92-5,3.52,3.52,0,0,1,1.91-2.24A4.72,4.72,0,0,1,777,163.82Z" transform="translate(0 -64.05)" style="fill:#231f20"/></svg>