<svg id="Layer_1" data-name="Layer 1" xmlns="http://www.w3.org/2000/svg" viewBox="0 0 755.33 267.23"><title>bayview</title><path d="M17.5,222.05q-3.91,0-5.54-2.4-2.28-3-.66-5.69,4.25-9.3,11.92-23.23T42.31,160q6.86-9.88,13.54-18.28t16.81-19.18q3.27-3.89,7-8.09L88,105.17q16-18,31.5-35.36t31.17-34.46a6,6,0,0,1,4.25-2,6.63,6.63,0,0,1,4.56,1.35,5.19,5.19,0,0,1,2.13,3.9,5.51,5.51,0,0,1-1.47,4.19q-15.34,17.08-31,34.31T97.47,112.37c-.65.8-1.31,1.55-2,2.24a21.84,21.84,0,0,0-1.63,2q8.16-1.8,18-4.34t19.75-5.55q9.94-3,19.74-6.29t18.61-6.89q12.73-5.1,22.19-9.29t17-7.94a137.08,137.08,0,0,0,13.7-7.8q6.21-4,12.73-8.84a59.94,59.94,0,0,0,5.88-5.54,44.75,44.75,0,0,0,5.87-7.79A33.31,33.31,0,0,0,251,37.45a13,13,0,0,0-.49-8.39q-2-5.7-15.67-9.89A95.28,95.28,0,0,0,222.48,16q-5.88-1-8.81-1.35A281.35,281.35,0,0,0,119,23.06,288.41,288.41,0,0,0,87.84,33.55,258.91,258.91,0,0,0,59,47.34a5.82,5.82,0,0,1-4.74.9,5.9,5.9,0,0,1-3.75-2.7,4.65,4.65,0,0,1-1-4.35,5.55,5.55,0,0,1,2.94-3.44A273.42,273.42,0,0,1,83,23.06a262,262,0,0,1,32.8-10.78,278.39,278.39,0,0,1,99.22-9q4.25.6,10.77,1.64a78.74,78.74,0,0,1,13.38,3.45q19.26,6.3,23.18,17.08a24.12,24.12,0,0,1,1.3,12.44,36.11,36.11,0,0,1-4.24,12.28,55.77,55.77,0,0,1-7.67,10.64,65.64,65.64,0,0,1-8.32,7.79q-6.85,5.1-13.71,9.29t-14.85,8.24q-8,4-17.63,8.25t-22,9.29A364.49,364.49,0,0,1,140.55,116a45.13,45.13,0,0,1,14.2,3.45,27.17,27.17,0,0,1,10.94,8.24q4.23,5.1,3.91,13.18t-7.18,15q-9.13,8.69-17.79,15.73a188.52,188.52,0,0,1-18.11,13,222.52,222.52,0,0,1-58.75,27.57,219.09,219.09,0,0,1-29,7.19Q26,221.44,17.5,222.05Zm63.32-90.8q-9.13,10.19-15.17,18T53.08,166.31q-8.8,12.58-15.18,23.52T27,209.46q7.5-.9,16.81-2.85t20.07-5.24a226.83,226.83,0,0,0,47.82-21.13A208.32,208.32,0,0,0,153.28,148q3.91-4.2,3.92-8.09t-1.31-5.4a15.27,15.27,0,0,0-8.16-5.54,53.72,53.72,0,0,0-7.5-1.65,143.49,143.49,0,0,0-31-.75,214.69,214.69,0,0,0-23.17,3.45,13.46,13.46,0,0,1-2.78.75C82.51,130.9,81.69,131.05,80.82,131.25Z" transform="translate(-10.62 -2.16)" style="fill:#231f20"/><path d="M319.74,115.66q2.61,3.9-1.3,7.49-5.24,4.5-8.65,7.35t-5.88,4.94a52.88,52.88,0,0,1-4.41,3.45c-1.3.9-2.61,1.85-3.91,2.84q-7.83,5.1-15.34,9a64.68,64.68,0,0,1-15.34,5.7,27.74,27.74,0,0,1-8.16,1.2,19.66,19.66,0,0,1-12.73-4.2,14.2,14.2,0,0,1-4.57-10.19c-1.09,1-2.24,2-3.43,2.85s-2.34,1.85-3.43,2.85q-5.22,3.58-11.91,7.64a26.5,26.5,0,0,1-13.87,4,12.35,12.35,0,0,1-6.53-1.79,11.74,11.74,0,0,1-3.92-5.1q-1.62-3.6-.32-10.19a31.43,31.43,0,0,1,2.45-7.49,44.2,44.2,0,0,1,4.4-7.49,34.22,34.22,0,0,1,3.27-4.65,48,48,0,0,1,6.36-6.29A55.57,55.57,0,0,1,222.64,111a64.51,64.51,0,0,1,14.85-5.25,54.71,54.71,0,0,1,9.14-.9,5.17,5.17,0,0,1,4.24,1.2,5,5,0,0,1,1.63,3.9,4.2,4.2,0,0,1-1.3,3.89,7.21,7.21,0,0,1-4.24,1.8H244a9.44,9.44,0,0,0-3.27.6,61.62,61.62,0,0,0-12.07,4.2,41.56,41.56,0,0,0-8,4.94,36.24,36.24,0,0,0-5.06,4.95c-1.3,1.6-2.28,2.89-2.94,3.89a36.61,36.61,0,0,0-2.93,5.25,35,35,0,0,0-2,5.24c-.66,2.6-.76,4.3-.33,5.1,1.53-.2,4-1.15,7.35-2.85a71.07,71.07,0,0,0,10.28-6.44q6.53-5.1,12.07-10.34t13.71-13.94c1.52-1.59,3-3.29,4.57-5.09a54.83,54.83,0,0,1,4.9-5.1,6.35,6.35,0,0,1,4.08-2.09,4.89,4.89,0,0,1,4.08,1.19q4.56,3.6,1,7.8c-.88.8-1.58,1.49-2.13,2.09s-1.14,1.2-1.79,1.8c-1.53,1.4-3,2.85-4.41,4.35a37.36,37.36,0,0,0-3.75,4.64q-6.21,8.4-6.37,13.49c-.11,3.4.28,5.49,1.15,6.29a7.25,7.25,0,0,0,4.4,1.2,24.07,24.07,0,0,0,5.39-.6q12.73-3.3,26.76-13.19,2.28-1.48,4.08-2.84c1.2-.9,2.61-2,4.25-3.45s3.53-3,5.71-4.94,5-4.25,8.48-7a5.18,5.18,0,0,1,4.25-1.2A6.57,6.57,0,0,1,319.74,115.66Z" transform="translate(-10.62 -2.16)" style="fill:#231f20"/><path d="M252.5,269.39A17.24,17.24,0,0,1,246,268.2a20.1,20.1,0,0,1-9-7.65A18.72,18.72,0,0,1,233.9,249q.33-18.28,27.09-35.36a162.91,162.91,0,0,1,18.28-9.59q8.81-3.9,13.71-5.7,4.57-1.8,8.65-3t8.64-2.4q1.65-3,2.94-5.85c.87-1.9,1.74-3.84,2.61-5.84q5.88-13.48,12.73-26.07a47.79,47.79,0,0,1-14.36,5.69,15.69,15.69,0,0,1-12.73-2.39,9.58,9.58,0,0,1-4.73-6.15,19.27,19.27,0,0,1-.16-7.49,32.77,32.77,0,0,1,1.95-6.89q1.32-3.15,2.29-5A139.66,139.66,0,0,1,310,117.46a100.26,100.26,0,0,1,8.48-11.09,6.33,6.33,0,0,1,3.92-2.1,6,6,0,0,1,6.53,5,4,4,0,0,1-1.31,3.75,95.9,95.9,0,0,0-7.83,10.33,110.15,110.15,0,0,0-8.16,14.24q-3.25,6.9-3.59,9.89a8.15,8.15,0,0,1-.16,1.2c-.11.6.05,1,.49,1.2a8.56,8.56,0,0,0,4.4.14q3.11-.45,8.65-3.44a74.87,74.87,0,0,0,19.26-15.28c2-2.2,3.8-4.25,5.55-6.15s3.48-3.84,5.22-5.84q2.61-3.6,5.39-7t5.38-7a7,7,0,0,1,3.92-2.24,5.08,5.08,0,0,1,4.24,1,5.14,5.14,0,0,1,2.45,3.29,4.58,4.58,0,0,1-.82,3.9c-1.52,2.2-3.15,4.49-4.89,6.89a84.66,84.66,0,0,1-6.2,7.49,318.12,318.12,0,0,0-18.93,29.22,273.34,273.34,0,0,0-15,30.42c-.44,1-.82,1.84-1.14,2.54s-.71,1.55-1.14,2.55q4.56-.9,9-1.65t9-1.65q17.63-3.3,35.57-6.59t35.91-6.89a5.25,5.25,0,0,1,4.24.6,5.78,5.78,0,0,1,2.61,3.59q1,5.1-4.57,6.6-18,3.28-35.74,6.59t-35.74,6.59q-7.83,1.8-14.2,2.7t-12.24,2.1a259,259,0,0,1-14.68,24.27,279.25,279.25,0,0,1-17,22.48q-2.59,3-6.85,7a54.27,54.27,0,0,1-9.79,7.34Q260,269.4,252.5,269.39Zm50.59-63.23c-1.08.4-2,.75-2.77,1.05s-1.68.65-2.77,1q-4.57,1.8-13.06,5.4a115.12,115.12,0,0,0-17,9Q263.94,225,260,228a68.89,68.89,0,0,0-7.18,6.29,29.37,29.37,0,0,0-5.22,7,16.23,16.23,0,0,0-2,7.64,12.77,12.77,0,0,0,1.3,5.84,6.78,6.78,0,0,0,3.92,3.45q3.6,1.49,12.4-3.9a44.23,44.23,0,0,0,8.16-6.14q3.6-3.45,5.88-5.85Q284.5,234,291,224.89T303.09,206.16Z" transform="translate(-10.62 -2.16)" style="fill:#231f20"/><path d="M381.42,163a8.38,8.38,0,0,1-5.22-1.5c-2.39-1.6-3.43-3.64-3.1-6.14a49,49,0,0,1,1.14-6.14A72.8,72.8,0,0,1,379,137.54q2.77-5.4,5.06-11.09a165.78,165.78,0,0,0,6.85-17.08,4.62,4.62,0,0,1,2.94-3,7.19,7.19,0,0,1,4.57-.3,4.85,4.85,0,0,1,3.26,2.55A6,6,0,0,1,402,113q-1.64,4.2-3.43,8.69t-3.75,8.69q-2.3,5.1-4.57,10a86.71,86.71,0,0,0-3.92,10c1.53-.79,3.32-1.84,5.39-3.14s4.84-3.25,8.32-5.85q7.17-5.09,13.22-9.89a113.25,113.25,0,0,0,13.54-13.18q4.9-5.1,11.75-20.38c1.52-3,3.92-4,7.18-3,3.48,1,4.79,3.1,3.92,6.3,0,.4.11,2,.33,4.79s1.84,5.1,4.89,6.9c.87.59,2.5.89,4.9.89a26.52,26.52,0,0,0,8.16-1.49,60.16,60.16,0,0,0,16-6.6,5.78,5.78,0,0,1,4.24-.75,7,7,0,0,1,3.92,2.25q2.94,4.2-1.63,7.49a79.36,79.36,0,0,1-18.93,8.09,60.69,60.69,0,0,1-10.94,1.8A19.81,19.81,0,0,1,448.33,122a16.29,16.29,0,0,1-6.2-5.7,54.31,54.31,0,0,1-3.1,5.1,39.18,39.18,0,0,1-3.1,3.89,143,143,0,0,1-15.18,14.24q-6.69,5.23-13.54,10.64c-2.18,1.6-4.52,3.19-7,4.79s-4.95,3.1-7.34,4.5a33.36,33.36,0,0,1-5.71,2.54A17.94,17.94,0,0,1,381.42,163Z" transform="translate(-10.62 -2.16)" style="fill:#231f20"/><path d="M555.06,115.06a4.14,4.14,0,0,1,1.14,3.9,6.22,6.22,0,0,1-2.44,3.59q-22.86,15.6-40.31,23.38t-23.67,10.19q-4.57,1.8-10.77,4.19a37.66,37.66,0,0,1-13.71,2.4q-6.19,0-9.46-3.59a7.8,7.8,0,0,1-2.61-5,18.62,18.62,0,0,1,.16-5.54,25.94,25.94,0,0,1,1.47-5.1c.65-1.59,1.2-2.79,1.63-3.59A85.27,85.27,0,0,1,465,126.45a90.9,90.9,0,0,1,11.91-13.63A120.12,120.12,0,0,1,487.5,104q4.56-3.6,8.16.59a4.44,4.44,0,0,1,1.47,3.75,5.06,5.06,0,0,1-2.12,3.75q-4.25,3.3-9.63,8.24a80.89,80.89,0,0,0-10.61,12.13q-6.52,8.7-8.32,13.34t-1.8,6.14c.65.2,2.4,0,5.22-.6a127,127,0,0,0,15.34-5.09q5.88-2.4,22.69-9.74t39-22.63a5.13,5.13,0,0,1,4.25-1A7,7,0,0,1,555.06,115.06ZM503.49,98.28a6.39,6.39,0,0,1-4.89-2.1,5.52,5.52,0,0,1-1.31-4.34,5.35,5.35,0,0,1,2.61-3.75l6.86-4.79a6.37,6.37,0,0,1,8.81,1.2,4.33,4.33,0,0,1,1.14,4,6.32,6.32,0,0,1-2.45,3.75l-7.18,5.09A7.3,7.3,0,0,1,503.49,98.28Z" transform="translate(-10.62 -2.16)" style="fill:#231f20"/><path d="M547.55,159.42q-9.79,0-14.36-5.1a15.42,15.42,0,0,1-3.43-6.89q-1.14-4.5,1.47-11.39a65.17,65.17,0,0,1,3.43-6.59c1.2-2,2-3.3,2.45-3.9A58.63,58.63,0,0,1,550,112.37a71.76,71.76,0,0,1,10.93-6.9c1.09-.39,2.45-.94,4.08-1.64a53.05,53.05,0,0,1,5.39-2,23.92,23.92,0,0,1,2.61-.6,34.43,34.43,0,0,1,3.59-.45,11.66,11.66,0,0,1,4.08.45,9.18,9.18,0,0,1,3.75,2.1,7.42,7.42,0,0,1,2.29,6.74,27.91,27.91,0,0,1-2.29,7.19,24.66,24.66,0,0,1-3.75,5.84,13,13,0,0,0-2.12,2.7l-2.61,2.4a47.74,47.74,0,0,1-5.23,4,55.45,55.45,0,0,1-7.67,4.35,45.2,45.2,0,0,1-9.95,3.3,43.5,43.5,0,0,1-5.55.89,24.51,24.51,0,0,1-5.55,0q-1.62,5.1,0,6.3c.44.6,1.85,1.05,4.25,1.35s5.76,0,10.11-1a122.17,122.17,0,0,0,18.93-6.3,178.65,178.65,0,0,0,21.55-11.38q3.58-2.1,5.71-3.45c1.41-.9,2.77-1.84,4.08-2.85s2.77-2.09,4.4-3.29,4-2.8,7-4.8a5.92,5.92,0,0,1,4.41-1.2,6.44,6.44,0,0,1,4.08,2.1,5.38,5.38,0,0,1,1,4,4.62,4.62,0,0,1-2.29,3.44q-4.58,3.3-7.18,5.1t-4.57,3.29c-1.3,1-2.72,2-4.24,3s-3.48,2.2-5.88,3.6a213.06,213.06,0,0,1-23.17,12.43,107,107,0,0,1-20.89,6.75A60.71,60.71,0,0,1,547.55,159.42ZM574,112.07c-1.09.4-2.24.8-3.43,1.2a46.12,46.12,0,0,0-4.4,1.79,48.55,48.55,0,0,0-4.25,2.4,68.68,68.68,0,0,0-5.87,4.05,53.82,53.82,0,0,0-5.23,4.49,8.74,8.74,0,0,0-2.61,3.75c.66.4,1.85.35,3.59-.15a25.86,25.86,0,0,0,5.72-2.55q3.09-1.8,6.36-3.9a40.91,40.91,0,0,0,5.55-4.19A20.23,20.23,0,0,0,574,112.07Z" transform="translate(-10.62 -2.16)" style="fill:#231f20"/><path d="M764.6,108.47a4.78,4.78,0,0,1,1.3,4,5.65,5.65,0,0,1-2.28,3.74q-6.86,4.8-12.4,7.94a57.28,57.28,0,0,1-10.12,4.65,32.23,32.23,0,0,1-18.93.3,18.12,18.12,0,0,1-11.43-7.79,75,75,0,0,1-11.42,15.43,105.3,105.3,0,0,1-14,12.14c-2.4,1.6-4.69,3-6.86,4.19s-4.35,2.3-6.53,3.3q-14,6.29-21.54,1.8a10.41,10.41,0,0,1-5.06-6.75,24.92,24.92,0,0,1-.49-7.34,107.43,107.43,0,0,1-11.75,9.29,60.58,60.58,0,0,1-14,7.19,25.21,25.21,0,0,1-5.88.9,10.5,10.5,0,0,1-5.87-1.5,8.51,8.51,0,0,1-3.43-8.09A43.7,43.7,0,0,1,606,142q1.63-4.18,3.27-7.94c1.09-2.49,2-4.34,2.61-5.54a96,96,0,0,1,15.34-23.68,7.15,7.15,0,0,1,4.08-1.79,4.89,4.89,0,0,1,4.08,1.19,5.62,5.62,0,0,1,2.28,3.6,4.58,4.58,0,0,1-1.3,3.9,85.22,85.22,0,0,0-7.67,10,83.09,83.09,0,0,0-6,10.93,88.38,88.38,0,0,0-4.9,11.24q-1.31,4.05-2,6.15a52.26,52.26,0,0,0,6-3,87.48,87.48,0,0,0,9.63-6.59,155.58,155.58,0,0,0,16.16-13.64q8.64-8.24,18.44-18.73a6.23,6.23,0,0,1,3.91-2.1,5.63,5.63,0,0,1,4.25,1.2q4.56,3.6,1,7.79l-1.63,1.5a45.52,45.52,0,0,0-3.92,4.2c-1.53,1.79-3.1,3.85-4.73,6.14a63.47,63.47,0,0,0-4.57,7.49,36.4,36.4,0,0,0-3.11,7.94q-1,4.2-.65,5.4a3.68,3.68,0,0,0,.65,1.5,3.19,3.19,0,0,0,2,0c.87-.2,1.91-.45,3.1-.75a24,24,0,0,0,4.74-1.95q2.61-1.2,5.55-2.85c2-1.09,3.8-2.25,5.54-3.44q18.93-12.6,28.4-36.56,1.63-4.2,6.85-3.3,5.22,1.2,4.25,5.69a16.26,16.26,0,0,0,.81,5.7,16.43,16.43,0,0,0,2.45,4.19,8.89,8.89,0,0,0,4.57,3q4.91,1.5,11.75-.45t19.26-10.94a4.49,4.49,0,0,1,4.08-1A8,8,0,0,1,764.6,108.47Z" transform="translate(-10.62 -2.16)" style="fill:#231f20"/></svg>