<svg id="Layer_1" data-name="Layer 1" xmlns="http://www.w3.org/2000/svg" viewBox="0 0 776.33 206.4"><title>beachfront</title><path d="M143.29,139.53a26,26,0,0,1-1.12,13.95,51.94,51.94,0,0,1-2.8,5.91,37.31,37.31,0,0,1-4.05,5.9A50,50,0,0,1,130,171.2c-1.87,1.75-3.66,3.32-5.38,4.69s-3.29,2.54-4.69,3.49l-3.36,2.28a146.65,146.65,0,0,1-14.69,8q-7.83,3.69-15.88,6.76t-15.94,5.26A135.92,135.92,0,0,1,55,205a118.14,118.14,0,0,1-12.94,1.49q-6.22.36-12,.36a141.58,141.58,0,0,1-15-.71,90.23,90.23,0,0,1-10.21-1.57,3.66,3.66,0,0,1-2.31-1.78,4.2,4.2,0,0,1-.49-2.91,4,4,0,0,1,1.75-2.42A3.38,3.38,0,0,1,6.76,197a62.38,62.38,0,0,0,7.62,1.28q4.83.56,11,.71t13.43-.22q7.27-.34,15.11-1.49a111.06,111.06,0,0,0,14.41-3.13q7.55-2.13,15.25-5t15.11-6.54q7.41-3.63,14-7.61c.56-.38,1.47-1,2.73-1.78a41.85,41.85,0,0,0,4.2-3.13q2.31-1.92,4.9-4.33a60.82,60.82,0,0,0,5-5.26q8.25-10.53,6.44-19.2a16.18,16.18,0,0,0-5-7.75,36.91,36.91,0,0,0-10.77-6.61,75.1,75.1,0,0,0-18-5.26,110.1,110.1,0,0,0-21.26-1.42,3.73,3.73,0,0,1-2.66-1.07,4,4,0,0,1-1.26-2.63,3.39,3.39,0,0,1,.91-2.7,3.91,3.91,0,0,1,2.59-1.28,29.77,29.77,0,0,0,6.78-1.71,86.87,86.87,0,0,0,8.68-3.69q4.68-2.28,9.93-5.05t10.56-5.76a48.61,48.61,0,0,0,7.56-5.12,49.57,49.57,0,0,0,6.29-6.11A23.65,23.65,0,0,0,134.06,79a7.58,7.58,0,0,0,.42-5.47c-.66-1.9-2.26-3.67-4.83-5.33A36.16,36.16,0,0,0,119.51,64a80.17,80.17,0,0,0-11.82-2.27c-4.06-.47-7.53-.76-10.42-.85s-5.9.07-9,.21-6.32.4-9.58.78a28.94,28.94,0,0,1-1.12,2.84Q75,70.78,72.65,76.47T67.82,88.2q-2.44,6-5,12.86t-5.52,15.22q-6.43,18.48-11.19,34t-8.12,29a3.25,3.25,0,0,1-2,2.49,4.2,4.2,0,0,1-2.65.36A4,4,0,0,1,31,180.33a3.54,3.54,0,0,1-.42-2.91q3.36-13.8,8.18-29.51t11.4-34.33q2.94-8.25,5.46-14.93T60.4,86Q62.71,80,65,74.48T69.85,63q-5.46.85-10.14,1.92c-3.13.71-5.76,1.4-7.91,2.06a3.54,3.54,0,0,1-2.94-.14,3.43,3.43,0,0,1-1.81-2.28,3.51,3.51,0,0,1,.14-2.93,4,4,0,0,1,2.23-1.94,85.51,85.51,0,0,1,9.52-2.53q5.73-1.21,12.45-2.24,7.13-1.16,13.78-1.58c4.42-.29,8.51-.39,12.24-.29.65,0,2.07,0,4.26.14s4.78.36,7.77.78,6.15,1,9.51,1.78a59,59,0,0,1,9.65,3.06,31.54,31.54,0,0,1,8.19,4.91,15.8,15.8,0,0,1,5,7.11q2.81,8.83-5.45,18.93A55.75,55.75,0,0,1,129,96.91a62,62,0,0,1-9,6.19q-5.59,3.14-10.49,5.76t-9.24,4.63A79.88,79.88,0,0,1,123,119.75a46.44,46.44,0,0,1,13.78,8.75A21.51,21.51,0,0,1,143.29,139.53Z" transform="translate(-2.07 -50.84)" style="fill:#231f20"/><path d="M214.08,126.37a9.61,9.61,0,0,1,.9,2.56,6.93,6.93,0,0,1-.35,3.7,14.17,14.17,0,0,1-3,5.47,45,45,0,0,1-5.18,5.26,59.23,59.23,0,0,1-5.94,4.55q-3.09,2.07-5.46,3.34a53,53,0,0,1-18.33,6.4,85.78,85.78,0,0,1-15,.85,43,43,0,0,0-5.88,14.08,17.26,17.26,0,0,0-.28,4.2,5.47,5.47,0,0,0,.84,2.77,5.37,5.37,0,0,0,2.59,1.63,14.53,14.53,0,0,0,3,.64,30.76,30.76,0,0,0,7.76-.49,54.53,54.53,0,0,0,9.86-2.78,71.27,71.27,0,0,0,11.12-5.4,89.62,89.62,0,0,0,11.68-8.25,3.84,3.84,0,0,1,2.8-.85,4,4,0,0,1,2.66,1.42,3.73,3.73,0,0,1,.77,2.85,4.63,4.63,0,0,1-1.33,2.7,91,91,0,0,1-10.84,7.68,104.22,104.22,0,0,1-11.26,5.9,63.48,63.48,0,0,1-11,3.76,43.18,43.18,0,0,1-10,1.28h-1.54a8,8,0,0,1-1.53-.14q-7.14-.57-10.64-5.12-3.76-4.83-2.23-13.36a49.3,49.3,0,0,1,4.12-11.38,82.05,82.05,0,0,1,7.49-12.22,94.15,94.15,0,0,1,10.42-11.59,59.52,59.52,0,0,1,11.26-8.46,54.54,54.54,0,0,1,9.16-4.2,39.33,39.33,0,0,1,9-2.06Q210.43,120,214.08,126.37Zm-11.34,9.95a31,31,0,0,0,3.85-4c.7-.94,1-1.65.77-2.13a2.15,2.15,0,0,0-1.54-1.07,12.44,12.44,0,0,0-3.22-.35,29.67,29.67,0,0,0-7.55,1.21,40.62,40.62,0,0,0-9.65,4.19q-9.79,5.69-18.47,16.64a67.26,67.26,0,0,0,11.54-1.42,46.65,46.65,0,0,0,12.94-5,59.79,59.79,0,0,0,6-3.84A62.91,62.91,0,0,0,202.74,136.32Z" transform="translate(-2.07 -50.84)" style="fill:#231f20"/><path d="M290,132.63a9.06,9.06,0,0,1-.42,2.84c-.28.85-.56,1.76-.84,2.7-.56,1.71-1.15,3.58-1.75,5.62s-1.19,4.1-1.75,6.18-1.1,4.13-1.61,6.12-1,3.84-1.33,5.54q-1.81,7.68-3,13.51t-2.44,12.37a4.05,4.05,0,0,1-1.54,2.42,3.58,3.58,0,0,1-2.94.71A3.43,3.43,0,0,1,270,189a4,4,0,0,1-.56-2.91q1.13-6.69,2.38-12.58t3.08-13.58a11.39,11.39,0,0,0,.21-1.14,7.6,7.6,0,0,1,.21-1.14q-2,2.13-4,4.13t-4,3.83q-8.39,7.26-15,12.09a105.51,105.51,0,0,1-12,7.68q-6.28,3.27-10.91,3.41h-1a10.62,10.62,0,0,1-5.24-1.14,11.87,11.87,0,0,1-3.15-2.41,13.14,13.14,0,0,1-2.1-3.7,13.63,13.63,0,0,1-.7-6.12,27.54,27.54,0,0,1,2.17-8.53,55.9,55.9,0,0,1,5-9.24,72,72,0,0,1,7.34-9.31,95.79,95.79,0,0,1,9.44-8.89,141.68,141.68,0,0,1,14.2-10.66A56.07,56.07,0,0,1,267,123q12.87-4.54,20.85,3.41a9.78,9.78,0,0,1,1.61,2.35A7.63,7.63,0,0,1,290,132.63Zm-12.59,10.24a38.34,38.34,0,0,0,2.58-4.2c.61-1.18,1.14-2.25,1.61-3.2.19-.47.42-1.06.7-1.78a2,2,0,0,0,0-1.77,4.93,4.93,0,0,0-2.52-2.06,10.54,10.54,0,0,0-4.19-.79,17.91,17.91,0,0,0-4.83.79,32.28,32.28,0,0,0-6.29,2.7,89.9,89.9,0,0,0-8.12,5q-4.54,3.14-10.28,7.82A86.14,86.14,0,0,0,237,154a63.37,63.37,0,0,0-6.51,8.39,50.62,50.62,0,0,0-4,7.53,18.55,18.55,0,0,0-1.61,6c0,.67,0,1.38.07,2.14a2.7,2.7,0,0,0,.77,1.84,3.48,3.48,0,0,0,2.23,1,8.39,8.39,0,0,0,3-.28,25.39,25.39,0,0,0,3.15-1.07c1-.43,2-.83,2.8-1.21a74.59,74.59,0,0,0,11.26-7.18q6.36-4.75,14.2-11.59a100.55,100.55,0,0,0,8.18-8.1A84.77,84.77,0,0,0,277.45,142.87Z" transform="translate(-2.07 -50.84)" style="fill:#231f20"/><path d="M354.94,132.34a3.65,3.65,0,0,1-1.95-1.49,4.16,4.16,0,0,1-.7-2.35,19.23,19.23,0,0,0-3.92.64,33.62,33.62,0,0,0-6.85,2.78,71.29,71.29,0,0,0-11.62,7.32,118.32,118.32,0,0,0-11.33,9.88c-.46.48-1.12,1.16-2,2.06s-1.81,2-2.93,3.34-2.27,2.8-3.43,4.41a45.21,45.21,0,0,0-3.15,5c-.56,1-1.12,2.18-1.68,3.41a18.77,18.77,0,0,0-1.26,3.77,12.73,12.73,0,0,0-.28,3.7,7.37,7.37,0,0,0,1,3.19,4.45,4.45,0,0,0,2.45,2,20.6,20.6,0,0,0,3.15.86,27.41,27.41,0,0,0,8.53-.22,56.31,56.31,0,0,0,10.7-2.84,73.86,73.86,0,0,0,11.69-5.54A77.36,77.36,0,0,0,353,163.91a3.05,3.05,0,0,1,2.72-.93,4,4,0,0,1,2.59,1.35,3.71,3.71,0,0,1,1,2.85,4,4,0,0,1-1.4,2.7,78.81,78.81,0,0,1-10.56,7.75,89,89,0,0,1-11.47,6,70.56,70.56,0,0,1-11.47,3.84,45.76,45.76,0,0,1-10.56,1.35c-.75,0-1.5,0-2.24-.07s-1.49-.12-2.24-.21q-7.69-1.29-10.91-6.26a16.74,16.74,0,0,1-2-11.37,32.86,32.86,0,0,1,4.06-10.81,63.88,63.88,0,0,1,7.06-10.17c2.57-3,4.45-5.09,5.67-6.32a114.35,114.35,0,0,1,12.52-10.81,94.55,94.55,0,0,1,12.8-8.1c1.58-.76,3.31-1.5,5.17-2.21a27.53,27.53,0,0,1,5.46-1.49,16.58,16.58,0,0,1,5.11-.07,8.24,8.24,0,0,1,4.26,1.92q2.81,2.42,1.26,7a4.2,4.2,0,0,1-2,2.35A3.37,3.37,0,0,1,354.94,132.34Z" transform="translate(-2.07 -50.84)" style="fill:#231f20"/><path d="M428.81,173.15c-.38,2.09-.63,3.91-.77,5.47a23.09,23.09,0,0,0,.07,4.77,4.13,4.13,0,0,0,.21,1,6.52,6.52,0,0,0,1.05,1.85,3.71,3.71,0,0,1,.77,2.84,4,4,0,0,1-1.33,2.56,3.87,3.87,0,0,1-2.38.86,4,4,0,0,1-3.08-1.42,13.37,13.37,0,0,1-2.94-7.11q-.14-2.85,0-5.55a47,47,0,0,1,.56-5.26l.28-1.42c.28-1.52.58-3.11.91-4.77s.72-3.5,1.19-5.54,1-4.41,1.68-7.11,1.49-5.85,2.52-9.45a122.63,122.63,0,0,0,2.94-12.52,8.19,8.19,0,0,0,.07-2.77,2.67,2.67,0,0,0-.49-1.07c-.47-.28-1.61-.16-3.43.36a34.73,34.73,0,0,0-7.91,4,76.76,76.76,0,0,0-7.69,5.55q-3.65,3-5.74,5-2.79,2.56-6.57,6.69t-8.25,9.81q-4.49,5.69-9.31,13a189.76,189.76,0,0,0-9.58,16.42,4.11,4.11,0,0,1-2,1.85,3.46,3.46,0,0,1-2.87-.14,4,4,0,0,1-1.95-2,4.15,4.15,0,0,1-.14-2.84q3.07-9,6-19.12t6-21.26q2.37-8.25,4.68-16.49T386.14,113q4.47-14.94,9.16-28.58t8.75-25.74a4.25,4.25,0,0,1,2-2.2,3.53,3.53,0,0,1,2.87-.07,4,4,0,0,1,2.24,1.92,3.5,3.5,0,0,1,.14,2.91q-4.06,12.09-8.74,25.67t-9.17,28.36q-2.51,8.1-4.82,16.28T384,147.84q-1,3.27-1.82,6.33t-1.68,6.18a162,162,0,0,1,11-13.72q5.1-5.61,8.46-8.88c1.58-1.52,3.71-3.32,6.36-5.41s5.44-4.07,8.33-6q11.61-7.53,18-5.12,5.17,2,5.46,8.11a30.3,30.3,0,0,1-.63,6.89C437,139,436.17,142.53,435,147c-1,3.51-1.87,6.56-2.52,9.17s-1.21,4.93-1.68,7-.83,3.83-1.11,5.4S429.09,171.63,428.81,173.15Z" transform="translate(-2.07 -50.84)" style="fill:#231f20"/><path d="M531.63,54a4.12,4.12,0,0,1,1.54,2.56,3.8,3.8,0,0,1-.56,2.84A4,4,0,0,1,530.09,61a3.62,3.62,0,0,1-2.8-.57,11.4,11.4,0,0,0-6-1.85,16.23,16.23,0,0,0-8,1.56q-17.49,8-29.94,41.38-1,2.85-1.95,5.54t-2,5.55c1.21,0,2.42,0,3.63-.14s2.47-.14,3.78-.14q5.88-.15,12.24-.22c4.24,0,8.33,0,12.24.22a4,4,0,0,1,2.66,1.35,3.46,3.46,0,0,1,1,2.77,4.16,4.16,0,0,1-1.33,2.7,3.36,3.36,0,0,1-2.73,1q-5.73-.28-11.89-.29t-12,.29c-1.58,0-3.22,0-4.89.07s-3.5.12-5.46.21q-3.36,10.09-6.44,19.76t-5.45,17.71q-2.38,8-4,13.79c-1.07,3.84-1.8,6.47-2.17,7.89-.46,1.61-.91,3.29-1.33,5L456,190.07q-3.22,12.93-7.07,28.72t-7.2,35.26a4,4,0,0,1-1.61,2.42,3.55,3.55,0,0,1-2.87.71,3.74,3.74,0,0,1-2.45-1.56,3.7,3.7,0,0,1-.63-2.85Q437.63,233,441.47,217t7.06-28.93l1.33-5.4q.63-2.56,1.33-5.12.56-2.13,2.1-7.54t3.77-13.08q2.25-7.68,5.18-16.92T468.4,121c-3.08.28-6,.62-8.82,1s-5.5.76-8.11,1.14h-.56a3.68,3.68,0,0,1-2.52-.85,4,4,0,0,1-1.26-2.42,3.47,3.47,0,0,1,.7-2.84,4,4,0,0,1,2.52-1.57q4.75-.7,9.86-1.35t11-1.06c.75-2.47,1.56-4.86,2.45-7.18s1.75-4.67,2.59-7q6.86-18.63,15.39-29.86T510.22,53a24.12,24.12,0,0,1,11.33-2.14A18.81,18.81,0,0,1,531.63,54Z" transform="translate(-2.07 -50.84)" style="fill:#231f20"/><path d="M568.56,124.67a11.38,11.38,0,0,1,1.12,8.67,3.5,3.5,0,0,1-1.61,2.42,3.83,3.83,0,0,1-2.87.56,3.39,3.39,0,0,1-2.38-1.63,4,4,0,0,1-.56-2.92c.38-1.61.26-2.72-.35-3.34a4.44,4.44,0,0,0-2-1.21,6.37,6.37,0,0,0-2.24-.21,19.5,19.5,0,0,0-3.92.78,38.92,38.92,0,0,0-5.67,2.07,33.57,33.57,0,0,0-7.48,4.76A151.9,151.9,0,0,0,526,148.2a156.79,156.79,0,0,0-16.3,20.12q-1.4,4.83-2.58,9.45c-.8,3.08-1.47,6.09-2,9a3.65,3.65,0,0,1-1.4,2.27,3.87,3.87,0,0,1-2.38.86,1.06,1.06,0,0,1-.42-.07.91.91,0,0,0-.42-.07,3.46,3.46,0,0,1-2.38-1.64,4,4,0,0,1-.56-2.91q1-5,2.31-10t2.73-9.95l1.47-5.05q.76-2.62,1.75-5.9,2.24-7.4,4.61-13.79t4.76-12.51a3.68,3.68,0,0,1,2-2.21A3.38,3.38,0,0,1,520,126a4.16,4.16,0,0,1,2.16,2.13,3.54,3.54,0,0,1-.06,3q-1.54,4.13-3.08,8.25T516,147.84a130.08,130.08,0,0,1,10.7-11.23q5.25-4.83,9.3-8.11a44.63,44.63,0,0,1,8.4-5.33,46.38,46.38,0,0,1,7.41-2.84,25.36,25.36,0,0,1,6-1,14.49,14.49,0,0,1,4.12.36A10,10,0,0,1,568.56,124.67Z" transform="translate(-2.07 -50.84)" style="fill:#231f20"/><path d="M627.59,136.75q.28,7.81-3.91,16.64a60.68,60.68,0,0,1-12.18,16.77,77.28,77.28,0,0,1-17.76,13.65q-9,4.84-16.51,4.84a19.07,19.07,0,0,1-6.29-1.07,12.73,12.73,0,0,1-5.46-3.77,17.41,17.41,0,0,1-4.2-9.52,26.28,26.28,0,0,1,1.54-11.95,50.19,50.19,0,0,1,6.23-12.3,84.32,84.32,0,0,1,10.56-12.58,66.06,66.06,0,0,1,11.12-9.17,44,44,0,0,1,11.68-5.47q12.74-4,19.87,2C625.63,127.56,627.41,131.54,627.59,136.75Zm-21.4,27.73q8-8.11,11-15.43t2.8-12a19.36,19.36,0,0,0-.63-3.35,6.4,6.4,0,0,0-1.89-3.05,10.06,10.06,0,0,0-6-1.71,25.91,25.91,0,0,0-3.21.21,17.89,17.89,0,0,0-3.64.93,42.49,42.49,0,0,0-10,4.83,55,55,0,0,0-9.58,7.82A74.64,74.64,0,0,0,575.55,154,48.81,48.81,0,0,0,570,164.76a22.92,22.92,0,0,0-1.26,7,9.66,9.66,0,0,0,2.38,6.82q1.81,2,5.73,2.28,4.62.13,12.38-3.49T606.19,164.48Z" transform="translate(-2.07 -50.84)" style="fill:#231f20"/><path d="M699.36,127.94a25.36,25.36,0,0,1-.14,7,58.05,58.05,0,0,1-1.89,9.39c-.89,3-1.7,6.16-2.45,9.38q-2.24,9.53-3.57,16.57t-1.61,9.59a18.8,18.8,0,0,0,.07,3.56,7.5,7.5,0,0,0,.91,3.12,4.41,4.41,0,0,1,.35,3,3.21,3.21,0,0,1-1.75,2.28,3.92,3.92,0,0,1-1.95.56,3.61,3.61,0,0,1-3.36-2,13.47,13.47,0,0,1-1.26-3.41,25.38,25.38,0,0,1-.56-3.41,19.06,19.06,0,0,1-.07-2.77c0-.81.07-1.3.07-1.5a56.36,56.36,0,0,1,.77-5.75q.63-3.63,1.47-7.68t1.68-7.82c.56-2.51,1-4.57,1.4-6.19q.84-4,2-7.89a58.58,58.58,0,0,0,1.89-8.46q1.26-6.25.42-6.82c-.84-.57-2.1-.59-3.77-.07a25.69,25.69,0,0,0-5.81,2.84,58,58,0,0,0-7,5.26,103.19,103.19,0,0,0-7.49,7.18Q654,158.65,645.29,169.31t-11.54,17.92a3.75,3.75,0,0,1-1.89,2.2,3.22,3.22,0,0,1-2.73.07,3.4,3.4,0,0,1-2.24-1.78,3.89,3.89,0,0,1-.28-2.91q2-7.53,4.41-14.93t5.39-16.07q2.37-6.39,4.61-11.8t4.48-10.66q.56-1.14,1-2.28c.32-.75.63-1.51.91-2.27a3.85,3.85,0,0,1,2.1-2.13,3.51,3.51,0,0,1,2.93.14,3.84,3.84,0,0,1,2.1,2.13,3.73,3.73,0,0,1-.14,3c-.28.76-.58,1.51-.91,2.27s-.68,1.52-1,2.28q-2.37,5.4-4.54,10.59t-4.27,11.44l-.84,2.28a22.66,22.66,0,0,0-.7,2.27q4.05-5,9-10.52t11.13-12.08q2.93-3.14,6.92-6.83a55.81,55.81,0,0,1,8.46-6.47,33.69,33.69,0,0,1,9-4,12.49,12.49,0,0,1,8.6.64,9.09,9.09,0,0,1,2.38,1.92A7.71,7.71,0,0,1,699.36,127.94Z" transform="translate(-2.07 -50.84)" style="fill:#231f20"/><path d="M774.62,83.57a3.58,3.58,0,0,1,2.65,1.14,3.83,3.83,0,0,1,0,5.41,4.1,4.1,0,0,1-2.65,1.27q-3.64,0-7.42.08c-2.52,0-5,.12-7.41.21l-7.28.28-7.27.29q-4.9,13.78-9,26.87-4.77,14.92-8.47,29.08t-6.5,26.66h-.14a40.37,40.37,0,0,0-1,6,29.91,29.91,0,0,0-.07,6.18,3.4,3.4,0,0,1-.77,2.85,4.28,4.28,0,0,1-2.59,1.56h-.42a3.8,3.8,0,0,1-2.59-.92,3.65,3.65,0,0,1-1.19-2.49,32.22,32.22,0,0,1-.21-4.62c.05-1.57.17-3,.35-4.41s.4-2.61.63-3.7a17.15,17.15,0,0,1,.63-2.34q2.8-12.51,6.51-26.88T729,116.7q1.82-5.82,3.85-11.8T737,92.82l-12.45.85q-6.16.42-12.32,1.14h-.42a3.41,3.41,0,0,1-2.44-1A4.44,4.44,0,0,1,708,91.25a3.56,3.56,0,0,1,.91-2.77A4.42,4.42,0,0,1,711.53,87q13.85-1.29,28.11-2.14,2.39-7,4.76-13.5T749,58.83a4.17,4.17,0,0,1,2.09-2.2,3.38,3.38,0,0,1,2.94.07,3.66,3.66,0,0,1,2.17,2,3.52,3.52,0,0,1-.07,3q-2,5.12-4,10.88T747.9,84.43c2-.19,3.91-.31,5.87-.36s3.92-.12,5.88-.21c2.42-.09,4.89-.17,7.41-.21S772.1,83.57,774.62,83.57Z" transform="translate(-2.07 -50.84)" style="fill:#231f20"/></svg>