<svg id="Layer_1" data-name="Layer 1" xmlns="http://www.w3.org/2000/svg" viewBox="0 0 630.26 264.85"><title>buttercup</title><path d="M118.17,155.4q.33,21.76-6,34.83T93.2,207a21.49,21.49,0,0,1-4.8,1c-1.71.14-3.47.22-5.29.22a64.84,64.84,0,0,1-7.76-.44c-2.4-.29-4.3-.58-5.68-.88a6.78,6.78,0,0,1-3.37-2A5.15,5.15,0,0,1,65,201.25V8.63a5.1,5.1,0,0,1,2.25-4.38,6.37,6.37,0,0,1,5.12-1.31A60.8,60.8,0,0,1,78.55,4.4a46.23,46.23,0,0,1,7.53,2.92,59.34,59.34,0,0,1,8,4.74,42.52,42.52,0,0,1,7.76,7.09,46.62,46.62,0,0,1,7.37,12.12,64.08,64.08,0,0,1,3.92,13.36,66.59,66.59,0,0,1,1,13.29,56,56,0,0,1-1.44,11.75q-3.84,16.8-17.45,30.38a64.37,64.37,0,0,1-5.44,5,33.81,33.81,0,0,1,12.88,9.2,58.33,58.33,0,0,1,8.81,13.36,67.45,67.45,0,0,1,5,14.6A62.9,62.9,0,0,1,118.17,155.4ZM77.51,99.61a65.32,65.32,0,0,0,15-14.67,49.22,49.22,0,0,0,8.08-17.6,43,43,0,0,0,1.2-8.84,53.49,53.49,0,0,0-.64-10.8,56.15,56.15,0,0,0-3-11.32A35,35,0,0,0,91.92,26a29,29,0,0,0-7-6.13,43.31,43.31,0,0,0-7.37-3.65Zm11.85,96.53a16.23,16.23,0,0,0,8.8-6.28,33.71,33.71,0,0,0,5-10.58A61.3,61.3,0,0,0,105.37,167a108.27,108.27,0,0,0,.32-11.32,56.86,56.86,0,0,0-1.36-11.1,55.72,55.72,0,0,0-4.57-13.14,49.57,49.57,0,0,0-6.24-9.64,21.45,21.45,0,0,0-10.25-7,18.77,18.77,0,0,0-5.76-.88v82.66c2,.2,4.19.29,6.48.29A15.57,15.57,0,0,0,89.36,196.14Z" transform="translate(-65.02 -2.85)" style="fill:#231f20"/><path d="M199.18,205.2a6.41,6.41,0,0,1-4.49,1.6,6.48,6.48,0,0,1-4.4-1.6,5.19,5.19,0,0,1-1.84-4.09v-2.34l-2.56,2.34a23.79,23.79,0,0,1-2.56,2A21,21,0,0,1,176.6,206a30.56,30.56,0,0,1-6.88.8,22.16,22.16,0,0,1-7.84-1.31q-9.28-3.21-14.25-14.31a42.79,42.79,0,0,1-2.8-9.86,48.6,48.6,0,0,1-.56-10.88V109.69a5.34,5.34,0,0,1,1.76-4,6.21,6.21,0,0,1,4.48-1.68,6.3,6.3,0,0,1,4.4,1.68,5.25,5.25,0,0,1,1.84,4v60.9c0,1.55.08,3.55.24,6a40,40,0,0,0,1.2,7.38,24.11,24.11,0,0,0,2.89,6.79,9.25,9.25,0,0,0,5.12,4.09,16.73,16.73,0,0,0,12.49-1.17,19.68,19.68,0,0,0,6.4-5,19.41,19.41,0,0,0,3.36-7.08V177.6q0-8.32-.08-17.09t-.08-16.21q-.16-8.48-.16-17t-.16-17.6a5.39,5.39,0,0,1,1.84-4.16,6.32,6.32,0,0,1,4.4-1.68,6.25,6.25,0,0,1,4.49,1.68,5.37,5.37,0,0,1,1.76,4q.15,9.21.16,17.67t.16,16.94q0,7.46.08,14.75t.08,15v27.16A5.31,5.31,0,0,1,199.18,205.2Z" transform="translate(-65.02 -2.85)" style="fill:#231f20"/><path d="M264.81,200.82a4.88,4.88,0,0,1-.08,4.3,5.9,5.9,0,0,1-3.44,3,24.71,24.71,0,0,1-8,1.31,30.5,30.5,0,0,1-6.33-.66,13.91,13.91,0,0,1-5.36-2.26,14.08,14.08,0,0,1-5.12-5.91,30.23,30.23,0,0,1-2.48-8.33,71.12,71.12,0,0,1-.81-9.78q-.08-5.19.08-10.15V110.86h-8.16a6.46,6.46,0,0,1-4.4-1.61,5.17,5.17,0,0,1-1.84-4.09,5.24,5.24,0,0,1,1.84-4,6.28,6.28,0,0,1,4.4-1.68h8.16V58A5.3,5.3,0,0,1,235,53.9a6.37,6.37,0,0,1,4.48-1.6,6.48,6.48,0,0,1,4.4,1.6A5.2,5.2,0,0,1,245.76,58V99.47h12.33a6.32,6.32,0,0,1,4.4,1.68,5.24,5.24,0,0,1,1.84,4,5.17,5.17,0,0,1-1.84,4.09,6.49,6.49,0,0,1-4.4,1.61H245.76v57.68q0,5.11-.24,10.15a52.21,52.21,0,0,0,.56,10.3,29.34,29.34,0,0,0,.72,4.09c.27,1,.51,1.75.72,2.33a3.23,3.23,0,0,0,.72,1.24l.72.66a5.33,5.33,0,0,0,3.29.8,12.48,12.48,0,0,0,4.56-.65,7,7,0,0,1,4.8.22A5.24,5.24,0,0,1,264.81,200.82Z" transform="translate(-65.02 -2.85)" style="fill:#231f20"/><path d="M320.36,200.82a4.85,4.85,0,0,1-.08,4.3,5.9,5.9,0,0,1-3.44,3,24.71,24.71,0,0,1-8,1.31,30.5,30.5,0,0,1-6.33-.66,13.91,13.91,0,0,1-5.36-2.26A14.08,14.08,0,0,1,292,200.6a30.23,30.23,0,0,1-2.48-8.33,69.63,69.63,0,0,1-.8-9.78q-.09-5.19.08-10.15V110.86h-8.17a6.46,6.46,0,0,1-4.4-1.61,5.17,5.17,0,0,1-1.84-4.09,5.24,5.24,0,0,1,1.84-4,6.28,6.28,0,0,1,4.4-1.68h8.17V58a5.29,5.29,0,0,1,1.76-4.09,6.37,6.37,0,0,1,4.48-1.6,6.48,6.48,0,0,1,4.4,1.6A5.2,5.2,0,0,1,301.31,58V99.47h12.33a6.32,6.32,0,0,1,4.4,1.68,5.24,5.24,0,0,1,1.84,4,5.17,5.17,0,0,1-1.84,4.09,6.49,6.49,0,0,1-4.4,1.61H301.31v57.68q0,5.11-.24,10.15a52.21,52.21,0,0,0,.56,10.3,29.34,29.34,0,0,0,.72,4.09c.27,1,.51,1.75.72,2.33a3.23,3.23,0,0,0,.72,1.24l.72.66a5.33,5.33,0,0,0,3.29.8,12.48,12.48,0,0,0,4.56-.65,7,7,0,0,1,4.8.22A5.24,5.24,0,0,1,320.36,200.82Z" transform="translate(-65.02 -2.85)" style="fill:#231f20"/><path d="M384.08,182.85a6.06,6.06,0,0,1,4,2.41,5.24,5.24,0,0,1,1,4.31q-1.29,6.44-4.48,10a26.31,26.31,0,0,1-5.93,5.19,22.93,22.93,0,0,1-6.4,2.41,31,31,0,0,1-6.24.66,27.77,27.77,0,0,1-4.73-.37c-1.44-.24-2.58-.46-3.44-.66A17.62,17.62,0,0,1,347.18,199a45.94,45.94,0,0,1-5.93-14.82,109.68,109.68,0,0,1-2.48-19.35q-.48-10.59-.48-21.25a63.14,63.14,0,0,1,1.12-10.73,49.64,49.64,0,0,1,4-12.49,30.28,30.28,0,0,1,9.45-12,21.63,21.63,0,0,1,13-4.16,28.68,28.68,0,0,1,7.92,1.17,23.3,23.3,0,0,1,7.52,3.72,22.55,22.55,0,0,1,5.93,6.79,27.59,27.59,0,0,1,3.28,10.37,59.91,59.91,0,0,1,.4,13.36,80.24,80.24,0,0,1-1.76,11.39,52.48,52.48,0,0,1-2.72,8.55,17.79,17.79,0,0,1-2.64,4.67,6.14,6.14,0,0,1-4.81,2.19H351.42q.31,2.93.56,5.7t.72,5.4a52.57,52.57,0,0,0,2.24,9.49,31.78,31.78,0,0,0,2.48,5.48,8.17,8.17,0,0,0,2.24,2.63,7.59,7.59,0,0,0,1.52.8,38.08,38.08,0,0,0,4.57.58,11.14,11.14,0,0,0,6.32-1.31q3.53-1.89,4.8-7.74a5.5,5.5,0,0,1,2.56-3.65A6.4,6.4,0,0,1,384.08,182.85ZM350.78,155H375c.43-1.16.93-2.67,1.52-4.51a42.37,42.37,0,0,0,1.44-6.26,61.11,61.11,0,0,0,.72-7.64,49.82,49.82,0,0,0-.48-8.8,16.78,16.78,0,0,0-1.84-6.18,12.33,12.33,0,0,0-3-3.71,10,10,0,0,0-3.68-1.82,15.31,15.31,0,0,0-3.76-.51,8.9,8.9,0,0,0-6.81,3.06,25.45,25.45,0,0,0-4.64,7.42,43.11,43.11,0,0,0-2.72,9.24,47.76,47.76,0,0,0-.88,8.36Z" transform="translate(-65.02 -2.85)" style="fill:#231f20"/><path d="M463.8,108.08a5.36,5.36,0,0,1,2.4,3.73,5.12,5.12,0,0,1-1.28,4.16,6.4,6.4,0,0,1-4.08,2.26,6.26,6.26,0,0,1-4.72-1.24,8.28,8.28,0,0,0-3.45-1.39,24.45,24.45,0,0,0-3-.22,21.22,21.22,0,0,0-7.28,1.25,18.09,18.09,0,0,0-6.16,3.72,18.58,18.58,0,0,0-4.41,6.21,22.83,22.83,0,0,0-1.84,8.69v68.49a5.31,5.31,0,0,1-1.76,4.09,7,7,0,0,1-8.88,0,5.19,5.19,0,0,1-1.84-4.09V106a5.25,5.25,0,0,1,1.84-4,6.71,6.71,0,0,1,8.88,0,5.38,5.38,0,0,1,1.76,4v5.4a5.19,5.19,0,0,0,.88-.66,5.72,5.72,0,0,1,.88-.65,29.8,29.8,0,0,1,8.25-4.46,29.29,29.29,0,0,1,9.68-1.53,33.71,33.71,0,0,1,7.29.8A18.41,18.41,0,0,1,463.8,108.08Z" transform="translate(-65.02 -2.85)" style="fill:#231f20"/><path d="M528,198.19a4.89,4.89,0,0,1,.56,4.31,5.71,5.71,0,0,1-3,3.43,23.22,23.22,0,0,1-11.52,2.77,27.88,27.88,0,0,1-3.53-.22q-1.76-.21-3.84-.51a29.36,29.36,0,0,1-12.88-5.33,44,44,0,0,1-13.21-17.23,59.89,59.89,0,0,1-2.08-5.84,35.52,35.52,0,0,1-1.12-4.75,20.64,20.64,0,0,1-.32-2.92c-.22-2-.4-4.28-.56-7s-.19-5.69-.08-8.91.34-6.57.72-10.07a62.26,62.26,0,0,1,2-10.37,49.13,49.13,0,0,1,4.72-11.47,40.67,40.67,0,0,1,6-8,27.76,27.76,0,0,1,6.65-5,34.2,34.2,0,0,1,6.48-2.71,42,42,0,0,1,19.37-.73,6.68,6.68,0,0,1,4,2.49,4.62,4.62,0,0,1,.8,4.23,5.4,5.4,0,0,1-2.64,3.65,6.11,6.11,0,0,1-4.72.73,43.22,43.22,0,0,0-5.6-.58,23.55,23.55,0,0,0-7.37,1,18.32,18.32,0,0,0-9.92,7,37.34,37.34,0,0,0-5.77,12.49,71.8,71.8,0,0,0-2.24,15.62,123.39,123.39,0,0,0,.48,16.58,29.78,29.78,0,0,0,1.36,6.42,42.33,42.33,0,0,0,3.45,8,27.57,27.57,0,0,0,5.92,7.37,17.37,17.37,0,0,0,9,4.16,22.85,22.85,0,0,0,6.73.37,12.55,12.55,0,0,0,3.68-1.1,6.61,6.61,0,0,1,4.72-.58A5.81,5.81,0,0,1,528,198.19Z" transform="translate(-65.02 -2.85)" style="fill:#231f20"/><path d="M611.08,205.2a6.41,6.41,0,0,1-4.48,1.6,6.49,6.49,0,0,1-4.41-1.6,5.22,5.22,0,0,1-1.84-4.09v-2.34l-2.56,2.34a22.85,22.85,0,0,1-2.56,2,21,21,0,0,1-6.72,2.85,30.71,30.71,0,0,1-6.89.8,22.2,22.2,0,0,1-7.84-1.31q-9.28-3.21-14.25-14.31a43.29,43.29,0,0,1-2.8-9.86,48.6,48.6,0,0,1-.56-10.88V109.69a5.34,5.34,0,0,1,1.76-4,6.23,6.23,0,0,1,4.48-1.68,6.33,6.33,0,0,1,4.41,1.68,5.28,5.28,0,0,1,1.84,4v60.9c0,1.55.08,3.55.24,6a40,40,0,0,0,1.2,7.38,24.09,24.09,0,0,0,2.88,6.79,9.25,9.25,0,0,0,5.12,4.09,16.73,16.73,0,0,0,12.49-1.17,19.57,19.57,0,0,0,6.4-5,19.25,19.25,0,0,0,3.36-7.08V177.6q0-8.32-.08-17.09t-.08-16.21q-.15-8.48-.16-17t-.16-17.6a5.42,5.42,0,0,1,1.84-4.16,6.33,6.33,0,0,1,4.41-1.68,6.24,6.24,0,0,1,4.48,1.68,5.37,5.37,0,0,1,1.76,4q.15,9.21.16,17.67t.16,16.94q0,7.46.08,14.75t.08,15v27.16A5.31,5.31,0,0,1,611.08,205.2Z" transform="translate(-65.02 -2.85)" style="fill:#231f20"/><path d="M689.84,117.14q5.45,12.12,5.45,35.48a82.71,82.71,0,0,1-1.77,17.24A60.17,60.17,0,0,1,688.24,185a38.26,38.26,0,0,1-9.2,12.49A22.59,22.59,0,0,1,667.27,203a6.27,6.27,0,0,1-1.28.14h-1.44a22.48,22.48,0,0,1-8.49-1.75V262a5.26,5.26,0,0,1-1.76,4.09,6.93,6.93,0,0,1-8.88,0,5.17,5.17,0,0,1-1.84-4.09V150.43a291.77,291.77,0,0,0-1.44-32.12c-.11-1.47-.19-2.9-.24-4.31s-.19-3-.4-4.6a6.11,6.11,0,0,1,.88-4.24,5.73,5.73,0,0,1,3.76-2.48,6.11,6.11,0,0,1,4.72.73,6,6,0,0,1,2.8,3.5q.17.74.24,1.32a8.77,8.77,0,0,1,.08,1.31,25.73,25.73,0,0,1,9.61-6.13,21.77,21.77,0,0,1,8.16-1.17,31.07,31.07,0,0,1,4.48,1,17.21,17.21,0,0,1,4.81,2.41,24.92,24.92,0,0,1,4.72,4.46A26.75,26.75,0,0,1,689.84,117.14Zm-24.49,74.91q3-.44,6.16-3.65a32.45,32.45,0,0,0,5.69-8.47,55.12,55.12,0,0,0,4.08-12.19,70.8,70.8,0,0,0,1.52-15.12q0-17.81-3.28-28.11t-9.21-10.88a6.86,6.86,0,0,0-1.92,0l-2,.37a10.2,10.2,0,0,0-2.48.8,13.68,13.68,0,0,0-4.64,3.21,26.28,26.28,0,0,0-4,6.28q.33,5.55.56,12.12t.24,14v37.83a10.21,10.21,0,0,0,2.65,3,6.63,6.63,0,0,0,2.64,1.17,6.45,6.45,0,0,0,2.32,0Z" transform="translate(-65.02 -2.85)" style="fill:#231f20"/></svg>