<svg id="Layer_1" data-name="Layer 1" xmlns="http://www.w3.org/2000/svg" viewBox="0 0 768.99 128.13"><title>classictype</title><path d="M8,125.88q0-21.36,12-35,12-14,30.87-14,16.6,0,29.79,11.56,2.17,1.77,2.18-1.36v-6.8a2,2,0,1,1,4.08,0v25.85a2,2,0,1,1-4.08,0V96.64a50.93,50.93,0,0,0-8.57-7.76Q63.09,81,50.85,81A35.08,35.08,0,0,0,23.11,93.78q-11,12.78-11,32.1,0,19.58,11.43,32.23t30.06,12.65q19.44,0,31.14-12.38a2,2,0,1,1,2.86,2.86q-13.87,13.6-34,13.6-20.55,0-33.06-13.74Q8,147,8,125.88Z" transform="translate(-6.51 -75.41)" style="fill:#231f20;stroke:#231f20;stroke-miterlimit:10;stroke-width:3px"/><path d="M99.27,169.4h9.52a1.8,1.8,0,0,0,2-2v-83a1.8,1.8,0,0,0-2-2H99.27a2,2,0,0,1,0-4.08h13.6a1.8,1.8,0,0,1,2,2v87.05a1.8,1.8,0,0,0,2,2h9.52a2,2,0,1,1,0,4.08H99.27a2,2,0,1,1,0-4.08Z" transform="translate(-6.51 -75.41)" style="fill:#231f20;stroke:#231f20;stroke-miterlimit:10;stroke-width:3px"/><path d="M167.14,104.12q11.43,0,18.36,6.52a20.5,20.5,0,0,1,6.94,15.92v40.8a1.8,1.8,0,0,0,2,2H204a2,2,0,0,1,0,4.08H190.4a1.8,1.8,0,0,1-2-2v-7.62c0-1-.19-1.63-.55-1.9s-.9-.09-1.63.54a37.54,37.54,0,0,1-9.93,8.44,29.5,29.5,0,0,1-15.09,3.94q-11.57,0-18-5.71a18.75,18.75,0,0,1-6.46-14.69q0-8.7,7.42-14.55T163.88,134h22.44a1.8,1.8,0,0,0,2-2v-5.44a16.72,16.72,0,0,0-6-13.13q-6-5.24-15.23-5.23-13,0-22,6.93c-1.18.91-2.13.82-2.86-.27s-.73-2,.27-2.72Q152.45,104.12,167.14,104.12Zm21.22,48.28V140.16a1.8,1.8,0,0,0-2-2H163.88q-11.43,0-17.28,4.49a14.18,14.18,0,0,0-5.85,11.83,14.63,14.63,0,0,0,5.38,11.83q5.37,4.48,15,4.49,11.15,0,20.26-9.11A41.25,41.25,0,0,0,188.36,152.4Z" transform="translate(-6.51 -75.41)" style="fill:#231f20;stroke:#231f20;stroke-miterlimit:10;stroke-width:3px"/><path d="M248.34,170.76q11.55,0,18-4.08t6.46-10.88q0-6.12-5.85-9.38-4.62-2.59-17.89-4.63t-16.25-2.86q-7.62-2.16-11.7-6.05t-4.08-11.08q0-7.08,7.35-12.38t19.86-5.3q13.45,0,23.66,10.2c.82.72,1.38.9,1.7.54a2.9,2.9,0,0,0,.48-1.9v-5.44a2,2,0,0,1,4.08,0v21.76a2,2,0,0,1-4.08,0v-6.8a43.11,43.11,0,0,0-6.8-7.08q-8.85-7.2-19-7.2-11.16,0-17.14,4t-6,9.59a11.33,11.33,0,0,0,5.44,10.06,31.94,31.94,0,0,0,9.19,3.54q5.64,1.36,13.53,2.51c5.26.78,9.11,1.43,11.56,2q7.62,1.77,11.83,5.44c2.81,2.44,4.22,5.94,4.22,10.47q0,8.43-7.35,13.74t-21.21,5.3a34,34,0,0,1-14.22-3.06,36.4,36.4,0,0,1-10.81-7.14q-2.17-2.17-2.18,1.36v5.44a2,2,0,0,1-4.08,0V149.68a2,2,0,1,1,4.08,0v6.8a34.43,34.43,0,0,0,6.8,7.21A31.43,31.43,0,0,0,248.34,170.76Z" transform="translate(-6.51 -75.41)" style="fill:#231f20;stroke:#231f20;stroke-miterlimit:10;stroke-width:3px"/><path d="M323.68,170.76q11.56,0,18-4.08t6.46-10.88q0-6.12-5.84-9.38-4.63-2.59-17.89-4.63t-16.25-2.86q-7.62-2.16-11.7-6.05T292.4,121.8q0-7.08,7.35-12.38t19.85-5.3q13.47,0,23.67,10.2c.81.72,1.38.9,1.7.54a3,3,0,0,0,.47-1.9v-5.44a2,2,0,1,1,4.08,0v21.76a2,2,0,1,1-4.08,0v-6.8a42.31,42.31,0,0,0-6.8-7.08q-8.83-7.2-19-7.2-11.14,0-17.13,4t-6,9.59a11.31,11.31,0,0,0,5.44,10.06,32,32,0,0,0,9.18,3.54c3.76.91,8.28,1.74,13.53,2.51s9.12,1.43,11.57,2q7.6,1.77,11.83,5.44c2.81,2.44,4.21,5.94,4.21,10.47q0,8.43-7.34,13.74t-21.22,5.3a34,34,0,0,1-14.21-3.06,36.4,36.4,0,0,1-10.81-7.14q-2.18-2.17-2.18,1.36v5.44a2,2,0,1,1-4.08,0V149.68a2,2,0,0,1,4.08,0v6.8a34.43,34.43,0,0,0,6.8,7.21A31.39,31.39,0,0,0,323.68,170.76Z" transform="translate(-6.51 -75.41)" style="fill:#231f20;stroke:#231f20;stroke-miterlimit:10;stroke-width:3px"/><path d="M393.86,169.4a2,2,0,0,1,0,4.08h-27.2a2,2,0,0,1,0-4.08h9.52a1.8,1.8,0,0,0,2-2V111.6a1.8,1.8,0,0,0-2-2h-9.52a2,2,0,0,1,0-4.08h13.6a1.8,1.8,0,0,1,2,2v59.84a1.8,1.8,0,0,0,2,2ZM380,94.59a1.92,1.92,0,0,1-2.18-2.17V83c0-1.54.73-2.31,2.18-2.31A2.32,2.32,0,0,1,382.3,83v9.39a2,2,0,0,1-.68,1.56A2.34,2.34,0,0,1,380,94.59Z" transform="translate(-6.51 -75.41)" style="fill:#231f20;stroke:#231f20;stroke-miterlimit:10;stroke-width:3px"/><path d="M436.57,174.84q-14.42,0-23.12-9.79-8.85-10.06-8.84-25.57T413.17,114a27.1,27.1,0,0,1,21.36-9.92q13.46,0,23.66,10.2c1.45,1.36,2.18.9,2.18-1.36v-5.44a2,2,0,1,1,4.08,0v21.76a2,2,0,1,1-4.08,0v-6.8a42.21,42.21,0,0,0-6.8-7.08q-8.85-7.2-19-7.2a23.45,23.45,0,0,0-18.5,8.7q-7.35,8.7-7.34,22.58,0,14.28,7.75,22.85t20.13,8.43a36,36,0,0,0,12-1.9,30.33,30.33,0,0,0,7.61-3.54q2.18-1.63,5.31-4.35c.9-.73,1.9-.55,3,.54.91,1.09.86,2-.14,2.86Q452.9,174.84,436.57,174.84Z" transform="translate(-6.51 -75.41)" style="fill:#231f20;stroke:#231f20;stroke-miterlimit:10;stroke-width:3px"/><path d="M466.76,100V80.31a1.8,1.8,0,0,1,2-2h73.45a1.8,1.8,0,0,1,2,2V100a2,2,0,0,1-4.08,0V84.39a1.8,1.8,0,0,0-2-2H509.61a1.8,1.8,0,0,0-2,2v83a1.8,1.8,0,0,0,2,2h9.52a2,2,0,0,1,0,4.08h-27.2a2,2,0,1,1,0-4.08h9.52a1.81,1.81,0,0,0,2-2v-83a1.81,1.81,0,0,0-2-2H472.88a1.8,1.8,0,0,0-2,2V100a2,2,0,1,1-4.08,0Z" transform="translate(-6.51 -75.41)" style="fill:#231f20;stroke:#231f20;stroke-miterlimit:10;stroke-width:3px"/><path d="M556.12,202q-10.74,0-16.86-7.75c-1.18-1.18-1.28-2.22-.28-3.13a1.84,1.84,0,0,1,2.86,0q6.79,6.79,14.28,6.8a13.49,13.49,0,0,0,10.47-4.49q4.08-4.49,8.16-15.23l1.37-3.54a5.18,5.18,0,0,0,0-3.26L548,111.6a3,3,0,0,0-2.72-2H536.4a2,2,0,1,1,0-4.08h25.84a2,2,0,0,1,0,4.08h-8.43c-1.63,0-2.09.68-1.36,2l25.7,53.72q.69,1.91,1.5,0l20.81-53.72c.63-1.36.18-2-1.36-2h-8.43a2,2,0,1,1,0-4.08h25.84a2,2,0,0,1,0,4.08h-8.84c-1.09,0-2,.68-2.72,2l-25.84,66.64q-5.31,13.19-10.07,18.5T556.12,202Z" transform="translate(-6.51 -75.41)" style="fill:#231f20;stroke:#231f20;stroke-miterlimit:10;stroke-width:3px"/><path d="M659.08,173.48H640.72a1.8,1.8,0,0,0-2,2v19a1.8,1.8,0,0,0,2,2H651.6a2,2,0,0,1,0,4.08H623a2,2,0,1,1,0-4.08h9.52a1.8,1.8,0,0,0,2-2v-83a1.8,1.8,0,0,0-2-2H623a2,2,0,1,1,0-4.08h13.6a1.8,1.8,0,0,1,2,2v7.61c0,1,.18,1.63.54,1.91s.91.09,1.63-.55a39.48,39.48,0,0,1,9.8-8.29,28.57,28.57,0,0,1,15.23-4.08q13.61,0,21.76,9.52t8.16,26.52q0,15.51-9.72,24.41T659.08,173.48Zm-18.36-4.08h18.36q15.63,0,24.14-7.62t8.5-21.62q0-15.24-7-23.6t-18.84-8.36q-11,0-20.27,9.24a42.24,42.24,0,0,0-6.93,9.12v40.8A1.8,1.8,0,0,0,640.72,169.4Z" transform="translate(-6.51 -75.41)" style="fill:#231f20;stroke:#231f20;stroke-miterlimit:10;stroke-width:3px"/><path d="M742,170.76a36,36,0,0,0,12-1.9,30.26,30.26,0,0,0,7.62-3.54q2.18-1.63,5.3-4.35c.91-.73,1.91-.55,3,.54.91,1.09.87,2-.13,2.86Q758.36,174.84,742,174.84q-14.28,0-23.12-9.79-8.83-10.06-8.84-25.57t8.84-25.57q8.83-9.8,23.12-9.79,14,0,23,9a29.51,29.51,0,0,1,9,21.63v2q0,4.08-4.08,4.08H716.34c-1.46,0-2.13.68-2,2q.81,11.84,7.61,19.45Q729.67,170.76,742,170.76Zm-27.61-36c-.18,1.36.45,2,1.91,2h51.54a1.8,1.8,0,0,0,2-2,25,25,0,0,0-8-18.64Q754,108.21,742,108.2q-12.37,0-20.13,8.7A30.24,30.24,0,0,0,714.43,134.72Z" transform="translate(-6.51 -75.41)" style="fill:#231f20;stroke:#231f20;stroke-miterlimit:10;stroke-width:3px"/></svg>