<svg id="Layer_1" data-name="Layer 1" xmlns="http://www.w3.org/2000/svg" viewBox="0 0 695.72 266.81"><title>freehand</title><path d="M156.43,35.53Q172,40.81,176,63.18a1,1,0,0,1,.27.75,3.56,3.56,0,0,1-1.19,2.64A4.27,4.27,0,0,1,172,67.7a3.84,3.84,0,0,1-2.51-1,4,4,0,0,1-1.45-2.26q-3.18-18.09-14.29-21.61a15.5,15.5,0,0,0-5.55-1q-9.27,0-19.85,8.29Q112.26,62.68,98.23,90.94t-20.9,69.23q28-5.26,49.2-5.27c3.71,0,7.32.17,10.85.5a3.94,3.94,0,0,1,2.78,1.13,3.52,3.52,0,0,1,0,5.28,4.27,4.27,0,0,1-3,1.13h-.26c-3.17-.17-6.53-.25-10-.25q-21.17,0-50.79,5.53a359.82,359.82,0,0,0-2.91,48q0,21.61,2.11,49.76h.27v.25a3.53,3.53,0,0,1-1.19,2.64A4.27,4.27,0,0,1,71.24,270a3.84,3.84,0,0,1-2.51-1,4,4,0,0,1-1.45-2.26v-.25a77.34,77.34,0,0,0-2-14.7,106.53,106.53,0,0,0-4.5-14.57q-2.77-7.17-5-12.32t-6-12.44q-3.7-7.29-5-10.55-5.55-12.06-5.55-18.6a16.54,16.54,0,0,1,.79-5,15.79,15.79,0,0,1,7.14-9.3q5.3-3.51,14.55-5.53,3.44-.75,7.14-1.51,6.89-43.73,21.56-73.75t32.94-44.1q13-9.81,24.87-9.8h.26A24.83,24.83,0,0,1,156.43,35.53ZM67.54,170a9.56,9.56,0,0,0-2,.37c-1,.25-1.72.47-2.25.63q-7.94,1.52-11.91,4.27a8.5,8.5,0,0,0-4,5,13.18,13.18,0,0,0-.27,2.76q0,5.53,4.76,15.58,1.07,2.76,5.82,12.19a168.8,168.8,0,0,1,7.15,15.71V215.71A361.71,361.71,0,0,1,67.54,170Z" transform="translate(-39.24 -3.18)" style="fill:#231f20"/><path d="M173.35,138.06h.27a3.94,3.94,0,0,1,2.78,1.13,3.56,3.56,0,0,1,1.19,2.64v.75q-6.89,33.43-9.79,57.3Q180,174.5,187.11,163.44q5.82-9.28,10.32-11.56a6.52,6.52,0,0,1,7.14-.25,11.23,11.23,0,0,1,3.7,5.53v1a113,113,0,0,0,1.59,15.08q1,6.28,3.18,8.55,1.58,1.5,4.49.75,5.29-1.26,14-8.54a3.71,3.71,0,0,1,2.65-1,3.94,3.94,0,0,1,2.78,1.13,3.55,3.55,0,0,1,1.19,2.64,4,4,0,0,1-1.33,3,75.28,75.28,0,0,1-9.12,6.78,30.6,30.6,0,0,1-7.81,3.52,15.29,15.29,0,0,1-4,.5,11.61,11.61,0,0,1-9-3.77q-3.44-4-5-12.31a114.84,114.84,0,0,1-1.58-15.33,56.3,56.3,0,0,0-6.35,8.29q-9.53,14.83-29.1,57.3a3.76,3.76,0,0,1-3.7,2.26,4.27,4.27,0,0,1-3.05-1.13,3.56,3.56,0,0,1-1.19-2.64V223q3.18-34.93,12.7-81.92A3.35,3.35,0,0,1,173.35,138.06Z" transform="translate(-39.24 -3.18)" style="fill:#231f20"/><path d="M262.77,129.52a5.87,5.87,0,0,1,3.17,1,7.3,7.3,0,0,1,3.44,5,17.32,17.32,0,0,1,0,6q-1.32,7-7.14,16.58a54.52,54.52,0,0,1-10.58,12.69A43.36,43.36,0,0,1,239,179a64.34,64.34,0,0,0-1.85,14.33q0,11,5,13.82a5.6,5.6,0,0,0,3.44,1q5.3,0,13-4.52,14.3-8.29,34.66-30.16a3.6,3.6,0,0,1,2.91-1.25,4.21,4.21,0,0,1,3,1.13,3.5,3.5,0,0,1,1.19,2.64,3.31,3.31,0,0,1-1.06,2.51q-21.16,22.86-36.5,31.66-9.79,5.53-17.2,5.53A16.62,16.62,0,0,1,237.9,214q-9-5-9-20.6,0-12.57,6-29.66a114.44,114.44,0,0,1,8.05-16.58Q248.48,137.56,254,133a22.13,22.13,0,0,1,5.55-3.26A20,20,0,0,1,262.77,129.52Zm-1.59,8a4.84,4.84,0,0,0-2.12,1.25q-4.5,3.78-9.52,12.07a99.78,99.78,0,0,0-7.14,15.33,6.83,6.83,0,0,0-.8,2,51.34,51.34,0,0,0,13.23-13.83q5-8.28,6.35-14.07A7.4,7.4,0,0,0,261.18,137.56Z" transform="translate(-39.24 -3.18)" style="fill:#231f20"/><path d="M323.61,129.52a5.85,5.85,0,0,1,3.17,1,7.27,7.27,0,0,1,3.44,5,17.32,17.32,0,0,1,0,6q-1.32,7-7.14,16.58a54.52,54.52,0,0,1-10.58,12.69A43.24,43.24,0,0,1,299.8,179,64.93,64.93,0,0,0,298,193.35q0,11,5,13.82a5.57,5.57,0,0,0,3.44,1q5.28,0,13-4.52,14.28-8.29,34.65-30.16a3.62,3.62,0,0,1,2.91-1.25,4.21,4.21,0,0,1,3,1.13,3.5,3.5,0,0,1,1.19,2.64,3.34,3.34,0,0,1-1.05,2.51q-21.18,22.86-36.51,31.66-9.8,5.53-17.19,5.53a16.64,16.64,0,0,1-7.68-1.76q-9-5-9-20.6,0-12.57,6-29.66a114.28,114.28,0,0,1,8-16.58q5.55-9.56,11.11-14.08a22,22,0,0,1,5.56-3.26A19.83,19.83,0,0,1,323.61,129.52Zm-1.59,8a4.81,4.81,0,0,0-2.11,1.25q-4.5,3.78-9.53,12.07a100.74,100.74,0,0,0-7.14,15.33,6.65,6.65,0,0,0-.79,2,51.29,51.29,0,0,0,13.22-13.83q5-8.28,6.35-14.07A7,7,0,0,0,322,137.56Z" transform="translate(-39.24 -3.18)" style="fill:#231f20"/><path d="M453,172.74a4,4,0,0,1,1.85,5.53,69.22,69.22,0,0,1-7,10.3,62.84,62.84,0,0,1-8.33,8.54q-6.89,6.28-11.64,7.17c-3.18.58-5.65.46-7.41-.38a19.31,19.31,0,0,1-9.39-8,32.7,32.7,0,0,1-4-11.94,73.66,73.66,0,0,1-.53-14.07c.27-4.94.57-9.68.93-14.2q.52-4.28.79-8.29a45.72,45.72,0,0,0,0-7,9.91,9.91,0,0,0-1.06-5.53c-.35.34-1,1.05-2,2.14a32.74,32.74,0,0,0-3.57,5.4q-2.65,4.28-6.09,10.43t-8.2,15.71l-15.87,30.15q-4,7.29-7.14,13.45t-5.82,11.18a4.27,4.27,0,0,1-4,2.51,4.9,4.9,0,0,1-3-1.13,3.75,3.75,0,0,1-1.46-3.14q1.06-23.62,3.18-46.74a12.58,12.58,0,0,0,.26-2.51,6.09,6.09,0,0,1,.27-2,780.91,780.91,0,0,1,11.9-77.4Q367,87.06,369.11,77t5-21.36q3.44-14.07,6.34-23.63a65.11,65.11,0,0,1,4.37-10.42,11.46,11.46,0,0,1,3.31-3.9,4.53,4.53,0,0,1,4-.75,22.69,22.69,0,0,1,3.71,1.63,11.51,11.51,0,0,1,4,3.9,32.19,32.19,0,0,1,3.3,11.3,74.29,74.29,0,0,1,.13,16.09,161,161,0,0,1-3,19.6,213.34,213.34,0,0,1-5.95,21.86q-3.18,9.56-7.41,20t-8.73,21q-4.5,10.31-8.59,20.48T362.23,172q-.53,7.29-1.19,14.82t-1.19,15.08c.7-1.18,1.32-2.31,1.85-3.39s1.15-2.31,1.85-3.65q3.7-6.78,7.68-14.32t8.2-15.58q5.81-11.31,9.52-18.22a128.16,128.16,0,0,1,6.61-11.18,49,49,0,0,1,5.69-6.79,8.12,8.12,0,0,1,7-2.51,11,11,0,0,1,3.44,1.26,8.22,8.22,0,0,1,3.18,3.51,14.58,14.58,0,0,1,2.11,7.29,69.38,69.38,0,0,1,0,8.42q-.27,4.65-.79,9.68c-.36,3.85-.66,7.87-.93,12.06a77.27,77.27,0,0,0,.13,11.93,30.14,30.14,0,0,0,2.52,9.93,11.64,11.64,0,0,0,5.95,6c.53.17,1.63-.09,3.31-.75a25,25,0,0,0,6.48-4.53,67.12,67.12,0,0,0,13.49-16.83,3.92,3.92,0,0,1,2.51-2A3.88,3.88,0,0,1,453,172.74ZM374.14,94.59q-2.13,10.55-4,21.11t-3.44,21.1l3.17-7.53q4.5-10.56,8.73-20.86t7.14-19.6a183.31,183.31,0,0,0,6-20.61,120.14,120.14,0,0,0,2.77-18.85A108.2,108.2,0,0,0,395,37.92a22.39,22.39,0,0,0-2.91-11.43,76.26,76.26,0,0,0-3.7,9.67Q386,43.33,382.34,58.9q-2.93,10.82-4.9,20.48T374.14,94.59Z" transform="translate(-39.24 -3.18)" style="fill:#231f20"/><path d="M539.73,172.49a4.56,4.56,0,0,1,1.72,2.64,3.37,3.37,0,0,1-.92,3.14q-13.23,16.83-22,24.5t-14.81,7.66a15.47,15.47,0,0,1-3.18-.5,10.45,10.45,0,0,1-7-6.66,43.43,43.43,0,0,1-2.25-9.67c-.18-2.85-.26-6.08-.26-9.68s.17-7.75.53-12.44q-2.13,4-4.63,8.17t-5.43,8.42a95.93,95.93,0,0,1-8.46,9.92,124.13,124.13,0,0,1-9.26,8.67q-9.8,7.78-15.87,7.79a11.37,11.37,0,0,1-4.76-1.25c-2.47-1.35-3.88-4.19-4.24-8.55a41.32,41.32,0,0,1,1.86-12.81,96.06,96.06,0,0,1,5.82-15.33q9-19.09,23-28.15,7.67-5,14-5.9a55.85,55.85,0,0,1,10.58-.63,28.09,28.09,0,0,1,4.63.38q2.25.38,2.52,3.89c-.18,2.52-.32,4.9-.4,7.16s-.13,4.57-.13,6.91q-1.07,18.36-1.06,29.53t3.7,12.44a2.81,2.81,0,0,0,2.12-.5,14.15,14.15,0,0,0,3-1.76c1.14-.84,2.69-2.1,4.63-3.77a83.65,83.65,0,0,0,9.26-9.3q5-5.77,11.11-13.57a5,5,0,0,1,2.91-1.63A3.37,3.37,0,0,1,539.73,172.49ZM490,153.14a3.84,3.84,0,0,0,.66-1.64,3.85,3.85,0,0,1,.66-1.63,69.14,69.14,0,0,0-7.54,1,23.89,23.89,0,0,0-9.12,4.27A48.69,48.69,0,0,0,462.36,167a77.23,77.23,0,0,0-9.66,17.09,52.5,52.5,0,0,0-4.5,15.08,25.21,25.21,0,0,0-.53,4.52,5.85,5.85,0,0,0,.27,2.26,10.63,10.63,0,0,0,3.57-1.13,38.85,38.85,0,0,0,7-4.65,86.59,86.59,0,0,0,8.2-7.79,116,116,0,0,0,7.67-9.05,90.62,90.62,0,0,0,9.39-15.83Q487.62,159.17,490,153.14Z" transform="translate(-39.24 -3.18)" style="fill:#231f20"/><path d="M546.34,136.8a3.92,3.92,0,0,1,2.78,1.13,3.53,3.53,0,0,1,1.19,2.64,2.2,2.2,0,0,1-.26,1q-8.2,32.67-13.49,63.33c0,.5-.36,2.67-1.06,6.53q5.28-8.55,13.22-20.11t16.41-25.12a124.48,124.48,0,0,1,13.22-18.1,23.72,23.72,0,0,1,5.82-5.27,11.29,11.29,0,0,1,6.62-2.52,8,8,0,0,1,6.34,3.77,22.91,22.91,0,0,1,2.39,7.54q.26,3,.26,7a174.55,174.55,0,0,1-1.32,19.1,141.21,141.21,0,0,0-1.33,17.84,46.22,46.22,0,0,0,.8,10c.53,1.34,1,2.09,1.32,2.26s1,0,1.85-.5q4.77-2.26,13-12.06,6.6-7.55,16.4-21.11a3.46,3.46,0,0,1,3.17-1.76,4.25,4.25,0,0,1,3,1.13,3.5,3.5,0,0,1,1.19,2.64,3.54,3.54,0,0,1-.79,2.26Q627,192.59,620.41,200.38q-9.25,10.8-15.6,13.82a12.1,12.1,0,0,1-5.56,1.51,7.32,7.32,0,0,1-3.17-.75q-4-1.52-5.82-7a44,44,0,0,1-1.33-12.06,172.12,172.12,0,0,1,1.33-19.1,159.93,159.93,0,0,0,1.32-18.34,53,53,0,0,0-.26-5.78,10.86,10.86,0,0,0-1.06-4.53,3.41,3.41,0,0,0-1.33.76,25.94,25.94,0,0,0-4.49,4.27A125.42,125.42,0,0,0,572,170.23Q564.07,183,557.85,192t-11,16.21q-4.75,7.29-13.22,22.12a2.48,2.48,0,0,1-1.06,1.25,4.28,4.28,0,0,1-1.59,1,4.14,4.14,0,0,1-3.31-.38,4.53,4.53,0,0,1-2-2.39,4.09,4.09,0,0,1-.26-1.25c0-1.18.09-2.94.26-5.28q.79-6.78,2.91-19.6,5.29-30.92,13.76-63.83a3.34,3.34,0,0,1,3.7-3Zm-19.84,90,.27-.25C526.59,226.52,526.5,226.6,526.5,226.77Z" transform="translate(-39.24 -3.18)" style="fill:#231f20"/><path d="M726,3.37a6,6,0,0,1,5.82,1.51q3.18,2.76,3.18,9v1.51a91.23,91.23,0,0,1-2.65,17.09q-5.82,23.88-22.22,58.3-2.91,6-19.84,38.7-14.55,74.39-14.81,116.35v1.25c0,3,.08,6.62.26,10.81a3.84,3.84,0,0,1-1.19,2.89,4.31,4.31,0,0,1-5.82,0,3.56,3.56,0,0,1-1.19-2.64c-.18-4.19-.26-7.88-.26-11.06v-1.25q.25-36.45,9-88.71-1.59,3-5.69,10.93t-5.16,10.18q-9.25,17.08-18,27.89-9,10.8-15.35,12.57a5.51,5.51,0,0,1-2.38.5,7.27,7.27,0,0,1-5.55-2.26c-1.76-1.68-2.74-4.19-2.91-7.54v-1.26q0-8.29,5.55-23.87a107.26,107.26,0,0,1,19.58-34.43q16.39-19.6,34.12-20.6h1.06a2.69,2.69,0,0,0,.53-.88,3.1,3.1,0,0,0,.27-.88q9-45.24,12.43-58.05Q702.94,36.28,713,17.69q4.23-8,8.2-11.56A14.07,14.07,0,0,1,726,3.37ZM677,137.81q-12.43,3-24.33,16.84a106.49,106.49,0,0,0-18.52,31.91,128.58,128.58,0,0,0-3.57,12.82,44.32,44.32,0,0,0-1.19,9l.53,3q4-1.51,11.11-9.8,8.19-10,17.19-26.89,2.12-4.27,9-17.84T677,137.81ZM726.49,12.16a35.32,35.32,0,0,0-6.35,9.05q-9.25,17.34-17.46,50Q701.36,76,699.38,86T696.6,99.86c.7-1.5,1.67-3.39,2.91-5.65s2.38-4.4,3.44-6.41q15.87-33.16,21.43-57a65.3,65.3,0,0,0,2.38-15.58A17.13,17.13,0,0,0,726.49,12.16Z" transform="translate(-39.24 -3.18)" style="fill:#231f20"/></svg>