<svg id="Layer_1" data-name="Layer 1" xmlns="http://www.w3.org/2000/svg" viewBox="0 0 749.98 235.04"><title>marquee</title><path d="M140.17,236.25H132.9V40.38c0-3.28-1.64-4.93-4.93-4.93H101c-3.11,0-4.84,1.48-5.19,4.41L83.09,115.1c0,2.59-1.29,3.89-3.89,3.89s-3.89-1.3-3.89-3.89L61.82,39.86c-.35-2.93-2-4.41-4.93-4.41H29.13c-3.46,0-5.19,1.65-5.19,4.93V236.25H16.42V40.38q0-12.45,12.71-12.45H56.89q11.42,0,12.19,11.67L79.2,98,88.28,39.6Q88.54,27.93,101,27.93h27q12.19,0,12.2,12.45Zm-17.13,0h-7.26V52.84h-3.37L91.65,169.57A16.68,16.68,0,0,1,87,179a11.33,11.33,0,0,1-8,3.51q-5.44,0-8.3-3.64a20.9,20.9,0,0,1-3.89-9.34L45.22,52.84H41.33V236.25H33.8V49.2q0-3.63,3.89-3.63h10.9a3.25,3.25,0,0,1,3.63,3.37l22,120.12a9.56,9.56,0,0,0,1.56,4.15,4.07,4.07,0,0,0,3.37,1.29c2.6,0,4.32-1.81,5.19-5.44L105.14,48.94a3.26,3.26,0,0,1,3.64-3.37h10.37c2.6,0,3.89,1.21,3.89,3.63Z" transform="translate(-16.42 -24.3)" style="fill:#231f20"/><path d="M256.64,235l-7.26.78L228.89,39.86c0-2.93-1.74-4.41-5.19-4.41H187.64c-2.95,0-4.59,1.48-4.93,4.41L160.4,235.73l-7.52-.78L175.19,38.83q1-10.9,12.45-10.9H223.7q11.15,0,12.45,11.42ZM228.37,130.66l10.89,106.1-7.26.78-10.38-99.62H201.13V115.1h18.16l-6.75-62.26H199.05l-21.27,185-7.52-.78L192.05,48.68q.25-3.1,3.63-3.11h20q3.63,0,4.15,3.11l7.78,73.68h-19.2v8.3Z" transform="translate(-16.42 -24.3)" style="fill:#231f20"/><path d="M358.6,233.91q-2.34-6.74-3.77-11.8a73.62,73.62,0,0,1-2.07-9.6c-.43-3-.74-6.1-.91-9.21s-.26-6.75-.26-10.9V153.75a53.88,53.88,0,0,0-2.07-15.31,11.75,11.75,0,0,0-2.6-4.28c-1.21-1.29-2.46-2.55-3.76-3.76s-2.42-2.29-3.37-3.24a3.91,3.91,0,0,1-1.43-2.46c0-.69.61-1.56,1.82-2.6a31.61,31.61,0,0,0,8.69-11.8,42.8,42.8,0,0,0,2.72-16.22V72q0-19.71-9.47-28.14t-30.74-8.44H282.07c-3.46,0-5.19,1.65-5.19,4.93V236.25h-7.52V40.38q0-12.45,12.71-12.45h29.31q25.15,0,36.32,10.25T358.86,72v22q0,19.2-10.64,30.36a24.18,24.18,0,0,1,8.3,12.06,57.31,57.31,0,0,1,2.34,17.25V192.4q0,5.72.13,10c.08,2.86.3,5.67.64,8.43a56.51,56.51,0,0,0,1.95,9,114.24,114.24,0,0,0,4.28,11.55Zm-16.35,6q-2.6-7-4.15-12.84t-2.46-11.29a91.65,91.65,0,0,1-1.17-11q-.25-5.58-.26-12.33V153.75c0-3.11-.74-5.49-2.2-7.13a17.78,17.78,0,0,0-5.32-4,32.43,32.43,0,0,0-7-2.46,43.38,43.38,0,0,1-7-2.21,16,16,0,0,1-5.32-3.5q-2.21-2.19-2.2-6.35,0-7.53,9.85-11.94,10.64-4.14,14.92-8.95t4.28-13.1V72.29q0-10.89-5.32-15.17t-17.51-4.28H294.26V236.25h-7.52V49.2c0-2.42,1.29-3.63,3.89-3.63h20.75q15.83,0,23.09,6t7.26,20.75V94.08q0,11.69-5.44,17.9t-18.68,11.16c-2.43,1.38-3.63,3-3.63,4.93a5.18,5.18,0,0,0,1.29,3.37,4.77,4.77,0,0,0,3.89,1.56q12.46,1.29,17.52,5.57t5.05,15.18V192.4q0,6.49.26,11.68a79.59,79.59,0,0,0,1.17,10.25q.9,5.05,2.34,10.5t3.76,12.45Z" transform="translate(-16.42 -24.3)" style="fill:#231f20"/><path d="M438.76,259.33l-7.27-19.19q-29.57,0-42.67-11.29t-13.1-34.37V69.7q0-45.4,45.14-45.4,44.36,0,44.36,45.4V194.48a121.15,121.15,0,0,1-.52,12.19,37,37,0,0,1-1.82,8.56,23.13,23.13,0,0,1-3.5,6.49,49.7,49.7,0,0,1-5.58,6l11.42,31.64H457.7L446,227.94a2.68,2.68,0,0,1-.26-1.55,4,4,0,0,1,1.3-2.86,24.18,24.18,0,0,0,8.56-11q2.34-6.36,2.34-18V69.7q0-19.46-9.47-28.8t-27.63-9.34q-37.62,0-37.62,38.14V194.48q0,20.24,12.06,29.05t38.79,8.82a3.69,3.69,0,0,1,3.63,2.6l9.34,24.38Zm9.34-64.85q0,14.79-6.75,21.66T422.93,223a30.11,30.11,0,0,1-11.41-2.21,32,32,0,0,1-9.6-6,26.59,26.59,0,0,1-6.49-9,27.55,27.55,0,0,1-2.33-11.41V69.7q0-28,27.76-28,13.23,0,20.23,6.75t7,21.53ZM440.57,70q0-20.76-19.71-20.76-20,0-20,20.5V194.48a19.75,19.75,0,0,0,6.36,15.05q6.35,6,15.95,6a16.6,16.6,0,0,0,12.45-5.06q4.94-5.06,4.93-16Z" transform="translate(-16.42 -24.3)" style="fill:#231f20"/><path d="M572.62,194.74q0,22.32-11.16,34.11T528,240.66q-44.88,0-44.88-45.92V27.93h7.52V194.74q0,38.13,37.36,38.13,18.42,0,27.89-9.72t9.46-28.41V27.93h7.27Zm-17.12,0Q555.5,223,528,223t-27.5-28.28V27.93H508V194.74q0,20.76,20,20.75t20-20.75V27.93h7.53Z" transform="translate(-16.42 -24.3)" style="fill:#231f20"/><path d="M671.71,236.25H605.3q-12.7,0-12.71-12.46V40.38q0-12.45,12.71-12.45h66.41v7.52H605.3c-3.46,0-5.19,1.65-5.19,4.93V223.79c0,3.47,1.73,5.19,5.19,5.19h66.41Zm0-183.41H617.5v49h53.18v7.26H613.86q-3.89,0-3.89-3.89v-56q0-3.63,3.89-3.63h57.85Zm0,166H613.86q-3.89,0-3.89-3.9V122.88q0-3.88,3.89-3.89h56.82v7.26H617.5v85.09h54.21Z" transform="translate(-16.42 -24.3)" style="fill:#231f20"/><path d="M766.4,236.25H700q-12.72,0-12.71-12.46V40.38q0-12.45,12.71-12.45H766.4v7.52H700c-3.46,0-5.19,1.65-5.19,4.93V223.79c0,3.47,1.73,5.19,5.19,5.19H766.4Zm0-183.41H712.18v49h53.18v7.26H708.55q-3.88,0-3.89-3.89v-56q0-3.63,3.89-3.63H766.4Zm0,166H708.55q-3.88,0-3.89-3.9V122.88q0-3.88,3.89-3.89h56.81v7.26H712.18v85.09H766.4Z" transform="translate(-16.42 -24.3)" style="fill:#231f20"/></svg>