<svg id="Layer_1" data-name="Layer 1" xmlns="http://www.w3.org/2000/svg" viewBox="0 0 688.91 265.17"><title>neonscript</title><path d="M183.15,28.84c1.24,2,1.85,4.94,1.85,8.79,0,.31,0,1.66-.11,4s-1,7.29-2.66,14.69q-1.86,8.55-4.51,17.8T172.52,92q-1.16,3.93-2.2,7.28c-.69,2.24-1.35,4.36-2,6.36q-2.55,8.55-5.2,18.49t-5,20.69q-2.33,10.75-4.05,21.85a164.06,164.06,0,0,0-2,21.73v2.55a11.89,11.89,0,0,0,.11,1.73,2,2,0,0,0,.35,1,4.71,4.71,0,0,1,.92,2.54,6.66,6.66,0,0,1-.34,1.62,3.9,3.9,0,0,1-2.2,2.08,4.65,4.65,0,0,1-2.54.93,6.83,6.83,0,0,1-1.62-.35,3.84,3.84,0,0,1-2.08-2.2,10.14,10.14,0,0,1-2-4.74c-.08-1.31-.11-2.27-.11-2.89a13.93,13.93,0,0,1,.23-2.77,172.2,172.2,0,0,1,2-22.43q1.74-11.33,4.17-22.3T154.14,122q2.66-10.17,5.2-19c.62-2,1.27-4.16,2-6.47s1.42-4.77,2.19-7.4q2.55-8.55,5.32-17.68t4.63-17.23q2.3-10.4,2.42-12.94t.12-3.24a10.75,10.75,0,0,0-.46-3.93,16.45,16.45,0,0,0-1.85.81,21.8,21.8,0,0,0-3.24,2.2,47.68,47.68,0,0,0-4.86,4.5q-2.76,2.89-6.47,7.52-5.33,6.7-10.05,13.75T140.39,76q-9.25,14.56-18.15,31.9t-18.61,39.53Q96,164.78,87.44,183.16T71,217.26Q67.34,224.9,64.21,231T58.55,241.3c-.93,1.7-1.74,3.12-2.43,4.28s-1.27,2.12-1.74,2.89c-.76.92-1.57,1.85-2.42,2.77a4.33,4.33,0,0,1-3.36,1.39,4.6,4.6,0,0,1-2.08-.46,19.74,19.74,0,0,1-1.85-1.5,4,4,0,0,1-1.15-3.12v-.93a14.82,14.82,0,0,1,.11-1.62c.08-.62.2-1.31.35-2.08.31-1.23.69-2.7,1.16-4.39s1.08-3.7,1.85-6q1.84-6,4.74-14.45T58.55,199q3.24-9.25,7.16-19.89t8.09-21.73Q78,146.3,82.47,135t8.9-22.2q10.17-25.89,20.81-51.2T133.91,11a4.33,4.33,0,0,1,2.2-2.31,6.16,6.16,0,0,1,2-.46,4.54,4.54,0,0,1,2.08.46q2.78,1.39,2.78,3.93a5.82,5.82,0,0,1-.46,2.08q-11.1,25.2-21.74,50.4t-20.8,51.09q-8.1,20.36-16.3,41.85T68.72,197.61q-1.16,3.46-2.31,6.7c-.47,1.54-1,3.09-1.62,4.63q7.39-15,15.26-31.91,7.85-17.1,15-33.29,9.95-22.41,19.08-40.11t18.38-32.48q3.91-6,8.9-13.52t10.28-14.22A97.25,97.25,0,0,1,164.2,30.23q6.47-5.31,11.79-5.32a7.4,7.4,0,0,1,1.85.24A7.17,7.17,0,0,1,183.15,28.84Z" transform="translate(-43.52 -2.72)" style="fill:#231f20"/><path d="M231.93,131.49a3.87,3.87,0,0,1,2.2,2.08,6.92,6.92,0,0,1,.35,1.85,4.39,4.39,0,0,1-.7,2.31q-11.09,20.81-22.65,32.37-9.72,10.17-19.19,12.94a22.67,22.67,0,0,1-6.71.93,16.67,16.67,0,0,1-9-2.31q-5.79-3-7.63-10.64a34.46,34.46,0,0,1-1.16-9.24,62,62,0,0,1,.93-10.18c.31-1.54.66-3,1-4.39s.81-2.77,1.27-4.16c.61-1.54,1.42-3.5,2.43-5.9a34.38,34.38,0,0,1,2.89-5.66,59.51,59.51,0,0,1,12-14.68q7.16-6.36,13.41-7.51a16,16,0,0,1,2.54-.23,10.53,10.53,0,0,1,2.54.34,6.72,6.72,0,0,1,2.55,1.27q3.93,3,4.39,9.48v.93a28.3,28.3,0,0,1-1.39,7.51q-1.38,4.74-7.4,10.52a35.33,35.33,0,0,1-6.82,4.62,48.91,48.91,0,0,1-7.05,3,38.5,38.5,0,0,1-6.7,1.62q-3.24.47-5.55.69a41,41,0,0,0-1.85,8.55c-.15,2.16-.23,3.63-.23,4.4a23,23,0,0,0,.92,6.7c.31.77.7,1.66,1.16,2.66a4.5,4.5,0,0,0,2.08,2.2,9.36,9.36,0,0,0,2.54,1,10,10,0,0,0,2.32.34,11.89,11.89,0,0,0,3.69-.69,27.64,27.64,0,0,0,7.52-3.81,60.77,60.77,0,0,0,8-6.82,89.65,89.65,0,0,0,10.52-12.95q5.21-7.63,10.52-17.34a3.94,3.94,0,0,1,2.08-2.2,6.83,6.83,0,0,1,1.85-.34A4.47,4.47,0,0,1,231.93,131.49Zm-48.08,4.62a9.47,9.47,0,0,0-.81,1.51c-.23.54-.5,1.12-.81,1.73a37,37,0,0,0,8.09-2.08,23.76,23.76,0,0,0,8.09-5.09c2.62-2.31,4.24-4.42,4.86-6.35a16.19,16.19,0,0,0,.92-4.51,7.17,7.17,0,0,0-.46-3,7.78,7.78,0,0,0-2.77.81,31.17,31.17,0,0,0-5.09,3.12A53,53,0,0,0,183.85,136.11Z" transform="translate(-43.52 -2.72)" style="fill:#231f20"/><path d="M303.83,130.57a4.94,4.94,0,0,1,.93,2.77,14.71,14.71,0,0,1-.12,1.5,3.55,3.55,0,0,1-1.73,2.2c-.62.46-1.77,1.19-3.47,2.2s-3.85,2.19-6.47,3.58a102.79,102.79,0,0,1-9.37,4.28,119.69,119.69,0,0,1-11.9,4,12.15,12.15,0,0,1-2.89.58c-1,.08-2,.19-2.89.35-.46.77-.93,1.58-1.39,2.42s-.92,1.74-1.38,2.66a85.33,85.33,0,0,1-9.71,12.72,66.31,66.31,0,0,1-11.33,9.94,34.23,34.23,0,0,1-12.26,6.24,22,22,0,0,1-5.31.69,16.3,16.3,0,0,1-7.4-1.85,14.66,14.66,0,0,1-6.47-9.94,24.35,24.35,0,0,1-.7-6,49.19,49.19,0,0,1,2.55-13.87A60.17,60.17,0,0,1,221.3,138a88,88,0,0,1,9.13-10.75,59.7,59.7,0,0,1,10.06-8.2,43.24,43.24,0,0,1,9.25-4.63,26,26,0,0,1,8.55-1.85,14.31,14.31,0,0,1,4.62.7,13.92,13.92,0,0,1,8.1,9,22.33,22.33,0,0,1,1.38,7.86,35.35,35.35,0,0,1-2.31,11.79q11.79-3.22,18.84-7.28l8.67-5a5,5,0,0,1,2.78-.92c.15,0,.57,0,1.27.11A3.58,3.58,0,0,1,303.83,130.57ZM255.28,152.3a2.82,2.82,0,0,1,.47-.7l.46-1.15a2.82,2.82,0,0,1,.46-.7,7.64,7.64,0,0,1-2.31-1.15q-6.93-5.32-7.4-15.72a23.36,23.36,0,0,1,1.39-7.86,2.93,2.93,0,0,1-.69.46l-1.39.69a2.82,2.82,0,0,1-.7.47,67.41,67.41,0,0,0-16.87,16.87,47.45,47.45,0,0,0-7.28,14.1,41.56,41.56,0,0,0-2.2,11.56,16,16,0,0,0,.46,3.93,13.75,13.75,0,0,0,.7,2.08,2.85,2.85,0,0,0,1.38,1.62,5.24,5.24,0,0,0,2.78.7,15.87,15.87,0,0,0,4.5-.93,30.4,30.4,0,0,0,7.52-4.16,60.86,60.86,0,0,0,10.17-9A81.13,81.13,0,0,0,255.28,152.3Zm5.32-10.87a30.91,30.91,0,0,0,2.2-8c.07-1.62.11-2.58.11-2.89a18.07,18.07,0,0,0-.69-5.55,3.56,3.56,0,0,0-1.62-2.55,20.28,20.28,0,0,0-2.77,3.93,10.93,10.93,0,0,0-1.62,5.55v.7a28,28,0,0,0,1,5.08A5.22,5.22,0,0,0,260.6,141.43Z" transform="translate(-43.52 -2.72)" style="fill:#231f20"/><path d="M386.36,130.33a3.87,3.87,0,0,1,1.39,3.13,4.55,4.55,0,0,1-1.39,3.35q-13.86,14.34-23.58,20t-15.72,5.66a11.06,11.06,0,0,1-5.08-1.16c-2.63-1.69-3.93-4.47-3.93-8.32,0-.31,0-1.54.11-3.7s.5-6,1.27-11.56q.46-3.22.81-6.59c.23-2.23.43-4.27.58-6.12a24.67,24.67,0,0,0-.35-5.09,11.46,11.46,0,0,0-.57-1.85c-.16,0-.24,0-.24-.11s-.15-.12-.46-.12h-.69q-3.7,0-9.71,5.43a60.16,60.16,0,0,0-11.1,14,143.71,143.71,0,0,0-8.55,16.07q-3.24,7.28-5.09,12.37c-1.23,2.62-2.16,4.7-2.77,6.24a10.85,10.85,0,0,1-1.39,2.31,5.19,5.19,0,0,1-6.94,1.27,5.25,5.25,0,0,1-2.08-2.2,11.29,11.29,0,0,1-.8-2.65,15.49,15.49,0,0,1-.35-3.12,66,66,0,0,1,.92-9,71.28,71.28,0,0,1,1.62-9.71c.77-3.24,1.54-6.16,2.31-8.79.93-2.61,2-5.5,3.24-8.66s2.5-6.28,3.81-9.37,2.62-6.05,3.93-8.9,2.51-5.28,3.59-7.28a3.87,3.87,0,0,1,2.08-2.2,6.83,6.83,0,0,1,1.85-.34,4.47,4.47,0,0,1,2.31.69,3.85,3.85,0,0,1,2,2.08,6.54,6.54,0,0,1,.35,1.85,6.14,6.14,0,0,1-.46,2.31c-1.08,1.85-2.24,4.13-3.47,6.82s-2.47,5.55-3.7,8.56-2.42,6.05-3.58,9.13-2.2,5.86-3.12,8.32l-.7,2.77a95.53,95.53,0,0,1,7.17-13.4A70.42,70.42,0,0,1,323,116q8.33-7.4,16-7.4h1.39a10.48,10.48,0,0,1,6.7,3.93,16.33,16.33,0,0,1,3,10.18c0,.46-.08,2-.23,4.5s-.62,6.52-1.39,11.91q-.46,2.77-.69,5.32c-.16,1.69-.32,3.23-.47,4.62a11.08,11.08,0,0,0-.23,2.08,5.11,5.11,0,0,0,.12,1,6,6,0,0,1,.11,1,12.71,12.71,0,0,0,3-.58,24.43,24.43,0,0,0,5.55-2.65,66.2,66.2,0,0,0,9.59-6.36,141.11,141.11,0,0,0,14.45-13.3A3.86,3.86,0,0,1,383,129,4.57,4.57,0,0,1,386.36,130.33Z" transform="translate(-43.52 -2.72)" style="fill:#231f20"/><path d="M426.59,141.66a3.64,3.64,0,0,1,1.73,2.2c.08.69.12,1.12.12,1.27a4.07,4.07,0,0,1-1.16,3q-8.79,10.86-17.11,20.57t-15.72,17.8q.93,4.4,1.51,9.37a84,84,0,0,1,.57,9.59q0,2.09-.23,6.82a69.11,69.11,0,0,1-2.19,12.6,59.92,59.92,0,0,1-6.59,15.72,54.19,54.19,0,0,1-4.28,6.13,78.87,78.87,0,0,1-6,6.7,47,47,0,0,1-7.17,5.9,24.08,24.08,0,0,1-7.51,3.46,19,19,0,0,1-4.16.47c-.31,0-1,0-2-.12a10,10,0,0,1-4-1.73,15.28,15.28,0,0,1-5-5,15.53,15.53,0,0,1-2.2-8.67,22,22,0,0,1,.23-3,40.08,40.08,0,0,1,2-8.78q1.5-4.4,2.89-8.33,5.77-15,22-31.21c1.7-1.69,3.58-3.62,5.66-5.78s4.28-4.46,6.59-6.93c-.62-2.16-1.15-4-1.62-5.43s-.92-3.05-1.38-4.74c-.78-2.32-1.59-5-2.43-8s-1.89-7.13-3.12-12.37q-3-14.1-3-22.42c0-.47,0-2.24.12-5.32s1.27-6.47,3.58-10.17a23.61,23.61,0,0,1,6.36-7.52,18.17,18.17,0,0,1,8.21-3.58A17.26,17.26,0,0,1,394,104a9.61,9.61,0,0,1,5.78,1.85q3.69,2.78,3.7,8.32v1.39a20.27,20.27,0,0,1-3.7,11.33,27.77,27.77,0,0,1-6.47,6.59q-3.71,2.65-9.25,5.89l-.23.23-.46.23-.23.23q.45,2.55.8,5.32c.24,1.85.58,3.86,1,6q1.62,7.41,2.89,11.68t2.43,7.51a21.63,21.63,0,0,1,.81,2.43c.23.85.5,1.73.81,2.66q6.46-7.4,13.64-15.72t14.57-17.57a3.62,3.62,0,0,1,2.19-1.51c.69-.07,1.19-.11,1.5-.11A5,5,0,0,1,426.59,141.66ZM379.43,236a47.5,47.5,0,0,0,5.2-11.22,63.13,63.13,0,0,0,2.31-10.17,66,66,0,0,0,.58-8.21c0-.92,0-2.39-.12-4.39a57.49,57.49,0,0,0-.81-7.17q-2.31,2.31-4.16,4.28c-1.23,1.31-2.47,2.58-3.7,3.82q-14.79,14.79-19.88,28.2-1.16,3.24-2.43,7.17a43,43,0,0,0-1.73,7.4q0,1.38.12,3a8.35,8.35,0,0,0,.69,2.89,4.17,4.17,0,0,0,1.5,1.85,3.54,3.54,0,0,0,1.85.58,4.5,4.5,0,0,0,1.39-.23,17.07,17.07,0,0,0,5.32-2.66,49.32,49.32,0,0,0,5.43-4.51,46.84,46.84,0,0,0,4.85-5.43A59.45,59.45,0,0,0,379.43,236Zm5.08-115.83a11.85,11.85,0,0,0-1.5,3.47,29.91,29.91,0,0,0-.81,6,57.75,57.75,0,0,0,6-3.81,16.12,16.12,0,0,0,3.93-4.28,9,9,0,0,0,2-4c.07-1,.11-1.73.11-2.19a7.12,7.12,0,0,0-.23-2.08h-.23a11.37,11.37,0,0,0-3.93,1.27Q387.06,115.78,384.51,120.16Z" transform="translate(-43.52 -2.72)" style="fill:#231f20"/><path d="M483.23,129.87a4.2,4.2,0,0,1,1.85,2.31,10.46,10.46,0,0,1,.23,1.62,4,4,0,0,1-.93,2.55q-22.87,33.06-41.15,46.23a50.57,50.57,0,0,1-11.1,6.36,23,23,0,0,1-7.86,1.73,12.13,12.13,0,0,1-3.12-.34,12,12,0,0,1-2.19-.81Q412,185.59,412,172.41v-2.54a79.1,79.1,0,0,1,1.5-11.91,76.69,76.69,0,0,1,3.36-11.91,87.19,87.19,0,0,1,7.63-14.56A68.54,68.54,0,0,1,434.68,119a42.12,42.12,0,0,1,4.16-3.59,39.7,39.7,0,0,1,5.32-3.46,18.61,18.61,0,0,1,5-2,18,18,0,0,1,3.58-.46A11.69,11.69,0,0,1,456,110c.61.31,1.62.77,3,1.39s2.62,2,3.7,4.16a13.93,13.93,0,0,1,1.39,6.7q0,6.24-3.47,16.42c-.77,2.16-2.08,3.23-3.93,3.23a5.62,5.62,0,0,1-2.08-.46,3.26,3.26,0,0,1-2.43-1.85,6.36,6.36,0,0,1-.58-2.31,6.61,6.61,0,0,1,.24-1.62q3-8.33,3-11.79a27.65,27.65,0,0,0-.46-4.39c0-.31-.39-.54-1.16-.69a.9.9,0,0,0-.69-.24,11.85,11.85,0,0,0-3.7,1.28q-2.77,1.26-7.63,5.89a60.63,60.63,0,0,0-8.9,10.87,68.31,68.31,0,0,0-6.59,12.94,60.64,60.64,0,0,0-3,10.29,67.75,67.75,0,0,0-1.39,10.52,27,27,0,0,0-.23,3.47,16.58,16.58,0,0,0,.69,5c.46,1.46,1,2.35,1.62,2.66h.46a26.27,26.27,0,0,0,4.16-.7q3.24-.69,10.18-5.78a148.43,148.43,0,0,0,15.48-14.45q9.72-10,23.12-29.47a4.18,4.18,0,0,1,2.2-1.85,8.16,8.16,0,0,1,1.5-.23A5,5,0,0,1,483.23,129.87Z" transform="translate(-43.52 -2.72)" style="fill:#231f20"/><path d="M539.17,132.42a5.62,5.62,0,0,1,.46,2.08,6.16,6.16,0,0,1-.46,2,4.33,4.33,0,0,1-2.31,2.2A28,28,0,0,1,526.69,141a11.08,11.08,0,0,1-7.4-2.54q-3.7-3-3.7-9.48a26.64,26.64,0,0,1,1.16-7.63,48.44,48.44,0,0,0-5.55,5.43,78.78,78.78,0,0,0-7.4,10.06q-7.64,12-12.83,22t-8.67,16.65c-.93,1.85-1.73,3.5-2.43,5s-1.35,2.73-2,3.81a14.57,14.57,0,0,1-.93,1.62,7.83,7.83,0,0,1-.92,1.15,6.19,6.19,0,0,1-4.4,2.09,4.66,4.66,0,0,1-4.39-2.55,7.5,7.5,0,0,1-.69-3.7,35.15,35.15,0,0,1,.23-3.7c.15-1.23.39-2.65.69-4.27s.62-3.43.93-5.43q1.62-7.41,3.7-15.61c1.38-5.47,2.7-10,3.93-13.52q2.54-7.64,4.39-13.41t3.93-10.64a3.58,3.58,0,0,1,2-2.31,6.26,6.26,0,0,1,2-.46,5.66,5.66,0,0,1,2.08.46,3.57,3.57,0,0,1,2.31,2,6.16,6.16,0,0,1,.46,2,5.62,5.62,0,0,1-.46,2.08,163.82,163.82,0,0,0-6.82,18.73q-2.89,9.71-5.43,20.11,3-5.78,6.93-12.6t8.79-14.45a107.33,107.33,0,0,1,7.4-10.29,49.59,49.59,0,0,1,7.16-7.28c3.24-2.62,5.51-4,6.82-4.16s2.12-.23,2.43-.23a5.53,5.53,0,0,1,3.47.92,8.18,8.18,0,0,1,2.2,2.08,6.49,6.49,0,0,1,1,3.93v.93a14,14,0,0,1-.23,2.43,20.23,20.23,0,0,1-.7,2.66,25.29,25.29,0,0,0-.92,6.47,3.14,3.14,0,0,0,.46,2.08,2.24,2.24,0,0,0,1.62.46c.3,0,.84,0,1.62-.11a22.27,22.27,0,0,0,4.62-1.51,5.82,5.82,0,0,1,2.08-.46,6.56,6.56,0,0,1,2,.46A3.58,3.58,0,0,1,539.17,132.42Z" transform="translate(-43.52 -2.72)" style="fill:#231f20"/><path d="M583.56,131.49a4.09,4.09,0,0,1,2.08,2.31,10.3,10.3,0,0,1,.23,1.62,4,4,0,0,1-.93,2.54q-15.72,23.35-28.66,34.45-8.1,7.17-14.11,7.17a7.77,7.77,0,0,1-3.93-.93,9.29,9.29,0,0,1-3.12-3.35,11.33,11.33,0,0,1-1.27-3.81,26.35,26.35,0,0,1-.23-3,27.56,27.56,0,0,1,.23-3.24q.24-1.85.69-3.93a124.91,124.91,0,0,1,6.48-20q4.85-12.15,12.94-29.48a4.33,4.33,0,0,1,2.2-2.31,6.2,6.2,0,0,1,2-.46,5.7,5.7,0,0,1,2.08.46,3.88,3.88,0,0,1,2.19,2.08,6.92,6.92,0,0,1,.35,1.85,6.34,6.34,0,0,1-.46,2.31q-6.7,14.57-11.33,25.43a126.54,126.54,0,0,0-6.47,18.26,44.33,44.33,0,0,0-1.51,6.82c-.08,1.16-.11,2-.11,2.43v1.39a26.31,26.31,0,0,0,3.58-2,49.5,49.5,0,0,0,6.13-4.74,143,143,0,0,0,11.56-12.71q6.24-7.63,13.17-17.8c.77-1.23,1.51-1.93,2.2-2.08a8.16,8.16,0,0,1,1.5-.23A4,4,0,0,1,583.56,131.49ZM565.29,99.82a4.33,4.33,0,0,1-2.31-2.2,6.16,6.16,0,0,1-.46-2,5.62,5.62,0,0,1,.46-2.08l4.39-9.48a4.33,4.33,0,0,1,2.2-2.31,6.29,6.29,0,0,1,2-.47,5.74,5.74,0,0,1,2.09.47,4.3,4.3,0,0,1,2.77,3.93,5.87,5.87,0,0,1-.46,2.08l-4.63,9.71a4.19,4.19,0,0,1-4.16,2.54A4.93,4.93,0,0,1,565.29,99.82Z" transform="translate(-43.52 -2.72)" style="fill:#231f20"/><path d="M634,164.55a4.9,4.9,0,0,1,1.16,3.24c0,.15,0,.57-.12,1.27a3.6,3.6,0,0,1-1.5,2.19,30.14,30.14,0,0,1-6.82,4.17,33.36,33.36,0,0,1-7.86,2.54,39.75,39.75,0,0,1-7,.69c-.62,0-1.77,0-3.47-.11a14.76,14.76,0,0,1-5.78-1.74,11.36,11.36,0,0,1-5.78-10.4v-1.62a10.62,10.62,0,0,1,3.7-6.82,75.93,75.93,0,0,1,7.63-5.89q4.4-3.24,8.79-6.94a26.74,26.74,0,0,0,6.93-9,25.34,25.34,0,0,0,1.85-9.47c0-3.24-1.08-5.47-3.24-6.71a4.54,4.54,0,0,0-2.08-.46c-.31,0-.81,0-1.5.11a11.59,11.59,0,0,0-2.77.81c-1.16.47-2.28,1-3.36,1.51a16.86,16.86,0,0,0-2.54,1.5A36.65,36.65,0,0,0,600,130.57a68.36,68.36,0,0,0-8,9.59,78.32,78.32,0,0,0-6.35,11.1q-2.77,5.9-5.09,11.67c-.46,1.24-1,2.51-1.5,3.82s-1.12,2.66-1.74,4q-3.46,8.33-7.86,19.07t-9.24,23q-4.86,12.25-10,25.54t-9.94,26.47a4.32,4.32,0,0,1-4.39,3,3.33,3.33,0,0,1-1.39-.23q-3.22-1.16-3.23-3.93a5.62,5.62,0,0,1,.46-2.08q4.86-13.18,9.94-26.47t9.94-25.66q4.86-12.37,9.25-23.12t7.86-19.08a32,32,0,0,0,1.62-3.81q.69-2,1.62-4,2.54-6,5.89-12.6a109.05,109.05,0,0,1,7.51-12.6,81.07,81.07,0,0,1,9.25-11.09,38.47,38.47,0,0,1,11.1-7.86c1.08-.46,2.43-1.08,4-1.85a33.21,33.21,0,0,1,5.32-2,25.17,25.17,0,0,1,4.39-.92q1.5-.12,1.74-.12a11,11,0,0,1,5.32,1.39,13.85,13.85,0,0,1,5.66,5,16.39,16.39,0,0,1,2.43,5.78,27.91,27.91,0,0,1,.46,4.51,28.84,28.84,0,0,1-.69,5.66,36,36,0,0,1-2.32,7.05,33.79,33.79,0,0,1-8.55,11.79,100.35,100.35,0,0,1-10.17,7.86c-2.16,1.55-4.09,3-5.78,4.4a3.58,3.58,0,0,0-1.27,1.61,5.22,5.22,0,0,0-.35,1.16,2.47,2.47,0,0,0,1.16,1.85,5.94,5.94,0,0,0,2.89,1c1,.08,1.65.12,2,.12a22.92,22.92,0,0,0,4.74-.58,32.31,32.31,0,0,0,5.66-1.85,18.43,18.43,0,0,0,5.09-3.12,4.9,4.9,0,0,1,3.24-1.16A4.74,4.74,0,0,1,634,164.55Z" transform="translate(-43.52 -2.72)" style="fill:#231f20"/><path d="M728,84.79q4.4.46,4.39,4.86a5.17,5.17,0,0,1-1.5,3.12A4,4,0,0,1,728,94h-.46q-6.24-.23-12.49-.23-4.85,0-12.48.23t-18.73,1.39q-10.39,28.2-18.49,57t-14.1,58.38a4.06,4.06,0,0,1-4.39,3.7H646a5,5,0,0,1-2.89-1.85,4.65,4.65,0,0,1-1-2.78,2.05,2.05,0,0,1,.23-.92q5.79-28.66,13.53-56.64t17.68-55.49q-6,.93-12,2.08t-12.71,2.78h-.24l-.46.23h-.23a4.36,4.36,0,0,1-4.62-3.7V97a4.18,4.18,0,0,1,3.46-4.39q16.19-3.69,30.52-5.78,7.86-21,16.76-41.38T713,5.26a3.88,3.88,0,0,1,2.08-2.19,6.92,6.92,0,0,1,1.85-.35,6.43,6.43,0,0,1,2.32.46,3.88,3.88,0,0,1,2.19,2.08,7,7,0,0,1,.35,1.85,6.26,6.26,0,0,1-.46,2.31q-9.72,18.74-18.15,37.69T687.35,85.72h1.85q9.94-.93,16.3-1c4.24-.08,7.43-.12,9.59-.12Q721.35,84.56,728,84.79Z" transform="translate(-43.52 -2.72)" style="fill:#231f20"/></svg>