<svg id="Layer_1" data-name="Layer 1" xmlns="http://www.w3.org/2000/svg" viewBox="0 0 775.36 126.74"><title>neonlite</title><path d="M4.43,83.89A5.54,5.54,0,0,1,3.56,81,5.33,5.33,0,0,1,6,76.3a5,5,0,0,1,7.24,1.63L87.86,193.64a5.67,5.67,0,0,1,.86,2.9,5.35,5.35,0,0,1-2.41,4.7,5,5,0,0,1-2.76.9,4.94,4.94,0,0,1-4.48-2.53ZM3.56,117A5.42,5.42,0,0,1,5,113.09a4.89,4.89,0,0,1,3.7-1.53,4.92,4.92,0,0,1,3.71,1.53A5.42,5.42,0,0,1,13.91,117v79.56a5.38,5.38,0,0,1-1.47,3.88A4.89,4.89,0,0,1,8.73,202,4.87,4.87,0,0,1,5,200.42a5.38,5.38,0,0,1-1.47-3.88ZM78.2,80.82a5.42,5.42,0,0,1,1.47-3.89,5.25,5.25,0,0,1,7.41,0,5.42,5.42,0,0,1,1.47,3.89v79.56a5.38,5.38,0,0,1-1.47,3.88,5.23,5.23,0,0,1-7.41,0,5.38,5.38,0,0,1-1.47-3.88Z" transform="translate(-3.56 -75.4)" style="fill:#231f20"/><path d="M117.68,80.82a5.46,5.46,0,0,1,1.46-3.89,5.26,5.26,0,0,1,7.42,0A5.46,5.46,0,0,1,128,80.82V196.54a5.42,5.42,0,0,1-1.46,3.88,5.24,5.24,0,0,1-7.42,0,5.42,5.42,0,0,1-1.46-3.88Zm74.81,110.29a4.94,4.94,0,0,1,3.71,1.54,5.9,5.9,0,0,1,0,7.77,4.9,4.9,0,0,1-3.71,1.54H137.33a4.89,4.89,0,0,1-3.71-1.54,5.9,5.9,0,0,1,0-7.77,4.92,4.92,0,0,1,3.71-1.54ZM192.32,75.4a4.89,4.89,0,0,1,3.7,1.53,5.88,5.88,0,0,1,0,7.78,4.89,4.89,0,0,1-3.7,1.53H137.67a4.89,4.89,0,0,1-3.7-1.53,5.88,5.88,0,0,1,0-7.78,4.89,4.89,0,0,1,3.7-1.53Zm-10.17,53.52a4.89,4.89,0,0,1,3.7,1.53,5.88,5.88,0,0,1,0,7.78,4.89,4.89,0,0,1-3.7,1.53H137.67a4.89,4.89,0,0,1-3.7-1.53,5.88,5.88,0,0,1,0-7.78,4.89,4.89,0,0,1,3.7-1.53Z" transform="translate(-3.56 -75.4)" style="fill:#231f20"/><path d="M270.58,75.4a48.52,48.52,0,0,1,21.89,5.06,57.83,57.83,0,0,1,17.75,13.65,64.09,64.09,0,0,1,11.9,20.07,71.79,71.79,0,0,1,0,49,64.09,64.09,0,0,1-11.9,20.07,58,58,0,0,1-17.75,13.65,49.88,49.88,0,0,1-43.78,0,58,58,0,0,1-17.76-13.65A63.88,63.88,0,0,1,219,163.18a71.79,71.79,0,0,1,0-49,63.88,63.88,0,0,1,11.89-20.07,57.87,57.87,0,0,1,17.76-13.65A48.46,48.46,0,0,1,270.58,75.4Zm-.18,10.84a39.38,39.38,0,0,0-17.58,4.07,46.5,46.5,0,0,0-14.48,11.12,53.59,53.59,0,0,0-9.82,16.64,60.48,60.48,0,0,0,0,41.22,53.54,53.54,0,0,0,9.82,16.63A46.35,46.35,0,0,0,252.82,187,40,40,0,0,0,288,187a46.35,46.35,0,0,0,14.48-11.12,53.54,53.54,0,0,0,9.82-16.63,60.48,60.48,0,0,0,0-41.22,53.59,53.59,0,0,0-9.82-16.64A46.5,46.5,0,0,0,288,90.31,39.39,39.39,0,0,0,270.4,86.24Z" transform="translate(-3.56 -75.4)" style="fill:#231f20"/><path d="M351.08,83.89a5.52,5.52,0,0,1-.86-2.89,5.32,5.32,0,0,1,2.41-4.7,5,5,0,0,1,2.76-.9,5,5,0,0,1,4.48,2.53l74.64,115.71a5.67,5.67,0,0,1,.86,2.9,5.33,5.33,0,0,1-2.41,4.7,5,5,0,0,1-2.76.9,5,5,0,0,1-4.48-2.53ZM350.22,117a5.42,5.42,0,0,1,1.46-3.89,5.25,5.25,0,0,1,7.41,0,5.42,5.42,0,0,1,1.47,3.89v79.56a5.38,5.38,0,0,1-1.47,3.88,5.23,5.23,0,0,1-7.41,0,5.38,5.38,0,0,1-1.46-3.88Zm74.64-36.16a5.42,5.42,0,0,1,1.46-3.89,5.25,5.25,0,0,1,7.41,0,5.42,5.42,0,0,1,1.47,3.89v79.56a5.38,5.38,0,0,1-1.47,3.88,5.23,5.23,0,0,1-7.41,0,5.38,5.38,0,0,1-1.46-3.88Z" transform="translate(-3.56 -75.4)" style="fill:#231f20"/><path d="M464.33,80.82a5.42,5.42,0,0,1,1.47-3.89,5.25,5.25,0,0,1,7.41,0,5.46,5.46,0,0,1,1.46,3.89V196.54a5.42,5.42,0,0,1-1.46,3.88,5.23,5.23,0,0,1-7.41,0,5.38,5.38,0,0,1-1.47-3.88Zm74.3,110.29a4.9,4.9,0,0,1,3.7,1.54,5.87,5.87,0,0,1,0,7.77,4.87,4.87,0,0,1-3.7,1.54H486.74a4.9,4.9,0,0,1-3.71-1.54,5.9,5.9,0,0,1,0-7.77,4.94,4.94,0,0,1,3.71-1.54Z" transform="translate(-3.56 -75.4)" style="fill:#231f20"/><path d="M560.52,80.82A5.46,5.46,0,0,1,562,76.93a5.26,5.26,0,0,1,7.42,0,5.46,5.46,0,0,1,1.46,3.89V196.54a5.42,5.42,0,0,1-1.46,3.88,5.24,5.24,0,0,1-7.42,0,5.42,5.42,0,0,1-1.46-3.88Z" transform="translate(-3.56 -75.4)" style="fill:#231f20"/><path d="M675.15,75.4a4.93,4.93,0,0,1,3.71,1.53,5.91,5.91,0,0,1,0,7.78,4.93,4.93,0,0,1-3.71,1.53H594.3a4.89,4.89,0,0,1-3.7-1.53,5.88,5.88,0,0,1,0-7.78,4.89,4.89,0,0,1,3.7-1.53ZM629.47,97.09a5.42,5.42,0,0,1,1.46-3.88,5.24,5.24,0,0,1,7.42,0,5.42,5.42,0,0,1,1.46,3.88v99.45a5.42,5.42,0,0,1-1.46,3.88,5.24,5.24,0,0,1-7.42,0,5.42,5.42,0,0,1-1.46-3.88Z" transform="translate(-3.56 -75.4)" style="fill:#231f20"/><path d="M698.94,80.82a5.46,5.46,0,0,1,1.46-3.89,5.26,5.26,0,0,1,7.42,0,5.46,5.46,0,0,1,1.46,3.89V196.54a5.42,5.42,0,0,1-1.46,3.88,5.24,5.24,0,0,1-7.42,0,5.42,5.42,0,0,1-1.46-3.88Zm74.81,110.29a4.94,4.94,0,0,1,3.71,1.54,5.9,5.9,0,0,1,0,7.77,4.9,4.9,0,0,1-3.71,1.54H718.59a4.89,4.89,0,0,1-3.71-1.54,5.9,5.9,0,0,1,0-7.77,4.92,4.92,0,0,1,3.71-1.54ZM773.58,75.4a4.93,4.93,0,0,1,3.71,1.53,5.91,5.91,0,0,1,0,7.78,4.93,4.93,0,0,1-3.71,1.53H718.93a4.89,4.89,0,0,1-3.7-1.53,5.88,5.88,0,0,1,0-7.78,4.89,4.89,0,0,1,3.7-1.53Zm-10.17,53.52a4.89,4.89,0,0,1,3.7,1.53,5.88,5.88,0,0,1,0,7.78,4.89,4.89,0,0,1-3.7,1.53H718.93a4.89,4.89,0,0,1-3.7-1.53,5.88,5.88,0,0,1,0-7.78,4.89,4.89,0,0,1,3.7-1.53Z" transform="translate(-3.56 -75.4)" style="fill:#231f20"/></svg>