<svg id="Layer_1" data-name="Layer 1" xmlns="http://www.w3.org/2000/svg" viewBox="0 0 776.4 118.74"><title>neontrace</title><path d="M5.24,193.48a3.15,3.15,0,0,1-2.46-1.1,3.92,3.92,0,0,1-1-2.74V87.44a10.29,10.29,0,0,1,1.79-6,8,8,0,0,1,4.72-3.32,8,8,0,0,1,5.77.66,9.76,9.76,0,0,1,4.15,4.36L65.5,184.62a1.64,1.64,0,0,0,1,.89,1.53,1.53,0,0,0,1,0,6.22,6.22,0,0,0,.75-.52,1.47,1.47,0,0,0,.48-1.25V79.17a3.92,3.92,0,0,1,1-2.73,3.39,3.39,0,0,1,5,0,3.89,3.89,0,0,1,1,2.73V183.74a10.33,10.33,0,0,1-1.77,6A7.88,7.88,0,0,1,69,193a8.18,8.18,0,0,1-5.77-.59A9.22,9.22,0,0,1,59.11,188L11.82,86.71c-.27-.59-.59-.91-1-1a1.37,1.37,0,0,0-.82.07,1.2,1.2,0,0,0-.81.37,1.63,1.63,0,0,0-.41,1.25v102.2a3.8,3.8,0,0,1-1.07,2.74A3.37,3.37,0,0,1,5.24,193.48Z" transform="translate(-1.78 -75.33)" style="fill:#231f20"/><path d="M92.76,125.84a3.17,3.17,0,0,1-2.51-1.18,4.12,4.12,0,0,1-1-2.8V86.26A10.57,10.57,0,0,1,92,79a8.59,8.59,0,0,1,6.64-3h54.65a3.24,3.24,0,0,1,2.5,1.11,3.89,3.89,0,0,1,1,2.73,4.16,4.16,0,0,1-1,2.81,3.15,3.15,0,0,1-2.5,1.18H98.59a2.24,2.24,0,0,0-1.63.67,2.46,2.46,0,0,0-.67,1.84v35.6a4.13,4.13,0,0,1-1,2.8A3.19,3.19,0,0,1,92.76,125.84Zm5.83,11.37a2.29,2.29,0,0,0-2.3,2.37v44.16a2.45,2.45,0,0,0,.67,1.84,2.24,2.24,0,0,0,1.63.67h54.65a3.24,3.24,0,0,1,2.5,1.11,3.85,3.85,0,0,1,1,2.73,4.13,4.13,0,0,1-1,2.8,3.16,3.16,0,0,1-2.5,1.19H98.59a8.56,8.56,0,0,1-6.64-3,10.51,10.51,0,0,1-2.71-7.29V139.7A10.52,10.52,0,0,1,92,132.41a8.58,8.58,0,0,1,6.64-3h54.65a3.19,3.19,0,0,1,2.5,1.16,4.23,4.23,0,0,1,0,5.51,3.19,3.19,0,0,1-2.5,1.15Z" transform="translate(-1.78 -75.33)" style="fill:#231f20"/><path d="M201.23,193.93a1.36,1.36,0,0,1-.67-.15,32.59,32.59,0,0,1-11.87-4.73,38.41,38.41,0,0,1-9.69-9,41,41,0,0,1-6.44-12.11,43,43,0,0,1-2.24-13.88v-38a43.48,43.48,0,0,1,2.78-15.51,38.46,38.46,0,0,1,8.07-13,37.18,37.18,0,0,1,12-8.88,33.59,33.59,0,0,1,14.17-3.08,34.39,34.39,0,0,1,14.37,3.08,35.68,35.68,0,0,1,11.93,8.88,39.43,39.43,0,0,1,8.14,13,42.88,42.88,0,0,1,2.84,15.51v38a43.21,43.21,0,0,1-2.23,13.88A39.58,39.58,0,0,1,235.81,180a36,36,0,0,1-9.63,9,33.16,33.16,0,0,1-11.93,4.73,3.12,3.12,0,0,1-2.64-.59,3.82,3.82,0,0,1-1.43-2.51,3.9,3.9,0,0,1,.55-2.88,3.4,3.4,0,0,1,2.3-1.55,32.26,32.26,0,0,0,9.56-4,27.54,27.54,0,0,0,7.8-7.24,30.28,30.28,0,0,0,5.35-9.74,35.18,35.18,0,0,0,1.83-11.23v-38a34.41,34.41,0,0,0-2.3-12.56,32,32,0,0,0-6.65-10.48A28.49,28.49,0,0,0,219,85.89a28.55,28.55,0,0,0-23.05,0,29.94,29.94,0,0,0-9.77,7.17,32.94,32.94,0,0,0-6.57,10.56,34.59,34.59,0,0,0-2.24,12.48v38a35.18,35.18,0,0,0,1.83,11.23,31.79,31.79,0,0,0,5.22,9.74,29.75,29.75,0,0,0,7.86,7.24,31.28,31.28,0,0,0,9.63,4,3.44,3.44,0,0,1,2.31,1.55,3.94,3.94,0,0,1,.54,2.88,4.17,4.17,0,0,1-1.22,2.36A3.26,3.26,0,0,1,201.23,193.93Z" transform="translate(-1.78 -75.33)" style="fill:#231f20"/><path d="M261.64,193.48a3.18,3.18,0,0,1-2.46-1.1,4,4,0,0,1-1-2.74V87.44a10.23,10.23,0,0,1,1.8-6,7.94,7.94,0,0,1,4.71-3.32,8.07,8.07,0,0,1,5.78.66,9.79,9.79,0,0,1,4.14,4.36L321.9,184.62a1.67,1.67,0,0,0,1,.89,1.57,1.57,0,0,0,1,0,5.55,5.55,0,0,0,.74-.52,1.47,1.47,0,0,0,.48-1.25V79.17a3.89,3.89,0,0,1,1-2.73,3.38,3.38,0,0,1,5,0,3.89,3.89,0,0,1,1,2.73V183.74a10.39,10.39,0,0,1-1.76,6,7.91,7.91,0,0,1-4.88,3.32,8.21,8.21,0,0,1-5.78-.59,9.15,9.15,0,0,1-4.14-4.43L268.22,86.71c-.27-.59-.59-.91-1-1a1.34,1.34,0,0,0-.81.07,1.2,1.2,0,0,0-.82.37,1.63,1.63,0,0,0-.41,1.25v102.2a3.8,3.8,0,0,1-1.06,2.74A3.37,3.37,0,0,1,261.64,193.48Z" transform="translate(-1.78 -75.33)" style="fill:#231f20"/><path d="M382.52,194.08A3.27,3.27,0,0,1,380,193a3.89,3.89,0,0,1-1-2.74V95.88a10.33,10.33,0,0,1,2.72-7.25,8.66,8.66,0,0,1,6.64-3h23c.63,0,1-.3,1-.89s-.32-1-1-1H349.16a3.2,3.2,0,0,1-2.5-1.13,4,4,0,0,1-1-2.78,4,4,0,0,1,1-2.79,3.23,3.23,0,0,1,2.5-1.13H411.4a7.36,7.36,0,0,1,5.7,2.59,9.13,9.13,0,0,1,2.3,6.28,9,9,0,0,1-2.3,6.13,7.35,7.35,0,0,1-5.7,2.58h-23a2.15,2.15,0,0,0-1.63.74,2.52,2.52,0,0,0-.67,1.77v94.23a3.89,3.89,0,0,1-1,2.73A3.28,3.28,0,0,1,382.52,194.08Z" transform="translate(-1.78 -75.33)" style="fill:#231f20"/><path d="M436.49,193.63a3.27,3.27,0,0,1-2.51-1.11,3.85,3.85,0,0,1-1-2.73V85.67a10.29,10.29,0,0,1,2.71-7.23,8.68,8.68,0,0,1,6.65-3h36.2a25.82,25.82,0,0,1,10.85,2.36,28.37,28.37,0,0,1,9.08,6.65,30.34,30.34,0,0,1,6,9.9,33.42,33.42,0,0,1,2.1,11.81,32.8,32.8,0,0,1-2.1,11.74,30.4,30.4,0,0,1-6,9.82,28.07,28.07,0,0,1-9.08,6.65,25.67,25.67,0,0,1-10.85,2.36H453.57a.85.85,0,0,0-.95,1c0,.73.32,1.1.95,1.1h22.92a18.42,18.42,0,0,1,10,3,20.57,20.57,0,0,1,6.91,8.51l17.36,37.51a4.41,4.41,0,0,1,.27,3,3.51,3.51,0,0,1-1.76,2.29,3.1,3.1,0,0,1-2.71.22,3.62,3.62,0,0,1-2-2L487.2,153.76a13.28,13.28,0,0,0-4.48-5.17,10.91,10.91,0,0,0-6.23-1.92H453.57a7.49,7.49,0,0,1-5.76-2.61,9.09,9.09,0,0,1-2.38-6.33,8.81,8.81,0,0,1,2.38-6.25,7.6,7.6,0,0,1,5.76-2.54h24.95a18.9,18.9,0,0,0,8.2-1.83,21.68,21.68,0,0,0,6.71-4.94,22.84,22.84,0,0,0,4.48-7.21,23.93,23.93,0,0,0,1.63-8.83,24.55,24.55,0,0,0-1.63-8.91,22.78,22.78,0,0,0-4.48-7.29,20.51,20.51,0,0,0-6.71-4.85,19.44,19.44,0,0,0-8.2-1.77h-36.2a2.24,2.24,0,0,0-1.63.66,2.3,2.3,0,0,0-.68,1.7V189.79a3.85,3.85,0,0,1-1,2.73A3.24,3.24,0,0,1,436.49,193.63Z" transform="translate(-1.78 -75.33)" style="fill:#231f20"/><path d="M528.15,193.63a3.85,3.85,0,0,1-1.09-.29,3.16,3.16,0,0,1-2.1-1.85,4.1,4.1,0,0,1-.07-3L558.11,82.28a10.63,10.63,0,0,1,3.39-5,8.42,8.42,0,0,1,5.42-1.85,8.74,8.74,0,0,1,5.5,1.85,10.45,10.45,0,0,1,3.45,5l19,60.4a10,10,0,0,1,.68,4.8A11.21,11.21,0,0,1,594,152a8,8,0,0,1-7.18,4.29h-26q-1.35,0-1.35,1.47c0,1,.45,1.48,1.35,1.48h31.33a9.26,9.26,0,0,1,5.62,1.85,10.21,10.21,0,0,1,3.6,4.94l.13.15L609,188.32a4.07,4.07,0,0,1-.07,3,3.69,3.69,0,0,1-2.1,2,2.92,2.92,0,0,1-2.64-.08,3.75,3.75,0,0,1-1.84-2.29l-7.45-22a3,3,0,0,0-2.71-1.92H560.82a7.9,7.9,0,0,1-6-2.73,9.87,9.87,0,0,1,0-13.15,7.9,7.9,0,0,1,6-2.73h26a1.24,1.24,0,0,0,.81-.22,5.2,5.2,0,0,0,.54-.52,5.05,5.05,0,0,0,.27-.81,2.14,2.14,0,0,0-.13-1.26l-.14-.29L569.09,84.79c-.18-.79-.52-1.26-1-1.41a2.77,2.77,0,0,0-2.17,0q-.75.23-1,1.41L531.54,191A3.45,3.45,0,0,1,528.15,193.63Z" transform="translate(-1.78 -75.33)" style="fill:#231f20"/><path d="M660.48,194.08h-2.17l-.4-.45a32.84,32.84,0,0,1-13.7-3.84A39.24,39.24,0,0,1,633.09,181a42.13,42.13,0,0,1-10.3-27.69V116.1a40.47,40.47,0,0,1,3-15.44,44.85,44.85,0,0,1,8.14-13.07A37,37,0,0,1,646.11,79a35.61,35.61,0,0,1,14.37-3h1.09A36.72,36.72,0,0,1,674,78.71,32.8,32.8,0,0,1,684.75,86a37.73,37.73,0,0,1,8.14,11.15A44.36,44.36,0,0,1,697,110.63a3.77,3.77,0,0,1-.61,2.88,3.64,3.64,0,0,1-2.38,1.55,2.91,2.91,0,0,1-2.64-.74,4.38,4.38,0,0,1-1.42-2.65,33.69,33.69,0,0,0-9.77-19.94A29.33,29.33,0,0,0,671,85.82a27.61,27.61,0,0,0-10.51-2.07H659.4a29.19,29.19,0,0,0-11.32,2.88,29.93,29.93,0,0,0-9.36,7,33.5,33.5,0,0,0-6.3,10.18,32.94,32.94,0,0,0-2.31,12.39v37.16A32.93,32.93,0,0,0,632.55,166a34.75,34.75,0,0,0,6.58,10.47,31.59,31.59,0,0,0,9.62,7.15,26.63,26.63,0,0,0,11.73,2.66h1.36a29.11,29.11,0,0,0,18.3-8.27,32.81,32.81,0,0,0,6.51-9.09A36.09,36.09,0,0,0,690,158a4.58,4.58,0,0,1,1.36-2.66,2.76,2.76,0,0,1,2.57-.74,4.08,4.08,0,0,1,2.45,1.48,3.4,3.4,0,0,1,.67,2.81A44.92,44.92,0,0,1,693,172.51a38,38,0,0,1-8.27,11.37,39,39,0,0,1-11.25,7.46A32,32,0,0,1,660.48,194.08Z" transform="translate(-1.78 -75.33)" style="fill:#231f20"/><path d="M714.18,125.84a3.17,3.17,0,0,1-2.51-1.18,4.13,4.13,0,0,1-1-2.8V86.26A10.57,10.57,0,0,1,713.36,79a8.61,8.61,0,0,1,6.65-3h54.64A3.27,3.27,0,0,1,777.16,77a3.89,3.89,0,0,1,1,2.73,4.16,4.16,0,0,1-1,2.81,3.17,3.17,0,0,1-2.51,1.18H720a2.21,2.21,0,0,0-1.63.67,2.47,2.47,0,0,0-.68,1.84v35.6a4.17,4.17,0,0,1-1,2.8A3.19,3.19,0,0,1,714.18,125.84ZM720,137.21a2.25,2.25,0,0,0-1.63.67,2.28,2.28,0,0,0-.68,1.7v44.16a2.45,2.45,0,0,0,.68,1.84,2.21,2.21,0,0,0,1.63.67h54.64a3.27,3.27,0,0,1,2.51,1.11,3.85,3.85,0,0,1,1,2.73,4.13,4.13,0,0,1-1,2.8,3.18,3.18,0,0,1-2.51,1.19H720a8.58,8.58,0,0,1-6.65-3,10.51,10.51,0,0,1-2.71-7.29V139.7a10.52,10.52,0,0,1,2.71-7.29,8.6,8.6,0,0,1,6.65-3h54.64a3.21,3.21,0,0,1,2.51,1.16,4.23,4.23,0,0,1,0,5.51,3.21,3.21,0,0,1-2.51,1.15Z" transform="translate(-1.78 -75.33)" style="fill:#231f20"/></svg>