<svg id="Layer_1" data-name="Layer 1" xmlns="http://www.w3.org/2000/svg" viewBox="0 0 776.02 136.37"><title>neonglow</title><path d="M1.88,186.24V80.15a12.22,12.22,0,0,1,3.69-8.91,12.09,12.09,0,0,1,9-3.73,12.26,12.26,0,0,1,10.35,5.35l60.55,76.88V80.15A12.67,12.67,0,0,1,98.06,67.51a12.09,12.09,0,0,1,9,3.73,12.22,12.22,0,0,1,3.69,8.91v106a12.71,12.71,0,0,1-4.83,10,13.08,13.08,0,0,1-7.9,2.72c-.47,0-1.65-.12-3.55-.35s-4-1.73-6.27-4.48l-61-77.49v69.68a12.24,12.24,0,0,1-3.69,8.91,12.1,12.1,0,0,1-8.95,3.73,12.09,12.09,0,0,1-8.95-3.73A12.24,12.24,0,0,1,1.88,186.24Zm6.32,0A6.11,6.11,0,0,0,10,190.67a6,6,0,0,0,4.48,1.89A6,6,0,0,0,19,190.67a6.12,6.12,0,0,0,1.85-4.43V98.4l72.22,91.7a6.17,6.17,0,0,0,4.21,2.37H98a6.84,6.84,0,0,0,4-1.31,6.33,6.33,0,0,0,2.37-5v-106a6.32,6.32,0,1,0-12.64,0V168l-72-91.44a6.19,6.19,0,0,0-5.18-2.72A6.28,6.28,0,0,0,8.2,80.15Z" transform="translate(-1.88 -62.51)" style="fill:#231f20"/><path d="M186.43,195A43.2,43.2,0,0,1,174.76,198a93.34,93.34,0,0,1-11.23.92,34.68,34.68,0,0,1-8.25-1,36.93,36.93,0,0,1-15.1-7.55A45.43,45.43,0,0,1,127.33,173,53.28,53.28,0,0,1,123,151.84,51.07,51.07,0,0,1,134,119.64q10.53-12.56,25.19-14.48a29.2,29.2,0,0,1,4.56-.36q12.11,0,23.08,8.6a45.66,45.66,0,0,1,12.86,17.25,53.35,53.35,0,0,1,4.34,21.19,12.39,12.39,0,0,1-3.64,8.91,12.72,12.72,0,0,1-8.91,3.73H151.15a19.06,19.06,0,0,0,4.92,6.23,13.39,13.39,0,0,0,2.41,1.58,13.81,13.81,0,0,0,2.59,1.05,16,16,0,0,0,3.16.26c.64,0,1.68,0,3.11-.17s3.09-.32,5-.62c.82-.11,1.49-.21,2-.3s.82-.13.88-.13a13.67,13.67,0,0,1,5.7-1.32,17.52,17.52,0,0,1,5.35,1.14q3.34,1.14,5.88,5.88a13.09,13.09,0,0,1,1.32,5.62,18,18,0,0,1-1.14,5.39C191.55,191.35,189.59,193.32,186.43,195Zm-2.81-5.71a6.17,6.17,0,0,0,3.16-3.6,5.66,5.66,0,0,0,.35-1.93,6.73,6.73,0,0,0-.7-2.89,6.17,6.17,0,0,0-3.6-3.16,6.46,6.46,0,0,0-2-.35,6.9,6.9,0,0,0-2.8.61,18.28,18.28,0,0,1-4.83,1q-2.81.45-5.49.66c-1.78.15-3.17.22-4.16.22a16.28,16.28,0,0,1-8.25-2.15,23.38,23.38,0,0,1-6.58-5.57,31.11,31.11,0,0,1-6.23-14h49.05a6,6,0,0,0,4.39-1.84,6.09,6.09,0,0,0,1.84-4.48A47.25,47.25,0,0,0,194,133.32a39.81,39.81,0,0,0-11.1-15.09q-9.21-7.11-19.22-7.11-1.84,0-8.86,1T139,123.58a46.17,46.17,0,0,0,0,56.52,34.69,34.69,0,0,0,10.92,9.08,28.69,28.69,0,0,0,13.65,3.38,87.7,87.7,0,0,0,9.74-.79A38.55,38.55,0,0,0,183.62,189.31ZM148.7,131.48q4.29-5.08,8.24-6.4a21.66,21.66,0,0,1,6.59-1.32,16.71,16.71,0,0,1,5.35.88,21.45,21.45,0,0,1,9.56,6.84,30.51,30.51,0,0,1,6.15,14H142.47A31.16,31.16,0,0,1,148.7,131.48Zm14.83-1.31a11.12,11.12,0,0,0-7.37,2.72,20.81,20.81,0,0,0-5,6.31H175.9a19.56,19.56,0,0,0-5-6.31A11.14,11.14,0,0,0,163.53,130.17Z" transform="translate(-1.88 -62.51)" style="fill:#231f20"/><path d="M227.41,119.64q8.16-9.84,18.87-13.17a35.63,35.63,0,0,1,10.62-1.67,46.34,46.34,0,0,1,13.34,2.51q8,2.49,16.23,12.33a49.64,49.64,0,0,1,9.74,20.71,54.32,54.32,0,0,1,1.23,11.49,71.21,71.21,0,0,1-1.84,14.35q-1.85,8.64-9.13,17.86-8.25,9.82-18.87,13.16a37.68,37.68,0,0,1-10.7,1.58,47.37,47.37,0,0,1-13.3-2.46q-8-2.45-16.19-12.28a49.31,49.31,0,0,1-9.83-20.71,55.24,55.24,0,0,1-1.22-11.5,70.79,70.79,0,0,1,1.84-14.39Q220,128.86,227.41,119.64Zm4.83,3.94a42.56,42.56,0,0,0-7,12.77,48.32,48.32,0,0,0,0,31,42.44,42.44,0,0,0,7,12.77,35.67,35.67,0,0,0,11.06,9.12,29.36,29.36,0,0,0,27.2,0,35.79,35.79,0,0,0,11.06-9.12,42.66,42.66,0,0,0,7-12.77,48.5,48.5,0,0,0,0-31,42.78,42.78,0,0,0-7-12.77,35.38,35.38,0,0,0-11.06-9.08,29.75,29.75,0,0,0-27.2,0A35.26,35.26,0,0,0,232.24,123.58Zm24.66.27q8.6,0,14.92,7.72,6.66,8.25,6.67,20.27t-6.67,20.36q-6.33,7.73-14.92,7.72t-14.83-7.72q-6.76-8.34-6.76-20.36t6.76-20.27Q248.3,123.85,256.9,123.85Zm0,6.32q-5.62,0-10,5.35a21.14,21.14,0,0,0-4.38,8.91,38.94,38.94,0,0,0-.88,7.41,29.51,29.51,0,0,0,.61,6,23.83,23.83,0,0,0,4.65,10.35q4.74,5.35,10,5.36t10-5.36a21.67,21.67,0,0,0,4.43-8.9,37.38,37.38,0,0,0,.93-7.42,29.52,29.52,0,0,0-.62-6,24.74,24.74,0,0,0-4.74-10.35Q262.52,130.16,256.9,130.17Z" transform="translate(-1.88 -62.51)" style="fill:#231f20"/><path d="M335,148.86v37.38a12.24,12.24,0,0,1-3.69,8.91,12.6,12.6,0,0,1-17.9,0,12.27,12.27,0,0,1-3.68-8.91V117.53a12.64,12.64,0,0,1,22.37-8.07,38.9,38.9,0,0,1,18.08-4.66,36,36,0,0,1,7.11.71,39.5,39.5,0,0,1,22.2,12.81q11,12.29,11.5,30.54v37.29a12.82,12.82,0,0,1-3.69,8.91,12.55,12.55,0,0,1-8.86,3.73,12.71,12.71,0,0,1-9-3.64,12.54,12.54,0,0,1-3.81-8.91V148.86a22.62,22.62,0,0,0-1.23-7.37,18.16,18.16,0,0,0-3.78-6.41c-3.15-3.28-6.61-4.91-10.35-4.91s-7.11,1.63-10.27,4.91A19.8,19.8,0,0,0,335,148.86Zm36.94,37.38a6.39,6.39,0,0,0,6.5,6.23,6.11,6.11,0,0,0,4.34-1.84,6.47,6.47,0,0,0,1.8-4.48V148.77a39.71,39.71,0,0,0-9.83-26.33q-9.64-10.35-16.58-10.83t-7.9-.49q-11.76,0-21.59,8.52v-2.11a6.32,6.32,0,1,0-12.64,0v68.71a6.12,6.12,0,0,0,1.85,4.43,6.24,6.24,0,0,0,8.95,0,6.11,6.11,0,0,0,1.84-4.43V148.86a26.07,26.07,0,0,1,6.58-18q4.31-4.74,8.34-5.88a25.53,25.53,0,0,1,6.67-1.14,19.3,19.3,0,0,1,5.44.79,20.3,20.3,0,0,1,9.65,6.23,26,26,0,0,1,6.58,18Z" transform="translate(-1.88 -62.51)" style="fill:#231f20"/><path d="M454.79,120.51h41.77a12.65,12.65,0,0,1,12.63,12.64v26.5a12.66,12.66,0,0,1-1.05,5.18,55.05,55.05,0,0,1-19.92,24.57,54.11,54.11,0,0,1-51.64,5.22,55,55,0,0,1-17.33-11.71,56.31,56.31,0,0,1-11.72-17.38,52.36,52.36,0,0,1-4.26-21.06V121.92a52.71,52.71,0,0,1,4.26-21.11,55.17,55.17,0,0,1,29.05-29,54.23,54.23,0,0,1,49.8,4A55,55,0,0,1,506.47,98a13.09,13.09,0,0,1,1.32,5.62,18,18,0,0,1-1.14,5.39c-.76,2.26-2.72,4.23-5.88,5.93a13.63,13.63,0,0,1-5.62,1.31,18,18,0,0,1-5.39-1.14c-2.26-.76-4.23-2.72-5.93-5.88a28.87,28.87,0,0,0-10.79-12,28.17,28.17,0,0,0-15.36-4.39,29.37,29.37,0,0,0-29.13,29.14v22.55a29.37,29.37,0,0,0,29.13,29.13A27.49,27.49,0,0,0,474,168.51a29.64,29.64,0,0,0,9.92-11.4V145.79H454.79a12.64,12.64,0,0,1,0-25.28Zm0,6.32a6,6,0,0,0-4.48,1.89,6.3,6.3,0,0,0,4.48,10.75h35.45v18.95a36.16,36.16,0,0,1-12.73,15.36A35,35,0,0,1,444,177.11a36.14,36.14,0,0,1-19-19,34.21,34.21,0,0,1-2.76-13.69V121.92a35.46,35.46,0,0,1,35.45-35.46,34.1,34.1,0,0,1,18.69,5.36,35.93,35.93,0,0,1,13.17,14.56,6.14,6.14,0,0,0,3.59,3.16,5.53,5.53,0,0,0,1.94.35,6.73,6.73,0,0,0,2.89-.7,6.17,6.17,0,0,0,3.16-3.6,6.45,6.45,0,0,0,.35-2,6.92,6.92,0,0,0-.61-2.81A49.32,49.32,0,0,0,483,81.11a47.9,47.9,0,0,0-44-3.51,48.75,48.75,0,0,0-25.66,25.67,46.44,46.44,0,0,0-3.78,18.65v22.55a46.1,46.1,0,0,0,3.78,18.6,49.74,49.74,0,0,0,10.35,15.36A48.91,48.91,0,0,0,439,188.79a46.6,46.6,0,0,0,18.65,3.77,45.81,45.81,0,0,0,26.94-8.43,48,48,0,0,0,17.73-21.85,6.57,6.57,0,0,0,.53-2.63v-26.5a6.13,6.13,0,0,0-1.85-4.43,6,6,0,0,0-4.47-1.89Z" transform="translate(-1.88 -62.51)" style="fill:#231f20"/><path d="M546.75,75.14v111.1a12.27,12.27,0,0,1-3.68,8.91,12.6,12.6,0,0,1-17.9,0,12.24,12.24,0,0,1-3.69-8.91V75.14a12.64,12.64,0,0,1,25.27,0Zm-6.32,0a6.14,6.14,0,0,0-1.84-4.43,6.24,6.24,0,0,0-9,0,6.14,6.14,0,0,0-1.84,4.43v111.1a6.11,6.11,0,0,0,1.84,4.43,6.24,6.24,0,0,0,9,0,6.11,6.11,0,0,0,1.84-4.43Z" transform="translate(-1.88 -62.51)" style="fill:#231f20"/><path d="M570.1,119.64q8.16-9.84,18.86-13.17a35.63,35.63,0,0,1,10.62-1.67,46.28,46.28,0,0,1,13.34,2.51q8,2.49,16.23,12.33a49.66,49.66,0,0,1,9.75,20.71,55,55,0,0,1,1.22,11.49,71.21,71.21,0,0,1-1.84,14.35q-1.85,8.64-9.13,17.86-8.24,9.82-18.86,13.16a37.8,37.8,0,0,1-10.71,1.58,47.25,47.25,0,0,1-13.29-2.46q-8-2.45-16.19-12.28a49.07,49.07,0,0,1-9.83-20.71,55.26,55.26,0,0,1-1.23-11.5,70.79,70.79,0,0,1,1.84-14.39Q562.73,128.86,570.1,119.64Zm4.82,3.94a42.78,42.78,0,0,0-7,12.77,48.5,48.5,0,0,0,0,31,42.66,42.66,0,0,0,7,12.77A35.79,35.79,0,0,0,586,189.22a29.36,29.36,0,0,0,27.2,0,35.67,35.67,0,0,0,11.06-9.12,42.66,42.66,0,0,0,7-12.77,48.32,48.32,0,0,0,0-31,42.78,42.78,0,0,0-7-12.77,35.26,35.26,0,0,0-11.06-9.08,29.75,29.75,0,0,0-27.2,0A35.38,35.38,0,0,0,574.92,123.58Zm24.66.27q8.59,0,14.92,7.72,6.68,8.25,6.67,20.27T614.5,172.2q-6.32,7.73-14.92,7.72t-14.83-7.72Q578,163.86,578,151.84t6.76-20.27Q591,123.85,599.58,123.85Zm0,6.32q-5.61,0-10,5.35a21.17,21.17,0,0,0-4.39,8.91,38.94,38.94,0,0,0-.88,7.41,29.52,29.52,0,0,0,.62,6,23.83,23.83,0,0,0,4.65,10.35q4.74,5.35,10,5.36t10-5.36a21.82,21.82,0,0,0,4.44-8.9,38,38,0,0,0,.92-7.42,29.52,29.52,0,0,0-.62-6,24.74,24.74,0,0,0-4.74-10.35Q605.2,130.16,599.58,130.17Z" transform="translate(-1.88 -62.51)" style="fill:#231f20"/><path d="M668.82,112.79l15.36,39.31,15.18-39a12.8,12.8,0,0,1,11.85-8.34,17,17,0,0,1,6,1.41q3.56,1.41,5.83,6.93l15.27,39,15.36-39.31a12.31,12.31,0,0,1,6.67-6.84,12.45,12.45,0,0,1,5-1.06,13.46,13.46,0,0,1,4.65.88,12.24,12.24,0,0,1,7.9,11.5,14.1,14.1,0,0,1-.88,4.82l-26.59,67.66a13.81,13.81,0,0,1-7.46,8.16,14.15,14.15,0,0,1-4.82.88,15.91,15.91,0,0,1-6-1.49q-3.51-1.5-5.62-6.41l-15.35-39-14.92,37.91a13.51,13.51,0,0,1-7.46,8.16,14.2,14.2,0,0,1-4.83.88,15.91,15.91,0,0,1-6-1.49q-3.51-1.5-5.61-6.41l-27-68.8a13.23,13.23,0,0,1-.88-4.65,16,16,0,0,1,1.49-6q1.5-3.51,6.5-5.62a13.46,13.46,0,0,1,4.65-.88,16,16,0,0,1,6.05,1.49Q666.71,107.88,668.82,112.79Zm-5.88,2.37a6.51,6.51,0,0,0-3.33-3.51,5.68,5.68,0,0,0-2.37-.53,6.7,6.7,0,0,0-2.46.53,5.8,5.8,0,0,0-3.42,3.33,6.23,6.23,0,0,0-.53,2.46,7.11,7.11,0,0,0,.44,2.37l27,68.71a6.51,6.51,0,0,0,3.33,3.51,6.86,6.86,0,0,0,2.37.44,7.1,7.1,0,0,0,2.46-.44,6.28,6.28,0,0,0,3.77-4l21-53.36,21.23,53.88a6.5,6.5,0,0,0,3.34,3.51,6.39,6.39,0,0,0,2.37.44,7.09,7.09,0,0,0,2.45-.44,6.32,6.32,0,0,0,3.78-4l26.85-68.19a7.11,7.11,0,0,0,.44-2.37,7.81,7.81,0,0,0-.79-3,5.5,5.5,0,0,0-3.25-2.76,6.23,6.23,0,0,0-2.46-.53,7.55,7.55,0,0,0-2.89.79,5.85,5.85,0,0,0-2.81,3.25l-21.15,54-21.15-53.8a6.06,6.06,0,0,0-3.59-3.68,5.68,5.68,0,0,0-2.37-.53,8.67,8.67,0,0,0-2.94.7q-1.8.71-3,3.51l-21.06,53.8Z" transform="translate(-1.88 -62.51)" style="fill:#231f20"/></svg>