<svg id="Layer_1" data-name="Layer 1" xmlns="http://www.w3.org/2000/svg" viewBox="0 0 774.99 136.97"><title>newcursive</title><path d="M119.2,159.81a3.58,3.58,0,0,1,1.47,3,4.69,4.69,0,0,1-1.22,3.2,217,217,0,0,1-17,16.35A79.17,79.17,0,0,1,88.66,192a25.11,25.11,0,0,1-5.74,2.18,21.18,21.18,0,0,1-4.52.57,10.45,10.45,0,0,1-3.55-.57A10.7,10.7,0,0,1,72.29,193c-3.42-2.59-5.1-5.72-5-9.38a42.41,42.41,0,0,1,1.34-10.06A103,103,0,0,1,73,161q2.92-7.08,7.09-15.78,3.17-7.08,6.72-15t7.2-17q6.1-15.54,8.31-25.38c.16-.61.37-1.71.61-3.31a46.69,46.69,0,0,0,.49-5.15,20.21,20.21,0,0,0-.36-5,3.8,3.8,0,0,0-2.2-3H97.09q-3.54,0-10.39,3.66c-2,1.07-4.27,2.51-7,4.34a75,75,0,0,0-8.8,7.2A140.27,140.27,0,0,0,60.68,97.39q-5.51,6.39-11.85,15.31Q41.74,128.48,32.58,149T11.93,194.1a4.27,4.27,0,0,1-4.16,2.52,6.84,6.84,0,0,1-1.95-.23A4.3,4.3,0,0,1,3.38,194a3.93,3.93,0,0,1,0-3.32Q15.11,166,24.27,145.4t16-36.35c1-2.14,1.92-4.19,2.81-6.18s1.75-3.88,2.57-5.71c1-2.14,2-4.46,2.93-7A65,65,0,0,0,51,82.52a10.92,10.92,0,0,1,.36-1.94,18.11,18.11,0,0,0,.49-3.09,18.38,18.38,0,0,0,0-3c-.08-.91-.36-1.45-.85-1.6a17.11,17.11,0,0,0-8.07-.8,36.56,36.56,0,0,0-8.06,2.06,41.3,41.3,0,0,0-7.21,3.54,50.35,50.35,0,0,0-5.5,3.89,5.42,5.42,0,0,1-3.42,1.14,4.07,4.07,0,0,1-3.18-1.37,4.23,4.23,0,0,1-1.1-3.2,3.93,3.93,0,0,1,1.59-3,70.46,70.46,0,0,1,7.82-5.38,49.46,49.46,0,0,1,9.41-4.34,39.69,39.69,0,0,1,10.26-2.06A28.33,28.33,0,0,1,54,64.69a8.6,8.6,0,0,1,6.11,5q2.43,5.27,0,15.09,11.73-12.12,22-17.38,9.28-5,14.78-4.91a38.92,38.92,0,0,1,7.21.57,12.37,12.37,0,0,1,7.09,6.4q2.94,6,1,17t-9.53,29.61q-3.68,9.39-7.21,17.38T88.66,148.6q-3.18,7.1-6,13.26A107.56,107.56,0,0,0,78.27,173a36.26,36.26,0,0,0-1.83,8.35q-.24,3.42,1.47,4.8c.16,0,.89-.08,2.2-.23a18.63,18.63,0,0,0,6-2.51A79.35,79.35,0,0,0,96.6,175.7a194.24,194.24,0,0,0,16-15.44,4.43,4.43,0,0,1,3.17-1.48A4.85,4.85,0,0,1,119.2,159.81Z" transform="translate(-3.01 -61.93)" style="fill:#231f20"/><path d="M171.5,160.72a4.27,4.27,0,0,1,1.46,3.2,3.89,3.89,0,0,1-1.22,3Q153.9,184.5,140,190.9a32.11,32.11,0,0,1-13.19,3.2,16.75,16.75,0,0,1-5.5-.8,17.35,17.35,0,0,1-4-1.94,16.27,16.27,0,0,1-3.91-4.23,17.18,17.18,0,0,1-2.45-8.12,34.3,34.3,0,0,1,1.23-10.4,59.11,59.11,0,0,1,4.15-11.09A64.77,64.77,0,0,1,122.75,147a51.62,51.62,0,0,1,8.18-8.69q7.33-5.72,13.69-7.09,8.3-1.82,13.44,3.43a10.09,10.09,0,0,1,2.68,8.24,13.54,13.54,0,0,1-2.19,5.25,28.27,28.27,0,0,1-4,4.69,43.38,43.38,0,0,1-4.76,3.89c-1.63,1.14-3.1,2.1-4.4,2.86a62.47,62.47,0,0,1-12.58,5.6,55.21,55.21,0,0,1-10.88,2.4,55.92,55.92,0,0,0-1.47,5.83,18.64,18.64,0,0,0-.24,5.14,10.72,10.72,0,0,0,.49,3.2,4.4,4.4,0,0,0,2,2.52,8.35,8.35,0,0,0,5.62,1,28.68,28.68,0,0,0,9-2.86,67.63,67.63,0,0,0,12.21-7.77A170.78,170.78,0,0,0,164.9,161a4.82,4.82,0,0,1,3.42-1.37A4.49,4.49,0,0,1,171.5,160.72ZM137,144.94a52.93,52.93,0,0,0-5.74,5.83,47,47,0,0,0-5,7.21,51,51,0,0,0,6.48-2.06,65.15,65.15,0,0,0,7.69-3.66,37.68,37.68,0,0,0,8.07-6.06c1.79-1.9,2.76-3.39,2.93-4.46q0-2.28-3.18-2.28Q143.64,139.46,137,144.94Z" transform="translate(-3.01 -61.93)" style="fill:#231f20"/><path d="M289.52,159.81a4.63,4.63,0,0,1,1.23,3.2,3.58,3.58,0,0,1-1.47,3q-8.31,6.86-13.93,9.37a21.43,21.43,0,0,1-9,2.29,10.46,10.46,0,0,1-5.87-1.6,11.31,11.31,0,0,1-4.39-5,101,101,0,0,1-13.93,14.63q-10,8.7-18.82,8.69a16.32,16.32,0,0,1-4.89-.69,11.4,11.4,0,0,1-2.93-1.82,10.78,10.78,0,0,1-2.93-4.12q-2.7-5.49-1.47-14.4a129.06,129.06,0,0,1-11.73,11q-12.47,10.29-20,10.29a11,11,0,0,1-4.65-1.14,7.68,7.68,0,0,1-4.4-6.52,38.61,38.61,0,0,1,.25-7.66,95.23,95.23,0,0,1,4.89-16.46,16.77,16.77,0,0,0-1.84,1.48,16.51,16.51,0,0,1-1.83,1.49,5,5,0,0,1-6.6-.69,3.82,3.82,0,0,1-1-3.2,4.36,4.36,0,0,1,1.71-3,72.39,72.39,0,0,0,12.21-11.32q5.13-6,8.56-10.63a15.19,15.19,0,0,1,1-1.94,14.67,14.67,0,0,0,1-1.95,4,4,0,0,1,2.44-2.17,5.54,5.54,0,0,1,3.67.12,4.24,4.24,0,0,1,2.44,2.4,3.43,3.43,0,0,1-.24,3.31Q184.69,161.86,180.78,176q-2.44,8.69-1.22,9.83c.49.31,1.95-.19,4.4-1.49a65.7,65.7,0,0,0,10-7.2,145.23,145.23,0,0,0,11.6-11.2q6-6.4,11.61-13.26,3.67-4.8,7-9.83a109.92,109.92,0,0,0,6-10.29,4.93,4.93,0,0,1,2.69-2.18,4.22,4.22,0,0,1,3.42.35,4.72,4.72,0,0,1,2.57,2.51,3.51,3.51,0,0,1-.37,3.2A170,170,0,0,1,226,155.92a69.76,69.76,0,0,0-4.64,12.92,40.62,40.62,0,0,0-1.23,8.57,30.26,30.26,0,0,0,.37,5.6,3.73,3.73,0,0,0,1.34,2.4q1.71,1.16,5.63-.57a32.82,32.82,0,0,0,8.3-5.6q9-7.32,19.55-22.18a100.22,100.22,0,0,0,11-21.95q1.71-3.88,5.86-2.74a4,4,0,0,1,2.81,2.06,4.52,4.52,0,0,1,.37,3.43A94.86,94.86,0,0,1,263.62,161a15.56,15.56,0,0,0,.25,4.8,4.13,4.13,0,0,0,1.71,3q.72.47,4.88-.8t12.71-8.34a4.47,4.47,0,0,1,3.18-1.15A4,4,0,0,1,289.52,159.81Z" transform="translate(-3.01 -61.93)" style="fill:#231f20"/><path d="M375.78,161.86a4,4,0,0,1,1.59,3,4.2,4.2,0,0,1-1.1,3.2q-20.52,21.72-44,28.35a53.07,53.07,0,0,1-8.68,1.94,63.74,63.74,0,0,1-8.43.57h-3.42a39.67,39.67,0,0,1-16.86-4.8q-14.17-7.54-17.11-25.15a62.91,62.91,0,0,1-.24-18.41,90.17,90.17,0,0,1,4.89-20,120.47,120.47,0,0,1,9.53-20,107.55,107.55,0,0,1,13.68-18.4,109.34,109.34,0,0,1,16.74-15.21,92.28,92.28,0,0,1,18-10.4q9.52-4.35,17.23-4.57t12.58,3.65q6.6,5.27,7.09,15.78a55.66,55.66,0,0,1-.37,6A31.28,31.28,0,0,1,374.93,95a49.88,49.88,0,0,1-4.64,9,56.58,56.58,0,0,1-8.19,9.83,5.42,5.42,0,0,1-3.42,1.14,4.46,4.46,0,0,1-3.18-1.14,3.58,3.58,0,0,1-1.46-3,4.27,4.27,0,0,1,1.46-3.21q8.55-8.22,10.63-15.2T368,81.84a15.34,15.34,0,0,0-1.46-6.18,13.51,13.51,0,0,0-2.45-3.43c-1.63-1.21-4.23-1.67-7.82-1.37a39.61,39.61,0,0,0-12.34,3.55,88.42,88.42,0,0,0-15.15,8.91,99,99,0,0,0-16,14.52,93.77,93.77,0,0,0-12.47,16.69,115.48,115.48,0,0,0-8.79,18.41,91.57,91.57,0,0,0-4.77,18.18,48.66,48.66,0,0,0,.12,16.46q2.7,13.5,12.71,19.21a29.73,29.73,0,0,0,13.56,3.54,50.47,50.47,0,0,0,16.5-2.17,90,90,0,0,0,17.47-7.78q10.38-5.7,22.12-18.06a4.44,4.44,0,0,1,3.17-1.49A4.94,4.94,0,0,1,375.78,161.86Z" transform="translate(-3.01 -61.93)" style="fill:#231f20"/><path d="M460.58,160.49a4.34,4.34,0,0,1,1.34,3,4.25,4.25,0,0,1-1.1,3.21q-8.06,8-14.17,13.6a111.8,111.8,0,0,1-11,9,51.66,51.66,0,0,1-6.47,4,14.38,14.38,0,0,1-6.72,1.72,11.65,11.65,0,0,1-2.33-.23,5.47,5.47,0,0,1-2.07-.92,8.17,8.17,0,0,1-4-7.77,41.53,41.53,0,0,1,1.83-11c-1.8,1.67-3.47,3.2-5,4.57s-3.06,2.67-4.52,3.88a43.47,43.47,0,0,1-4.52,3.43,58.45,58.45,0,0,1-7.46,4.35q-10.5,5.71-16.61,1.83-4.41-2.74-4.89-9.61a23,23,0,0,1,1.71-9.6l4.64-11.2c-.33.46-.73,1-1.22,1.6a16.68,16.68,0,0,1-1.46,1.6,4.09,4.09,0,0,1-3.18,1.37,4.46,4.46,0,0,1-3.18-1.14,4,4,0,0,1-.24-6.18q5.37-5.25,11.24-12.11a134.88,134.88,0,0,0,11-14.87q2.21-3.2,6.11-1.6c2.28,1.38,3,3.2,2.2,5.49l-17.35,40.24c-.16.46-.36,1.11-.61,1.95a25.73,25.73,0,0,0-.61,2.62,6.66,6.66,0,0,0,0,2.52,2.89,2.89,0,0,0,1.22,1.83,3.62,3.62,0,0,0,1.84,0,23.91,23.91,0,0,0,5.49-2.52,51.44,51.44,0,0,0,6.11-3.77c1.79-1.29,3.1-2.25,3.91-2.86A144.74,144.74,0,0,0,415,162.66a103.07,103.07,0,0,0,15.28-23.2,19.44,19.44,0,0,1,1.22-2.75c.49-.91,1-1.9,1.46-3a4,4,0,0,1,2.45-2.17,5.5,5.5,0,0,1,3.66.11,4.38,4.38,0,0,1,2.45,2.29,4.26,4.26,0,0,1,0,3.43,35.41,35.41,0,0,0-2.69,5.71q-4.41,9.39-7.58,16.81t-5.13,13.15q-3.92,11.66-2.69,13c.33.31,1.22,0,2.69-1s3.42-2.4,5.87-4.23a250.15,250.15,0,0,0,22-20.12,4.91,4.91,0,0,1,3.17-1.26A5,5,0,0,1,460.58,160.49Z" transform="translate(-3.01 -61.93)" style="fill:#231f20"/><path d="M524.6,159.35a4,4,0,0,1,1.59,3,4.23,4.23,0,0,1-1.1,3.2q-19.32,19.66-28.35,26.3a33.36,33.36,0,0,1-4.4,2.74,12.53,12.53,0,0,1-6.11,1.6,6.63,6.63,0,0,1-4.15-1.14,7.87,7.87,0,0,1-3.3-4.35,15.63,15.63,0,0,1-.61-5.94,32.62,32.62,0,0,1,1.1-6.29,32.16,32.16,0,0,1,1.83-5.14,52,52,0,0,1,4.64-8.58c1.79-2.66,3.43-5.06,4.89-7.2.49-.61,1.14-1.45,2-2.52s1.54-2.09,2.2-3.08a13.2,13.2,0,0,0,1.34-2.52c.24-.68,0-1-.61-1a9.81,9.81,0,0,1-5.74.12,12.58,12.58,0,0,1-4.53-2,5.83,5.83,0,0,0-.85-.68,5.85,5.85,0,0,1-.86-.69q-4.64,5.27-9.65,10.18t-11.12,10.17a4.41,4.41,0,0,1-3.17,1.15,4.81,4.81,0,0,1-3.42-1.38,4.15,4.15,0,0,1-1.1-3.2,4.26,4.26,0,0,1,1.34-3q8.55-7.32,15.15-14.18a171.49,171.49,0,0,0,12.71-14.86,4.9,4.9,0,0,1,3.05-1.94,4,4,0,0,1,3.3.8,4.56,4.56,0,0,1,2.08,2.86,3.35,3.35,0,0,1-.86,3.08c-.33.46-.69,1-1.1,1.49s-.77,1-1.1,1.49c0,.91.33,1.45,1,1.6a5,5,0,0,0,1.83.22h2.08a33.23,33.23,0,0,1,4.64.35,7.43,7.43,0,0,1,4.4,2.4q2.69,2.74,1.47,7.54a17.91,17.91,0,0,1-2.2,5.72,73.18,73.18,0,0,1-4.4,6.63c-1.47,2.14-3,4.38-4.52,6.75a64.25,64.25,0,0,0-4.28,7.66c-.81,2.13-1.55,4.23-2.2,6.28s-.65,3.4,0,4c.49.31,1.31,0,2.45-1s2.6-2.18,4.4-3.55q8.79-7.08,23.7-22.86a4,4,0,0,1,3.18-1.37A5.42,5.42,0,0,1,524.6,159.35Z" transform="translate(-3.01 -61.93)" style="fill:#231f20"/><path d="M583,159.58a4.57,4.57,0,0,1,2.08,2.85,3.77,3.77,0,0,1-.61,3.09q-2.7,3.9-7.34,9.38a68.52,68.52,0,0,1-13.19,11.43,52.2,52.2,0,0,1-14.42,7,82.69,82.69,0,0,1-12.46,2.63,20,20,0,0,1-3.42.23h-3.18a27,27,0,0,1-11-2.06q-4.63-2.06-4.88-2.28a70.32,70.32,0,0,1-6.6-4.35,27,27,0,0,1-5.38-5,3.69,3.69,0,0,1-1-3.09,4.07,4.07,0,0,1,1.95-2.85,4.33,4.33,0,0,1,3.3-.92,4.79,4.79,0,0,1,3.05,1.6,25.6,25.6,0,0,0,3.43,3.09,45.17,45.17,0,0,0,6.1,4c0,.15,1.18.73,3.55,1.72a19.68,19.68,0,0,0,7.7,1.48,11.77,11.77,0,0,0,5.37-1.37,12.68,12.68,0,0,0,5.62-7.89,27.87,27.87,0,0,0,1-10.17c-.33-2.75-.65-5.18-1-7.32s-.65-4.12-1-5.94c-.16-.61-.28-1.15-.36-1.61s-.21-1-.37-1.6l-13.19,13a4.09,4.09,0,0,1-3.18,1.37,4.69,4.69,0,0,1-4.77-4.12,3.88,3.88,0,0,1,1.35-3.2l23.21-23.09a30.71,30.71,0,0,1,3.3-3.55,19.14,19.14,0,0,1,5-3.31,4.82,4.82,0,0,1,3.54-.46,4.29,4.29,0,0,1,2.81,2.29,4.41,4.41,0,0,1,.25,3.2,4.16,4.16,0,0,1-2.44,2.51A13.81,13.81,0,0,0,550,142a8.15,8.15,0,0,0-1.34,4.57,48.29,48.29,0,0,0,1.1,6.63q.48,2.75,1.1,6.18c.4,2.28.77,5,1.09,8a37.66,37.66,0,0,1-.12,6.75,30.15,30.15,0,0,1-2.56,9.71q2.43-.9,4.88-2.06a28.31,28.31,0,0,0,4.4-2.51,52.42,52.42,0,0,0,11.61-10q4-4.9,6.48-8.34a4.39,4.39,0,0,1,2.81-2.06A4.3,4.3,0,0,1,583,159.58Z" transform="translate(-3.01 -61.93)" style="fill:#231f20"/><path d="M626,159.35a4,4,0,0,1,1.59,3,4.23,4.23,0,0,1-1.1,3.2q-7.83,8-13.69,14.06a135.4,135.4,0,0,1-10.26,9.72c-3.42,2.74-6.2,4.5-8.31,5.26a14.22,14.22,0,0,1-4.64.57,10.55,10.55,0,0,1-4.65-1.49q-4.16-3-3.54-8.57a51.87,51.87,0,0,1,2.81-11.77q1-2.75,2.2-5.84c.81-2.05,1.79-4.38,2.93-7a31,31,0,0,0-2.2,2.29,27.35,27.35,0,0,1-2.2,2.28,4,4,0,0,1-3.17,1.38,5.33,5.33,0,0,1-3.42-1.15,3.58,3.58,0,0,1-1.47-3,4.62,4.62,0,0,1,1.22-3.2q5.63-5.72,11.85-12.23T603,132.83c1.62-1.83,3.58-2.06,5.86-.69s2.85,3.2,1.71,5.49q-6.36,12.35-10.26,21T594,173.3a100.57,100.57,0,0,0-3.55,9.71c-.57,2.06-.53,3.24.12,3.55s3.34-1.6,8.07-5.72q3.9-3.43,9.16-8.92l11.61-12.11a4.41,4.41,0,0,1,3.18-1.49A4.91,4.91,0,0,1,626,159.35Zm-.49-67.45a3.93,3.93,0,0,1,2.56,2.28,4.55,4.55,0,0,1-.12,3.43l-4.89,10.75a4.25,4.25,0,0,1-4.15,2.52,3.56,3.56,0,0,1-1.95-.46,4.35,4.35,0,0,1-2.45-2.29,3.67,3.67,0,0,1,0-3.2l4.89-10.75a4,4,0,0,1,2.56-2.4A5.15,5.15,0,0,1,625.52,91.9Z" transform="translate(-3.01 -61.93)" style="fill:#231f20"/><path d="M724.48,158.66a4.43,4.43,0,0,1,1.72,3,3.88,3.88,0,0,1-1,3.21,43.73,43.73,0,0,1-7.58,6.4,42.62,42.62,0,0,1-8.55,4.57,22.63,22.63,0,0,1-8.55,2.06,11.14,11.14,0,0,1-7.09-2.29,13.41,13.41,0,0,1-5.87-9.6,23.72,23.72,0,0,1-1.83,1.94,24,24,0,0,0-1.83,2q-4.65,4.8-9.77,9.37a102,102,0,0,1-9.78,7.77,91.84,91.84,0,0,1-8.06,4.92,17.86,17.86,0,0,1-8.56,2.4,7.81,7.81,0,0,1-5.13-1.6,8.18,8.18,0,0,1-3.54-5.37,19.66,19.66,0,0,1,.37-7.78,74.81,74.81,0,0,1,2.93-9.83q1.95-5.37,4.4-11.32c.49-1.06,1.05-2.43,1.71-4.11s1.3-3.32,2-4.92,1.18-3,1.59-4.23.53-2,.37-2.28q-.49-.69-7.21,5a232.41,232.41,0,0,0-17.47,17.14,4.06,4.06,0,0,1-3.18,1.38,5.35,5.35,0,0,1-3.42-1.15,3.58,3.58,0,0,1-1.47-3,3.89,3.89,0,0,1,1.22-3q7.57-8.23,13.69-13.72a136,136,0,0,1,10.51-8.69,12.62,12.62,0,0,1,2.32-1.6,17.51,17.51,0,0,1,3.42-1.49,16.73,16.73,0,0,1,3.91-.68,7.09,7.09,0,0,1,4,1,6.38,6.38,0,0,1,2.44,2.86,8.88,8.88,0,0,1,.74,3.54,17.14,17.14,0,0,1-.37,3.54c-.24,1.15-.45,2-.61,2.63-.65,2.14-1.47,4.46-2.44,7s-2,5.14-3.18,7.88-2.2,5.49-3.18,8.24-1.87,5.33-2.69,7.77c-1.46,4.88-1.87,7.54-1.22,8s1.87,0,3.67-1a90.55,90.55,0,0,0,8.31-5.6,94.84,94.84,0,0,0,8.55-7q4.4-4,8.31-8.12,3.9-3.88,7.57-8t7.33-8.69q2-2.74,3.79-5.26a41.19,41.19,0,0,0,3.06-4.8,4.89,4.89,0,0,1,2.68-2.17,5,5,0,0,1,5.87,3,4.05,4.05,0,0,1-.49,3.32,34.28,34.28,0,0,1-3,5c-1.23,1.67-2.57,3.5-4,5.48a37.13,37.13,0,0,0-2.81,8,13.58,13.58,0,0,0-.24,5,5.5,5.5,0,0,0,1.22,2.74c.57.61,1,1.07,1.34,1.37a3.64,3.64,0,0,0,1.84.12,14.58,14.58,0,0,0,4.27-1.26,33.33,33.33,0,0,0,6.48-3.55,38.12,38.12,0,0,0,6-4.91,4.8,4.8,0,0,1,3.17-1.6A4.5,4.5,0,0,1,724.48,158.66Z" transform="translate(-3.01 -61.93)" style="fill:#231f20"/><path d="M776.53,160.72a4.24,4.24,0,0,1,1.47,3.2,3.89,3.89,0,0,1-1.22,3q-17.85,17.61-31.77,24a32.15,32.15,0,0,1-13.19,3.2,16.71,16.71,0,0,1-5.5-.8,17.16,17.16,0,0,1-4-1.94,16.27,16.27,0,0,1-3.91-4.23,17.18,17.18,0,0,1-2.45-8.12,34.59,34.59,0,0,1,1.22-10.4,59.16,59.16,0,0,1,4.16-11.09A65.41,65.41,0,0,1,727.78,147a52.07,52.07,0,0,1,8.19-8.69q7.34-5.72,13.68-7.09,8.31-1.82,13.44,3.43a10.07,10.07,0,0,1,2.69,8.24,13.56,13.56,0,0,1-2.2,5.25,27.74,27.74,0,0,1-4,4.69,44.34,44.34,0,0,1-4.76,3.89c-1.63,1.14-3.1,2.1-4.4,2.86a62.29,62.29,0,0,1-12.59,5.6,55,55,0,0,1-10.87,2.4,55.92,55.92,0,0,0-1.47,5.83,17.89,17.89,0,0,0-.24,5.14,10.72,10.72,0,0,0,.49,3.2,4.36,4.36,0,0,0,1.95,2.52,8.34,8.34,0,0,0,5.62,1,28.63,28.63,0,0,0,9-2.86,67.67,67.67,0,0,0,12.22-7.77A170.78,170.78,0,0,0,769.94,161a4.8,4.8,0,0,1,3.42-1.37A4.45,4.45,0,0,1,776.53,160.72Zm-34.45-15.78a52.05,52.05,0,0,0-5.74,5.83,46.31,46.31,0,0,0-5,7.21,50.37,50.37,0,0,0,6.47-2.06,64.49,64.49,0,0,0,7.7-3.66,37.33,37.33,0,0,0,8.06-6.06q2.69-2.85,2.94-4.46c0-1.52-1.07-2.28-3.18-2.28Q748.67,139.46,742.08,144.94Z" transform="translate(-3.01 -61.93)" style="fill:#231f20"/></svg>