<svg id="Layer_1" data-name="Layer 1" xmlns="http://www.w3.org/2000/svg" viewBox="0 0 725.76 154.13"><title>waikiki</title><path d="M140.74,181.62,175.08,61.86h10.23L141.59,213.8,102.13,102.54,62.25,213.8,18.32,61.86h10L63.1,182.08l39-108.5Z" transform="translate(-17.32 -59.67)" style="fill:#231f20"/><path d="M212.4,173.34,196,211.27H185.31L250.58,60l61.64,151.25H301.77L286.2,173.34Zm37.75-88-33.27,77.47h65.05Z" transform="translate(-17.32 -59.67)" style="fill:#231f20"/><path d="M344.85,211.27V61.86h9.59V211.27Z" transform="translate(-17.32 -59.67)" style="fill:#231f20"/><path d="M505.23,211.27h-12.8L442.74,147.6,398,213.8V61.86h9.6V181.62L488.38,61.86h12.16l-52,76.77Z" transform="translate(-17.32 -59.67)" style="fill:#231f20"/><path d="M538.92,211.27V61.86h9.6V211.27Z" transform="translate(-17.32 -59.67)" style="fill:#231f20"/><path d="M699.31,211.27h-12.8L636.82,147.6,592,213.8V61.86h9.59V181.62L682.46,61.86h12.15l-52,76.77Z" transform="translate(-17.32 -59.67)" style="fill:#231f20"/><path d="M733,211.27V61.86h9.6V211.27Z" transform="translate(-17.32 -59.67)" style="fill:#231f20"/><path d="M139.74,181.27,174.08,61.51h10.23L140.59,213.45,101.13,102.2,61.25,213.45,17.32,61.51h10L62.1,181.73l39-108.5Z" transform="translate(-17.32 -59.67)" style="fill:#231f20"/><path d="M211.4,173,195,210.92H184.31L249.58,59.67l61.64,151.25H300.77L285.2,173Zm37.75-88-33.27,77.46h65.05Z" transform="translate(-17.32 -59.67)" style="fill:#231f20"/><path d="M343.85,210.92V61.51h9.59V210.92Z" transform="translate(-17.32 -59.67)" style="fill:#231f20"/><path d="M504.23,210.92h-12.8l-49.69-63.67L397,213.45V61.51h9.6V181.27L487.38,61.51h12.16l-52,76.77Z" transform="translate(-17.32 -59.67)" style="fill:#231f20"/><path d="M537.92,210.92V61.51h9.6V210.92Z" transform="translate(-17.32 -59.67)" style="fill:#231f20"/><path d="M698.31,210.92h-12.8l-49.69-63.67L591,213.45V61.51h9.59V181.27L681.46,61.51h12.15l-52,76.77Z" transform="translate(-17.32 -59.67)" style="fill:#231f20"/><path d="M732,210.92V61.51h9.6V210.92Z" transform="translate(-17.32 -59.67)" style="fill:#231f20"/><path d="M141.22,181.62,175.55,61.86h10.24L142.07,213.8,102.61,102.54,62.73,213.8,18.79,61.86h10L63.58,182.08l39-108.5Z" transform="translate(-17.32 -59.67)" style="fill:#231f20"/><path d="M212.88,173.34l-16.42,37.93H185.79L251.06,60l61.63,151.25H302.24l-15.57-37.93Zm37.75-88-33.27,77.47h65.05Z" transform="translate(-17.32 -59.67)" style="fill:#231f20"/><path d="M345.32,211.27V61.86h9.6V211.27Z" transform="translate(-17.32 -59.67)" style="fill:#231f20"/><path d="M505.71,211.27h-12.8L443.22,147.6l-44.79,66.2V61.86H408V181.62L488.86,61.86H501l-52,76.77Z" transform="translate(-17.32 -59.67)" style="fill:#231f20"/><path d="M539.4,211.27V61.86H549V211.27Z" transform="translate(-17.32 -59.67)" style="fill:#231f20"/><path d="M699.78,211.27H687l-49.7-63.67L592.5,213.8V61.86h9.6V181.62L682.94,61.86h12.15l-52,76.77Z" transform="translate(-17.32 -59.67)" style="fill:#231f20"/><path d="M733.48,211.27V61.86h9.6V211.27Z" transform="translate(-17.32 -59.67)" style="fill:#231f20"/></svg>