<svg id="Layer_1" data-name="Layer 1" xmlns="http://www.w3.org/2000/svg" viewBox="0 0 673.27 208.21"><title>mayfair</title><path d="M200.28,46.36A8.59,8.59,0,0,1,208.91,55V198a8.6,8.6,0,0,1-8.63,8.63H181.11a8.59,8.59,0,0,1-8.62-8.63V133.57l-21.57,67.09a7.67,7.67,0,0,1-3,4.31,8.45,8.45,0,0,1-5.15,1.68H126a8.13,8.13,0,0,1-4.92-1.68,9,9,0,0,1-3.23-4.31l-21.8-67.09V198a8.6,8.6,0,0,1-8.63,8.63H68.26A8.59,8.59,0,0,1,59.64,198V55a8.57,8.57,0,0,1,8.62-8.62H97.73A8.54,8.54,0,0,1,102.89,48a9.09,9.09,0,0,1,3.23,4.56L134.63,148l30.43-95.6q1.92-6,8.15-6ZM173.21,55,134.63,176.46h-.48L97.73,55H68.26V198H87.43V80.62h.48L126,198h16.77L180.4,80.62h.71V198h19.17V55Z" transform="translate(-59.64 -42.52)" style="fill:#231f20"/><path d="M281.27,84.69a69,69,0,0,1,17.25,2.16,44.75,44.75,0,0,1,15.57,6.71,36.51,36.51,0,0,1,12,12.7,35.06,35.06,0,0,1,4.55,18.21v50.79a7.24,7.24,0,0,1,3.6-1,10.18,10.18,0,0,1,4.55,1.2,8.38,8.38,0,0,1,4.07,7.43v14.85a8.46,8.46,0,0,1-1.79,5.39,8.31,8.31,0,0,1-4.44,3,1.9,1.9,0,0,1-.83.24,1.93,1.93,0,0,0-.84.24q-2.4.72-5.39,1.32a40.35,40.35,0,0,1-7.55.6q-11.26,0-17.73-6.71a15.67,15.67,0,0,0-1.44-1.68,15.67,15.67,0,0,1-1.44-1.68,31.09,31.09,0,0,1-4.19,2.64c-1.52.8-3,1.6-4.43,2.39a60.35,60.35,0,0,1-24.92,5,47.05,47.05,0,0,1-15.34-2.4,37.92,37.92,0,0,1-12.69-7.91,36.51,36.51,0,0,1-8.15-12.46,41.46,41.46,0,0,1-2.88-15.57,37,37,0,0,1,6-20.37,39.11,39.11,0,0,1,14.14-12.69,66.19,66.19,0,0,1,16.41-6.95q8.75-2.4,16.42-4.08c1.91-.48,3.79-.91,5.63-1.31a48.17,48.17,0,0,0,4.91-1.32c.8-.32,1.47-.56,2-.72a7.92,7.92,0,0,0,1.32-.48,4,4,0,0,0-1.91-2.64,19.85,19.85,0,0,0-4.08-1.55,32.9,32.9,0,0,0-8.62-.84,31,31,0,0,0-8.39,1q-3.36,1-4.31,2.87a8.06,8.06,0,0,1-7.67,4.55H242.21a9.34,9.34,0,0,1-6.71-3.59,7.81,7.81,0,0,1-1.44-7.43q4.08-14.85,19.17-23a58.53,58.53,0,0,1,13.3-5.15A59.46,59.46,0,0,1,281.27,84.69Zm0,8.63a53.55,53.55,0,0,0-12.34,1.44,44,44,0,0,0-11.5,4.43,35.5,35.5,0,0,0-9.35,7.43A26,26,0,0,0,242.45,117h18.21a13.8,13.8,0,0,1,8-6.59,38.86,38.86,0,0,1,12.34-1.8q11.49,0,17.37,3.72t5.87,12.1q0,3.59-4.91,5.51A86.82,86.82,0,0,1,287,133.57q-7.44,1.68-16.18,3.83a70.18,70.18,0,0,0-16.17,6.11,37.94,37.94,0,0,0-12.34,10.31q-4.91,6.35-4.91,16.41,0,13.65,8.39,21.68t22,8a49.83,49.83,0,0,0,21.08-4.31,47.41,47.41,0,0,0,16.78-13.42q0,9.1,4.55,13.42A16.39,16.39,0,0,0,322,199.94a27.26,27.26,0,0,0,6.95-.72l5.27-1.44V182.93q-1.68,1-3,1.56a6.54,6.54,0,0,1-2.75.59,5.58,5.58,0,0,1-4.55-2.51,8.35,8.35,0,0,1-1.92-5.15V124.47a27.66,27.66,0,0,0-3.48-14.14,28.18,28.18,0,0,0-9.22-9.7,42.32,42.32,0,0,0-13.06-5.51A62.34,62.34,0,0,0,281.27,93.32Zm-6.71,91.76a28.45,28.45,0,0,1-6.95-.83,19.82,19.82,0,0,1-6.11-2.64,13.35,13.35,0,0,1-4.43-4.79,14.22,14.22,0,0,1-1.68-7.07q0-7.67,5.39-12a45.21,45.21,0,0,1,13.06-7.07,126,126,0,0,1,16.05-4.55,75.07,75.07,0,0,0,14.38-4.43v24.44q-3.84,10.31-11.74,14.61A36.85,36.85,0,0,1,274.56,185.08Zm0-8.62q10.29,0,14.85-3.83a21.2,21.2,0,0,0,6.23-7.91v-11a13.16,13.16,0,0,1-2.51.72l-2.52.48a149.15,149.15,0,0,0-19.17,6.23q-7.43,3.1-7.42,8.62a5.47,5.47,0,0,0,2.39,4.79A15.36,15.36,0,0,0,274.56,176.46Z" transform="translate(-59.64 -42.52)" style="fill:#231f20"/><path d="M441.32,86.61a8.46,8.46,0,0,1,7.19,3.59,7.85,7.85,0,0,1,1,7.91L404.18,222.22q-5,13.42-13.66,21.09-8.62,7.42-18.21,7.43a36.3,36.3,0,0,1-15.57-3.36q-5-2.4-5-7.67V224.86a8.47,8.47,0,0,1,8.62-8.63,8.43,8.43,0,0,1,4.56,1.2,3.66,3.66,0,0,0,1.43.6,30.81,30.81,0,0,0,3.6.12,3.54,3.54,0,0,1,.72-1,5.54,5.54,0,0,0,1-1.68c.47-1.11.91-2.19,1.31-3.23s.84-2.2,1.32-3.47l3.12-10.31L340.69,98.11a8.44,8.44,0,0,1,7.9-11.5H368a8.89,8.89,0,0,1,5.15,1.56,8.44,8.44,0,0,1,3.24,4.19l18.69,57,18.69-57A8.37,8.37,0,0,1,417,88.17a8.51,8.51,0,0,1,4.91-1.56Zm-19.41,8.63-26.59,81.22h-.48L368,95.24H348.59l37.62,103-3.83,13.42c-.48,1.28-1,2.79-1.68,4.55a28.67,28.67,0,0,1-2.4,5,14.72,14.72,0,0,1-3.35,4,7,7,0,0,1-4.55,1.56,54.16,54.16,0,0,1-5.51-.24,11.4,11.4,0,0,1-4.56-1.68v14.85a27.62,27.62,0,0,0,12,2.4q6,0,12.58-5.15T396,219.35L441.32,95.24Z" transform="translate(-59.64 -42.52)" style="fill:#231f20"/><path d="M489.71,42.52a28.75,28.75,0,0,1,10.67,2,67.75,67.75,0,0,1,6.83,3,8.08,8.08,0,0,1,4.55,7.67V69.36a9,9,0,0,1-1.32,4.79,7.45,7.45,0,0,1-3.95,3.12,7.56,7.56,0,0,1-3.36.71,7.44,7.44,0,0,1-5.51-2.15,7.34,7.34,0,0,0-1.56-.48,8,8,0,0,0-1.55-.24H494a2,2,0,0,0-.48,1.44V86.61h8.62a8.6,8.6,0,0,1,8.63,8.63v14.85a8.6,8.6,0,0,1-8.63,8.63h-8.62V198a8.6,8.6,0,0,1-8.63,8.63H467.19a8.59,8.59,0,0,1-8.62-8.63v-79.3h-8.63a8.59,8.59,0,0,1-8.62-8.63V95.24a8.59,8.59,0,0,1,8.62-8.63h8.63V71.75a29.12,29.12,0,0,1,2.15-11.5,26.1,26.1,0,0,1,6.71-9.58Q476.06,42.53,489.71,42.52Zm0,8.63q-10.77,0-16.65,5.75t-5.87,14.85V95.24H449.94v14.85h17.25V198h17.73V110.09h17.25V95.24H484.92V76.55a10.63,10.63,0,0,1,2.52-7.07,8.72,8.72,0,0,1,7.07-3,16.57,16.57,0,0,1,4.67.84,9.56,9.56,0,0,1,3.95,2V55.22a64.15,64.15,0,0,0-6.23-2.63A20.47,20.47,0,0,0,489.71,51.15Z" transform="translate(-59.64 -42.52)" style="fill:#231f20"/><path d="M560.4,84.69a69,69,0,0,1,17.25,2.16,44.75,44.75,0,0,1,15.57,6.71,36.51,36.51,0,0,1,12,12.7,35.06,35.06,0,0,1,4.55,18.21v50.79a7.24,7.24,0,0,1,3.6-1,10.18,10.18,0,0,1,4.55,1.2,8.38,8.38,0,0,1,4.07,7.43v14.85a8.4,8.4,0,0,1-1.79,5.39,8.31,8.31,0,0,1-4.44,3,1.9,1.9,0,0,1-.83.24,1.9,1.9,0,0,0-.84.24q-2.4.72-5.39,1.32a40.35,40.35,0,0,1-7.55.6q-11.26,0-17.73-6.71a15.67,15.67,0,0,0-1.44-1.68,15.67,15.67,0,0,1-1.44-1.68,31.09,31.09,0,0,1-4.19,2.64q-2.28,1.2-4.43,2.39a60.35,60.35,0,0,1-24.92,5,47.05,47.05,0,0,1-15.34-2.4A37.92,37.92,0,0,1,519,198.26a36.51,36.51,0,0,1-8.15-12.46,41.46,41.46,0,0,1-2.88-15.57,37,37,0,0,1,6-20.37,39.11,39.11,0,0,1,14.14-12.69,66.19,66.19,0,0,1,16.41-6.95q8.74-2.4,16.42-4.08c1.91-.48,3.79-.91,5.63-1.31a48.17,48.17,0,0,0,4.91-1.32c.8-.32,1.47-.56,2-.72a7.92,7.92,0,0,0,1.32-.48,4,4,0,0,0-1.91-2.64,19.85,19.85,0,0,0-4.08-1.55,32.9,32.9,0,0,0-8.62-.84,31,31,0,0,0-8.39,1q-3.36,1-4.31,2.87a8.06,8.06,0,0,1-7.67,4.55H521.34a9.34,9.34,0,0,1-6.71-3.59,7.78,7.78,0,0,1-1.43-7.43q4.06-14.85,19.16-23a58.53,58.53,0,0,1,13.3-5.15A59.46,59.46,0,0,1,560.4,84.69Zm0,8.63a53.55,53.55,0,0,0-12.34,1.44,44,44,0,0,0-11.5,4.43,35.5,35.5,0,0,0-9.35,7.43A26,26,0,0,0,521.58,117h18.21a13.8,13.8,0,0,1,8-6.59,38.86,38.86,0,0,1,12.34-1.8q11.49,0,17.37,3.72t5.87,12.1q0,3.59-4.91,5.51a86.82,86.82,0,0,1-12.34,3.59q-7.44,1.68-16.18,3.83a70.18,70.18,0,0,0-16.17,6.11,37.94,37.94,0,0,0-12.34,10.31q-4.9,6.35-4.91,16.41,0,13.65,8.39,21.68t22,8a49.83,49.83,0,0,0,21.08-4.31,47.41,47.41,0,0,0,16.78-13.42q0,9.1,4.55,13.42a16.39,16.39,0,0,0,11.74,4.31,27.26,27.26,0,0,0,7-.72l5.27-1.44V182.93q-1.68,1-3,1.56a6.54,6.54,0,0,1-2.75.59,5.61,5.61,0,0,1-4.56-2.51,8.4,8.4,0,0,1-1.91-5.15V124.47a27.66,27.66,0,0,0-3.48-14.14,28.18,28.18,0,0,0-9.22-9.7,42.32,42.32,0,0,0-13.06-5.51A62.34,62.34,0,0,0,560.4,93.32Zm-6.71,91.76a28.45,28.45,0,0,1-7-.83,19.82,19.82,0,0,1-6.11-2.64,13.35,13.35,0,0,1-4.43-4.79,14.22,14.22,0,0,1-1.68-7.07q0-7.67,5.39-12A45.21,45.21,0,0,1,553,150.7a126,126,0,0,1,16-4.55,75.07,75.07,0,0,0,14.38-4.43v24.44q-3.84,10.31-11.74,14.61A36.85,36.85,0,0,1,553.69,185.08Zm0-8.62q10.29,0,14.85-3.83a21.2,21.2,0,0,0,6.23-7.91v-11a13.16,13.16,0,0,1-2.51.72l-2.52.48a149.15,149.15,0,0,0-19.17,6.23q-7.43,3.1-7.42,8.62a5.47,5.47,0,0,0,2.39,4.79A15.36,15.36,0,0,0,553.69,176.46Z" transform="translate(-59.64 -42.52)" style="fill:#231f20"/><path d="M649.53,46.36A8.57,8.57,0,0,1,658.15,55V74.63a8.57,8.57,0,0,1-8.62,8.62H632.28a8.59,8.59,0,0,1-8.63-8.62V55a8.59,8.59,0,0,1,8.63-8.62Zm0,41A8.57,8.57,0,0,1,658.15,96V198a8.59,8.59,0,0,1-8.62,8.63H632.28a8.6,8.6,0,0,1-8.63-8.63V96a8.59,8.59,0,0,1,8.63-8.62ZM632.28,55V74.63h17.25V55Zm0,41V198h17.25V96Z" transform="translate(-59.64 -42.52)" style="fill:#231f20"/><path d="M716.38,84.69a26,26,0,0,1,12.21,2.88,8.13,8.13,0,0,1,4.32,7.67v17a8.86,8.86,0,0,1-8.63,8.62,7.17,7.17,0,0,1-2.15-.48q-2.64-.47-3.6-.6a19.72,19.72,0,0,0-2.15-.12q-15.58,0-15.58,14.38v64a8.45,8.45,0,0,1-2.51,6,8.14,8.14,0,0,1-6.12,2.64H674.92a8.14,8.14,0,0,1-6.11-2.64,8.45,8.45,0,0,1-2.51-6V95.24a8.59,8.59,0,0,1,8.62-8.63h17.25a8.79,8.79,0,0,1,6.47,2.64C703.44,86.21,709.34,84.69,716.38,84.69Zm0,8.63q-9.12,0-14.38,4.07a36.36,36.36,0,0,0-9.35,11.5h-.48V95.24H674.92V198h17.25v-64q0-10.31,6.35-16.65t17.86-6.35a23,23,0,0,1,3.47.24c1,.16,2.52.48,4.43,1v-17A15.64,15.64,0,0,0,716.38,93.32Z" transform="translate(-59.64 -42.52)" style="fill:#231f20"/></svg>