<svg id="Layer_1" data-name="Layer 1" xmlns="http://www.w3.org/2000/svg" viewBox="0 0 774.43 206.1"><title>sorrento</title><path d="M159.08,124.44a3.07,3.07,0,0,1-.77,2.91,5.23,5.23,0,0,1-2.9,1.64q-12.57,1.47-23.86,3.1t-21.93,3.64q4.44,4.19,8.11,8.19a89,89,0,0,1,6.57,8,70.89,70.89,0,0,1,10.53,18.39A62.88,62.88,0,0,1,138.6,190q.38,11.28-8.5,19.84Q119.85,219.65,98,224.56a134.59,134.59,0,0,1-20,3q-9.37.63-14.59.64h-.19a125.11,125.11,0,0,1-21-1.55,78.81,78.81,0,0,1-15.45-4.1A51.3,51.3,0,0,1,16.1,217a39.34,39.34,0,0,1-7-6.1A27.35,27.35,0,0,1,3,199.72a28.66,28.66,0,0,1-.58-12.84Q4.7,175.6,13.59,166q9.29-10,26.47-18.39a196,196,0,0,1,20.58-8.19q11.3-3.83,25-7.1c1.16-.24,2.22-.48,3.19-.73s2-.48,3.19-.73q-3.48-3.09-7.35-6.37l-7.92-6.73q-16.8-14-25.12-30.22a70.06,70.06,0,0,1-5.6-15.57,50.26,50.26,0,0,1-1.16-15,40.22,40.22,0,0,1,6-17.47A43.39,43.39,0,0,1,65.18,26a30.17,30.17,0,0,1,15.46-3.82,35.3,35.3,0,0,1,8.88.81,32.84,32.84,0,0,1,8.7,3.19q13.52,6.56,22.41,21.3,9.86,16.75,12.17,42.23a4.52,4.52,0,0,1-1.16,3A3.64,3.64,0,0,1,128.75,94a4.37,4.37,0,0,1-3.19-.91,3.3,3.3,0,0,1-1.45-2.73,109,109,0,0,0-4.74-24.58,73.63,73.63,0,0,0-7.72-16.65,44.49,44.49,0,0,0-9-10.38,39.56,39.56,0,0,0-8.31-5.37,30.54,30.54,0,0,0-13-3.18,22.32,22.32,0,0,0-11.49,2.64A31.73,31.73,0,0,0,58.51,43.25a33.55,33.55,0,0,0-4.92,14.38A40.26,40.26,0,0,0,54.75,71.1a61.27,61.27,0,0,0,5.41,13.84,79.56,79.56,0,0,0,9.27,13.65,97.1,97.1,0,0,0,13.14,12.93q5.59,4.73,10.53,9t9.18,8.1q11.58-2.19,24.63-4.19t27.34-3.64a4.38,4.38,0,0,1,3.19.91A3.94,3.94,0,0,1,159.08,124.44ZM129.9,190.16a52.3,52.3,0,0,0-2-13.2,57.26,57.26,0,0,0-5.41-12.47,87.33,87.33,0,0,0-9.18-12.74,166.76,166.76,0,0,0-13.72-14Q65.18,144.83,44.12,155q-29.17,13.85-33,33.5a19,19,0,0,0,4.83,17.29q6.18,6.74,18.36,10.47t29,3.73h.19q7.53,0,16.23-.82a128.16,128.16,0,0,0,17-2.73,94.55,94.55,0,0,0,15.46-4.91,39.05,39.05,0,0,0,11.78-7.37A18.84,18.84,0,0,0,129.9,190.16Z" transform="translate(-1.92 -22.11)" style="fill:#231f20"/><path d="M266.89,147.38a4.11,4.11,0,0,1,.48,2.91,3.54,3.54,0,0,1-2,2.55q-25.5,14.92-45.21,17.84c-1.42.24-2.77.43-4.06.55s-2.57.18-3.86.18c-.9,1.21-1.81,2.34-2.71,3.37s-1.93,2.09-3.09,3.18a53.05,53.05,0,0,1-16,12.38,41.75,41.75,0,0,1-18,4.73h-1.35q-10,0-16.43-5.64-5.4-4.73-4.63-14.2a40.67,40.67,0,0,1,2.41-10.56,50.39,50.39,0,0,1,5.7-11.1,82.6,82.6,0,0,1,22.22-22.21,4.17,4.17,0,0,1,3.09-.64,4,4,0,0,1,2.71,1.55,3.57,3.57,0,0,1,.67,2.91,3.72,3.72,0,0,1-1.64,2.55,95,95,0,0,0-11.11,9.47,70.06,70.06,0,0,0-8.79,10.55q-6.37,9.66-7,18-.39,5.64,2.13,8a11.4,11.4,0,0,0,5.8,3,22.13,22.13,0,0,0,5.79.46,36.19,36.19,0,0,0,14.78-4.19,49.21,49.21,0,0,0,13.43-10.2,7.84,7.84,0,0,1,1-1.09,13.4,13.4,0,0,0,1.16-1.27,38.11,38.11,0,0,1-5.61-1.64,25.6,25.6,0,0,1-4.06-2,21.12,21.12,0,0,1-7.63-8.56,16.14,16.14,0,0,1-1.25-10.56,21.73,21.73,0,0,1,6.57-12.19,26.84,26.84,0,0,1,11.2-6.74,23,23,0,0,1,10.24-.91,15.3,15.3,0,0,1,8.12,3.46,18.65,18.65,0,0,1,2.8,3.37,13.25,13.25,0,0,1,1.83,4.64,20.58,20.58,0,0,1,.2,6.37,31.36,31.36,0,0,1-2.32,8.37,59.59,59.59,0,0,1-4.44,9.11.92.92,0,0,0,.38-.09,1.41,1.41,0,0,1,.58-.1,94.55,94.55,0,0,0,19.42-5.64,169.69,169.69,0,0,0,22.7-11.29,3.92,3.92,0,0,1,3.09-.54A4.16,4.16,0,0,1,266.89,147.38Zm-52.17,4c.26-1,.58-2.12,1-3.46a22.5,22.5,0,0,0,.77-3.91,10.38,10.38,0,0,0-.29-3.73,6,6,0,0,0-2-3.1q-1.54-1.45-5.22-1.45-1.15,0-2.31.09a8.34,8.34,0,0,0-2.52.64c-.64.24-1.54.61-2.7,1.09a15.67,15.67,0,0,0-3.67,2.27,17.41,17.41,0,0,0-3.48,3.83,16.64,16.64,0,0,0-2.32,5.55,9.77,9.77,0,0,0,.77,6,12.52,12.52,0,0,0,4.64,5.09,17,17,0,0,0,4.16,2A23,23,0,0,0,208,163.4a33,33,0,0,0,3.86-6.1C212.85,155.18,213.82,153.2,214.72,151.38Z" transform="translate(-1.92 -22.11)" style="fill:#231f20"/><path d="M336.44,147.56a3.74,3.74,0,0,1,1.64,2.55,3.24,3.24,0,0,1-.87,2.91q-2.5,2.91-6.28,6.92t-8.21,8.19q-4.44,4.19-9.17,8.28c-3.16,2.73-6.22,5.26-9.18,7.56a133.31,133.31,0,0,1-12.56,8.1,88.94,88.94,0,0,1-12.94,6.1q-8.12,3.09-13.34,3.09c-3.47,0-6-.91-7.72-2.73q-3.87-3.65-2.13-10.19a43.75,43.75,0,0,1,5-10.92,98.23,98.23,0,0,1,7.93-11.84q4.64-6,9.08-11.47c1.16-1.57,2.28-3.06,3.38-4.46s2.15-2.75,3.18-4.09a113.37,113.37,0,0,1-10.23,5.1A26.52,26.52,0,0,1,263.41,153h-1.26a4.15,4.15,0,0,1-1.25-.18q-4.63-.72-6.86-2.73a13.24,13.24,0,0,1-3.19-4,10,10,0,0,1-1.35-4.27,24.52,24.52,0,0,1,0-4.37,14,14,0,0,1,1-4c.52-1.27,1-2.39,1.55-3.37a3.81,3.81,0,0,1,2.51-1.91,4.71,4.71,0,0,1,3.29.28,3.71,3.71,0,0,1,1.83,2.27,3.82,3.82,0,0,1-.29,3,14.53,14.53,0,0,0-1.54,4.73,7.28,7.28,0,0,0,.38,4.19,14.06,14.06,0,0,0,1.16,1.36,4.46,4.46,0,0,0,2.9,1h1.16a16.39,16.39,0,0,0,4.25-.63,33.62,33.62,0,0,0,4.73-1.73q2.42-1.1,4.74-2.37t4.25-2.37c1.28-.73,2.44-1.36,3.47-1.91a31.69,31.69,0,0,1,2.9-1.36,13.71,13.71,0,0,1,3.38-1.1,5,5,0,0,1,4.54,1.28,4.86,4.86,0,0,1,1.55,2.27c.39,1,.19,2.46-.58,4.28a19.68,19.68,0,0,1-1.06,2.09c-.45.8-1,1.67-1.64,2.64l-4.35,5.74q-2.41,3.18-5.32,6.83-4,5.46-8.59,11.37a123.1,123.1,0,0,0-7.83,11.38c-1.29,2.31-2.25,4.19-2.9,5.64a19.23,19.23,0,0,0-1.25,3.55,4.6,4.6,0,0,0,.09,2.46,15.52,15.52,0,0,0,3.39.18q3,0,9.37-2.73A67.55,67.55,0,0,0,288,185.06,108.44,108.44,0,0,0,299,177.78c3.22-2.43,6.4-5,9.56-7.83s6.15-5.52,9-8.19,5.41-5.19,7.73-7.55,4.12-4.34,5.41-5.92a3.53,3.53,0,0,1,2.7-1.64A4.06,4.06,0,0,1,336.44,147.56Z" transform="translate(-1.92 -22.11)" style="fill:#231f20"/><path d="M409.28,147.56a3.74,3.74,0,0,1,1.64,2.55,3.24,3.24,0,0,1-.87,2.91q-2.51,2.91-6.28,6.92t-8.21,8.19q-4.44,4.19-9.18,8.28c-3.15,2.73-6.21,5.26-9.17,7.56a133.31,133.31,0,0,1-12.56,8.1,89,89,0,0,1-12.95,6.1q-8.11,3.09-13.33,3.09t-7.73-2.73q-3.86-3.65-2.12-10.19a43.4,43.4,0,0,1,5-10.92,99.3,99.3,0,0,1,7.92-11.84q4.65-6,9.08-11.47,1.74-2.36,3.39-4.46t3.18-4.09a112.27,112.27,0,0,1-10.24,5.1A26.44,26.44,0,0,1,336.25,153H335a4.15,4.15,0,0,1-1.25-.18c-3.1-.48-5.38-1.39-6.86-2.73a13.09,13.09,0,0,1-3.19-4,10,10,0,0,1-1.35-4.27,24.52,24.52,0,0,1,0-4.37,14,14,0,0,1,1-4c.52-1.27,1-2.39,1.55-3.37a3.81,3.81,0,0,1,2.51-1.91,4.67,4.67,0,0,1,3.28.28,3.72,3.72,0,0,1,1.84,2.27,3.82,3.82,0,0,1-.29,3,14.79,14.79,0,0,0-1.55,4.73,7.19,7.19,0,0,0,.39,4.19,14.06,14.06,0,0,0,1.16,1.36,4.46,4.46,0,0,0,2.9,1h1.16a16.39,16.39,0,0,0,4.25-.63,34.08,34.08,0,0,0,4.73-1.73q2.41-1.1,4.74-2.37t4.25-2.37c1.28-.73,2.44-1.36,3.47-1.91a31.69,31.69,0,0,1,2.9-1.36,13.56,13.56,0,0,1,3.38-1.1,5,5,0,0,1,4.54,1.28,4.86,4.86,0,0,1,1.55,2.27c.39,1,.19,2.46-.58,4.28a19.68,19.68,0,0,1-1.06,2.09c-.46.8-1,1.67-1.65,2.64q-1.92,2.57-4.34,5.74c-1.62,2.12-3.38,4.4-5.32,6.83q-4,5.46-8.59,11.37a123.1,123.1,0,0,0-7.83,11.38c-1.29,2.31-2.25,4.19-2.9,5.64a19.23,19.23,0,0,0-1.25,3.55,4.41,4.41,0,0,0,.09,2.46,15.52,15.52,0,0,0,3.39.18q3,0,9.37-2.73a67.55,67.55,0,0,0,11.49-5.46,108.44,108.44,0,0,0,10.92-7.28c3.22-2.43,6.4-5,9.56-7.83s6.15-5.52,9-8.19,5.41-5.19,7.72-7.55,4.12-4.34,5.41-5.92a3.56,3.56,0,0,1,2.71-1.64A4.06,4.06,0,0,1,409.28,147.56Z" transform="translate(-1.92 -22.11)" style="fill:#231f20"/><path d="M498.93,145.74a3.7,3.7,0,0,1,1.45,2.73,3.6,3.6,0,0,1-1.26,2.91,139.35,139.35,0,0,1-19,15.66,154,154,0,0,1-21.54,12.38,137,137,0,0,1-20.39,7.64,66.74,66.74,0,0,1-17.87,2.73q-12.17-.18-18.16-6-6.18-6.19-5-15.93t9.66-21.39a51.17,51.17,0,0,1,10.62-10.83,62.78,62.78,0,0,1,9.86-6.1,54.07,54.07,0,0,1,11.11-4.37,39.93,39.93,0,0,1,10.14-1.46c3.74.13,6.5.76,8.31,1.92a13.76,13.76,0,0,1,3.86,3.36q3.29,4.92,1.16,11.84A28.61,28.61,0,0,1,454,152.11a41,41,0,0,1-13.24,8.19,42.72,42.72,0,0,1-23.38,2.19,24.74,24.74,0,0,1-5-1.19c-1.54-.54-2.9-1.06-4.06-1.54a35.56,35.56,0,0,0-2.51,7.64q-1.55,6.93,2.51,10.93,3.29,3.27,12,3.64a58.78,58.78,0,0,0,16-2.55,124.54,124.54,0,0,0,18.55-7.1,133.54,133.54,0,0,0,20.28-11.65,146.93,146.93,0,0,0,18-14.75,4.62,4.62,0,0,1,2.9-1.36A3.82,3.82,0,0,1,498.93,145.74ZM413.72,151a5.12,5.12,0,0,1-.67.91,3.26,3.26,0,0,0-.68,1.09l2.9.91a28.14,28.14,0,0,0,3.86.91,29.85,29.85,0,0,0,9.28.37,43.28,43.28,0,0,0,9.27-2.19,28.12,28.12,0,0,0,10.72-6.73,24.3,24.3,0,0,0,5.32-7.83,12.81,12.81,0,0,0,.48-2.64,4.46,4.46,0,0,0-.67-2.64,2.74,2.74,0,0,0-1.84-1.09,23.18,23.18,0,0,0-3.38-.55,30.62,30.62,0,0,0-8.21,1.28,45.67,45.67,0,0,0-9.28,3.82,57.55,57.55,0,0,0-9.18,6.19A49.49,49.49,0,0,0,413.72,151Z" transform="translate(-1.92 -22.11)" style="fill:#231f20"/><path d="M608.28,148.83a3.67,3.67,0,0,1,1.45,2.74,3.33,3.33,0,0,1-1.06,2.73q-30.33,31.66-48.5,44-4,2.73-7.43,4.55a28.19,28.19,0,0,1-6.28,2.55,21.34,21.34,0,0,1-5,.73A11.71,11.71,0,0,1,536,204.9a12.54,12.54,0,0,1-3.34-3.36,13.71,13.71,0,0,1-1.83-4.1,15.87,15.87,0,0,1-.58-4.1v-2.82a71.63,71.63,0,0,1,.58-8.74q.57-4.72,1.35-9.46c.64-3,1.16-6.07,1.54-9.1a65,65,0,0,0,.58-8.2q0-6-1.93-6.73a6.73,6.73,0,0,0-3.77-.09,25.74,25.74,0,0,0-7.05,2.82,81.23,81.23,0,0,0-7.82,4.82,53.94,53.94,0,0,0-5.9,4.65,86.24,86.24,0,0,0-13.23,14.1q-4.93,6.82-7.63,11.2c-.52.73-1,1.4-1.45,2a8.83,8.83,0,0,0-1.06,1.82,5.65,5.65,0,0,1-.78.91l-.77.73a4,4,0,0,1-4.83.73,4.51,4.51,0,0,1-2.7-2.55,2.38,2.38,0,0,1-.2-1.09c0-.49,0-1.25.1-2.28a18.36,18.36,0,0,1,.87-4c.51-1.64,1.29-3.85,2.32-6.65q2.31-5.28,5.31-11.19t7.05-12.84q5.22-8.55,9.57-15.2A82.26,82.26,0,0,1,509,125a4.59,4.59,0,0,1,3-1.19,3.92,3.92,0,0,1,3,1,3.63,3.63,0,0,1,1.45,2.73,3.57,3.57,0,0,1-1.25,2.91,68.36,68.36,0,0,0-7.93,10.28q-4.05,6.28-8.88,14.48-2.13,3.27-3.19,5a36.88,36.88,0,0,0-1.84,3.37q3.87-4.19,8.7-8.56a66.59,66.59,0,0,1,7.44-6,62.5,62.5,0,0,1,8.21-4.92q11.6-6.18,18.31-2.91a9.55,9.55,0,0,1,5.29,6,20.88,20.88,0,0,1,1.32,7.82,65.38,65.38,0,0,1-.66,8.83q-.66,4.83-1.42,9.56-.75,4.56-1.41,9a55.91,55.91,0,0,0-.66,8.1q0,4.56.66,5.92c.44.91.85,1.42,1.22,1.55.63.48,2.14.39,4.51-.28s5.81-2.57,10.32-5.73q17.77-11.83,47.34-42.78a4.07,4.07,0,0,1,2.89-1.37A3.79,3.79,0,0,1,608.28,148.83Z" transform="translate(-1.92 -22.11)" style="fill:#231f20"/><path d="M721.79,58.36A3.46,3.46,0,0,1,723,61.09a3.72,3.72,0,0,1-1.25,2.82,4.23,4.23,0,0,1-3,1.19q-6.18.18-14.1.54t-16.62,1.1q-8.69.72-17.48,1.54t-16.71,1.91a6,6,0,0,1-1.45.19,9.06,9.06,0,0,0-1.64.18q-6,10-12.76,22.21t-13.33,26q-2.13,4.74-4.54,10.37t-4.92,11.66q-2.52,6-4.74,12.37t-4,12.38q-3.28,12.19-3.28,20a23.93,23.93,0,0,0,.58,5.19,5.3,5.3,0,0,0,2.51,3.73,3.28,3.28,0,0,0,2.32.45,19.64,19.64,0,0,0,4.63-1,52.29,52.29,0,0,0,7.05-2.91,82.71,82.71,0,0,0,9.38-5.46,177.3,177.3,0,0,0,19.7-15.2,267.55,267.55,0,0,0,19.52-19,4.34,4.34,0,0,1,2.8-1.45,3.91,3.91,0,0,1,3,.91,4.24,4.24,0,0,1,1.36,2.64,3.46,3.46,0,0,1-1,2.82,250.71,250.71,0,0,1-20,19.93,175.63,175.63,0,0,1-20.57,15.93,90.75,90.75,0,0,1-17.78,9.1,27.32,27.32,0,0,1-8.5,1.46,13.87,13.87,0,0,1-6.35-1.28q-7-4.19-7-15.65a58.19,58.19,0,0,1,.94-9.83q.95-5.46,2.83-12.38,1.51-6.18,3.8-12.65t4.79-12.74q2.52-6.28,5-12T617,115.7q5.22-10.92,11-21.93t12.36-21.94c-1.54.25-3,.46-4.44.64l-4.25.55-4.74.63q-2.59.38-6.08.91h-.77a4.22,4.22,0,0,1-2.71-.91A3.43,3.43,0,0,1,616,71.29a3.24,3.24,0,0,1,.67-3,5,5,0,0,1,2.81-1.54c2.57-.37,4.79-.67,6.66-.92s3.58-.48,5.12-.72,3.09-.46,4.64-.64l5.41-.64a20.35,20.35,0,0,1,2-.27,13.42,13.42,0,0,0,2.41-.46q7-10.73,12.56-18.65t9.47-12.84A4.35,4.35,0,0,1,670.4,30a3.88,3.88,0,0,1,3.18.73,3.78,3.78,0,0,1,1.65,2.55,3.61,3.61,0,0,1-.68,2.91q-2.52,3.1-7.25,9.65T656.39,62q7.73-.9,16.23-1.73t16.71-1.54q8.2-.73,15.75-1.1t13.52-.36h.19A4.42,4.42,0,0,1,721.79,58.36Z" transform="translate(-1.92 -22.11)" style="fill:#231f20"/><path d="M775.79,147.38a4.11,4.11,0,0,1,.48,2.91,3.54,3.54,0,0,1-2,2.55q-25.5,14.92-45.21,17.84c-1.42.24-2.77.43-4.06.55s-2.57.18-3.86.18c-.9,1.21-1.81,2.34-2.7,3.37s-1.94,2.09-3.1,3.18a53.05,53.05,0,0,1-16,12.38,41.75,41.75,0,0,1-18,4.73H680q-10.05,0-16.43-5.64-5.4-4.73-4.63-14.2a40.67,40.67,0,0,1,2.41-10.56,50.83,50.83,0,0,1,5.7-11.1,82.6,82.6,0,0,1,22.22-22.21,4.17,4.17,0,0,1,3.09-.64,4,4,0,0,1,2.71,1.55,3.57,3.57,0,0,1,.67,2.91,3.72,3.72,0,0,1-1.64,2.55A95,95,0,0,0,683,147.2a70.66,70.66,0,0,0-8.79,10.55q-6.37,9.66-6.95,18-.39,5.64,2.12,8a11.44,11.44,0,0,0,5.8,3,22.16,22.16,0,0,0,5.79.46,36.19,36.19,0,0,0,14.78-4.19,49.21,49.21,0,0,0,13.43-10.2,7.84,7.84,0,0,1,1-1.09,13.4,13.4,0,0,0,1.16-1.27,38.47,38.47,0,0,1-5.61-1.64,25.47,25.47,0,0,1-4-2A21.07,21.07,0,0,1,694,158.3a16.2,16.2,0,0,1-1.25-10.56,21.73,21.73,0,0,1,6.57-12.19,26.84,26.84,0,0,1,11.2-6.74,23,23,0,0,1,10.24-.91,15.3,15.3,0,0,1,8.12,3.46,18.65,18.65,0,0,1,2.8,3.37,13.45,13.45,0,0,1,1.84,4.64,20.6,20.6,0,0,1,.19,6.37,31.36,31.36,0,0,1-2.32,8.37,59.59,59.59,0,0,1-4.44,9.11.92.92,0,0,0,.38-.09,1.41,1.41,0,0,1,.58-.1,94.37,94.37,0,0,0,19.42-5.64A169.69,169.69,0,0,0,770,146.1a3.92,3.92,0,0,1,3.09-.54A4.16,4.16,0,0,1,775.79,147.38Zm-52.17,4c.26-1,.58-2.12,1-3.46a22.5,22.5,0,0,0,.77-3.91,10.38,10.38,0,0,0-.29-3.73,6,6,0,0,0-2-3.1q-1.54-1.45-5.21-1.45c-.78,0-1.55,0-2.32.09a8.29,8.29,0,0,0-2.51.64c-.65.24-1.55.61-2.71,1.09a15.88,15.88,0,0,0-3.67,2.27,17.41,17.41,0,0,0-3.48,3.83,16.64,16.64,0,0,0-2.32,5.55,9.7,9.7,0,0,0,.78,6,12.5,12.5,0,0,0,4.63,5.09,17,17,0,0,0,4.16,2,23,23,0,0,0,6.47,1.09,32.52,32.52,0,0,0,3.86-6.1C721.75,155.18,722.72,153.2,723.62,151.38Z" transform="translate(-1.92 -22.11)" style="fill:#231f20"/></svg>