<svg id="Layer_1" data-name="Layer 1" xmlns="http://www.w3.org/2000/svg" viewBox="0 0 748.33 232.32"><title>alexa</title><path d="M357.5,23.83a7.13,7.13,0,0,1,2.31,3.56c.5,1.58.25,3.76-.77,6.52l-1.38,2.67c-.52,1-1.28,2.28-2.3,3.86-1.44,2.38-3.23,5.19-5.37,8.46s-4.66,7-7.52,11.12q-8.91,13.65-20.41,31.31t-23.17,38.42h35.29a6.62,6.62,0,0,1,4.76,1.93,6.18,6.18,0,0,1,2,4.6,6,6,0,0,1-2,4.74,6.92,6.92,0,0,1-4.76,1.78H291.83q-1.54,3-3.07,5.94c-1,2-2.05,4.15-3.07,6.53A299.9,299.9,0,0,0,266.05,214c0,.6.1,2,.31,4.3a6.81,6.81,0,0,0,2.76,5.2q2.76,2.37,7.82,1.48a15.69,15.69,0,0,0,9.06-5.34,5.93,5.93,0,0,1,4.45-2.52,8.74,8.74,0,0,1,5.06,1.33,6.62,6.62,0,0,1,2.46,4.45,5.89,5.89,0,0,1-1.54,4.75,26.94,26.94,0,0,1-17.49,10.09q-10.44,1.78-18.42-3.86a16.52,16.52,0,0,1-5.37-6.23,28.42,28.42,0,0,1-2.3-6.82,23.11,23.11,0,0,1-.46-5.64c.1-1.58.16-2.57.16-3q3.68-16.3,8.74-31.74a277.35,277.35,0,0,1,12.12-30.57c.62-1.18,1.18-2.37,1.69-3.56s1.08-2.37,1.69-3.56H239q-16.87,15.44-31.76,28.34t-27.16,22.7q-10.76,8.61-23.48,18.39a360,360,0,0,1-31.15,21.07,177.76,177.76,0,0,1-31,15.58,83.89,83.89,0,0,1-27,5.48H65.64c-2.66,0-5.88-.14-9.66-.44a66.22,66.22,0,0,1-11.82-2.08,76.58,76.58,0,0,1-12.27-4.45,35.42,35.42,0,0,1-10.75-7.56q-15.34-16.32-10.43-43a93.46,93.46,0,0,1,5.83-19.88q4-9.48,7.67-17.2,1.53-3,6.75-12A250.18,250.18,0,0,1,67,101,173.23,173.23,0,0,1,90.5,81.09q5.84-4.16,14-9.49a112.23,112.23,0,0,1,18-9.5q24.24-10.68,43.27-3.56A55.59,55.59,0,0,1,172.75,62,26.31,26.31,0,0,1,182,70.71q8.28,12.17,3.68,30.56-4.6,16.91-19.33,33.23A6.08,6.08,0,0,1,161.7,137a6.89,6.89,0,0,1-4.91-1.63,6,6,0,0,1-2.3-4.45,6.37,6.37,0,0,1,1.69-4.75q11.65-13.65,15.8-27t-1.07-21.36a16.39,16.39,0,0,0-5.68-4.9c-2.15-1.08-3.73-1.83-4.75-2.22q-12.9-5.34-32.54,3.26a118,118,0,0,0-16.57,8.75q-7.66,4.91-12.89,8.75a163.9,163.9,0,0,0-25.32,22.26,252.28,252.28,0,0,0-19,23,193,193,0,0,0-12.28,18.84q-4.45,8-5.37,9.79-3.69,7.72-7.37,16.47a81.06,81.06,0,0,0-5.21,17.65,53,53,0,0,0-.31,17.06A25.48,25.48,0,0,0,31,230.92q6.15,5.94,16.58,8.31a77.83,77.83,0,0,0,19.64,2.08,72.9,72.9,0,0,0,23.17-4.9,158.71,158.71,0,0,0,27.77-14.09q17.81-11.26,30.23-20.62t23.17-17.95q10.14-8,22.1-18.25t25.78-22.7H202.83a6.9,6.9,0,0,1-4.76-1.78,6,6,0,0,1-2-4.74,6.18,6.18,0,0,1,2-4.6,6.6,6.6,0,0,1,4.76-1.93h31q11.67-10.68,23.94-22.25t25.17-24l17.18-16.61q8.29-8.31,16.73-16.32T332,36.29c2.46-2.18,4.61-4.1,6.45-5.79a60.58,60.58,0,0,1,5.21-4.3c.82-.59,1.59-1.14,2.31-1.63s1.38-.94,2-1.34c2.46-1.18,4.5-1.48,6.14-.89A18.92,18.92,0,0,1,357.5,23.83ZM284.16,128.56q11.34-20.48,22.55-38t20.41-31.45L309.63,76.05,301,84.35c-2.87,2.78-5.63,5.54-8.29,8.31q-10.12,9.8-19.95,19.14t-19.64,18h30.38Z" transform="translate(-9.52 -22.05)" style="fill:#231f20"/><path d="M340.31,221.13c-1.64-.4-4-1.13-7.21-2.22a16.13,16.13,0,0,1-8.13-6.68q-7.37-10.68,3.07-32.93a220.92,220.92,0,0,1,13.81-23.89q8.28-12.6,19-27.14,4.9-6.24,10.74-14.25t12.89-18.09q3.38-4.75,6.9-9.8t7.52-11a5.62,5.62,0,0,1,4.3-2.67,8.21,8.21,0,0,1,5.22,1.18,5.82,5.82,0,0,1,2.91,4,6.57,6.57,0,0,1-1.07,4.89q-4.31,5.94-7.83,11t-6.9,9.79q-7.06,10.09-12.89,18.1t-11.05,14.84q-10.44,13.65-18.26,26t-13.05,22.7q-4.29,8.59-4.75,13.5c-.31,3.26-.05,5.39.77,6.37a7.07,7.07,0,0,0,4.14,3.12,17.09,17.09,0,0,0,5.68.59,26.7,26.7,0,0,0,5.83-.89,40.32,40.32,0,0,0,4.91-1.63,71.13,71.13,0,0,0,12.58-6.53q7-4.44,13.81-9.64t12.43-10.38a83.6,83.6,0,0,0,8.75-9,5.88,5.88,0,0,1,4.29-2.38,8.22,8.22,0,0,1,5.22,1.19,5.78,5.78,0,0,1,2.61,4.45,7.09,7.09,0,0,1-1.38,4.75c-.41.4-1.34,1.33-2.76,2.82s-3.23,3.21-5.38,5.19-4.45,4.06-6.9,6.23-4.91,4.26-7.37,6.23q-17.49,14.25-30.69,19.29a50,50,0,0,1-10.74,3.11A27.66,27.66,0,0,1,340.31,221.13Z" transform="translate(-9.52 -22.05)" style="fill:#231f20"/><path d="M416.42,225a68.3,68.3,0,0,1-8-.44,21.64,21.64,0,0,1-6.75-1.93q-10.43-4.16-13.19-15.43a24.75,24.75,0,0,1-.77-10.53,49.27,49.27,0,0,1,7.21-19.29q2.76-4.31,5.22-7.86a110.67,110.67,0,0,1,36.52-33.83,81.24,81.24,0,0,1,12.12-6.08,39.94,39.94,0,0,1,14.89-2.52,39.46,39.46,0,0,1,7.36,1q4.9,1,8.29,7A14,14,0,0,1,481,145.18a32.5,32.5,0,0,1-4,10.23,53.75,53.75,0,0,1-6.29,8.61c-2.26,2.47-3.89,4.2-4.92,5.19A122.19,122.19,0,0,1,448.65,180a80.37,80.37,0,0,1-25.47,8.16,78.89,78.89,0,0,1-18.11.3h-.92q-4,9.19-2.76,15.72a9.09,9.09,0,0,0,2.3,4.45,9.93,9.93,0,0,0,2.91,1.78,32.72,32.72,0,0,0,11,1.49,31.43,31.43,0,0,0,12.58-2.38A88.62,88.62,0,0,0,453.56,197,188.92,188.92,0,0,0,472,180.78q4.9-5,8.75-9.34t6.29-7.27a6,6,0,0,1,4.45-2.53,8.73,8.73,0,0,1,5.06,1.34,6.52,6.52,0,0,1,2.46,4.3,7.27,7.27,0,0,1-1.23,4.9Q495,175.45,491,180t-9.21,9.64a178.56,178.56,0,0,1-20.1,17.81,106.21,106.21,0,0,1-26.24,14.24A53.34,53.34,0,0,1,416.42,225Zm-4.6-49a47.9,47.9,0,0,0,9.21-.89,64,64,0,0,0,21.63-6.67,83,83,0,0,0,14.27-9.35,23.35,23.35,0,0,0,3.38-3.26,38.54,38.54,0,0,0,4.6-6.23,18,18,0,0,0,2.77-5.79,5,5,0,0,0,0-2.52,2,2,0,0,0-1.08-.89,11.19,11.19,0,0,0-3.22-.3,26.51,26.51,0,0,0-9.51,1.64,93.45,93.45,0,0,0-10.44,4.89Q425.63,157.06,411.82,176Z" transform="translate(-9.52 -22.05)" style="fill:#231f20"/><path d="M618.36,170.1a7,7,0,0,1,3.22,4,6.28,6.28,0,0,1-.46,4.89Q604.25,208.67,578.77,220a13,13,0,0,0-2.46.89q-2.14.89-5.37,1.93t-7.36,1.92a39.65,39.65,0,0,1-8.44.89,29.35,29.35,0,0,1-8-1,23.38,23.38,0,0,1-7.06-3.42,22.13,22.13,0,0,1-6.29-8,36.45,36.45,0,0,1-2.76-9.34,78.64,78.64,0,0,1-.92-10.09q-.17-5.19-.46-10.24l-10.59,10.83q-5.37,5.49-11.2,12.17t-12.13,15.13q-6.28,8.46-13.35,19.73a6.37,6.37,0,0,1-5.83,3,5.67,5.67,0,0,1-3.37-.89,7,7,0,0,1-3.23-4,5.67,5.67,0,0,1,.77-4.89q7.06-11.28,13.51-20t12.42-15.73q6-7,11.51-12.46t10.74-10.53q2.46-2.67,5.22-5.19c1.84-1.68,3.78-3.42,5.83-5.2q.3-11.26.92-22.84t.92-17.51a1.54,1.54,0,0,1-.61.74,4.57,4.57,0,0,0-.92.75q-7.37,9.49-14.88,19t-15.5,19q-3.07,3.87-4,4.9c-.62.69-1.08,1.19-1.38,1.48s-.77.79-1.39,1.49-1.94,2.32-4,4.89a5.84,5.84,0,0,1-4.3,2.37,7.31,7.31,0,0,1-5.22-1.48q-4.61-4.16-.92-9.2c2-2.56,3.38-4.2,4-4.89s1.07-1.19,1.38-1.49.77-.78,1.38-1.48,1.95-2.32,4-4.89q7.07-8.61,15.19-19.44a244.63,244.63,0,0,1,15.81-19.14q5.52-5.92,11.35-7.56t9.82,1.33q4.61,3,4,10.39-.32,4.16-.62,9.49-.32,4.46-.61,10.24t-.62,11.72q4.9-4.16,10.59-8.75T566.8,133.9l6.14-5q9.21-7.71,18.57-15.13t18.56-14.84a7.35,7.35,0,0,1,5.22-1.48,5.91,5.91,0,0,1,4.3,2.37,7.17,7.17,0,0,1,1.68,4.9,5.66,5.66,0,0,1-2.6,4.3q-9.21,7.42-18.57,14.84T581.84,139l-6.14,4.74Q565.26,152.3,557.29,159t-14.12,12.32v11.87q0,2.07.31,6.08c.2,2.67.5,5.49.92,8.45a57.19,57.19,0,0,0,1.68,8.16,10.15,10.15,0,0,0,2.92,5.2,6.71,6.71,0,0,0,4,1.48,25.7,25.7,0,0,0,6.14-.15,51.24,51.24,0,0,0,7.06-1.48,41.15,41.15,0,0,0,6.75-2.52Q595,198,609.15,172.77a7.09,7.09,0,0,1,4.15-3.11A6.89,6.89,0,0,1,618.36,170.1Z" transform="translate(-9.52 -22.05)" style="fill:#231f20"/><path d="M755.54,159.42a5.17,5.17,0,0,1,2.3,4.15,7.38,7.38,0,0,1-1.69,5.05c-1.64,2-3.83,4.45-6.6,7.41s-5,5.45-6.59,7.42q-2.78,3-5.84,6.53c-2,2.37-4.5,5.15-7.36,8.31a66.58,66.58,0,0,1-6,6.23,73.6,73.6,0,0,1-9.36,7.12,39.31,39.31,0,0,1-4.75,3,49,49,0,0,1-7.52,3.26,33.43,33.43,0,0,1-8.9,1.48,24.44,24.44,0,0,1-9.52-2.07q-2.76-1.49-6-3.56a15.32,15.32,0,0,1-5.37-6.83,11.64,11.64,0,0,1-1.23-3.56,115.71,115.71,0,0,1-12,7.86,92.12,92.12,0,0,1-13.5,6.38,28.22,28.22,0,0,1-7.67,2.08c-2.87.4-5.73.7-8.6.89h-1.84q-11,0-16-4.45-9.21-8-5.83-23.44a59.38,59.38,0,0,1,10.74-23.44,153.62,153.62,0,0,1,10.13-12q4.9-5.17,9.67-9.64a118.15,118.15,0,0,1,10.13-8.46q5.35-4,11.5-8.15,1.84-1.19,5.07-3.12a63.73,63.73,0,0,1,7.36-3.71,73.06,73.06,0,0,1,8.9-3.11,46.76,46.76,0,0,1,10-1.64,43.47,43.47,0,0,1,5.52.45,40.51,40.51,0,0,1,7.06,1.63,26.32,26.32,0,0,1,6.91,3.41,18.9,18.9,0,0,1,5.37,5.79,18.44,18.44,0,0,1,2.61,8.6q.45,5.34-4.76,13.06-2.15,3-4.76,6.82t-5.06,8a95.79,95.79,0,0,1-5.53,8.31q-3.06,4.16-5.83,8.61-1.53,2.37-4,6.82a17.77,17.77,0,0,0-2.45,8.6,6.87,6.87,0,0,0,3.07,5.05,10.73,10.73,0,0,0,5.67,1.48,18.55,18.55,0,0,0,6.91-1.48,36.29,36.29,0,0,0,6.75-3.56,65.84,65.84,0,0,0,7.52-6.08l5.37-5.2q4.29-4.74,7.37-8.16t5.83-6.67q2.45-3,6.6-7.42T746,160a5.45,5.45,0,0,1,4.3-2.22A8,8,0,0,1,755.54,159.42Zm-114.78,46a74.48,74.48,0,0,0,12.43-5.94,114.06,114.06,0,0,0,11.2-7.56,79.82,79.82,0,0,0,9.05-8,81.72,81.72,0,0,0,6.29-7.27q1.85-2.67,5.22-7.86t5.53-8.76q2.14-3,4.29-6.38t6.14-9a13.39,13.39,0,0,0,1.84-3.85,4.24,4.24,0,0,0-.3-3.56q-1.55-2.37-5.68-3.71a16.55,16.55,0,0,0-6.6-1,38,38,0,0,0-8,1.48,56.94,56.94,0,0,0-7.21,2.67c-2.15,1-4,1.93-5.68,2.82a33.16,33.16,0,0,0-3.68,2.23q-5.83,3.85-10.74,7.56t-9.36,7.72a122.43,122.43,0,0,0-8.9,8.9,141.38,141.38,0,0,0-9.06,11.12A50.26,50.26,0,0,0,622,186a43,43,0,0,0-3.07,8.61,19.82,19.82,0,0,0-.46,7.27q.47,3.27,2,4.45a7.89,7.89,0,0,0,2.15.89,18.23,18.23,0,0,0,6.14.3,67.31,67.31,0,0,0,6.9-.9A40.73,40.73,0,0,0,640.76,205.41Z" transform="translate(-9.52 -22.05)" style="fill:#231f20"/></svg>