<svg id="Layer_1" data-name="Layer 1" xmlns="http://www.w3.org/2000/svg" viewBox="0 0 741.46 266.82"><title>austin</title><path d="M290.48,112.54a4.85,4.85,0,0,1-2,4.72,10.75,10.75,0,0,1-6,2.32l-13.08.64q-6.48.33-12.85,1-1.08,26.08-2.45,61t-2.66,80a6.19,6.19,0,0,1-2.65,4.56,9.83,9.83,0,0,1-6.06,1.84h-.21a10,10,0,0,1-6.17-1.92,5.13,5.13,0,0,1-2.34-4.64q1.27-44.65,2.55-79t2.56-60.57q-15.11,1.44-29.76,3.2t-29.76,4q-5.75,12-11.48,24.81t-11.48,26.4a6.84,6.84,0,0,1-4.25,3.92,11.12,11.12,0,0,1-6.59.4,7.94,7.94,0,0,1-5.2-3.2,5,5,0,0,1-.54-5q4.89-11.68,9.78-22.64t9.78-21.53Q126,138.47,93.13,146.39t-64.94,18a11.77,11.77,0,0,1-3.19.48,11.23,11.23,0,0,1-4.78-1,7,7,0,0,1-3.3-3,4.8,4.8,0,0,1-.1-5,8,8,0,0,1,4.78-3.6Q54.33,142,87.92,133.9t68-13.84q2.76-.48,5.31-.88c1.7-.26,3.47-.56,5.31-.88a754.21,754.21,0,0,1,38.26-70.09q11.91-19.05,20.83-26.73t17.65-6.56q9.13,1.29,12.75,11a38.54,38.54,0,0,1,1.81,6.56q.74,3.85,1.17,8.65.42,8.47.21,17.6T258.6,74q-.44,7.2-.74,15.69t-.75,18.24q12.12-1,24.23-1.44a10.23,10.23,0,0,1,6.27,1.6A5.8,5.8,0,0,1,290.48,112.54Zm-103.94,2.72q13.4-1.76,26.47-3.28t26.46-2.64q.42-10.56.85-19.36t.85-16.49q.42-5.43.75-13t-.11-15q-.44-6.72-1.06-10.4a41.15,41.15,0,0,0-1.28-5.61,86.65,86.65,0,0,0-7,7.53,153,153,0,0,0-11.91,16.8q-8.28,13.61-16.79,28.8T186.54,115.26Z" transform="translate(-16.15 -1.74)" style="fill:#231f20"/><path d="M393.36,110.3a7.28,7.28,0,0,1,3.93,4.08,4.64,4.64,0,0,1-1,4.88c-.57.75-1.38,1.76-2.45,3s-2.34,2.72-3.82,4.32-3.12,3.28-4.89,5a56.89,56.89,0,0,1-5.85,5q-15.94,12.81-29.76,9.61a23.21,23.21,0,0,1-5.84-2.56,21,21,0,0,1-6.27-6.09,20.32,20.32,0,0,1-2.13-3.68,35.81,35.81,0,0,1-1.48-4q-3,3.69-6.17,7t-6.8,6.48a32.4,32.4,0,0,1-11.37,7.13,34,34,0,0,1-10.95,2,31,31,0,0,1-6.59-.8q-13.61-3.84-12.33-17.93a65.09,65.09,0,0,1,3.19-13.12q2.55-7.51,6.59-17.12a6.82,6.82,0,0,1,4.15-3.92,11.26,11.26,0,0,1,6.69-.4,8.09,8.09,0,0,1,5.21,3.12,5.12,5.12,0,0,1,.53,5q-3.62,8.81-5.53,14.48a92.18,92.18,0,0,0-2.76,9.68,20.15,20.15,0,0,0-.85,5.92c.14,1,.35,1.55.64,1.76a5,5,0,0,0,5-.48,33,33,0,0,0,5-3.68,119.36,119.36,0,0,0,23.17-28.8,87.86,87.86,0,0,0,5.74-11,11.78,11.78,0,0,0,.74-1.76,11.35,11.35,0,0,1,.74-1.76A6.93,6.93,0,0,1,342.14,88a11.09,11.09,0,0,1,6.58-.4,8.14,8.14,0,0,1,5.21,3.13,4.85,4.85,0,0,1,.53,4.88A21.36,21.36,0,0,1,353,99.26a54.09,54.09,0,0,0-3.19,12.16,37.9,37.9,0,0,0,0,11.36,23.32,23.32,0,0,0,2.44,7.84c1.06,1.82,1.95,2.88,2.66,3.2.56.11,1.84-.21,3.82-1a34,34,0,0,0,8.08-5.12,79.09,79.09,0,0,0,9.35-8.88c2.69-3,4.47-5.09,5.32-6.16a7.77,7.77,0,0,1,5.21-3A11.87,11.87,0,0,1,393.36,110.3Z" transform="translate(-16.15 -1.74)" style="fill:#231f20"/><path d="M466.27,111.9a5,5,0,0,1-.11,5,8.14,8.14,0,0,1-4.78,3.52q-2.55.81-6.8,2.32t-9.67,3.68q-5.43,2.16-11.48,4.8t-12.22,5.52v.16a26.46,26.46,0,0,1,4.89,4.8q4.88,6.41,4.35,13.13T424,167.59a45.08,45.08,0,0,1-15.73,9.76,52,52,0,0,1-18.7,3.68,36.21,36.21,0,0,1-6.17-.48,23.2,23.2,0,0,1-8.71-3.2,18.6,18.6,0,0,1-6-5.76,13.48,13.48,0,0,1-2.23-7.68,15.82,15.82,0,0,1,2.45-7.84q6.16-9.45,23.8-20.17a34.65,34.65,0,0,1-4.46-4,17.18,17.18,0,0,1-3.4-5.28,30.75,30.75,0,0,1-1.06-3,16.33,16.33,0,0,1-.64-5,24.11,24.11,0,0,1,1.06-6.64,26.2,26.2,0,0,1,4-7.84q6.58-9.45,20.41-16.49,15.72-8.16,40.38-13.28a10.25,10.25,0,0,1,6.59.56,7.53,7.53,0,0,1,4,3.92,5,5,0,0,1-.64,5,8.58,8.58,0,0,1-5.31,3.12,164.32,164.32,0,0,0-20.83,5.37,97.68,97.68,0,0,0-14.56,6.08A51,51,0,0,0,409,104.7a29.24,29.24,0,0,0-5.2,5.6,18,18,0,0,0-2.34,4.64,15.73,15.73,0,0,0-.74,3.68,6.75,6.75,0,0,0,.21,2.56,7.29,7.29,0,0,1,.32,1.12,10.84,10.84,0,0,0,2.23,3.12,18.68,18.68,0,0,0,3.5,2.64l2.45-1.2c.78-.37,1.59-.72,2.44-1q6.81-3.36,13.39-6.24c4.39-1.92,8.51-3.65,12.33-5.2s7.26-2.83,10.31-3.84,5.42-1.79,7.12-2.32a9.93,9.93,0,0,1,6.59,0A8.36,8.36,0,0,1,466.27,111.9Zm-56.33,48q5.52-5.61,1.06-11.68a29.19,29.19,0,0,0-4.25-3.85q-17.22,9.76-22.1,17.29-1.27,2.57-.22,4.32a3.86,3.86,0,0,0,3.19,1.92,17.65,17.65,0,0,0,5-.08,31.6,31.6,0,0,0,6.06-1.52,43.84,43.84,0,0,0,6.16-2.72A22.54,22.54,0,0,0,409.94,159.91Z" transform="translate(-16.15 -1.74)" style="fill:#231f20"/><path d="M539.39,53.81a5.44,5.44,0,0,1-2.13,4.72,10.29,10.29,0,0,1-6,2.32l-48,2.4a3.77,3.77,0,0,1-.1.8,3.35,3.35,0,0,0-.11.8q-3.82,21.29-7.33,47.77t-6.06,54A6.59,6.59,0,0,1,466.8,171a9.7,9.7,0,0,1-5.85,1.76,1,1,0,0,1-.63-.16,10,10,0,0,1-6.06-2.16,4.87,4.87,0,0,1-2-4.72q1.27-13.6,2.76-27.21t3.3-26.56q1.8-13,3.61-25.05t3.72-22.64l-22.11,1.12h-.63A10.08,10.08,0,0,1,437,63.65a6.41,6.41,0,0,1-2.87-4.4,5.44,5.44,0,0,1,2.13-4.72,10.29,10.29,0,0,1,5.95-2.32L468,50.93q2.11-11,4.46-21.93t4.89-21.76A5.71,5.71,0,0,1,480.72,3a12,12,0,0,1,6.59-1.2,8.84,8.84,0,0,1,5.63,2.72,5.28,5.28,0,0,1,1.39,5Q492,19.56,489.86,29.72t-4,20.25L530,47.73a9.26,9.26,0,0,1,6.27,1.52A6.78,6.78,0,0,1,539.39,53.81Z" transform="translate(-16.15 -1.74)" style="fill:#231f20"/><path d="M580.2,111.9a6,6,0,0,1,2.65,4.64,5.37,5.37,0,0,1-2.44,4.64q-3.18,2.56-6.06,4.8t-5.63,4.48q-9.57,7.68-16.79,13.21t-13.18,9.2a65,65,0,0,1-9.78,5,30.35,30.35,0,0,1-11.9,2.32,21.3,21.3,0,0,1-4.68-.48,13.54,13.54,0,0,1-5.84-2.32,15.46,15.46,0,0,1-3.62-3.76,20.81,20.81,0,0,1-2.12-4,21.41,21.41,0,0,1-1-2.88,54.94,54.94,0,0,1-1.17-7.77,49.47,49.47,0,0,1-.1-7.12,66.43,66.43,0,0,1,.42-7.2q.44-3.84,1.17-7.6c.5-2.51,1.06-4.93,1.7-7.28s1.31-4.48,2-6.4a6.84,6.84,0,0,1,4.25-3.92,11.67,11.67,0,0,1,6.8-.4,8.38,8.38,0,0,1,5.1,3.12,5,5,0,0,1,.64,5,52.6,52.6,0,0,0-3.4,11.84,73.21,73.21,0,0,0-1.27,13,44,44,0,0,0,.53,10,27.31,27.31,0,0,0,1.38,5.05q5.31-.65,15-7.85t23.28-17.76l5.63-4.56,6.06-4.88a9.39,9.39,0,0,1,6-2A10.52,10.52,0,0,1,580.2,111.9Zm-64-20.48a9.29,9.29,0,0,1-5.42-3,5.06,5.06,0,0,1-1-5l2.55-7.2a6.62,6.62,0,0,1,3.94-4.08,11.42,11.42,0,0,1,6.69-.72,9.67,9.67,0,0,1,5.31,3,4.57,4.57,0,0,1,.85,5l-2.33,7.36a6.7,6.7,0,0,1-3.19,3.53,10.93,10.93,0,0,1-5.32,1.28A10.18,10.18,0,0,1,516.22,91.42Z" transform="translate(-16.15 -1.74)" style="fill:#231f20"/><path d="M754.28,111.1a6,6,0,0,1,3.3,4.4,5.29,5.29,0,0,1-2,4.72,161.46,161.46,0,0,1-20.2,16.56A100.8,100.8,0,0,1,716.66,147a56.41,56.41,0,0,1-21,4.16,45.59,45.59,0,0,1-14.88-2.4q-17-5.61-21.26-20.33a45.42,45.42,0,0,1-1.7-16.32q.65-8.32.64-17.44c-.14-2-.29-3.74-.43-5.12s-.63-2.19-1.48-2.41c-.57-.1-1.71.51-3.41,1.85a62.19,62.19,0,0,0-6.9,6.8q-4.37,4.8-10.42,12.64t-13.71,19.2l-5.21,7.28a31,31,0,0,1-4.78,5.36q-7.44,6.09-18.07,5.12-9.13-.94-14.34-9.68t-7.55-26.8a5,5,0,0,1,1.91-4.72,10.29,10.29,0,0,1,6-2.32,10.17,10.17,0,0,1,6.37,1.36,6.23,6.23,0,0,1,3.19,4.4,93.45,93.45,0,0,0,2,11.6,70.8,70.8,0,0,0,2.23,7.36,17.37,17.37,0,0,0,2,4.08c.64.86,1.1,1.44,1.38,1.76a3.86,3.86,0,0,0,1.92-1,22.4,22.4,0,0,0,3.29-3.76c1.2-1.65,2.66-3.7,4.36-6.16q10.83-15.84,18.7-25.28a119.08,119.08,0,0,1,13.82-14.49q5.94-5,10.09-6.64a20.94,20.94,0,0,1,7.34-1.6,21.26,21.26,0,0,1,6.59,1.12,17.34,17.34,0,0,1,6.16,3.6A19,19,0,0,1,674,84.77a24.34,24.34,0,0,1,1.81,9.85c0,1.81,0,3.62-.11,5.44s-.18,3.63-.32,5.44c-.14,3.73-.18,7.39-.1,11a35.41,35.41,0,0,0,1.17,9,16,16,0,0,0,11,11.2q9.35,3.36,21-1.44,14.46-5.76,33.59-23.2a9,9,0,0,1,5.84-2.48A10.1,10.1,0,0,1,754.28,111.1Z" transform="translate(-16.15 -1.74)" style="fill:#231f20"/></svg>