<svg id="Layer_1" data-name="Layer 1" xmlns="http://www.w3.org/2000/svg" viewBox="0 0 765.92 174.33"><title>greenworld</title><path d="M90.64,92.47a3.37,3.37,0,0,1,.24,1.1v.66a3.29,3.29,0,0,1-1.18,2.42,5,5,0,0,1-3.52,1.1c-1.41,0-2.51-.88-3.29-2.64a18.77,18.77,0,0,0-7.76-9.45,23,23,0,0,0-12-3.08,32.06,32.06,0,0,0-12.57,2.86,40.66,40.66,0,0,0-12.8,9A64.44,64.44,0,0,0,26.5,110.72a93.17,93.17,0,0,0-8,24.4,130.11,130.11,0,0,0-3.29,26.6q0,24.41,14.33,24.4a14.19,14.19,0,0,0,4.82-.88,21.73,21.73,0,0,0,5.05-2.64,39.75,39.75,0,0,0,5.64-4.83c2-2.05,4.31-4.62,6.81-7.7L80.3,132a4.15,4.15,0,0,1,3.29-1.76,4.21,4.21,0,0,1,2.94,1.21,3.7,3.7,0,0,1,1.29,2.75v.88L81,164.36l24.2-29.68a4,4,0,0,1,3.05-1.76,4.63,4.63,0,0,1,3.17,1.43A4,4,0,0,1,113,137.1a2.66,2.66,0,0,1-1.17,2.2l-35,43.08-11,47.27A31.61,31.61,0,0,1,62,238.33a26.38,26.38,0,0,1-5.29,6,17.86,17.86,0,0,1-6.23,3.4,21.21,21.21,0,0,1-6.1,1,14,14,0,0,1-10.11-3.84,13,13,0,0,1-4-9.79,23.56,23.56,0,0,1,2-9,43.63,43.63,0,0,1,6.93-10.77L69,178.87l6.34-26.6L58.45,174.91q-8,10.34-14.68,14.62a25.91,25.91,0,0,1-14.22,4.28q-11,0-16.91-8.24T6.76,161.72a102,102,0,0,1,.94-13.08q.94-7.14,2.82-15.28,3.3-16.26,9.28-27.48A72.79,72.79,0,0,1,33,87.74a46,46,0,0,1,15-10,41.56,41.56,0,0,1,15.15-3.08q10.34,0,17.15,4.73A29.38,29.38,0,0,1,90.64,92.47ZM65,196.67,45.77,220.19Q38.48,229,38.48,234.7a7.9,7.9,0,0,0,1.29,4.4q1.29,2,4.82,2a11.72,11.72,0,0,0,7.52-3.19c2.5-2.12,4.31-5.38,5.4-9.78Z" transform="translate(-6.76 -74.44)" style="fill:#231f20"/><path d="M105.68,133.36a3.53,3.53,0,0,1,3.76-3.08,5,5,0,0,1,3.52,1.1,3.52,3.52,0,0,1,1.17,2.64,1.9,1.9,0,0,1-.11.55,1.66,1.66,0,0,0-.12.55L111.55,145a49.6,49.6,0,0,1,4.93-5.27,41.35,41.35,0,0,1,6.11-4.73,40.49,40.49,0,0,1,6.58-3.41,17.52,17.52,0,0,1,6.58-1.32,4.13,4.13,0,0,1,2.7,1.1,3.84,3.84,0,0,1,1.29,3.08,5,5,0,0,1-.35,1.65,5.25,5.25,0,0,0-.35,1.65,4.58,4.58,0,0,0,1.41,3.07c.94,1,3,1.54,6.11,1.54a28,28,0,0,0,5.4-.55,36.41,36.41,0,0,0,5.52-1.53,25.48,25.48,0,0,0,4.94-2.42,15.05,15.05,0,0,0,3.64-3.19,4,4,0,0,1,3.05-1.76,4.63,4.63,0,0,1,3.17,1.43,4,4,0,0,1,1.53,2.75q0,3.3-3.64,5.71a39.71,39.71,0,0,1-8.46,4.18,47.26,47.26,0,0,1-9.16,2.42,48.9,48.9,0,0,1-5.76.66q-7,0-11.16-2.75a9.87,9.87,0,0,1-4.58-7.58,28.83,28.83,0,0,0-11,8,65.34,65.34,0,0,0-8.7,12.75A96.84,96.84,0,0,0,105,175.57a138,138,0,0,0-4,14.73,3.62,3.62,0,0,1-1.3,2.2,4.47,4.47,0,0,1-2.93.88,5.14,5.14,0,0,1-2.94-.88,2.79,2.79,0,0,1-1.29-2.42,1.66,1.66,0,0,1,.12-.55,1.9,1.9,0,0,0,.11-.55Z" transform="translate(-6.76 -74.44)" style="fill:#231f20"/><path d="M219.39,134.24a4,4,0,0,1,3.05-1.76,4.45,4.45,0,0,1,2.94,1.43,3.86,3.86,0,0,1,1.53,2.53,3.19,3.19,0,0,1-.94,2.42l-35.48,43.52q-9.41,11.43-21.38,11.43a16.15,16.15,0,0,1-7.87-1.86,18.77,18.77,0,0,1-5.87-5.06,23,23,0,0,1-3.76-7.26,28.52,28.52,0,0,1-1.3-8.68,35.61,35.61,0,0,1,1.41-10.77c.94-2.93,1.73-5.28,2.35-7q4.94-11.43,12.1-17.7a25.66,25.66,0,0,1,17.51-6.27,16.39,16.39,0,0,1,5.75,1.1,17.37,17.37,0,0,1,5,2.86,15,15,0,0,1,3.53,4.29,10.86,10.86,0,0,1,1.41,5.38,12.1,12.1,0,0,1-2,6.49,20.44,20.44,0,0,1-6.46,6,44.29,44.29,0,0,1-12.1,4.95,115.86,115.86,0,0,1-19.15,3.19,29.57,29.57,0,0,0-.94,7.69,19.17,19.17,0,0,0,2.7,10.44,9,9,0,0,0,8.11,4.29q7.28,0,14.33-8.57Zm-46.76,6.38q-6.57,4.83-10.33,14.72A76.64,76.64,0,0,0,175,153.25a58.11,58.11,0,0,0,9.05-3.07,15.56,15.56,0,0,0,5.29-3.52A5.6,5.6,0,0,0,191,143a5,5,0,0,0-2.23-4.39,8.66,8.66,0,0,0-5-1.54A17.28,17.28,0,0,0,172.63,140.62Z" transform="translate(-6.76 -74.44)" style="fill:#231f20"/><path d="M271.54,134.24a4,4,0,0,1,3.06-1.76,4.45,4.45,0,0,1,2.94,1.43,3.88,3.88,0,0,1,1.52,2.53,3.16,3.16,0,0,1-.94,2.42l-35.47,43.52q-9.41,11.43-21.38,11.43a16.19,16.19,0,0,1-7.88-1.86,18.89,18.89,0,0,1-5.87-5.06,23.18,23.18,0,0,1-3.76-7.26,28.52,28.52,0,0,1-1.29-8.68,35.61,35.61,0,0,1,1.41-10.77c.94-2.93,1.72-5.28,2.35-7q4.94-11.43,12.1-17.7a25.63,25.63,0,0,1,17.5-6.27,16.45,16.45,0,0,1,5.76,1.1,17.64,17.64,0,0,1,5,2.86,14.94,14.94,0,0,1,3.52,4.29,10.86,10.86,0,0,1,1.41,5.38,12.09,12.09,0,0,1-2,6.49,20.55,20.55,0,0,1-6.46,6,44.43,44.43,0,0,1-12.1,4.95,116.23,116.23,0,0,1-19.15,3.19,29.57,29.57,0,0,0-.94,7.69,19.17,19.17,0,0,0,2.7,10.44,8.94,8.94,0,0,0,8.11,4.29q7.27,0,14.33-8.57Zm-46.75,6.38q-6.58,4.83-10.34,14.72a76.77,76.77,0,0,0,12.69-2.09,58.32,58.32,0,0,0,9-3.07,15.56,15.56,0,0,0,5.29-3.52,5.61,5.61,0,0,0,1.65-3.63,5,5,0,0,0-2.24-4.39,8.66,8.66,0,0,0-5-1.54A17.25,17.25,0,0,0,224.79,140.62Z" transform="translate(-6.76 -74.44)" style="fill:#231f20"/><path d="M370.22,134.68a4,4,0,0,1,3-1.76,5.08,5.08,0,0,1,3.17,1.21,3.67,3.67,0,0,1,1.53,3,2.66,2.66,0,0,1-1.17,2.2l-37.36,45.94a21.93,21.93,0,0,1-17.86,8.35,13,13,0,0,1-5.75-1.09,10.66,10.66,0,0,1-3.64-2.86,9.31,9.31,0,0,1-1.88-4,18.6,18.6,0,0,1-.47-4,8.44,8.44,0,0,1,.23-2.19L316,153.8a11.84,11.84,0,0,0,.7-4.39q0-5.49-3.41-8.36T304,138.2a21.22,21.22,0,0,0-10.69,2.74,35.11,35.11,0,0,0-8.81,7.26,58.51,58.51,0,0,0-7.16,10.11,84.81,84.81,0,0,0-5.41,11.43q-2.24,5.83-3.76,11.1a85.32,85.32,0,0,0-2.23,9.46,3.48,3.48,0,0,1-1.41,2.2,4.6,4.6,0,0,1-2.82.88,5.11,5.11,0,0,1-2.93-.88,2.78,2.78,0,0,1-1.3-2.42V189l13.16-55.62q.47-3.08,3.76-3.08a4.65,4.65,0,0,1,3.29,1.1,3.52,3.52,0,0,1,1.17,2.64,1.9,1.9,0,0,1-.11.55,1.66,1.66,0,0,0-.12.55L276.24,145q12.21-14.73,28.19-14.73a23,23,0,0,1,8.7,1.54,18.94,18.94,0,0,1,12,17.81,18,18,0,0,0-.35,2.53c-.08,1-.2,2.08-.36,3.4l-6.1,25.5a3.52,3.52,0,0,0-.24,1.54c0,1.47.39,2.39,1.17,2.75a5.49,5.49,0,0,0,2.35.55,15.25,15.25,0,0,0,11.28-5.5Z" transform="translate(-6.76 -74.44)" style="fill:#231f20"/><path d="M370,133.36q.48-3.08,3.76-3.08a4.64,4.64,0,0,1,3.29,1.1,3.53,3.53,0,0,1,1.18,2.64,1.66,1.66,0,0,1-.12.55,1.66,1.66,0,0,0-.12.55l-8,35.39a22.6,22.6,0,0,0-.7,3,16.59,16.59,0,0,0-.24,2.75,12.26,12.26,0,0,0,2,6.81c1.33,2.06,3.64,3.08,6.93,3.08a18.21,18.21,0,0,0,10-3.3,39.22,39.22,0,0,0,9.51-9.12,77.73,77.73,0,0,0,8.11-13.3A85.79,85.79,0,0,0,411.33,145q.71-2.64,1.18-5.16a33,33,0,0,1,1.41-5.17l.23-1.1a3.49,3.49,0,0,1,3.76-2.86,5.39,5.39,0,0,1,3.53,1,3.18,3.18,0,0,1,1.17,2.53,1.66,1.66,0,0,1-.12.55,1.61,1.61,0,0,0-.11.55l-2.12,8.79-6.11,26.38c-.15,1-.31,2-.47,3a17.69,17.69,0,0,0-.23,2.75,12,12,0,0,0,2,6.92q2,3,6.93,3a19.14,19.14,0,0,0,12.21-4.51,45.36,45.36,0,0,0,10.22-12,95.84,95.84,0,0,0,8.11-17,173.94,173.94,0,0,0,5.87-19.24q.48-3.08,3.76-3.08a4.64,4.64,0,0,1,3.29,1.1A3.53,3.53,0,0,1,467,134a8.27,8.27,0,0,1-.24,2.31,4.78,4.78,0,0,0-.23,1.43,4.31,4.31,0,0,0,1.41,3.29c.94.88,2.89,1.32,5.87,1.32a31.71,31.71,0,0,0,11-2.08,19,19,0,0,0,8.46-5.61,4.52,4.52,0,0,1,3.06-1.76,4.4,4.4,0,0,1,3.05,1.32,3.72,3.72,0,0,1,1.41,2.64q0,3.08-3.29,5.6a30.47,30.47,0,0,1-8,4.29,50,50,0,0,1-9.16,2.53,43.74,43.74,0,0,1-6.34.77,37,37,0,0,1-5.64-.44,11.11,11.11,0,0,1-4.94-2,132.28,132.28,0,0,1-6.46,16,85.89,85.89,0,0,1-8.93,14.84,48.71,48.71,0,0,1-11.51,11.1A25.13,25.13,0,0,1,422.14,194a17.62,17.62,0,0,1-6.22-1.09,17.91,17.91,0,0,1-5.29-3.08,15.19,15.19,0,0,1-3.88-5.17,16.81,16.81,0,0,1-1.52-7.36.61.61,0,0,0-.47.33c-.16.22-.32.33-.47.33l-.47.88q-6.12,8.13-13.28,11.65T377.74,194A17.17,17.17,0,0,1,366,189.42a15.94,15.94,0,0,1-3.76-5.5,20,20,0,0,1-1.41-7.91,42.64,42.64,0,0,1,.7-7.26Z" transform="translate(-6.76 -74.44)" style="fill:#231f20"/><path d="M565,134.68a4.14,4.14,0,0,1,3.29-1.76,4.45,4.45,0,0,1,2.94,1.43,4,4,0,0,1,1.52,2.75q0,3.08-3.52,5.49a39.6,39.6,0,0,1-8,4.18,44.26,44.26,0,0,1-9.05,2.53,45.81,45.81,0,0,1-6.46.77,27,27,0,0,1-5.64-.55,14.39,14.39,0,0,1-4.93-2.09l-.7,2.2a42.46,42.46,0,0,1-2.35,6.26c-1.1,2.42-2.35,5-3.76,7.81s-2.86,5.49-4.35,8.13-2.86,4.91-4.11,6.82q-9.87,14.5-23.5,14.51a19,19,0,0,1-7.4-1.43,16.76,16.76,0,0,1-6-4.29,19.83,19.83,0,0,1-4-6.93,29.18,29.18,0,0,1-1.41-9.56,48.48,48.48,0,0,1,2.35-14.84,47.45,47.45,0,0,1,6.69-13.41,37.78,37.78,0,0,1,10.11-9.78,22.5,22.5,0,0,1,22.79-1.21,47.9,47.9,0,0,1,9.51,6.71l.24-1.76c.31-1.32.7-2.71,1.17-4.18s1.65-2.2,3.53-2.2a4.65,4.65,0,0,1,3.29,1.1,3.29,3.29,0,0,1,1.17,2.42,9.43,9.43,0,0,1-.23,2.09,7.93,7.93,0,0,0-.24,1.87,4,4,0,0,0,1.65,3.29q1.64,1.32,5.87,1.32a29.14,29.14,0,0,0,5.64-.55,32.6,32.6,0,0,0,5.4-1.53,26.82,26.82,0,0,0,4.82-2.42A15.05,15.05,0,0,0,565,134.68Zm-39,14.07a16.23,16.23,0,0,0-2.7-4.51,21.73,21.73,0,0,0-4.12-3.74,19.49,19.49,0,0,0-4.93-2.52,15.87,15.87,0,0,0-5.17-.88,16.53,16.53,0,0,0-11.63,4.72q-5.06,4.74-8.57,14A38.38,38.38,0,0,0,485.34,171a18.36,18.36,0,0,0,.83,5.39,15.64,15.64,0,0,0,2.23,4.72,10.54,10.54,0,0,0,3.29,3.08,7.7,7.7,0,0,0,4,1.1,16.26,16.26,0,0,0,9.87-3.74,42.64,42.64,0,0,0,8.93-9.34,72.43,72.43,0,0,0,6.93-12.09Q524.34,153.59,526,148.75Z" transform="translate(-6.76 -74.44)" style="fill:#231f20"/><path d="M565.46,133.36a3.53,3.53,0,0,1,3.76-3.08,5,5,0,0,1,3.52,1.1,3.53,3.53,0,0,1,1.18,2.64,1.66,1.66,0,0,1-.12.55,1.66,1.66,0,0,0-.12.55L571.33,145a49.74,49.74,0,0,1,4.94-5.27,40.83,40.83,0,0,1,6.11-4.73A40.41,40.41,0,0,1,589,131.6a17.59,17.59,0,0,1,6.58-1.32,4.13,4.13,0,0,1,2.7,1.1,3.84,3.84,0,0,1,1.3,3.08,5,5,0,0,1-.36,1.65,5.25,5.25,0,0,0-.35,1.65,4.58,4.58,0,0,0,1.41,3.07q1.41,1.54,6.11,1.54a28,28,0,0,0,5.4-.55,36.41,36.41,0,0,0,5.52-1.53,25.48,25.48,0,0,0,4.94-2.42,14.86,14.86,0,0,0,3.64-3.19,4,4,0,0,1,3-1.76,4.66,4.66,0,0,1,3.18,1.43,4,4,0,0,1,1.52,2.75q0,3.3-3.64,5.71a39.71,39.71,0,0,1-8.46,4.18,47.07,47.07,0,0,1-9.16,2.42,49,49,0,0,1-5.75.66c-4.7,0-8.43-.92-11.16-2.75a9.88,9.88,0,0,1-4.59-7.58,28.83,28.83,0,0,0-11,8,64.87,64.87,0,0,0-8.69,12.75,96.87,96.87,0,0,0-6.35,15.06,138,138,0,0,0-4,14.73,3.65,3.65,0,0,1-1.29,2.2,4.52,4.52,0,0,1-2.94.88,5.14,5.14,0,0,1-2.94-.88,2.79,2.79,0,0,1-1.29-2.42,1.66,1.66,0,0,1,.12-.55,1.66,1.66,0,0,0,.12-.55Z" transform="translate(-6.76 -74.44)" style="fill:#231f20"/><path d="M664.61,95.55a157.84,157.84,0,0,1-11.75,17.59q-7.75,10.33-18.33,23.08-2.82,11-4.81,20.88a85.57,85.57,0,0,0-2,16.49c0,4.84.51,8.13,1.53,9.89s2.77,2.64,5.28,2.64a16.8,16.8,0,0,0,8.81-2.64,38.34,38.34,0,0,0,7.4-5.71L686,134.46a3.88,3.88,0,0,1,6.34-.22,4.44,4.44,0,0,1,1.41,2.86,3.46,3.46,0,0,1-.94,2.2l-35.48,43.08a25.14,25.14,0,0,1-4.58,4.51,46.31,46.31,0,0,1-5.64,3.74,27.48,27.48,0,0,1-6.11,2.53,22.65,22.65,0,0,1-6,.87q-15.51,0-15.5-20.44a102.93,102.93,0,0,1,1.76-17.37q1.75-10.11,4.7-20.88T632.65,114a179.92,179.92,0,0,1,8-19.12,71.17,71.17,0,0,1,8.81-14.07c3.06-3.66,5.83-5.72,8.34-6.16h1.41q10.09.23,10.1,7.92Q669.3,87.41,664.61,95.55Zm-23.73,19.56q4.46-5.26,8-10t6.11-8.9c1.72-2.78,3.09-5.17,4.11-7.15a11.23,11.23,0,0,0,1.53-4.72c0-1.17-.63-1.76-1.88-1.76q-1.87.23-4,3a52.44,52.44,0,0,0-4.47,7.14,108.46,108.46,0,0,0-4.7,10.22Q643.23,108.75,640.88,115.11Z" transform="translate(-6.76 -74.44)" style="fill:#231f20"/><path d="M735.32,77.74q.7-3.3,3.53-3.3a4.72,4.72,0,0,1,3.52,1.21A3.48,3.48,0,0,1,743.55,78q0,1.11-.24,1.32L720.05,181.06a15,15,0,0,0-.47,3.3c0,.74.51,1.14,1.53,1.21s3.17-1.65,6.46-5.17l37.36-45.72a4,4,0,0,1,3.05-1.76,4.63,4.63,0,0,1,3.17,1.43,4,4,0,0,1,1.53,2.75,2.66,2.66,0,0,1-1.17,2.2l-37.36,45.94q-6.82,8.35-14.1,8.35-4.69,0-6.81-2.85a10.48,10.48,0,0,1-2.12-6.38,18.36,18.36,0,0,1,.94-5.71q-10.57,14.5-23.49,14.51a19,19,0,0,1-7.4-1.43,16.76,16.76,0,0,1-6-4.29,21,21,0,0,1-4.11-6.93,26.86,26.86,0,0,1-1.53-9.56,44.63,44.63,0,0,1,2.58-14.84,55.12,55.12,0,0,1,6.82-13.41,36.07,36.07,0,0,1,10-9.78,21.89,21.89,0,0,1,12.1-3.74,22.72,22.72,0,0,1,10.69,2.53,42.75,42.75,0,0,1,9.28,6.71,7.36,7.36,0,0,0,.82-3,9.24,9.24,0,0,1,.83-3.19Zm-17.38,71a16.23,16.23,0,0,0-2.7-4.51,23.68,23.68,0,0,0-4-3.74,17.62,17.62,0,0,0-4.82-2.52,15.21,15.21,0,0,0-4.93-.88,16.78,16.78,0,0,0-11.86,4.72q-5.05,4.74-8.81,14A43.29,43.29,0,0,0,677.76,171a21.64,21.64,0,0,0,.71,5.39,15.65,15.65,0,0,0,2,4.72,9.5,9.5,0,0,0,3.17,3.08,8.19,8.19,0,0,0,4.23,1.1,15.58,15.58,0,0,0,9.87-3.74,48.29,48.29,0,0,0,8.81-9.34,73.51,73.51,0,0,0,7.17-12.09A62.32,62.32,0,0,0,717.94,148.75Z" transform="translate(-6.76 -74.44)" style="fill:#231f20"/></svg>