<svg id="Layer_1" data-name="Layer 1" xmlns="http://www.w3.org/2000/svg" viewBox="0 0 762.93 111.53"><title>melbourne</title><path d="M113.43,83.27V186H103V104L66.45,186H58.87L22.3,104.27V186H11.89V83.27h11l39.7,89.05,39.69-89Z" transform="translate(-11.89 -75.83)" style="fill:#231f20"/><path d="M210.21,149.39H142.86a32.86,32.86,0,0,0,4.46,15.78,26.27,26.27,0,0,0,10.56,9.9,30.77,30.77,0,0,0,14.27,3.35q10.11,0,17-4.91a23.1,23.1,0,0,0,9.15-13.25h11a34.47,34.47,0,0,1-12.71,19.43q-9.75,7.51-24.46,7.52a40.8,40.8,0,0,1-20.51-5.14,36.15,36.15,0,0,1-14.2-14.59q-5.13-9.45-5.13-22.11t5.05-22.19a35.14,35.14,0,0,1,14.13-14.59,41.58,41.58,0,0,1,20.66-5.06,39.53,39.53,0,0,1,20.29,5.06,34.94,34.94,0,0,1,13.38,13.62,39,39,0,0,1,4.69,19Q210.51,146.56,210.21,149.39Zm-13.9-24A24.62,24.62,0,0,0,186,115.74a31.39,31.39,0,0,0-14.28-3.28,28.29,28.29,0,0,0-19.77,7.45q-8.18,7.44-9.07,21H200Q200.1,131.82,196.31,125.41Z" transform="translate(-11.89 -75.83)" style="fill:#231f20"/><path d="M239.94,75.83V186H229.53V75.83Z" transform="translate(-11.89 -75.83)" style="fill:#231f20"/><path d="M286.25,108.89q8.38-5.37,19.84-5.36A38.68,38.68,0,0,1,326,108.66a35.93,35.93,0,0,1,13.76,14.6,46.55,46.55,0,0,1,5,22,47,47,0,0,1-5,22A36.26,36.26,0,0,1,325.94,182a38.4,38.4,0,0,1-19.85,5.21q-11.59,0-20-5.29a31.51,31.51,0,0,1-12.27-13.77V186H263.58V75.83h10.25v46.9A33,33,0,0,1,286.25,108.89Zm44,18.83a27.45,27.45,0,0,0-10.78-11.24A30.83,30.83,0,0,0,304,112.61a29.78,29.78,0,0,0-15.24,4,28.67,28.67,0,0,0-10.92,11.46,35.85,35.85,0,0,0-4,17.28,35.78,35.78,0,0,0,4,17.27,28.64,28.64,0,0,0,10.92,11.47,29.78,29.78,0,0,0,15.24,4,30.37,30.37,0,0,0,15.46-3.95,27.7,27.7,0,0,0,10.78-11.47,37.1,37.1,0,0,0,3.94-17.49A36.61,36.61,0,0,0,330.25,127.72Z" transform="translate(-11.89 -75.83)" style="fill:#231f20"/><path d="M378.86,182.07a37.07,37.07,0,0,1-14.42-14.59q-5.28-9.45-5.28-22.11t5.36-22.11a37.43,37.43,0,0,1,14.56-14.6,44.35,44.35,0,0,1,41.41,0,36.87,36.87,0,0,1,14.57,14.6q5.26,9.45,5.27,22.11a44.24,44.24,0,0,1-5.35,22,37,37,0,0,1-14.72,14.66,42.48,42.48,0,0,1-20.81,5.14A41.26,41.26,0,0,1,378.86,182.07Zm35.46-7.59a27.85,27.85,0,0,0,11.07-11q4.25-7.36,4.24-18.09t-4.16-18.09a27.38,27.38,0,0,0-11-11,32.11,32.11,0,0,0-29.74,0,26.78,26.78,0,0,0-10.92,11q-4.1,7.36-4.09,18.09t4.09,18.09a27,27,0,0,0,10.85,11,30.69,30.69,0,0,0,14.79,3.65A31.14,31.14,0,0,0,414.32,174.48Z" transform="translate(-11.89 -75.83)" style="fill:#231f20"/><path d="M529.68,104.72V186H519.27v-14.3a24.93,24.93,0,0,1-11,11.62,34.43,34.43,0,0,1-16.65,4q-14.56,0-23.78-9t-9.22-26.13v-47.5h10.26V151q0,13.25,6.61,20.25t18.06,7q11.74,0,18.74-7.45t7-21.89V104.72Z" transform="translate(-11.89 -75.83)" style="fill:#231f20"/><path d="M574.35,107.4q7.06-4.17,17.32-4.17V114.1h-2.82q-11.31,0-18.14,6.1t-6.84,20.4V186H553.46v-81.3h10.41v14.44A25.45,25.45,0,0,1,574.35,107.4Z" transform="translate(-11.89 -75.83)" style="fill:#231f20"/><path d="M669.12,112.24q9.23,9,9.22,26.13V186H668.08V139.56q0-13.25-6.61-20.25t-18.06-7q-11.74,0-18.74,7.45t-7,21.89V186H607.28v-81.3h10.41v13.84a26.59,26.59,0,0,1,11.15-11.39,34,34,0,0,1,16.5-3.94Q659.91,103.23,669.12,112.24Z" transform="translate(-11.89 -75.83)" style="fill:#231f20"/><path d="M774.53,149.39H707.18a32.75,32.75,0,0,0,4.46,15.78,26.21,26.21,0,0,0,10.56,9.9,30.74,30.74,0,0,0,14.27,3.35q10.11,0,17-4.91a23,23,0,0,0,9.14-13.25h11a34.42,34.42,0,0,1-12.71,19.43q-9.74,7.51-24.45,7.52A40.84,40.84,0,0,1,716,182.07a36.22,36.22,0,0,1-14.2-14.59q-5.12-9.45-5.12-22.11t5-22.19a35.18,35.18,0,0,1,14.12-14.59,41.65,41.65,0,0,1,20.67-5.06,39.55,39.55,0,0,1,20.29,5.06,34.94,34.94,0,0,1,13.38,13.62,39,39,0,0,1,4.68,19Q774.82,146.56,774.53,149.39Zm-13.9-24a24.64,24.64,0,0,0-10.34-9.67A31.35,31.35,0,0,0,736,112.46a28.29,28.29,0,0,0-19.77,7.45q-8.18,7.44-9.07,21h57.09A29,29,0,0,0,760.63,125.41Z" transform="translate(-11.89 -75.83)" style="fill:#231f20"/></svg>