<svg id="Layer_1" data-name="Layer 1" xmlns="http://www.w3.org/2000/svg" viewBox="0 0 750.77 139.35"><title>monaco</title><path d="M146.58,70.9V207.39H134.05V101.24L88.18,207.49H74.51L28.73,101.24V207.39H16.2V70.9H29.3l52,120.8L133.48,70.9Z" transform="translate(-16.2 -69.57)" style="fill:#231f20"/><path d="M176.68,188.46q-20.42-20.34-20.41-49.17T176.68,90Q197,69.67,225.78,69.66T275,90q20.32,20.45,20.32,49.27T275,188.46q-20.42,20.46-49.19,20.45T176.68,188.46ZM185.52,99a55,55,0,0,0-16.72,40.33,55,55,0,0,0,16.72,40.33,56.78,56.78,0,0,0,80.52,0,55,55,0,0,0,16.72-40.33A55,55,0,0,0,266,99a56.78,56.78,0,0,0-80.52,0Z" transform="translate(-16.2 -69.57)" style="fill:#231f20"/><path d="M400.32,70.9V207.49H386.83l-68-113.86V207.49H306.31V70.9h13.58l67.89,113.85V70.9Z" transform="translate(-16.2 -69.57)" style="fill:#231f20"/><path d="M512.18,70.9V207.49H499.65V173.34H445.52L424,207.49H409.15L495.38,70.9ZM453.4,160.79h46.25V87.64Z" transform="translate(-16.2 -69.57)" style="fill:#231f20"/><path d="M552.16,179.52a54.85,54.85,0,0,0,40.27,16.74,55.52,55.52,0,0,0,31-9.22V201.5a68.25,68.25,0,0,1-31,7.32q-28.78,0-49.1-20.45t-20.41-49.18q0-28.81,20.41-49.17t49.1-20.45a68.25,68.25,0,0,1,31,7.32V91.35a55.53,55.53,0,0,0-31-9.23,54.85,54.85,0,0,0-40.27,16.74,55,55,0,0,0-16.71,40.33A55,55,0,0,0,552.16,179.52Z" transform="translate(-16.2 -69.57)" style="fill:#231f20"/><path d="M648.36,188.46q-20.42-20.34-20.42-49.17T648.36,90q20.32-20.35,49.1-20.36T746.65,90Q767,110.47,767,139.29t-20.32,49.17q-20.43,20.46-49.19,20.45T648.36,188.46ZM657.19,99a55,55,0,0,0-16.71,40.33,55,55,0,0,0,16.71,40.33,56.8,56.8,0,0,0,80.53,0,55,55,0,0,0,16.71-40.33A55,55,0,0,0,737.72,99a56.8,56.8,0,0,0-80.53,0Z" transform="translate(-16.2 -69.57)" style="fill:#231f20"/></svg>