<svg id="Layer_1" data-name="Layer 1" xmlns="http://www.w3.org/2000/svg" viewBox="0 0 619.84 235.44"><title>nevada</title><path d="M164.65,48q-6.35,0-12,16A192.89,192.89,0,0,0,144.5,93.6q-2.49,13.66-3.59,24-3,21.31-6.08,54.11T131,209.82q-1.4,6.68-2.08,9.49a91.52,91.52,0,0,1-2.89,8.83q-2.22,6-5.39,8.66a11.1,11.1,0,0,1-7.32,2.66q-30.92,0-30.92-87.25,0-9.32.41-20.15t2.07-28.3A288.42,288.42,0,0,1,89.27,73a83.11,83.11,0,0,1,8.15-23.14Q102.81,40,110.26,40q11.86,0,11.87,23,0,19.66-.28,30a227.84,227.84,0,0,1,4.84-22.81,184.63,184.63,0,0,1,7.86-22.81q5-12,12.71-19a25.26,25.26,0,0,1,17.39-7q16.85,0,28.58,12.65t17,33a285.39,285.39,0,0,1,7.32,38,305.8,305.8,0,0,1,2.07,35.64q0,12-1,25.64t-3.59,32q-2.62,18.32-9.11,30.13t-15.6,11.83a9.25,9.25,0,0,1-8.83-5.33,25.56,25.56,0,0,1-2.77-12q0-14,1.25-41.63t1.24-41.62q0-8.66-.55-20.32T178.73,89.6q-1.38-18-5.1-29.8T164.65,48Zm52.19,92.58q0-14-1.11-27.64a267.48,267.48,0,0,0-4.41-30.31,141.77,141.77,0,0,0-8.7-29A56.27,56.27,0,0,0,187.43,33a34.17,34.17,0,0,0-22.78-8.32,22.25,22.25,0,0,0-11.46,3.16,28.84,28.84,0,0,0-9.52,9.66,143.13,143.13,0,0,0-7.46,13.15A81.1,81.1,0,0,0,130.41,68q-2.48,10.67-4.28,18.15a184.81,184.81,0,0,0-3.31,19.81q-1.51,12.33-2.21,18t-1.66,17q-1,11.33-1.24,13,1.67-58.62,1.66-87.25V65q.27-21.64-9.11-21.64-6.36,0-11.32,9.65a83.8,83.8,0,0,0-7.46,22.65q-2.49,13-4,29.8T85.54,132.9q-.41,10.65-.41,19.31,0,83.92,28.16,83.92,10.77,0,14.91-27,.28-1.33,4.84-49.79t12.15-81.59q7.59-33.14,19.46-33.13,4.41,0,7.87,5.66T178,65.79q2.07,9.84,3.32,19.82t1.79,22.31q.56,12.33.69,18.82t.14,12.82q0,14-1.24,41.62t-1.24,41.63q0,14,8.83,14,8.28,0,14.08-11.66t8.15-29.47q2.34-17.82,3.31-31T216.84,140.56Z" transform="translate(-80.87 -15.18)" style="fill:#231f20;stroke:#231f20;stroke-miterlimit:10;stroke-width:3px"/><path d="M298.84,174.52a10,10,0,0,1,7.73,3.83,14,14,0,0,1,3.32,9.49q0,4.66-3,13.32a77.37,77.37,0,0,1-5.8,13.32q-13.26,25.65-35.34,25.65-19.62,0-31.34-14.32t-11.74-37.63a80.33,80.33,0,0,1,12.29-43.13q12.29-19.8,31.62-19.81a28.25,28.25,0,0,1,20.15,8.16q8.56,8.16,8.56,22.14,0,16-10.21,24.64a42.5,42.5,0,0,1-24,10v1.67a106,106,0,0,0,1.11,13.32c.73,5.55,1.84,8.32,3.31,8.32q15.46,0,22.64-29Q290.56,174.52,298.84,174.52Zm0,38q8.28-16.65,8.29-24.65a10.46,10.46,0,0,0-2.49-7.16,7.54,7.54,0,0,0-5.8-2.83q-6.63,0-8,7.66a57.65,57.65,0,0,1-9.25,21.65q-6.76,9.66-16.15,9.66-7.19,0-7.18-25v-5a38.18,38.18,0,0,0,23.75-8q10.49-8,10.49-23.31,0-12.31-7.73-19.65a25.64,25.64,0,0,0-18.22-7.32q-18,0-29.55,18.65a76.05,76.05,0,0,0-11.6,41q0,21.65,11.05,35.13t29.27,13.49Q286.14,236.8,298.84,212.49ZM276.2,153.21a4.27,4.27,0,0,1,.14,2.83,22.09,22.09,0,0,1-.83,2.5,9,9,0,0,1-1.38,2.16,18.54,18.54,0,0,1-1.52,1.67c-.37.33-.83.72-1.38,1.16l-.83.67q-9.39,5.33-16.57,5.33h-.55c-.92,0-1.38-.55-1.38-1.67q0-19.31,11.32-22.31a8.44,8.44,0,0,1,8.42,1.17A11.3,11.3,0,0,1,276.2,153.21Zm-21.54,13q6.36-.67,14.64-5c3.49-2.21,4.87-4.55,4.14-7a7.17,7.17,0,0,0-2.35-3.66,7,7,0,0,0-5.11-2,6.13,6.13,0,0,0-2.21.33Q255.22,151.55,254.66,166.2Z" transform="translate(-80.87 -15.18)" style="fill:#231f20;stroke:#231f20;stroke-miterlimit:10;stroke-width:3px"/><path d="M382,176.19q-7.45,29.64-9.94,36.63-9.39,27.32-21.26,27.31-13.26,0-22.78-12.33a71.38,71.38,0,0,1-13.12-27.14,123.54,123.54,0,0,1-3.58-29.13A72,72,0,0,1,316,145.38q4.69-12.15,16.29-12.15,9.94,0,12.7,17,1.38,10.33,3.59,31,1.09,9.66,3.31,20.65l3-10.32,5.25-22.32q6.9-29.3,11.6-38.63,3.86-7,9.66-7a9.68,9.68,0,0,1,7.87,4,14.57,14.57,0,0,1,3.17,9.32,4.46,4.46,0,0,1-.27,1.67v.33a1.08,1.08,0,0,1-.28.67l-.27,1.33a14.53,14.53,0,0,1-.83,3,51.21,51.21,0,0,1-1.52,5.66q-1.25,4-1.8,6.66-.83,3.33-2.34,8.49c-1,3.44-1.8,6.11-2.35,8A19.34,19.34,0,0,0,382,176.19Zm-.55-49.29q-5.25,0-7.18,5.33-2.76,5.67-11,37.3-6.09,28.64-11.88,42.29-1.11-4-2.48-12.32-1.4-7-4.7-32.3c-.18-1.55-.46-4.28-.83-8.16a69.45,69.45,0,0,0-1.1-8.16q-2.49-14.31-9.94-14.32-9.67,0-13.94,10.82A65.07,65.07,0,0,0,314,171.53a115.69,115.69,0,0,0,3.59,28.3,69,69,0,0,0,12.28,25.64q8.7,11.33,20.85,11.33,10.49,0,18.22-23.65,2.76-8.66,10.22-37.63,6.35-26.29,9.39-34c.73-.88,1.1-2.44,1.1-4.66a10.66,10.66,0,0,0-2.48-7A7.37,7.37,0,0,0,381.4,126.9Z" transform="translate(-80.87 -15.18)" style="fill:#231f20;stroke:#231f20;stroke-miterlimit:10;stroke-width:3px"/><path d="M453.19,124.57q19.89,0,30.24,15.32t10.35,39.29a146.58,146.58,0,0,1-1.1,16.49,167.42,167.42,0,0,1-3.59,19.81A53.44,53.44,0,0,1,481.77,233q-4.83,7.16-10.91,7.16t-9.25-5.67A26.6,26.6,0,0,1,458,223.81q-.4-5-.41-13.32-13,29.64-32.31,29.64-15.18,0-24.43-10.66t-9.25-28.64q0-29,18.91-52.62T453.19,124.57ZM470.86,236.8q9.94,0,15.05-20.65t5.11-37q0-23-9.52-37.13T453.19,127.9q-22.37,0-40.59,22.81t-18.22,50.12q0,16.65,8.42,26.31t22.5,9.66q21.81,0,35.62-43.3-.56,15.33-.55,22Q460.37,236.8,470.86,236.8Zm-16-88.25q4.41,3-4.69,25.31c-.38.89-.93,2.22-1.66,4s-1.38,3.39-1.93,4.83-1,2.83-1.39,4.16q-1.1,3.67-3.17,9A94.38,94.38,0,0,1,436.07,208q-3.87,6.82-7.18,8.49a2.74,2.74,0,0,1-3.59,0q-3.58-2-1.1-14.65a100.21,100.21,0,0,1,4.69-19.65q5.81-17.31,10.77-24Q449.05,145.22,454.85,148.55Zm-1.93,9q2.47-6.33,0-6.33-4.14,0-11.05,9.33-5.25,7.32-10.21,22.64a146.52,146.52,0,0,0-4.7,18.65,53.29,53.29,0,0,0-1,7.33,12.32,12.32,0,0,0,.14,3.66l.28.66a2.57,2.57,0,0,0,1.38-.33q6.34-3,14.91-27.64.56-2,5-13.32A131.57,131.57,0,0,0,452.92,157.54Z" transform="translate(-80.87 -15.18)" style="fill:#231f20;stroke:#231f20;stroke-miterlimit:10;stroke-width:3px"/><path d="M556.46,16.68q9.93,0,17.25,11.32a86.4,86.4,0,0,1,11,26.64,280.11,280.11,0,0,1,5.94,36q2.2,20.66,2.62,33.47t.41,25.48q0,99.57-27.33,99.57a9.83,9.83,0,0,1-7.87-3.83,14.38,14.38,0,0,1-3.18-9.49q-7.19,4-12.7,4a41.38,41.38,0,0,1-32.17-14.32q-12.84-14.31-12.84-38,0-24.64,14.22-40.63t34.66-16a24.3,24.3,0,0,1,9.66,2q0-1.67-.69-12.16t-.83-13.15q-.13-2.67-.69-11.82t-1-13c-.28-2.55-.69-6.5-1.25-11.82s-1.06-9.71-1.51-13.16-1.07-7.38-1.8-11.82-1.57-8.66-2.49-12.65a23.48,23.48,0,0,1-.55-3.33,14.39,14.39,0,0,1,3.18-9.5A9.85,9.85,0,0,1,556.46,16.68Zm9.94,229.11q24.57,0,24.57-96.24,0-8.66-.41-18.49t-1.38-26a258.77,258.77,0,0,0-3.45-30q-2.49-13.82-5.94-26.81t-9.53-20.65Q564.19,20,556.46,20a7.51,7.51,0,0,0-5.8,2.83A10.42,10.42,0,0,0,548.17,30a8,8,0,0,0,.28,2.66q6.9,31,10.77,105.9a20,20,0,0,0-12.7-4.33q-19.34,0-32.72,15.15t-13.39,38.13q0,21.65,11.87,35.3t30.37,13.65q9.39,0,16.29-8l-.83,5.33Q558.11,245.78,566.4,245.79ZM546,154.21q4.42,0,8.56,6,8.57,13,5,32.64a40.31,40.31,0,0,1-6.91,16.65q-5.25,7-10.21,7c-1.85,0-3.5-1.11-5-3.33q-3-4.65-4.15-14a82,82,0,0,1-.27-17.65,71.05,71.05,0,0,1,4.55-18.65Q541,154.21,546,154.21Zm10.77,38q3.59-17.64-4.41-30-3-4.66-6.36-4.66t-6.35,7.66a56.43,56.43,0,0,0-3.86,16.65,60.5,60.5,0,0,0,.14,16.82c.82,5.88,2.07,10,3.72,12.48a5.73,5.73,0,0,0,2.49,2q4.14,0,8.28-6A33.92,33.92,0,0,0,556.73,192.17Z" transform="translate(-80.87 -15.18)" style="fill:#231f20;stroke:#231f20;stroke-miterlimit:10;stroke-width:3px"/><path d="M658.62,124.57q19.88,0,30.23,15.32t10.36,39.29a144.5,144.5,0,0,1-1.11,16.49,165.41,165.41,0,0,1-3.59,19.81A53.22,53.22,0,0,1,687.2,233q-4.85,7.16-10.91,7.16T667,234.46a26.45,26.45,0,0,1-3.59-10.65q-.42-5-.41-13.32-13,29.64-32.31,29.64-15.19,0-24.44-10.66T597,200.83q0-29,18.92-52.62T658.62,124.57ZM676.29,236.8q9.94,0,15.05-20.65t5.11-37q0-23-9.53-37.13t-28.3-14.15q-22.36,0-40.59,22.81T599.8,200.83q0,16.65,8.43,26.31t22.5,9.66q21.81,0,35.62-43.3-.55,15.33-.55,22Q665.8,236.8,676.29,236.8Zm-16-88.25q4.41,3-4.7,25.31l-1.66,4c-.73,1.78-1.38,3.39-1.93,4.83s-1,2.83-1.38,4.16q-1.11,3.67-3.17,9A97.09,97.09,0,0,1,641.5,208q-3.87,6.82-7.18,8.49a2.74,2.74,0,0,1-3.59,0q-3.59-2-1.1-14.65a100.21,100.21,0,0,1,4.69-19.65q5.8-17.31,10.77-24Q654.47,145.22,660.28,148.55Zm-1.94,9q2.49-6.33,0-6.33-4.14,0-11,9.33-5.25,7.32-10.22,22.64a146.7,146.7,0,0,0-4.69,18.65,51.78,51.78,0,0,0-1,7.33,12,12,0,0,0,.14,3.66l.27.66a2.6,2.6,0,0,0,1.39-.33q6.35-3,14.91-27.64.54-2,5-13.32A129.24,129.24,0,0,0,658.34,157.54Z" transform="translate(-80.87 -15.18)" style="fill:#231f20;stroke:#231f20;stroke-miterlimit:10;stroke-width:3px"/></svg>