<svg id="Layer_1" data-name="Layer 1" xmlns="http://www.w3.org/2000/svg" viewBox="0 0 774.73 125.21"><title>typewriter</title><path d="M3.87,97.18V84.78c0-3.36,1.55-5,4.67-5h61q4.81,0,4.81,5V97q0,4.59-4.31,4.67h-.21q-4.45,0-4.6-4.53V87.62H43.63v75.45h9.22c1.72,0,2.92.42,3.61,1.27a4.21,4.21,0,0,1,1,2.67q0,4-4.77,4H25.41q-4.76,0-4.76-3.87t4.5-4.08h9.36V87.62H13v9.56q0,4.45-4.6,4.53H8.24Q4,101.64,3.87,97.18Z" transform="translate(-3.87 -79.74)" style="fill:#231f20"/><path d="M82,110.68c0-2.67,1.65-4,5-4.09H105.8c3.16,0,4.74,1.37,4.74,4.09s-1.58,3.87-4.74,3.87h-5.26l15.25,38.81,3.14,8.54q1.17-4.82,16.27-47.35h-5.33q-5.1,0-5.1-3.87c0-2.67,1.63-4,4.89-4.09h19c3.06,0,4.6,1.37,4.6,4.09s-1.76,3.87-5.26,3.87h-5L119.08,182q-7.74,23-22,23a12.89,12.89,0,0,1-8.68-3.21,10.33,10.33,0,0,1-3.72-8.17,5.47,5.47,0,0,1,1.64-4.13,5.67,5.67,0,0,1,4.05-1.56,5.25,5.25,0,0,1,4.12,1.75,5.72,5.72,0,0,1,1.57,3.94,7.77,7.77,0,0,1-.8,2.84,6.1,6.1,0,0,0,2.41.44,9.84,9.84,0,0,0,3.76-.73,8.88,8.88,0,0,0,3.28-2.44c1-1.15,1.87-2.22,2.63-3.22a18.13,18.13,0,0,0,2.22-4.34c.73-1.89,1.3-3.37,1.72-4.41s1-2.59,1.71-4.63l1.46-4.09a6.12,6.12,0,0,0-.15-3.94l-21.81-54.5H87Q82,114.55,82,110.68Z" transform="translate(-3.87 -79.74)" style="fill:#231f20"/><path d="M159.13,200.28c0-2.68,1.63-4,4.89-4h7.81V114.55h-8.1c-3.06,0-4.6-1.29-4.6-3.87s1.63-4,4.89-4.09h12.7q4.16,0,4.23,5.26v2.4q8.82-8.23,19.41-8.24,11.67,0,20.24,9.41t8.58,23.35q0,14.23-9.12,23.53t-21.23,9.3A22.37,22.37,0,0,1,181,163.07v33.2h8.17c3,.09,4.52,1.46,4.52,4.08s-1.6,3.87-4.81,3.87H164Q159.13,204.15,159.13,200.28ZM181,143.51q0,6.13,4.71,13.17t12.73,7q8.54,0,15.1-7.11t6.57-17.84a26.7,26.7,0,0,0-6-17.55q-6-7.26-14.15-7.26a18.32,18.32,0,0,0-13.46,5.51c-3.68,3.68-5.51,7.55-5.51,11.64Z" transform="translate(-3.87 -79.74)" style="fill:#231f20"/><path d="M253.77,161.83a32,32,0,0,1-9.63-23.24,32.36,32.36,0,0,1,9.26-23.17,29.85,29.85,0,0,1,22.4-9.7q13.27,0,21.05,8.5t7.77,23c0,2-.45,3.27-1.35,3.83a6,6,0,0,1-3.24.84H253.55q1.81,10.58,9.19,16.2a25.75,25.75,0,0,0,15.91,5.61,20.27,20.27,0,0,0,10.18-2.55,14.76,14.76,0,0,0,6.38-6.71A5,5,0,0,1,300,151q4.59,0,4.59,3.57,0,5-7.15,11t-19.41,6Q263.41,171.6,253.77,161.83Zm-.08-27.73h41.67q-2.13-20.43-19.56-20.43h-.14a21.58,21.58,0,0,0-13.58,5.07Q255.66,123.81,253.69,134.1Z" transform="translate(-3.87 -79.74)" style="fill:#231f20"/><path d="M316,110.68c0-2.67,1.63-4,4.89-4.09h19.47c3,0,4.45,1.37,4.45,4.09,0,2.48-1.49,3.77-4.45,3.87h-9.27l8.76,47.35q.58-3,4.18-14.41t4-12.15a5.34,5.34,0,0,1,5.19-2.84q4.89,0,6.08,4.66,5.7,18.76,7,24l8.41-46.63h-9.27q-4.44-.15-4.52-3.87a3.93,3.93,0,0,1,1.2-2.88,4.94,4.94,0,0,1,3.62-1.21h18.72c3.25,0,4.88,1.32,4.88,3.94s-1.58,4-4.74,4h-2.7l-9.86,52.24q-.85,4.82-5.12,4.81h-.28q-3.92,0-5.29-2.22t-4.44-13c-.68-2.57-1.29-4.62-1.83-6.12q-1.31-5-2-8.61-.44,3.57-3.83,14.77t-4.13,12.51c-1,1.81-2.82,2.7-5.54,2.7h-.88a6.18,6.18,0,0,1-2.15-.36,6.54,6.54,0,0,1-1.5-.73,3.4,3.4,0,0,1-1-1.35,15.1,15.1,0,0,1-.63-1.42,16.7,16.7,0,0,1-.36-1.72c-.15-.85-.22-1.32-.22-1.42L324.47,120l-1-5.45h-2.7Q316,114.55,316,110.68Z" transform="translate(-3.87 -79.74)" style="fill:#231f20"/><path d="M397.29,167q0-3.9,4.92-3.9h13.24V114.55H401.77q-4.49,0-4.48-3.87c0-2.67,1.67-4,5-4.09h17.22a5.41,5.41,0,0,1,3.57,1,3.4,3.4,0,0,1,1.32,1.9,17.83,17.83,0,0,1,.14,2.51v7.3Q435,106,451,106q13.88,0,13.87,8.54a5.64,5.64,0,0,1-1.57,4,5.2,5.2,0,0,1-3.9,1.64,6,6,0,0,1-2.08-.4,5.79,5.79,0,0,1-2.26-1.9,5.88,5.88,0,0,1-1.21-3.83,22.27,22.27,0,0,0-3-.15,26.62,26.62,0,0,0-18.21,7.63q-8.06,7.47-8.05,22.21v19.27h17.92q4.85,0,4.85,3.94t-4.83,4H401.9C398.82,170.92,397.29,169.57,397.29,167Z" transform="translate(-3.87 -79.74)" style="fill:#231f20"/><path d="M532.83,163.07q5.2,0,5.2,4.08,0,3.87-4.74,3.87H487.76q-4.81,0-4.82-3.87t5-4.08h19.26V114.55h-17a4.06,4.06,0,0,0-.59.07,4.1,4.1,0,0,1-.66.07c-3.27,0-4.9-1.33-4.9-4s1.63-4.09,4.89-4.09h22.4c3.3,0,5,1.61,5,4.82v51.66Zm-21.1-65.82a4.38,4.38,0,0,1-3.3-1.31,4.44,4.44,0,0,1-1.26-3.21V84.27a4.28,4.28,0,0,1,1.34-3.21,4.5,4.5,0,0,1,6.37,0,4.58,4.58,0,0,1,1.41,3.21V92.8A4.11,4.11,0,0,1,514.88,96,4.58,4.58,0,0,1,511.73,97.25Z" transform="translate(-3.87 -79.74)" style="fill:#231f20"/><path d="M552.84,110.68c0-2.67,1.65-4,4.95-4.09h14.75V93.17q0-5,4.34-5h.44c2.9,0,4.34,1.65,4.34,5v13.42h26.57c3.06,0,4.59,1.32,4.59,3.94s-1.53,4-4.59,4H581.66v38.81a14.45,14.45,0,0,0,.33,3.25,12.19,12.19,0,0,0,1.35,3.21,7,7,0,0,0,3.78,2.85,19.62,19.62,0,0,0,6.91,1.05,17.7,17.7,0,0,0,8.91-2.33q4.11-2.34,4.11-7.59v-1.9c0-3.69,1.42-5.54,4.24-5.54h.29c3,0,4.55,1.7,4.59,5.11v2.7q0,8.69-6.91,13.06a29,29,0,0,1-15.81,4.37q-21,0-20.91-18.67V114.55H558.08Q552.85,114.55,552.84,110.68Z" transform="translate(-3.87 -79.74)" style="fill:#231f20"/><path d="M646,161.83a32,32,0,0,1-9.64-23.24,32.37,32.37,0,0,1,9.27-23.17,29.83,29.83,0,0,1,22.4-9.7q13.28,0,21,8.5t7.77,23c0,2-.45,3.27-1.35,3.83a6,6,0,0,1-3.25.84H645.73q1.82,10.58,9.19,16.2a25.73,25.73,0,0,0,15.91,5.61A20.21,20.21,0,0,0,681,161.17a14.73,14.73,0,0,0,6.39-6.71A5,5,0,0,1,692.2,151q4.6,0,4.6,3.57,0,5-7.15,11t-19.41,6Q655.57,171.6,646,161.83Zm-.08-27.73h41.66q-2.12-20.43-19.55-20.43h-.15a21.58,21.58,0,0,0-13.57,5.07Q647.84,123.81,645.87,134.1Z" transform="translate(-3.87 -79.74)" style="fill:#231f20"/><path d="M711,167q0-3.9,4.93-3.9H729.2V114.55H715.52c-3,0-4.49-1.29-4.49-3.87s1.68-4,5-4.09h17.22a5.44,5.44,0,0,1,3.58,1,3.43,3.43,0,0,1,1.31,1.9,16.19,16.19,0,0,1,.15,2.51v7.3Q748.77,106,764.72,106q13.88,0,13.87,8.54a5.64,5.64,0,0,1-1.57,4,5.17,5.17,0,0,1-3.9,1.64,6,6,0,0,1-2.08-.4,5.79,5.79,0,0,1-2.26-1.9,5.93,5.93,0,0,1-1.2-3.83,22.47,22.47,0,0,0-3-.15,26.66,26.66,0,0,0-18.22,7.63q-8,7.47-8,22.21v19.27h17.91c3.24,0,4.85,1.31,4.85,3.94s-1.61,4-4.83,4H715.64Q711,170.87,711,167Z" transform="translate(-3.87 -79.74)" style="fill:#231f20"/></svg>