<svg id="Layer_1" data-name="Layer 1" xmlns="http://www.w3.org/2000/svg" viewBox="0 0 727.55 267.63"><title>wildscript</title><path d="M225.8,2a5.17,5.17,0,0,1,3.26,2.84,5.1,5.1,0,0,1,0,4.19,364.61,364.61,0,0,0-21.82,57.49q-8.46,29.63-16.18,59.11-5.94,22.46-10.39,41.12T173,200.81q-3.27,16.23-6.08,28.13a156.17,156.17,0,0,1-6.09,20.29q-3.56,9.2-7.72,13.8A17.48,17.48,0,0,1,140,269a19,19,0,0,1-13.06-5.41q-5.94-6-10-18t-6.08-31.51q-1.78-18.13-1.93-36.53t.44-31.92q.9-20.28,2.68-38.82t3.26-33.95q.9-7.84,1.49-14.61T118,46.07v-1.9q-1.48,2.44-3,5.55c-1,2.07-2.07,4.37-3.26,6.9a234.28,234.28,0,0,0-9.65,22.86q-4.61,12.57-8.76,25.83-3.27,10.29-5.93,19.48l-5,17.31q-4.16,14.61-7.72,26t-6.83,19.2A57,57,0,0,1,60,200.13a16.09,16.09,0,0,1-13.22,6.09,14.46,14.46,0,0,1-3.56-.54A9.07,9.07,0,0,1,39.07,203a15,15,0,0,1-2.53-3.24A27.21,27.21,0,0,1,34,193.91a73.51,73.51,0,0,1-2.23-9.33,100.67,100.67,0,0,1-1.33-14.34q-.6-8.93-.3-20.16t.89-24.48q1.79-28.93,7.57-50.72A331.25,331.25,0,0,1,49.75,39.57a5.67,5.67,0,0,1,3.12-3.11,6.24,6.24,0,0,1,4.6-.13,5.78,5.78,0,0,1,3.42,2.84A4.78,4.78,0,0,1,61,43.36a275.85,275.85,0,0,0-10.83,34q-5.51,21-7.27,48.83-1.2,21.37-.9,34.63a192.24,192.24,0,0,0,1.34,20.83q1,7.58,2.23,10.42a12.1,12.1,0,0,0,1.78,3.38q4.15-.81,9.2-12.18a163.76,163.76,0,0,0,6.68-18.39q3.41-11.09,7.57-25.43,2.37-8.11,5-17.45t5.94-19.61q4.74-15.15,10.09-28.95a270.91,270.91,0,0,1,11-24.89,112,112,0,0,1,8.91-16c.59-.72,1.23-1.58,1.93-2.57a11.76,11.76,0,0,1,2.67-2.7,13.9,13.9,0,0,1,3.41-1.9,7.15,7.15,0,0,1,4.16-.13q5,1.08,5.94,8.11a28.46,28.46,0,0,1,.29,4.2v5.54q-.58,5.69-1.18,13.53t-1.78,17.31q-1.5,15.42-3.27,33.68t-2.67,38.55q-.89,21.38-.3,39.77t2.38,32.6a131.38,131.38,0,0,0,4.89,23.8q3.12,9.6,7.28,13.67a8.1,8.1,0,0,0,2.67,1.75,5.84,5.84,0,0,0,1.78.41c.2,0,.64-.05,1.34-.13a4.12,4.12,0,0,0,2.22-1.36,20.17,20.17,0,0,0,2.68-3.78,56.08,56.08,0,0,0,3.26-7.17A164.31,164.31,0,0,0,155.29,226q2.82-11.91,6.09-27.33t7.71-34.22q4.46-18.79,10.39-41.25,8-29.49,16.18-58.71A391.66,391.66,0,0,1,218.08,4.68a5.12,5.12,0,0,1,3.11-3A5.91,5.91,0,0,1,225.8,2Z" transform="translate(-30.06 -1.35)" style="fill:#231f20"/><path d="M214.22,108.83a6.23,6.23,0,0,1,3.71,2.3,4.3,4.3,0,0,1,.74,3.92q-1.48,6.49-2.52,12.18t-1.64,13a86.16,86.16,0,0,0-.59,9.33q0,3.93.3,8.53a5,5,0,0,1-1.78,3.78,6,6,0,0,1-4.16,1.63,6.32,6.32,0,0,1-4.16-1.49,4.6,4.6,0,0,1-1.78-3.65c-.19-3.25-.3-6.27-.3-9.07a88.29,88.29,0,0,1,.6-9.6,122.51,122.51,0,0,1,1.78-13.93q1.19-6.09,2.67-12.85a5.55,5.55,0,0,1,2.67-3.38A5.89,5.89,0,0,1,214.22,108.83Zm5.64-58.16a6.23,6.23,0,0,1,4,2,4.62,4.62,0,0,1,1.34,3.92l-1.48,7.84A7.21,7.21,0,0,1,221.64,68a5.52,5.52,0,0,1-3.86,1.35,6.35,6.35,0,0,1-4.45-1.62,4.79,4.79,0,0,1-1.49-4.33l1.49-8.11Q214.21,50.13,219.86,50.67Z" transform="translate(-30.06 -1.35)" style="fill:#231f20"/><path d="M273.59,131a5.09,5.09,0,0,1,2.67,3.11,7.68,7.68,0,0,1,0,4.2,49.41,49.41,0,0,1-1.49,4.73,31.49,31.49,0,0,0-1,3.11,26.53,26.53,0,0,1-1.48,3.92c-.7,1.54-1.63,3.93-2.82,7.17q-4.15,9.48-7.87,18.54T254,192.42a96.86,96.86,0,0,1-8.9,14.21c-2.78,3.51-5.84,5.27-9.21,5.27H234.4a11.64,11.64,0,0,1-5.94-2.57,14.83,14.83,0,0,1-3.71-4.73,32.22,32.22,0,0,1-2.08-5.28c-.49-1.71-.84-3-1-3.92-.59-3.61-1-7.75-1.33-12.45s-.34-10.09-.15-16.23q.3-8.39.89-17.58T222.52,131q.9-8.92,2.08-17.31t2.08-15.42q1.48-12.18,3.56-24.62t4.16-24.08q2.07-11.62,4-21.91t3.71-18.12a5.62,5.62,0,0,1,2.52-3.39A5.5,5.5,0,0,1,249,5.49a7,7,0,0,1,3.86,2.3,4.12,4.12,0,0,1,.89,3.92q-1.78,7.84-3.71,18t-4,21.64q-2.08,11.5-4,23.81t-3.71,24.48q-.88,6.5-1.78,14.34t-1.78,16.37q-.9,8.52-1.64,17T232,164q-.59,16.77.9,26.51a54.31,54.31,0,0,0,1.33,7c.49,1.81.94,2.71,1.34,2.71q.89,0,3.26-4.19t5.64-11.23q3.27-6.76,6.83-14.88t7.13-16.77q2.07-4.87,3-7.44l1.48-4.33c.39-1.17.79-2.3,1.19-3.38s.89-2.62,1.48-4.6a4,4,0,0,1,3.12-2.84A7.09,7.09,0,0,1,273.59,131Z" transform="translate(-30.06 -1.35)" style="fill:#231f20"/><path d="M345.42,32.27q-1.77,10.83-3.56,24.08t-3.11,26.51q-1.35,13.26-2.38,25.43T335,128.85q-.58,17-.59,35.57a262.32,262.32,0,0,0,2.67,37.2,5.37,5.37,0,0,1-1.33,4.19,5.56,5.56,0,0,1-4.6,2,5.49,5.49,0,0,1-3.86-1.35,7.07,7.07,0,0,1-2.08-3.52,276.58,276.58,0,0,1-2.67-38.14q0-18.93.59-36.25c0-2.17.15-4.91.44-8.25s.6-6.85.9-10.55.69-7.4,1.18-11.09,1-7,1.64-9.88q-2.08,6.22-4.46,13.12t-4.75,13.53q-2.37,6.63-4.45,12.31t-3.86,9.74q-6.24,14.07-12.32,20.56t-13.21,6.49a13.67,13.67,0,0,1-3-.27,14.81,14.81,0,0,1-6.68-3.25q-3.4-2.7-4.9-10.28a52.78,52.78,0,0,1,0-17.58,56.78,56.78,0,0,1,4.46-13.66,37.06,37.06,0,0,1,7.42-9.88A21.7,21.7,0,0,1,294.07,104a17.63,17.63,0,0,1,7.86.68,28.86,28.86,0,0,1,7,3.38q5.94-16.23,12.17-36t12.77-41.93a5.62,5.62,0,0,1,2.52-3.39,5.48,5.48,0,0,1,4.3-.67,6.9,6.9,0,0,1,3.86,2.3A4.07,4.07,0,0,1,345.42,32.27Zm-46.6,101.18c1-2,1.93-4.15,2.82-6.49s1.82-4.87,2.82-7.58A11,11,0,0,0,301,116a7.57,7.57,0,0,0-5.19-1.49,10.23,10.23,0,0,0-6.09,3.25,29.38,29.38,0,0,0-4.3,5.95,38.4,38.4,0,0,0-2.82,6.36c-.7,2.07-1.14,3.56-1.34,4.46a47.7,47.7,0,0,0,0,13,16.48,16.48,0,0,0,1.34,4.59,7.69,7.69,0,0,0,1,1.63,1.73,1.73,0,0,0,1.18.13,7.32,7.32,0,0,0,2.08-1.21,26.62,26.62,0,0,0,4.75-5.69A94,94,0,0,0,298.82,133.45Z" transform="translate(-30.06 -1.35)" style="fill:#231f20"/><path d="M471.44,101a7,7,0,0,1,4.16,2,4.47,4.47,0,0,1,1.48,3.93,5.47,5.47,0,0,1-2.22,3.65,5.78,5.78,0,0,1-4.31,1.22,41.55,41.55,0,0,0-13.8,1.21,62.25,62.25,0,0,0-12.92,5A74.36,74.36,0,0,0,432,125.74a106.79,106.79,0,0,0-10.39,9.33,97.71,97.71,0,0,1,11.87,21.64q8.91,22.18,5.64,44.1A86.87,86.87,0,0,1,429,231.11q-7.73,13.8-19,21.1a36.08,36.08,0,0,1-20.19,6.49h-2.67a7.91,7.91,0,0,1-2.67-.54q-13.36-2.16-18.7-12.44-6.52-11.91-.6-35.17a178.57,178.57,0,0,1,7.42-20.7,205.06,205.06,0,0,1,11.88-23.4q.89-1.35,3.71-5.68c1.88-2.88,4-6.09,6.38-9.6s4.7-6.85,7-10,4-5.45,5.19-6.9a4.46,4.46,0,0,1-.89-1.08,4.24,4.24,0,0,0-.89-1.08A185.34,185.34,0,0,0,391,117.35q-6.53-6.09-12.17-10.95c-3.16-2.71-6-5.32-8.61-7.85a59.16,59.16,0,0,1-6.68-7.71,34.67,34.67,0,0,1-4.45-8.39,28.46,28.46,0,0,1-1.64-9.87,44,44,0,0,1,7.72-25,77.33,77.33,0,0,1,19.45-19.89A99.26,99.26,0,0,1,410,14.55a78.31,78.31,0,0,1,25.53-4.73q10.1,0,16.48,3.51a28,28,0,0,1,10.09,9.2,35,35,0,0,1,5.05,12.85,143.23,143.23,0,0,1,1.93,14.47,4.49,4.49,0,0,1-1.49,3.93,6.88,6.88,0,0,1-4.15,2c-3.76,0-5.84-1.72-6.24-5.14A77.07,77.07,0,0,0,455,35.38a23.32,23.32,0,0,0-4.46-9.06,14.58,14.58,0,0,0-6.68-4.47,28.57,28.57,0,0,0-8.61-1.21,64.52,64.52,0,0,0-21.52,4.19,86.85,86.85,0,0,0-21.52,11.23,69.29,69.29,0,0,0-7.27,5.68,57.89,57.89,0,0,0-7.58,8.11,41.46,41.46,0,0,0-5.78,10.28,33.74,33.74,0,0,0-2.23,12.45,19.35,19.35,0,0,0,1,6.63A23,23,0,0,0,373.62,85a57.73,57.73,0,0,0,5.5,6.23q3.25,3.24,8,7.3,7.13,6.49,14.25,13.39t13.06,13.93Q426,114.79,437,109.1,453.93,99.64,471.44,101Zm-43.93,98.21a65.23,65.23,0,0,0,.29-16.37,86.46,86.46,0,0,0-3-15,75.64,75.64,0,0,0-5.19-13.12c-2.08-4.05-4.11-7.71-6.09-11A182.82,182.82,0,0,0,402,159.42q-4.75,7.31-7.13,11.9-13.37,24.09-18.26,42.47t-.15,27.33q3.27,5.4,10.39,6.49a18.38,18.38,0,0,0,9.21-.68,28.58,28.58,0,0,0,6.83-3.38q9.5-6.23,15.88-18A83,83,0,0,0,427.51,199.19Z" transform="translate(-30.06 -1.35)" style="fill:#231f20"/><path d="M546.55,112.35a5.21,5.21,0,0,1,0,7.84q-10.69,9.74-36.81,24.08-4.17,2.16-10.69,5a76.62,76.62,0,0,1-13.66,4.47,60,60,0,0,1-6.38,1.35,35.89,35.89,0,0,1-7,.41,21.49,21.49,0,0,1-6.82-1.36,13.83,13.83,0,0,1-5.65-3.92,17.91,17.91,0,0,1-3.85-12.44q.29-7.31,5.34-16a55.5,55.5,0,0,1,11.43-13.66q7-6.08,14.4-5.81a26.21,26.21,0,0,1,5.49,1.35,12.34,12.34,0,0,1,5.79,4.87,4.19,4.19,0,0,1,.89,3.92,6.09,6.09,0,0,1-2.67,3.38,5.54,5.54,0,0,1-4.46.81,6.6,6.6,0,0,1-3.86-2.43,2.16,2.16,0,0,0-2.07-1.08q-1.78,0-6.09,3.38a38.4,38.4,0,0,0-8.46,10.14,31.56,31.56,0,0,0-3.71,10q-.75,4.6,1,6.77c.39.36,1.63.72,3.71,1.08s5.39-.09,9.94-1.35a68.4,68.4,0,0,0,12-3.79q5.79-2.43,9.35-4.33,12.46-6.76,20.78-12.31a113.77,113.77,0,0,0,13.36-10.14,6.18,6.18,0,0,1,4.3-1.63A7,7,0,0,1,546.55,112.35Z" transform="translate(-30.06 -1.35)" style="fill:#231f20"/><path d="M596.71,97.47a5.86,5.86,0,0,1,3,3.38,5.33,5.33,0,0,1-.59,4.19,5.91,5.91,0,0,1-3.56,2.57,5.22,5.22,0,0,1-4.46-.67,12.89,12.89,0,0,0-4-1.63,11.53,11.53,0,0,0-3.42,0,15.82,15.82,0,0,0-8.31,3.79c-2.57,2.16-5.84,6.32-9.8,12.44q-8.61,12.45-21.67,36a5.18,5.18,0,0,1-5,3,6.21,6.21,0,0,1-4.31-1.76,4.66,4.66,0,0,1-1.63-4.19c.2-1.62.35-3.25.44-4.87s.25-3.34.45-5.14q.6-9.47,1.33-18.4t.75-15.42a4.12,4.12,0,0,1,1.48-3.78,6,6,0,0,1,4.16-1.63h.29a5.44,5.44,0,0,1,4,1.63,6.46,6.46,0,0,1,1.93,3.78q0,8.4-.89,18.4,4.74-7.84,8.61-13.26a93.07,93.07,0,0,1,12.47-15.28,23.39,23.39,0,0,1,14.25-6.09,20.32,20.32,0,0,1,7.87.41A37.74,37.74,0,0,1,596.71,97.47Z" transform="translate(-30.06 -1.35)" style="fill:#231f20"/><path d="M601.17,108.83a6.23,6.23,0,0,1,3.71,2.3,4.3,4.3,0,0,1,.74,3.92q-1.49,6.49-2.52,12.18t-1.64,13a86.16,86.16,0,0,0-.59,9.33q0,3.93.3,8.53a5,5,0,0,1-1.78,3.78,6,6,0,0,1-4.16,1.63,6.32,6.32,0,0,1-4.16-1.49,4.6,4.6,0,0,1-1.78-3.65q-.28-4.87-.29-9.07a88.05,88.05,0,0,1,.59-9.6,122.51,122.51,0,0,1,1.78-13.93q1.18-6.09,2.67-12.85a5.55,5.55,0,0,1,2.67-3.38A5.89,5.89,0,0,1,601.17,108.83Zm5.64-58.16a6.28,6.28,0,0,1,4,2,4.64,4.64,0,0,1,1.33,3.92l-1.48,7.84A7.21,7.21,0,0,1,608.59,68a5.52,5.52,0,0,1-3.86,1.35,6.35,6.35,0,0,1-4.45-1.62,4.79,4.79,0,0,1-1.49-4.33l1.49-8.11Q601.17,50.13,606.81,50.67Z" transform="translate(-30.06 -1.35)" style="fill:#231f20"/><path d="M683.4,102.61q1.17,5.69-.6,15.69a37.32,37.32,0,0,1-4,10.41,35.21,35.21,0,0,1-7,8.8q-8.91,8.12-18.41,8.11a15.28,15.28,0,0,1-13.06-6.49q-5.94,11.35-11.58,25a159.31,159.31,0,0,0-8.9,30.44q-1.79,14.34-3.12,28.54t-2.52,28.54c-.4,3.42-2.38,5.14-5.94,5.14H608a6.93,6.93,0,0,1-4.16-2,4.51,4.51,0,0,1-1.48-3.92q1.18-14.36,2.52-28.68T608,193.5c.4-2.88.74-5.72,1-8.52s.64-5.63,1-8.52q1.78-14.06,4.16-29.49t5.34-31.38a6.14,6.14,0,0,1,2.52-3.51,5.24,5.24,0,0,1,4.31-.82,5.6,5.6,0,0,1,3.86,2.17,5.25,5.25,0,0,1,1.18,4.06,189.47,189.47,0,0,0-3.56,20.29q1.18-2.17,2.82-5.14l3.12-5.68c1.19-2,2.47-4.15,3.86-6.5q3.26-5.68,6.53-10.28t6.23-8.11a55.26,55.26,0,0,1,4.16-4.47,50.12,50.12,0,0,1,4.9-4.19,16.65,16.65,0,0,1,5.34-2.71,13.73,13.73,0,0,1,6.09-.27,21.8,21.8,0,0,1,7,3C680.58,95,682.4,98.1,683.4,102.61Zm-12.18,13.52q1.49-7.56.6-11.36c-.4-1.62-.89-2.61-1.49-3s-1.09-.63-1.48-.82a8.63,8.63,0,0,0-2.82,1.36q-2.24,1.35-7,7.3a127.32,127.32,0,0,0-10.39,14.88,22,22,0,0,0,.3,6.09q.59,3.64,3.56,4.19a10.84,10.84,0,0,0,5.79-1.22,20.61,20.61,0,0,0,5.79-4.19,29.18,29.18,0,0,0,4.6-6.09A20.62,20.62,0,0,0,671.22,116.13Z" transform="translate(-30.06 -1.35)" style="fill:#231f20"/><path d="M752,65.55a5.27,5.27,0,0,1,4,1.75,5.7,5.7,0,0,1,1.63,3.93,4.57,4.57,0,0,1-1.78,3.65,6.32,6.32,0,0,1-4.16,1.49h-.29Q741,76.1,729.7,76.5T706,77.72q-2.67,16.23-4.6,30.43t-3.41,26.92q-1.79,14.34-3.42,28.41t-2.22,27.18a233.42,233.42,0,0,0,.15,25,142.45,142.45,0,0,0,3.11,22.45,4.61,4.61,0,0,1-.74,4.06,6,6,0,0,1-3.71,2.43,6.54,6.54,0,0,1-4.3-.4,4.78,4.78,0,0,1-2.82-3.65q-5.06-22.47-3.42-49.78t5.49-57.08q1.5-12.18,3.42-25.84t4.3-29.08l-26.12,2.71q-13.06,1.35-25.53,2.7-4.15.56-7.87.81c-2.47.19-5,.46-7.57.81-2.18.19-3.76-.27-4.75-1.35a6.67,6.67,0,0,1-1.78-3.24,3.93,3.93,0,0,1,1-3.93,6.33,6.33,0,0,1,4-2q3.85-.54,7.57-.94t7.86-1Q654,72,667.81,70.55t28.05-2.84Q697.65,56.63,700,45t5.34-24.35A5.48,5.48,0,0,1,708,17.26a5.89,5.89,0,0,1,4.46-.68A6,6,0,0,1,716.2,19a4.64,4.64,0,0,1,.74,4.06Q711.6,46.35,708,66.9q11.58-.81,22.71-1.22T752,65.55Z" transform="translate(-30.06 -1.35)" style="fill:#231f20"/></svg>