<svg id="Layer_1" data-name="Layer 1" xmlns="http://www.w3.org/2000/svg" viewBox="0 0 776.9 188.75"><title>bellview</title><path d="M130.25,169.45q-3.89,5-9.31,11.41a114.88,114.88,0,0,1-13.19,13,101.51,101.51,0,0,1-41,21.86,87.14,87.14,0,0,1-9.63,1.78,105.11,105.11,0,0,1-14.81,1H40.57q-23.64-.5-33-11.82a21.67,21.67,0,0,1-4.29-8.09,26.37,26.37,0,0,1-.89-9.88,35.1,35.1,0,0,1,4.13-14.16,39.81,39.81,0,0,1,9.31-11.74A33.76,33.76,0,0,1,23.89,158a41.12,41.12,0,0,1,9.39-2.75,29.27,29.27,0,0,1,10.69.33,24.6,24.6,0,0,1,8.9,3.88,19,19,0,0,1,6.64,8.42A23.14,23.14,0,0,1,61,179.16a4.44,4.44,0,0,1-1.45,2.59,3.51,3.51,0,0,1-2.75.81,4.83,4.83,0,0,1-2.68-1.46,3,3,0,0,1-.72-2.75,15.68,15.68,0,0,0-.81-7.53,11.41,11.41,0,0,0-4-5.26,15.09,15.09,0,0,0-6.64-2.67A27.34,27.34,0,0,0,27,164.83a23.21,23.21,0,0,0-6.15,3.81,30.27,30.27,0,0,0-7.61,9.47,29.64,29.64,0,0,0-3.4,11.25,27.07,27.07,0,0,0,.4,6,13.38,13.38,0,0,0,3.16,6.47,25.33,25.33,0,0,0,4.53,3.89,88.9,88.9,0,0,0,11.17,2.75,37,37,0,0,0,9.39.41,54.2,54.2,0,0,0,9.31-1.7c3.18-.87,6.83-2,10.93-3.57a56.59,56.59,0,0,0,13.84-7,86.39,86.39,0,0,0,11.82-9.87,123.92,123.92,0,0,0,10-11.33q4.62-5.91,8.5-11.42,1-1.45,4-6.15l7.53-11.49q4.44-6.8,9.87-15t10.85-16.59q5.42-8.42,10.68-16.35c3.51-5.28,6.61-10,9.31-14.24a30.71,30.71,0,0,1,2.27-3.24c1.07-1.4,2.4-3,4-4.78a59.24,59.24,0,0,1,5.51-5.42,61.5,61.5,0,0,1,6.88-5.18,45.37,45.37,0,0,1,9.71-4.45A57.49,57.49,0,0,1,193,58.88a62.79,62.79,0,0,1,8.66-.65h7.45a4.46,4.46,0,0,1,2.34,1.06,3.34,3.34,0,0,1,1.22,2.18,3.5,3.5,0,0,1-2.27,4.21A55.29,55.29,0,0,0,198.48,72a70.69,70.69,0,0,0-9.14,7.6,59,59,0,0,0-6.56,7.69A78.81,78.81,0,0,0,178.49,94c-1.29,2.38-2.7,4.72-4.21,7a76,76,0,0,0-4.21,7.37q-4.53,7.77-9.87,16.51t-10.77,17Q144,150.18,139,157.39T130.25,169.45ZM246.32,48.36Q260.24,62.45,259,80.25q-1.14,18.3-18.46,30.6a65.92,65.92,0,0,1-7.53,4.53c-2.53,1.29-5,2.43-7.28,3.4s-4.53,1.78-6.64,2.43-3.86,1.13-5.26,1.45c-1.08.22-2.21.44-3.4.65s-2.43.43-3.72.65a64,64,0,0,1,7.77,6,50.09,50.09,0,0,1,10.12,12.79,46.73,46.73,0,0,1,5.1,14.73,42.2,42.2,0,0,1-.89,17,49.64,49.64,0,0,1-7.69,16.18,57.19,57.19,0,0,1-10.2,11.26,65.76,65.76,0,0,1-12.63,8.49,64.57,64.57,0,0,1-13.84,5,63.33,63.33,0,0,1-15,1.78h-2.92a13.1,13.1,0,0,1-2.91-.32,59.5,59.5,0,0,1-14.57-3.4,33.64,33.64,0,0,1-12.47-8.26c-.43-.43-.83-.86-1.21-1.29s-.78-.92-1.21-1.46a28.61,28.61,0,0,1-3.16-5.58,25.1,25.1,0,0,1-1.86-6.8,31.52,31.52,0,0,1-.08-7.53,24.4,24.4,0,0,1,2.18-7.77,29.68,29.68,0,0,1,6.48-9.23,25.12,25.12,0,0,1,9.06-5.66,21.49,21.49,0,0,1,17.81,1.62,15.2,15.2,0,0,1,7,8A21.31,21.31,0,0,1,173,181.27a4.5,4.5,0,0,1-1.46,2.59,3.09,3.09,0,0,1-2.75.64,4.25,4.25,0,0,1-2.59-1.54,3.26,3.26,0,0,1-.65-2.83,13.4,13.4,0,0,0-.81-7.53,8.85,8.85,0,0,0-3.56-4.45,15.13,15.13,0,0,0-11.82-1q-7.28,2.59-11.17,10.69a18.33,18.33,0,0,0-1.53,11.25,19.77,19.77,0,0,0,3.64,8.82,5.2,5.2,0,0,1,.64.81,3.12,3.12,0,0,0,.81.81,37.23,37.23,0,0,0,13.68,4.61,35.34,35.34,0,0,0,22.91-5,57.75,57.75,0,0,0,8.82-6.63,67.61,67.61,0,0,0,7-7.37q3-3.72,4.94-6.64a38.42,38.42,0,0,0,5.26-12.22,44,44,0,0,0,1.13-14.08,44.71,44.71,0,0,0-3.64-14.33,41.61,41.61,0,0,0-8.9-12.95q-6.15.16-11.74.08c-3.72-.05-6.72-.13-9-.24a3.5,3.5,0,0,1-2.67-1.13,3.89,3.89,0,0,1-1.06-2.76,4.1,4.1,0,0,1,1.3-2.67,3.89,3.89,0,0,1,2.75-1q3.08.16,9.63.24t13.68-.24a52.64,52.64,0,0,0,15.46-7,53.42,53.42,0,0,0,11.5-10.36,47.58,47.58,0,0,0,7.36-12.22,38.58,38.58,0,0,0,2.92-12.39,51.39,51.39,0,0,0-.41-10.36,25.83,25.83,0,0,0-3.64-10,32.49,32.49,0,0,0-8.58-9A58.47,58.47,0,0,0,205,38.32q-7.29-.81-15-1T175,37.59q-7.37.42-14.08,1.22T149,40.59q-4,.81-10.28,2.27T125,46.66q-7.53,2.36-15.86,5.67A141.89,141.89,0,0,0,92.86,60a70.64,70.64,0,0,0-18.13,20.8,50.8,50.8,0,0,0-7,23.87,33.25,33.25,0,0,0,1.3,10.69,15.23,15.23,0,0,0,4.21,7.12,19.57,19.57,0,0,0,8.17,3.81A42.63,42.63,0,0,0,93,127.52a48.27,48.27,0,0,0,12.06-1.86,21.06,21.06,0,0,0,9.63-5.59c1.51-1.51,3.18-1.61,5-.32A3.34,3.34,0,0,1,121.1,122a3.79,3.79,0,0,1-.56,2.75,34.25,34.25,0,0,1-3.08,4.45,64.53,64.53,0,0,1-12,11.57,46.38,46.38,0,0,1-8.42,5,51.08,51.08,0,0,1-8.25,2.92,44,44,0,0,1-12.14,1.62,29.64,29.64,0,0,1-11.33-2.11q-13-5.51-17.65-19.42-4-12-1-26.39Q50.77,84.3,65.5,70.21A102.59,102.59,0,0,1,88.81,53.54a7,7,0,0,0,1.37-.73c.6-.37,1.27-.75,2-1.13l2.26-1.13c.76-.38,1.41-.68,2-.89q7.44-3.57,14.89-6.32t14.17-4.77q6.7-2,12.46-3.32c3.83-.86,7-1.57,9.63-2.11a160.42,160.42,0,0,1,17.08-2.43q10.11-1,21.21-1A185.5,185.5,0,0,1,207.79,31a82.61,82.61,0,0,1,19.43,4.53,58.65,58.65,0,0,1,19.1,12.79Zm-178.07,80a22.52,22.52,0,0,1-6.31-10,38.26,38.26,0,0,1-1.78-14,59.1,59.1,0,0,1,6.47-24.28,62.2,62.2,0,0,0-7.77,11.09,46.45,46.45,0,0,0-4.69,12.71A49.9,49.9,0,0,0,53,114.65a36.58,36.58,0,0,0,1.54,10.68,27.84,27.84,0,0,0,4.86,9.31,22.54,22.54,0,0,0,8.82,6.64,18.36,18.36,0,0,0,6.8,1.38,40.74,40.74,0,0,0,7.28-.49,43.29,43.29,0,0,0,6.56-1.54,45.31,45.31,0,0,0,4.78-1.78,27.79,27.79,0,0,0,3.8-1.94q1.86-1.12,3.64-2.43c-1.29.22-2.59.38-3.88.49s-2.59.16-3.89.16a44.88,44.88,0,0,1-14.49-1.62A29.05,29.05,0,0,1,68.25,128.33Zm56,36.42q3.55-4.69,8.5-11.81T143,137.64q5.34-8.17,10.68-16.84t9.72-16.27a64.38,64.38,0,0,1,4-7q2.27-3.39,4.37-7.28a86.62,86.62,0,0,1,7.69-11.17A66.91,66.91,0,0,1,192.9,66.65a50.33,50.33,0,0,0-7.53,1.95,38.07,38.07,0,0,0-7.53,3.56,34.77,34.77,0,0,0-6.15,4.45q-2.74,2.51-4.85,4.85a44,44,0,0,0-3.4,4.21c-.87,1.25-1.46,2.08-1.78,2.51q-4.38,6.81-9.72,15L141.1,119.75q-5.5,8.41-10.85,16.51L120.54,151q-4.38,6.64-7.37,11.25t-4,5.91q-3.4,5-7.53,10.36T92.77,189a118.62,118.62,0,0,1-10.27,9.72,70.59,70.59,0,0,1-11.82,8,87.53,87.53,0,0,0,18.94-8.9,111.55,111.55,0,0,0,15-11.25A120.18,120.18,0,0,0,116,174.87Q120.86,169.13,124.26,164.75ZM222,158.6a32.77,32.77,0,0,0-4.86-13.43,51.21,51.21,0,0,0-7.93-9.56,42.61,42.61,0,0,1,2.59,8.26c.54,2.7.91,5.13,1.13,7.29a48.49,48.49,0,0,1-1.29,16.75,51.38,51.38,0,0,1-6.32,14.81c-1,1.41-2.16,3.05-3.56,4.94a63.43,63.43,0,0,1-5,5.91q-2.91,3.08-6.47,6.23a56.19,56.19,0,0,1-7.77,5.75c-1.3.75-2.59,1.43-3.89,2s-2.64,1.16-4,1.7a49.75,49.75,0,0,0,20.07-5.67,56.49,56.49,0,0,0,11.25-7.52,52.86,52.86,0,0,0,9.39-10.44,43.65,43.65,0,0,0,5.91-12.71A33.74,33.74,0,0,0,222,158.6Zm29.3-79q1-14.09-10.52-25.9A48,48,0,0,0,237,50.3c-1.35-1.07-2.62-2-3.8-2.91a31,31,0,0,1,6.55,14.16,67.11,67.11,0,0,1,.89,14.17A46.69,46.69,0,0,1,237,91a53.69,53.69,0,0,1-8.82,14.16,46.54,46.54,0,0,1-7.29,7.29,87,87,0,0,0,9.88-4.54,46.5,46.5,0,0,0,9.55-6.72,38.2,38.2,0,0,0,7.45-9.3A28.41,28.41,0,0,0,251.34,79.6Z" transform="translate(-2.24 -29.74)" style="fill:#231f20"/><path d="M342.8,146.14a3.76,3.76,0,0,1,1.54,2.51,3.61,3.61,0,0,1-.73,2.83c-.43.54-.81,1.05-1.13,1.54a10.5,10.5,0,0,1-1.3,1.53c-1.72,2.27-3.7,4.89-5.91,7.86s-4.61,6.09-7.2,9.38-5.32,6.62-8.17,10-5.81,6.58-8.83,9.71a15.77,15.77,0,0,1-1.45,1.62,73.52,73.52,0,0,1-25.1,16.68A48.08,48.08,0,0,1,268.17,213a30.21,30.21,0,0,1-8.9-1.29A24.82,24.82,0,0,1,244.05,197a35.35,35.35,0,0,1-1.78-6.88,37.11,37.11,0,0,1-.16-9.23A56,56,0,0,1,244.7,169,90.64,90.64,0,0,1,251,154.55a95.13,95.13,0,0,1,14.09-20.47,68.42,68.42,0,0,1,16.83-13.68,41.7,41.7,0,0,1,16.84-5.59,30,30,0,0,1,15.54,2.67,19.06,19.06,0,0,1,5.91,4.37,18.58,18.58,0,0,1,3.8,6.48,14.16,14.16,0,0,1,.73,4.37,29.32,29.32,0,0,1-.32,5.26,52.15,52.15,0,0,1-1.05,5.18,16.16,16.16,0,0,1-1.62,4.13,39.71,39.71,0,0,1-4.54,5.83,40.15,40.15,0,0,1-8.74,6.88,93.32,93.32,0,0,1-14.24,6.88,130.4,130.4,0,0,1-21.05,6,41.49,41.49,0,0,0-1.45,6.15,31.39,31.39,0,0,0-.41,10.6q.74,4.46,3.16,6.56a9,9,0,0,0,5.82,2,23.17,23.17,0,0,0,7.61-1.21,41.31,41.31,0,0,0,8.34-3.81,60.14,60.14,0,0,0,8-5.58l.65-.65.65-.65q4.37-4.53,8.58-9.55t8-9.79q3.81-4.77,7.12-9.15l5.91-7.77c.43-.54.84-1.05,1.22-1.54a15.28,15.28,0,0,0,1-1.53,3.75,3.75,0,0,1,2.51-1.54A3.61,3.61,0,0,1,342.8,146.14Zm-81.1,58.27q5.34,1.78,12.63.33a12.35,12.35,0,0,1-4.7-2.92,14.83,14.83,0,0,1-4.37-6.15,26,26,0,0,1-1.7-8.09,42.11,42.11,0,0,1,.57-9.23,72.42,72.42,0,0,1,2.26-9.55,1.28,1.28,0,0,0,.17-.49,1.24,1.24,0,0,1,.16-.48,77.23,77.23,0,0,1,3.72-8.74,54.84,54.84,0,0,1,4.69-7.77q14.42-20.4,29.47-25.9a48,48,0,0,1,5.66-1.46,21.89,21.89,0,0,0-11.57-1.46,37.29,37.29,0,0,0-13,4.53,50.54,50.54,0,0,0-6.15,4,59.72,59.72,0,0,0-7.05,6.23,83.46,83.46,0,0,0-7.44,8.91,92.06,92.06,0,0,0-7.37,12,74.27,74.27,0,0,0-7.44,20.15q-1.78,9.31,1,15.95A17,17,0,0,0,261.7,204.41Zm53.58-61a17.74,17.74,0,0,0,2.19-5.74,12.22,12.22,0,0,0-.25-5.75,8.12,8.12,0,0,0-5.09-.65,27,27,0,0,0-5.59,1.62,27.6,27.6,0,0,0-4.94,2.43,51.57,51.57,0,0,0-5.91,4.29,69.31,69.31,0,0,0-6.88,6.64,95.86,95.86,0,0,0-7.52,9.47,57.27,57.27,0,0,0-4.86,8.58,107.6,107.6,0,0,0,17.4-5.43,74.25,74.25,0,0,0,11.5-5.9,35.05,35.05,0,0,0,6.71-5.43A28.86,28.86,0,0,0,315.28,143.38Z" transform="translate(-2.24 -29.74)" style="fill:#231f20"/><path d="M424.88,40.27a3.85,3.85,0,0,1,1.7,2.34,3.52,3.52,0,0,1-.41,2.84l-1.46,2.42q-4.84,8.43-11,19.27t-12.87,23q-6.72,12.14-13.52,25.09t-12.79,25.25q-7.77,15.87-12.14,26.71t-6.56,18a57.77,57.77,0,0,0-2.51,11,24.62,24.62,0,0,0,0,5.66,48.22,48.22,0,0,0,7.94-7.77q4-4.85,8.09-10.84t8-12.55q4-6.56,7.85-13,1.31-2.1,2.43-4.21t2.43-4.21a3.81,3.81,0,0,1,2.35-1.7,3.5,3.5,0,0,1,2.83.41,3.81,3.81,0,0,1,1.7,2.34,4,4,0,0,1-.4,3c-.76,1.29-1.54,2.65-2.35,4.05s-1.65,2.8-2.51,4.21q-5.67,9.71-11.49,19a175.79,175.79,0,0,1-11.82,16.75c-1.4,1.73-3,3.54-4.78,5.42a42.49,42.49,0,0,1-5.74,5.1,34.4,34.4,0,0,1-6.56,3.81,17.72,17.72,0,0,1-7.2,1.54h-1.38a7.15,7.15,0,0,1-1.38-.17,18.5,18.5,0,0,1-6.88-2.67,19.35,19.35,0,0,1-5.42-5.26q-5.66-8.75-2.75-21.2a136.71,136.71,0,0,1,4.94-15.71q3.31-8.9,7.69-18.86t9.3-20.31q4.95-10.36,9.88-20.16t9.55-18.45q4.62-8.66,8.18-15.22l5.66-10.44q2.1-3.88,2.27-4A3.88,3.88,0,0,1,387,58.88h2.1a54.16,54.16,0,0,0,6,0,21.48,21.48,0,0,0,7.28-1.78,33.05,33.05,0,0,0,8.26-5.26A52.73,52.73,0,0,0,419.7,41.4,3.5,3.5,0,0,1,422,39.78,3.76,3.76,0,0,1,424.88,40.27Zm-57.31,97q4.53-9.37,9.63-19.1t10.28-19.26q5.17-9.56,10.2-18.62t9.55-17.16a28.42,28.42,0,0,1-10.12,3.16,58,58,0,0,1-7.85.24q-1.45,2.6-4.37,7.85t-6.64,12.22q-3.72,7-8.09,15.46t-8.82,17.49q-4.45,9-8.83,18.29t-8.09,18q-3.72,8.65-6.47,16.35t-4.21,13.52q-2.26,9.39,1.61,15.21a10.36,10.36,0,0,0,7.13,4.54,9.25,9.25,0,0,0,3.88-.17q-2.43-7.28,2.43-23.15,2.59-8.41,7.29-19.66T367.57,137.23Z" transform="translate(-2.24 -29.74)" style="fill:#231f20"/><path d="M478,40.27a3.81,3.81,0,0,1,1.7,2.34,3.48,3.48,0,0,1-.4,2.84l-1.46,2.42q-4.86,8.43-11,19.27t-12.87,23q-6.72,12.14-13.51,25.09t-12.79,25.25q-7.77,15.87-12.14,26.71t-6.56,18a57,57,0,0,0-2.51,11,23.51,23.51,0,0,0,0,5.66,48.19,48.19,0,0,0,7.93-7.77,134.11,134.11,0,0,0,8.1-10.84q4-6,8-12.55t7.85-13q1.29-2.1,2.43-4.21t2.43-4.21a3.81,3.81,0,0,1,2.35-1.7,3.5,3.5,0,0,1,2.83.41,3.81,3.81,0,0,1,1.7,2.34,3.92,3.92,0,0,1-.41,3l-2.34,4.05q-1.21,2.1-2.51,4.21-5.67,9.71-11.5,19a174,174,0,0,1-11.81,16.75q-2.12,2.6-4.78,5.42a42.57,42.57,0,0,1-5.75,5.1,34.32,34.32,0,0,1-6.55,3.81,17.77,17.77,0,0,1-7.21,1.54h-1.37a7.15,7.15,0,0,1-1.38-.17,18.5,18.5,0,0,1-6.88-2.67,19.35,19.35,0,0,1-5.42-5.26q-5.67-8.75-2.75-21.2a136.46,136.46,0,0,1,4.93-15.71q3.33-8.9,7.69-18.86T401.32,129q4.94-10.36,9.88-20.16t9.55-18.45q4.61-8.66,8.17-15.22l5.67-10.44c1.4-2.59,2.16-3.94,2.26-4a3.91,3.91,0,0,1,3.24-1.78h2.11a54.15,54.15,0,0,0,6,0,21.53,21.53,0,0,0,7.28-1.78,33.23,33.23,0,0,0,8.26-5.26,52.4,52.4,0,0,0,9.06-10.44,3.52,3.52,0,0,1,2.35-1.62A3.73,3.73,0,0,1,478,40.27Zm-57.3,97q4.53-9.37,9.63-19.1t10.28-19.26q5.18-9.56,10.2-18.62t9.55-17.16a28.42,28.42,0,0,1-10.12,3.16,58.06,58.06,0,0,1-7.85.24q-1.46,2.6-4.37,7.85t-6.64,12.22q-3.72,7-8.09,15.46t-8.83,17.49q-4.46,9-8.82,18.29t-8.09,18q-3.74,8.65-6.48,16.35t-4.21,13.52q-2.26,9.39,1.62,15.21a10.36,10.36,0,0,0,7.12,4.54,9.29,9.29,0,0,0,3.89-.17q-2.43-7.28,2.43-23.15,2.58-8.41,7.28-19.66T420.67,137.23Z" transform="translate(-2.24 -29.74)" style="fill:#231f20"/><path d="M511.32,98.71a14.43,14.43,0,0,1,2.91,5.58,36.28,36.28,0,0,1,1.46,8.18,58,58,0,0,1-.16,9.63,64.88,64.88,0,0,1-1.78,10.11q-8.58,33.84-22.34,54.07-11.82,17.49-26.55,23.31a26.88,26.88,0,0,1-6,1.79l-.32.16a32.39,32.39,0,0,1-6.64.64,25.89,25.89,0,0,1-14.57-4q-7.29-4.69-7.12-15.54,0-7.93,4.37-20.56,1.94-5.5,4.37-11.25t5.18-11.33q2.75-5.6,5.5-10.93t5.18-9.88c.87-1.72,1.68-3.32,2.43-4.77s1.46-2.84,2.11-4.13a4,4,0,0,1,3.56-2.1h20.56a4,4,0,0,1,3.4,5.66q-5.34,10.37-10.28,20.4t-8.91,18.21q-4,8.18-6.55,13.84a77.26,77.26,0,0,0-3.08,7.29A44.93,44.93,0,0,0,455.39,196q-.24,6,1.05,7.77l.25.24c.05.06.24,0,.56-.08a38.76,38.76,0,0,0,4.7-1.46,47.56,47.56,0,0,0,9.63-5.66,56.88,56.88,0,0,0,11.65-12.23,120.88,120.88,0,0,0,12.15-21.36q6.06-13.2,11.08-32.95A47.89,47.89,0,0,0,508,120.8a65.33,65.33,0,0,0,0-7.93,30.33,30.33,0,0,0-.89-5.83,9.64,9.64,0,0,0-1.29-3.15,6.75,6.75,0,0,0-3.89-2.27,4.3,4.3,0,0,1-2.59-1.54,3.3,3.3,0,0,1-.65-2.83,4.18,4.18,0,0,1,1.62-2.59,3.25,3.25,0,0,1,2.75-.65A13.83,13.83,0,0,1,511.32,98.71Zm-60.38,81.75c.43-1.19,1.46-3.57,3.07-7.13s3.62-7.87,6-13,5.08-10.63,8.1-16.67,6.09-12.2,9.23-18.46H465c-.54,1.19-1.11,2.33-1.7,3.4s-1.21,2.27-1.86,3.56q-2.43,4.54-5.1,9.72T451,152.61q-2.67,5.5-5.1,11.09t-4.21,10.93q-1.29,3.88-2.43,8a39.63,39.63,0,0,0-1.37,7.85,22.54,22.54,0,0,0,.48,6.72,7,7,0,0,0,3,4.45,17.47,17.47,0,0,0,7,2.59,17.79,17.79,0,0,1-.73-5.83,50.63,50.63,0,0,1,.57-6.47c.32-2.16.73-4.24,1.21-6.23A53.76,53.76,0,0,1,450.94,180.46Z" transform="translate(-2.24 -29.74)" style="fill:#231f20"/><path d="M569.27,147.11a4.08,4.08,0,0,1,1.78,2.35,3.63,3.63,0,0,1-.32,3q-6.65,11.18-13,21.61t-12.63,18.86c-.32.43-.86,1.13-1.61,2.11a25.64,25.64,0,0,1-1.95,2.26q-11.65,14.09-20.88,14.09a10.68,10.68,0,0,1-1.46-.09c-.43,0-.92-.13-1.45-.24a21,21,0,0,1-8-3.48,17.61,17.61,0,0,1-5.42-6.23,25.47,25.47,0,0,1-2.35-8.1q-.72-5,2-12.3,4.36-12.13,9-22.26t8.9-18.13q4.29-8,7.77-13.76t5.59-9.14a4,4,0,0,1,3.4-1.79h11.65q3.07.17,5.91.17h5.59a3.56,3.56,0,0,1,3.24,1.94,3.36,3.36,0,0,1,0,3.72q-10.05,18.13-16.68,31t-10.85,22.1q-2.74,6-4.12,10t-2,6.47a21.89,21.89,0,0,0-.72,3.81,5.24,5.24,0,0,0,.08,1.78,11.14,11.14,0,0,0,4.77-3.81q2.19-2.83,3.64-4.77a213.22,213.22,0,0,0,12.47-18.54q6.32-10.44,12.46-21.12a4.14,4.14,0,0,1,2.35-1.79A3.26,3.26,0,0,1,569.27,147.11Zm-50,56.66c1.4.43,3.35-.06,5.83-1.46a13.6,13.6,0,0,1-1.29-1.94,13.77,13.77,0,0,1-.57-7.13q.57-4.53,3.88-13.19t10.12-22.26q6.79-13.59,18.13-34.15c-1.83,0-3.86,0-6.07-.09s-5-.08-8.5-.08q-1.78,2.93-5.1,8.42t-7.44,13.28q-4.12,7.77-8.58,17.48t-8.5,20.88q-3.24,8.41-.16,14.09A11.33,11.33,0,0,0,519.25,203.77ZM576.07,70.54a13.19,13.19,0,0,1,4.86,8.09A13,13,0,0,1,579.31,88a18.42,18.42,0,0,1-5.26,5.83,22.65,22.65,0,0,1-7.53,3.72,18.35,18.35,0,0,1-2.1.49,11.66,11.66,0,0,1-1.95.16,11,11,0,0,1-5.66-1.62,11.54,11.54,0,0,1-5.59-7.77,14.84,14.84,0,0,1,1.7-10.2,17.13,17.13,0,0,1,5.51-6.23,21.84,21.84,0,0,1,7.93-3.64Q572.19,67.46,576.07,70.54ZM572.51,84.3a6.25,6.25,0,0,0,1-4.29,5,5,0,0,0-2.1-3.48,2.78,2.78,0,0,0-1.94-.49,10.52,10.52,0,0,0-5.59,1.78,11.09,11.09,0,0,0-4.13,4.37,8.44,8.44,0,0,0-1.13,4.29,4,4,0,0,0,2.27,3.65q1.29.81,3.72,0a14.92,14.92,0,0,0,4.61-2.35A11,11,0,0,0,572.51,84.3Z" transform="translate(-2.24 -29.74)" style="fill:#231f20"/><path d="M653,146.14a3.8,3.8,0,0,1,1.54,2.51,3.65,3.65,0,0,1-.73,2.83c-.44.54-.81,1.05-1.14,1.54a9.8,9.8,0,0,1-1.29,1.53q-2.6,3.4-5.91,7.86t-7.2,9.38q-3.88,5-8.18,10t-8.82,9.71a14.93,14.93,0,0,1-1.46,1.62,73.48,73.48,0,0,1-25.09,16.68A48.17,48.17,0,0,1,578.34,213a30.17,30.17,0,0,1-8.9-1.29A24.82,24.82,0,0,1,554.22,197a34.65,34.65,0,0,1-1.78-6.88,36.64,36.64,0,0,1-.16-9.23A56,56,0,0,1,554.87,169a90.64,90.64,0,0,1,6.31-14.49,95.46,95.46,0,0,1,14.08-20.47A68.46,68.46,0,0,1,592.1,120.4a41.65,41.65,0,0,1,16.84-5.59,30,30,0,0,1,15.54,2.67,19,19,0,0,1,5.9,4.37,18.61,18.61,0,0,1,3.81,6.48,14.47,14.47,0,0,1,.73,4.37,29.33,29.33,0,0,1-.33,5.26,52.15,52.15,0,0,1-1.05,5.18,15.46,15.46,0,0,1-1.62,4.13,39.54,39.54,0,0,1-4.53,5.83,40.4,40.4,0,0,1-8.74,6.88,93.48,93.48,0,0,1-14.25,6.88,130.25,130.25,0,0,1-21,6A42.83,42.83,0,0,0,581.9,179a31.36,31.36,0,0,0-.4,10.6q.72,4.46,3.15,6.56a9,9,0,0,0,5.83,2,23.21,23.21,0,0,0,7.61-1.21,41.31,41.31,0,0,0,8.34-3.81,60.14,60.14,0,0,0,8-5.58c.21-.22.43-.43.65-.65l.64-.65q4.38-4.53,8.58-9.55t8-9.79q3.79-4.77,7.12-9.15l5.91-7.77,1.21-1.54a15.36,15.36,0,0,0,1.06-1.53,3.73,3.73,0,0,1,2.5-1.54A3.63,3.63,0,0,1,653,146.14Zm-81.11,58.27c3.57,1.19,7.77,1.3,12.63.33a12.31,12.31,0,0,1-4.69-2.92,14.74,14.74,0,0,1-4.37-6.15,26,26,0,0,1-1.7-8.09,41.48,41.48,0,0,1,.56-9.23,72.46,72.46,0,0,1,2.27-9.55,1.22,1.22,0,0,0,.16-.49,1.24,1.24,0,0,1,.16-.48,77.28,77.28,0,0,1,3.73-8.74,53.93,53.93,0,0,1,4.69-7.77q14.41-20.4,29.46-25.9a47.58,47.58,0,0,1,5.67-1.46,21.92,21.92,0,0,0-11.58-1.46,37.43,37.43,0,0,0-13,4.53,52.13,52.13,0,0,0-6.15,4,60.48,60.48,0,0,0-7,6.23,83.47,83.47,0,0,0-7.45,8.91,93.16,93.16,0,0,0-7.36,12,74.32,74.32,0,0,0-7.45,20.15q-1.79,9.31,1,15.95A17,17,0,0,0,571.86,204.41Zm53.59-61a17.71,17.71,0,0,0,2.18-5.74,12.09,12.09,0,0,0-.24-5.75,8.14,8.14,0,0,0-5.1-.65,26.87,26.87,0,0,0-5.58,1.62,27.28,27.28,0,0,0-4.94,2.43,51.57,51.57,0,0,0-5.91,4.29,69.31,69.31,0,0,0-6.88,6.64,94.4,94.4,0,0,0-7.53,9.47,57.26,57.26,0,0,0-4.85,8.58,108.24,108.24,0,0,0,17.4-5.43,74.56,74.56,0,0,0,11.49-5.9,34.85,34.85,0,0,0,6.72-5.43A28.86,28.86,0,0,0,625.45,143.38Z" transform="translate(-2.24 -29.74)" style="fill:#231f20"/><path d="M778.1,118.62a3.07,3.07,0,0,1,1,2.91,73.66,73.66,0,0,1-1.78,10.52q-8.1,33.19-22.66,53.1Q742,202.64,726.3,209a56.51,56.51,0,0,1-8,2.43,38.06,38.06,0,0,1-18.22-.25,29.34,29.34,0,0,1-8.09-3.48q-7.12-4.2-7.12-15.38a51.73,51.73,0,0,1,2.59-15.05q-13.92,19.26-23.64,27.36a1.34,1.34,0,0,1-.32.24,1.41,1.41,0,0,0-.32.24q-6.64,5.19-12,6.32a15.58,15.58,0,0,1-3.73.48,15,15,0,0,1-8.09-2.43q-6.64-4.2-6.64-15.05.33-8.1,4.53-19.75A180.43,180.43,0,0,1,647,152.77q5.82-11.16,11-20.88,1.93-3.72,3.64-6.72c1.13-2,2.13-3.91,3-5.74a3.44,3.44,0,0,1,3.4-2.11l20.72.16a3.41,3.41,0,0,1,3.24,1.78,3.59,3.59,0,0,1,.16,3.73q-5.17,10-10.28,20.07t-9.22,18.46q-4.14,8.41-7,14.24c-1.94,3.89-3.13,6.42-3.56,7.61a40.76,40.76,0,0,0-3.24,10.93c-.32,3-.37,4.45-.16,4.45a.66.66,0,0,0,.49-.16,94.54,94.54,0,0,0,11.41-11.9q6.08-7.37,12.3-16.27t12.47-18.86q6.23-10,12.06-19.51c1-1.83,2-3.75,3.07-5.74s2.22-4.24,3.4-6.72a3.46,3.46,0,0,1,3.4-2.11l19.43.17a3.87,3.87,0,0,1,3.24,1.78,4.13,4.13,0,0,1,.16,3.72q-4.86,9.87-9.55,19.75T722.09,161q-3.72,8.25-6.31,14.16c-1.73,3.95-2.81,6.56-3.24,7.86a43.08,43.08,0,0,0-1.86,6.79q-.73,3.74-1,7a16.79,16.79,0,0,0,.24,5.9c.38,1.14.67,1.76.89,1.87a1.52,1.52,0,0,0,.65.16,17.94,17.94,0,0,0,6.23-4.7,68.13,68.13,0,0,0,7-9.14,132.68,132.68,0,0,0,7.36-13q3.74-7.45,7.45-16.35,2.76-6.81,6.8-17.24T755,120.07a3.68,3.68,0,0,1,3.73-2.59h16.67A3.74,3.74,0,0,1,778.1,118.62ZM652.32,203a9.83,9.83,0,0,1-1.46-5.43,31.51,31.51,0,0,1,.65-6.31,43.74,43.74,0,0,1,1.7-6.07q1-2.91,1.86-4.86c.43-1.07,1.48-3.37,3.16-6.88s3.75-7.77,6.23-12.78,5.29-10.61,8.42-16.76,6.37-12.46,9.71-18.94l-12.3-.16q-1.31,2.43-2.67,5.1c-.92,1.78-1.86,3.59-2.84,5.42q-5.17,9.56-10.84,20.56a184.85,184.85,0,0,0-9.39,21.21q-1.29,3.72-2.43,7.69a47.22,47.22,0,0,0-1.54,7.52,19.11,19.11,0,0,0,.25,6.4,6.83,6.83,0,0,0,2.75,4.29,8.06,8.06,0,0,0,6,1,14.08,14.08,0,0,1,1.37-.49A13.74,13.74,0,0,0,652.32,203Zm52.93-22.55q.64-1.78,3-7.14t5.75-13q3.39-7.62,7.69-16.71t8.82-18.49l-10.85-.16c-.54,1.08-1.13,2.19-1.78,3.33s-1.29,2.35-1.94,3.65q-2.27,4.38-4.94,9.57t-5.34,10.7q-2.67,5.52-5.1,11.11t-4.21,10.79q-1.29,3.9-2.43,8.11a41.32,41.32,0,0,0-1.37,7.95,21.6,21.6,0,0,0,.48,6.65,7,7,0,0,0,3,4.38,19.17,19.17,0,0,0,6.47,2.76,24,24,0,0,1-.48-6.33,65.13,65.13,0,0,1,.64-6.65,56.63,56.63,0,0,1,1.22-6C704.36,183.11,704.82,181.6,705.25,180.41Zm64.6-50.29c.21-.86.4-1.73.56-2.59s.35-1.73.57-2.6h-9.55q-4.53,13.14-8.34,23t-6.56,16.46c-.64,1.41-1.4,3.14-2.26,5.19s-1.86,4.28-3,6.66-2.37,4.84-3.72,7.38-2.73,5-4.13,7.54a103.85,103.85,0,0,1-5.83,8.92q11.34-6,20.89-19.3Q761.91,161.92,769.85,130.12Z" transform="translate(-2.24 -29.74)" style="fill:#231f20"/></svg>