<svg id="Layer_1" data-name="Layer 1" xmlns="http://www.w3.org/2000/svg" viewBox="0 0 777.44 260.48"><title>rocket</title><path d="M247.53,245.15a4.79,4.79,0,0,1,2.26,2.59,9.67,9.67,0,0,1,.27,1.75,4.42,4.42,0,0,1-1.08,2.83,35.48,35.48,0,0,1-11.81,9.92,49.93,49.93,0,0,1-16.31,5.26,64.08,64.08,0,0,1-7.93.5,66.31,66.31,0,0,1-13.88-1.5,60.5,60.5,0,0,1-22-9.84,118.92,118.92,0,0,1-13.51-11.26,142.16,142.16,0,0,1-13.16-14.76q-6.31-7.5-12.53-16.51T124.6,194.62c-1.32-1.89-2.68-3.83-4.06-5.83s-2.79-4-4.23-6q-4.69-7-9.29-12.84a85.34,85.34,0,0,0-9.73-10.5,74.7,74.7,0,0,0-11.08-8.34,83.56,83.56,0,0,0-13.16-6.51q-8.11,13.51-14.42,24.69T47.36,190.2q-5,9.77-8.92,18.51t-7.39,17.43c-.84,2.22-2.59,3.33-5.23,3.33a10.75,10.75,0,0,1-2-.33A5,5,0,0,1,21,226.81a6.11,6.11,0,0,1-.72-2.5,5.48,5.48,0,0,1,.36-1.84q4.34-10.5,9.2-21.18t11.44-23.18q6.59-12.5,15.41-27.43t20.73-33.77q14.07-22.34,28.84-44.19T136.32,29a5.63,5.63,0,0,1,2.79-2.17,9.44,9.44,0,0,1,1.89-.33,5.3,5.3,0,0,1,3.07,1,4.6,4.6,0,0,1,2.34,2.5,8.55,8.55,0,0,1,.36,1.84,4.42,4.42,0,0,1-1.08,2.83q-15.33,21.67-29.92,43.53T87.11,122.08q-2.17,3.35-4.06,6.51c-1.26,2.11-2.55,4.16-3.87,6.17q2.7.17,6.12.16,4.52,0,12.08-.5a96.45,96.45,0,0,0,19.11-3.75,123.9,123.9,0,0,0,24.15-9.92,114.27,114.27,0,0,0,25.06-18.51,134.7,134.7,0,0,0,16.85-19.1A101.25,101.25,0,0,0,194,63.22a80,80,0,0,0,2.61-7.92A36.91,36.91,0,0,0,198,48.38q.18-2.67.18-3.51a30.4,30.4,0,0,0-1-7.42,21.93,21.93,0,0,0-3.87-7.75q-5.78-7-18.21-9.84A73.13,73.13,0,0,0,164,18.19c-3.43-.22-6.28-.33-8.57-.33-3,0-6.13.11-9.37.33q-7.22.51-15,1.75T115.5,23q-7.84,1.83-15.23,4.17t-13.7,5a169.68,169.68,0,0,0-73.73,61,4.74,4.74,0,0,1-2.7,2.17,10,10,0,0,1-2,.33,5.25,5.25,0,0,1-3.06-1,4.2,4.2,0,0,1-2.25-2.41,9.93,9.93,0,0,1-.27-1.75,5,5,0,0,1,.9-2.84,184.3,184.3,0,0,1,27.4-31.85,182.19,182.19,0,0,1,51-33q5.4-2.16,12.53-4.58t15.32-4.51q8.2-2.08,17.21-3.67a183.26,183.26,0,0,1,18.39-2.25c3.48-.22,6.85-.33,10.09-.33a102.25,102.25,0,0,1,26.86,3.42,37,37,0,0,1,20,12.76q6.32,8.16,6.58,14.17c.18,4,.27,6.34.27,7a60,60,0,0,1-4.69,22,112.2,112.2,0,0,1-12.8,22.34q-4,5.34-8.47,10.42t-9.55,9.93a134.48,134.48,0,0,1-25.33,18.84,130,130,0,0,1-28.39,12q-6.48,1.83-12.43,2.91c-4,.73-7.76,1.25-11.36,1.59A87.18,87.18,0,0,1,111.89,159a188.3,188.3,0,0,1,14,18.09q4.33,6.34,8.11,12,7,10.5,13.16,19.18t12,15.92a172,172,0,0,0,11.81,13.26,90.68,90.68,0,0,0,13,10.84,46.88,46.88,0,0,0,15.42,7.59,55,55,0,0,0,13.43,1.91,41.6,41.6,0,0,0,6.48-.5,37.69,37.69,0,0,0,12.08-3.83,24.16,24.16,0,0,0,8.47-7,5.08,5.08,0,0,1,2.8-2.08,11.82,11.82,0,0,1,1.89-.25A5.25,5.25,0,0,1,247.53,245.15Z" transform="translate(-2.57 -7.52)" style="fill:#231f20"/><path d="M308.1,131.59c1.2.89,1.83,1.72,1.89,2.5s.09,1.22.09,1.33a4.71,4.71,0,0,1-1.44,3.34A98.3,98.3,0,0,1,292.15,153a108.86,108.86,0,0,1-19.38,10.59,90.86,90.86,0,0,1-17.67,5.75,71,71,0,0,1-13.7,1.58,40.18,40.18,0,0,1-5.22-.33c-1.33-.22-2.62-.44-3.88-.67s-2.5-.5-3.7-.83l-1.08,1a7.1,7.1,0,0,1-1.08.83,68.89,68.89,0,0,1-11.62,8.76A51.09,51.09,0,0,1,203,185a30.3,30.3,0,0,1-8.83,1.5,18.9,18.9,0,0,1-10.28-2.83q-6.12-4.17-7.21-13.51c-.12-1.22-.18-2.39-.18-3.5a46.39,46.39,0,0,1,4.51-19q5.94-13.68,18.74-26.18a5.16,5.16,0,0,1,3.79-1.67,10.05,10.05,0,0,1,1.62.16,30.51,30.51,0,0,1,6.31-10.33,23.53,23.53,0,0,1,8.11-5.84,21.27,21.27,0,0,1,7.93-1.67,21,21,0,0,1,2.71.17,16.17,16.17,0,0,1,12.07,7.84,24.74,24.74,0,0,1,3.34,7.25,44.46,44.46,0,0,1,1.53,8.92,21.31,21.31,0,0,1,.18,2.84,44.47,44.47,0,0,1-.81,7.92,50.73,50.73,0,0,1-2.79,9.42,59.16,59.16,0,0,1-7.39,13.67h.36l.36.17h.36c1.2.11,2.52.17,4,.17a62.19,62.19,0,0,0,11.54-1.34,78,78,0,0,0,15.14-4.83,93.3,93.3,0,0,0,32.27-22.18,4.24,4.24,0,0,1,2.7-1.75l1.44-.09A5.56,5.56,0,0,1,308.1,131.59ZM199.58,175.11a42.69,42.69,0,0,0,9.11-4.17,69.51,69.51,0,0,0,9.46-6.83q-10.46-7-14.24-20.85a25.85,25.85,0,0,1-1-4.59,38.33,38.33,0,0,1-.27-4.58q-9.19,10.5-12.08,18.84t-2.88,13.68a15.14,15.14,0,0,0,.18,2.33,14.7,14.7,0,0,0,1.08,4.34,3.7,3.7,0,0,0,1.44,1.83,6.51,6.51,0,0,0,3.79,1A17.59,17.59,0,0,0,199.58,175.11Zm33.53-32a38.48,38.48,0,0,0,3.07-14.17c0-.67-.13-2.42-.36-5.25a17.34,17.34,0,0,0-2.89-8.09,14.58,14.58,0,0,0-2.07-2.17,4.42,4.42,0,0,0-3-1,7.93,7.93,0,0,0-4.5,1.33,28.67,28.67,0,0,0-3.43,2.67,23.34,23.34,0,0,0-5.49,11,33,33,0,0,0-.64,6.59,23.55,23.55,0,0,0,.91,6.58,27.81,27.81,0,0,0,4.5,9.76,24.81,24.81,0,0,0,6.31,5.92,41.91,41.91,0,0,0,4.42-6.34A43.87,43.87,0,0,0,233.11,143.09Z" transform="translate(-2.57 -7.52)" style="fill:#231f20"/><path d="M403.45,133.42a5.62,5.62,0,0,1,1.44,3.75,4.72,4.72,0,0,1-1.62,3.59c-1.68,1.45-3.73,3.2-6.13,5.25s-5.11,4.23-8.11,6.51-6.22,4.61-9.64,7-7,4.64-10.73,6.75a91.16,91.16,0,0,1-16,7.51A102.93,102.93,0,0,1,335,178.61q-3.24.51-6.3.84a55.74,55.74,0,0,1-5.95.33q-15.15,0-22.54-8.34-4.5-4.83-4.86-9.17c-.24-2.89-.36-4.72-.36-5.5a41.51,41.51,0,0,1,2.7-14,61,61,0,0,1,7.57-15.09,65.72,65.72,0,0,1,11.18-12.76,52.85,52.85,0,0,1,9.19-6.5,55.09,55.09,0,0,1,10.27-4.5,31.39,31.39,0,0,1,10.1-1.84c.6,0,1.92.08,4,.25a11.2,11.2,0,0,1,6.3,3.09,12.65,12.65,0,0,1,4.51,6.58,25.79,25.79,0,0,1,.9,6.09,27.08,27.08,0,0,1-.72,6,4.53,4.53,0,0,1-2.25,3.09,7.11,7.11,0,0,1-3.34.92h-1.08a4.92,4.92,0,0,1-3.33-2.09,5.7,5.7,0,0,1-1-3.08v-1a16.18,16.18,0,0,0,.54-3.84,12.76,12.76,0,0,0-.36-2.58,4.67,4.67,0,0,0-1.27-2.42,4.86,4.86,0,0,0-1.8-.5,16.24,16.24,0,0,0-1.8-.17,19.86,19.86,0,0,0-5.77,1.17,44.45,44.45,0,0,0-8,3.67,45.33,45.33,0,0,0-7.3,5.17,53.78,53.78,0,0,0-9.46,10.75,51.73,51.73,0,0,0-6.4,12.76,30.43,30.43,0,0,0-2.17,10.5c0,.23,0,1.23.09,3a8.87,8.87,0,0,0,2.62,5.5A11.29,11.29,0,0,0,316.3,169q4.23.41,6.22.41a63.94,63.94,0,0,0,11.71-1.25,90.7,90.7,0,0,0,14.6-4.17,84.56,84.56,0,0,0,13.88-6.42q5.24-3,10.1-6.42t9.1-6.67q4.23-3.25,7.75-6.17c2.34-1.94,4.3-3.64,5.86-5.08a5.36,5.36,0,0,1,3.78-1.51A6.57,6.57,0,0,1,403.45,133.42Z" transform="translate(-2.57 -7.52)" style="fill:#231f20"/><path d="M531.07,131.59a5.05,5.05,0,0,1,1.26,3.33q0,.35-.09,1.5a3.9,3.9,0,0,1-1.89,2.5q-17.49,13.35-30.46,21.85a194.72,194.72,0,0,1-23.26,13.34q-11.53,5.5-20.37,6.67c-.84.11-1.65.2-2.43.25s-1.59.09-2.43.09a25.58,25.58,0,0,1-12.62-3q-3.07-1.67-8.47-5.33a56.22,56.22,0,0,1-10.64-9.67,48.25,48.25,0,0,1-11.17-22.85q-11.91,20.18-20.64,36.85a271.74,271.74,0,0,0-13.43,29,5.81,5.81,0,0,1-2.17,2.42,5.6,5.6,0,0,1-3.06.91,4.85,4.85,0,0,1-2-.33,4.42,4.42,0,0,1-2.89-2.17,6.07,6.07,0,0,1-.72-2.5,5.39,5.39,0,0,1,.36-1.83q3.25-8.5,7.84-17.93t9.74-19.09q5.13-9.68,10.54-19t10.46-17.68q3.06-5,5.68-9.34t4.95-8Q419,102.4,425.8,91.82t14.06-21.27q7.22-10.66,14.33-21t13.43-19a4.35,4.35,0,0,1,2.7-2.08,13.54,13.54,0,0,1,2-.25,6.07,6.07,0,0,1,3.06.83,4.76,4.76,0,0,1,2.25,2.59,9.67,9.67,0,0,1,.27,1.75,5,5,0,0,1-.9,2.83q-5.4,7.5-11.53,16.34T453,70.64q-6.31,9.26-12.44,18.59l-11.72,17.84c1.33-.88,2.71-1.75,4.15-2.58l4.51-2.59a63.75,63.75,0,0,1,11.08-5,56.36,56.36,0,0,1,11.63-2.67,41.72,41.72,0,0,1,5-.33A31.51,31.51,0,0,1,473.21,95a12,12,0,0,1,6.67,4.42,11.24,11.24,0,0,1,2.25,4.59,19.38,19.38,0,0,1,.45,3.58,17.18,17.18,0,0,1-.54,4.17A25.07,25.07,0,0,1,477,122.33a33.21,33.21,0,0,1-9.73,8.42q-12.43,7.51-32.81,9c-2.76.22-5,.36-6.67.42s-2.94.08-3.78.08c-1.57,0-3-.06-4.33-.17a32.55,32.55,0,0,0,5,11.59,53.45,53.45,0,0,0,14.87,14.59,47.51,47.51,0,0,0,4.87,2.84,14.85,14.85,0,0,0,7.21,1.67q7.92,0,20-5.84a174.93,174.93,0,0,0,22.27-12.76q12.52-8.25,29.47-21.26a6,6,0,0,1,3.6-1.17l1.45.09A4.24,4.24,0,0,1,531.07,131.59Zm-114.1-2q3.24.16,8.56.16a110,110,0,0,0,11.54-.66,87.54,87.54,0,0,0,12.61-2.34,47.07,47.07,0,0,0,11.63-4.67,21.72,21.72,0,0,0,6.94-6.17,20.16,20.16,0,0,0,3-6.17,10.35,10.35,0,0,0,.19-1.83,3.73,3.73,0,0,0-.73-2.5,5.74,5.74,0,0,0-2-.75,12.86,12.86,0,0,0-3.24-.42,25.56,25.56,0,0,0-3.79.33,45.6,45.6,0,0,0-9.28,2.09,50.7,50.7,0,0,0-8.93,3.92q-8.28,4.83-14.78,9.5A123.37,123.37,0,0,0,417,129.59Z" transform="translate(-2.57 -7.52)" style="fill:#231f20"/><path d="M629.85,133.26a4.44,4.44,0,0,1,1.8,3.5,5.6,5.6,0,0,1-1.8,3.83q-9.74,8.85-20.64,17.1a223.65,223.65,0,0,1-21.72,14.59c-1.69,1-3.64,2.05-5.86,3.17s-4.63,2.25-7.21,3.41-5.32,2.26-8.2,3.26-5.83,1.89-8.83,2.66a64.21,64.21,0,0,1-15.87,2.34h-.9l-1.26-.17h-.9q-10.82-.84-17.13-7.34-5.4-5.66-5.58-14.67v-1.5a44.9,44.9,0,0,1,2.88-15.18,70,70,0,0,1,8.83-17.09,84.23,84.23,0,0,1,12.62-14.42A69.66,69.66,0,0,1,556.67,106q8.1-3.58,14.42-3.58h1.62a14.25,14.25,0,0,1,5.77,1.58,10.44,10.44,0,0,1,3.06,2.42,15.24,15.24,0,0,1,1.53,2.92,8.7,8.7,0,0,1,.63,3.25,17.77,17.77,0,0,1-.18,2.33q-.9,5.67-5.94,12.26a51.45,51.45,0,0,1-12.26,11.42,48.66,48.66,0,0,1-18.12,7.84,85.78,85.78,0,0,1-15.41,1.67h-1.26a6.2,6.2,0,0,0-.36.83l-.54,1.67a6.2,6.2,0,0,0-.36.83,37.29,37.29,0,0,0-2.53,12.51c0,.11,0,1.14.09,3.08s1.06,3.87,3,5.76a10.41,10.41,0,0,0,5,3,22.74,22.74,0,0,0,4.87.92l2.25.08a36.1,36.1,0,0,0,6.22-.58q3.35-.58,6.4-1.42a73.59,73.59,0,0,0,8.2-2.5q4.06-1.5,7.66-3.09t6.49-3.08c1.92-1,3.49-1.84,4.69-2.5a219,219,0,0,0,20.82-13.93,253.39,253.39,0,0,0,19.74-16.42,5.73,5.73,0,0,1,7.75,0Zm-82-9a62,62,0,0,0-11.53,13.34,54.4,54.4,0,0,0,11-1.92,39.84,39.84,0,0,0,11.54-5.42,52.57,52.57,0,0,0,5.95-4.92,33.35,33.35,0,0,0,4.86-5.75,19,19,0,0,0,2.35-4.33,9,9,0,0,0,.54-2.51h-1.44a24.16,24.16,0,0,0-2.44.17,15.37,15.37,0,0,0-3.69,1,41.4,41.4,0,0,0-8.57,4A60,60,0,0,0,547.83,124.25Z" transform="translate(-2.57 -7.52)" style="fill:#231f20"/><path d="M780,65.72v.5a4.71,4.71,0,0,1-1.44,3.33,5,5,0,0,1-3.79,1.5q-21.27,1-42.63,2.34t-42.63,3.17l-14.24,1.33q-7.2,10.85-15,22.85t-16.4,25.68q-14.05,22.35-25.06,42.86T599.75,206a5.14,5.14,0,0,1-5,3h-1.17a2.2,2.2,0,0,1-1.17-.33,5.21,5.21,0,0,1-2.62-2.5,6.6,6.6,0,0,1-.63-2.34,4.44,4.44,0,0,1,.54-2.16q8.11-16.35,19.29-37.11t25.23-43.27q7.4-11.67,14.06-22.1t13-19.92q-14.78,1.5-29.38,3.16T602.27,85.9h-.72A5.45,5.45,0,0,1,598,84.65a5.29,5.29,0,0,1-1.89-3.26v-.83a4.77,4.77,0,0,1,1.17-3.09,5.42,5.42,0,0,1,3.52-1.75q17.13-2.16,33.89-4.08t33.88-3.59Q675.82,57.39,682.48,48t13-18.09a4.38,4.38,0,0,1,2.62-2.09,11.82,11.82,0,0,1,1.89-.25,5.52,5.52,0,0,1,3.24,1A4.27,4.27,0,0,1,705.47,31a9.8,9.8,0,0,1,.27,1.75,4.65,4.65,0,0,1-1.08,3q-5.24,7.17-10.73,14.93T682.66,66.89l6-.5q21.27-1.85,42.72-3.26t42.9-2.41a5.85,5.85,0,0,1,4,1.41A5.17,5.17,0,0,1,780,65.72Z" transform="translate(-2.57 -7.52)" style="fill:#231f20"/></svg>