<svg id="Layer_1" data-name="Layer 1" xmlns="http://www.w3.org/2000/svg" viewBox="0 0 690.63 182.66"><title>scifi</title><path d="M91.52,92.76a12.77,12.77,0,0,0-9,22.07,12.48,12.48,0,0,0,9,4H161.1q23.7,0,40.12,16.42t16.42,40.12a56.44,56.44,0,0,1-56.54,56.54H56.72q-10.22,0-16.31-7a22.86,22.86,0,0,1,0-29.58q6.09-6.94,16.31-6.95H161.1a13,13,0,0,0,13.05-13.05,12.33,12.33,0,0,0-13.05-13H91.52q-23.05,0-39.8-16.74T35,105.8q0-23,16.74-39.79t39.8-16.74H195.89q10.23,0,16.31,6.95A21.45,21.45,0,0,1,217.64,71,21.45,21.45,0,0,1,212.2,85.8q-6.09,7-16.31,7Zm0-8.7H195.89q6.31,0,9.68-3.81a14.35,14.35,0,0,0,0-18.48Q202.2,58,195.89,58H91.52q-19.36,0-33.6,14.25T43.68,105.8q0,19.36,14.24,33.6t33.6,14.24H161.1a21.75,21.75,0,0,1,0,43.49H56.72c-4.2,0-7.43,1.28-9.67,3.81a14.35,14.35,0,0,0,0,18.48q3.36,3.81,9.67,3.81H161.1a47.88,47.88,0,0,0,47.84-47.84q0-20.22-13.81-34t-34-13.81H91.52a21.53,21.53,0,0,1-15.23-37A20.87,20.87,0,0,1,91.52,84.06Z" transform="translate(-34.98 -49.27)" style="fill:#231f20"/><path d="M288.09,231.93q-23,0-39.79-16.75t-16.75-39.79V105.8q0-23,16.75-39.79t39.79-16.74H392.47q10.21,0,16.31,6.95A21.45,21.45,0,0,1,414.22,71a21.45,21.45,0,0,1-5.44,14.79q-6.09,7-16.31,7H288.09a13.79,13.79,0,0,0-13,13v69.59a13.81,13.81,0,0,0,13,13.05H392.47q10.21,0,16.31,6.95a22.83,22.83,0,0,1,0,29.58q-6.09,7-16.31,7Zm0-8.7H392.47q6.3,0,9.68-3.81a14.35,14.35,0,0,0,0-18.48c-2.25-2.53-5.48-3.81-9.68-3.81H288.09a22.28,22.28,0,0,1-21.74-21.74V105.8a22.28,22.28,0,0,1,21.74-21.74H392.47q6.3,0,9.68-3.81a14.35,14.35,0,0,0,0-18.48Q398.78,58,392.47,58H288.09q-19.35,0-33.59,14.25T240.25,105.8v69.59q0,19.35,14.25,33.6T288.09,223.23Z" transform="translate(-34.98 -49.27)" style="fill:#231f20"/><path d="M428.13,71q0-10.22,7-16.31a22.84,22.84,0,0,1,29.57,0q7,6.09,7,16.31V210.18q0,10.23-7,16.31a22.81,22.81,0,0,1-29.57,0q-7-6.09-7-16.31Zm8.7,0V210.18q0,6.31,3.8,9.68a14.37,14.37,0,0,0,18.49,0q3.79-3.37,3.8-9.68V71q0-6.3-3.8-9.68a14.37,14.37,0,0,0-18.49,0Q436.84,64.71,436.83,71Z" transform="translate(-34.98 -49.27)" style="fill:#231f20"/><path d="M542.08,92.76a13.79,13.79,0,0,0-13.05,13V210.18q0,10.23-7,16.31a22.81,22.81,0,0,1-29.57,0q-7-6.09-7-16.31V105.8q0-23,16.74-39.79t39.8-16.74H646.45q10.23,0,16.31,6.95A21.4,21.4,0,0,1,668.2,71a21.4,21.4,0,0,1-5.44,14.79q-6.09,7-16.31,7Zm0-8.7H646.45q6.31,0,9.68-3.81a14.35,14.35,0,0,0,0-18.48Q652.76,58,646.45,58H542.08q-19.37,0-33.6,14.25T494.24,105.8V210.18q0,6.31,3.8,9.68a14.37,14.37,0,0,0,18.49,0q3.79-3.37,3.8-9.68V105.8a22.28,22.28,0,0,1,21.75-21.74Zm104.37,34.79q10.23,0,16.31,7a22.81,22.81,0,0,1,0,29.57q-6.09,7-16.31,7H576.87q-10.23,0-16.31-7a22.81,22.81,0,0,1,0-29.57q6.09-7,16.31-7Zm0,8.7H576.87q-6.32,0-9.68,3.8a14.37,14.37,0,0,0,0,18.49q3.38,3.81,9.68,3.8h69.58q6.31,0,9.68-3.8a14.37,14.37,0,0,0,0-18.49Q652.76,127.56,646.45,127.55Z" transform="translate(-34.98 -49.27)" style="fill:#231f20"/><path d="M682.12,71q0-10.22,7-16.31a22.86,22.86,0,0,1,29.58,0q7,6.09,7,16.31V210.18q0,10.23-7,16.31a22.83,22.83,0,0,1-29.58,0q-7-6.09-7-16.31Zm8.69,0V210.18q0,6.31,3.81,9.68a14.35,14.35,0,0,0,18.48,0q3.81-3.37,3.81-9.68V71q0-6.3-3.81-9.68a14.35,14.35,0,0,0-18.48,0Q690.81,64.71,690.81,71Z" transform="translate(-34.98 -49.27)" style="fill:#231f20"/></svg>