<svg id="Layer_1" data-name="Layer 1" xmlns="http://www.w3.org/2000/svg" viewBox="0 0 650.04 151.7"><title>avante</title><path d="M77.77,202.21H62.34L120,53.67h17.55L195,202.2H179.33l-17.7-46.63H95.54Zm78.69-60L128.37,67.6l-27.86,74.62Z" transform="translate(-62.34 -53.67)" style="fill:#231f20"/><path d="M241.37,202.24l-13.16-.07L184.25,90h15.22l35.93,90.5L271.63,90l15.61,0Z" transform="translate(-62.34 -53.67)" style="fill:#231f20"/><path d="M391.85,184.45a45.54,45.54,0,0,1-18.11,15.08,56.42,56.42,0,0,1-24.84,5.53q-24.58,0-41.06-16.87t-16.47-41.64q0-25.07,16.83-42t41.93-17a53.09,53.09,0,0,1,23.61,5.25,49.21,49.21,0,0,1,18.11,15.15V90h14.08V202.2H391.85Zm0-39.12q0-17.73-12.75-31.08T349.72,100.9q-18.06,0-30.76,13.3t-12.7,33q0,18.65,12.6,31.58a40.94,40.94,0,0,0,30.45,12.95q17.15,0,29.84-13.61T391.85,145.33Z" transform="translate(-62.34 -53.67)" style="fill:#231f20"/><path d="M428.68,90h14v12.75A41.35,41.35,0,0,1,458,91.42a55.11,55.11,0,0,1,41.82.91,36.59,36.59,0,0,1,15.36,13.16,41.48,41.48,0,0,1,5.56,14.18q1.68,8.17,1.68,23.88V202.2H508.25V139.36q0-19.79-7.6-28.82t-24.33-9a36.61,36.61,0,0,0-17.19,3.92,28.27,28.27,0,0,0-11.68,11.28,35.53,35.53,0,0,0-3.78,10.5q-1,6.43-1,20.41V202.2h-14Z" transform="translate(-62.34 -53.67)" style="fill:#231f20"/><path d="M555.08,202.2V104.47H533.75V90h21.33V53.67h14.38V90h21.32v14.48H569.46V202.2Z" transform="translate(-62.34 -53.67)" style="fill:#231f20"/><path d="M712.38,150.58H611.08a38.82,38.82,0,0,0,3.57,16.63,42.38,42.38,0,0,0,9.69,13.06q11.94,11.32,29.79,11.32a41.08,41.08,0,0,0,22.7-6.52,42.63,42.63,0,0,0,15.66-18.37h16.32q-7.65,18.57-21.73,28.62t-32.54,10.05a55.48,55.48,0,0,1-41.37-17.5,58,58,0,0,1-17-41.88q0-25.5,16.52-42.28t42.44-16.78q25.1,0,41.17,17.44t16.06,45.19Zm-15.91-12.13q-4-18.67-15-28.31T653,100.5a43.19,43.19,0,0,0-15,2.55,38.32,38.32,0,0,0-12.65,7.75q-11.31,10.1-13.87,27.65Z" transform="translate(-62.34 -53.67)" style="fill:#231f20"/></svg>