<svg id="Layer_1" data-name="Layer 1" xmlns="http://www.w3.org/2000/svg" viewBox="0 0 727.82 265.6"><title>barcelona</title><path d="M234.17,149.66a4.76,4.76,0,0,1-.86,3.79,5,5,0,0,1-3.35,2.13q-7.08,1.3-13.88,2.78t-13.49,3.51v.74a71.38,71.38,0,0,1-4.79,25.17,94.82,94.82,0,0,1-10.14,19.8,97.6,97.6,0,0,1-10.53,13.33,173,173,0,0,1-22.88,19.15,184.94,184.94,0,0,1-27.08,15.82,133.63,133.63,0,0,1-12.44,5.46q-6.14,2.32-11.68,4a63.6,63.6,0,0,1-17,2.78,28.27,28.27,0,0,1-7.27-1,10.88,10.88,0,0,1-6.13-4.16q-3.63-5-.76-13.05t12.63-20.26q3.83-4.63,8-9.35t8.52-9q4.3-4.26,8.33-8t7.46-6.76a216.46,216.46,0,0,1,59.73-36.09q7.84-3.13,15.12-5.55a47.22,47.22,0,0,0-5.36-14.62,38.29,38.29,0,0,0-5.65-7.49,45.21,45.21,0,0,0-6.32-5.46,50.81,50.81,0,0,0-5.83-3.61q-2.69-1.39-4-2.13a46.9,46.9,0,0,0-15.6-4.44,68.7,68.7,0,0,0-14.65.09A63,63,0,0,0,121.62,120c-3.83,1.29-7.15,2.44-10,3.42-1.27.5-2.42.9-3.44,1.2s-2,.59-2.87.84a5.72,5.72,0,0,1-3.83-.56,4.58,4.58,0,0,1-2.3-3,4.73,4.73,0,0,1,.29-3.61,5,5,0,0,1,3-2.5q.75-.18,8.42-3.23a172.24,172.24,0,0,0,18.85-9.26,231.5,231.5,0,0,0,24-15.54A144.53,144.53,0,0,0,177.7,65.64,86,86,0,0,0,183.45,58a49,49,0,0,0,5.07-9.71A38.4,38.4,0,0,0,191,37.88a17.18,17.18,0,0,0-1.82-9.62,21.79,21.79,0,0,0-7.37-8,42.64,42.64,0,0,0-10-4.81A52,52,0,0,0,161,13.08q-5.44-.55-9.47-.55a102.27,102.27,0,0,0-14.26.65,139.31,139.31,0,0,0-14.84,2.5,142.48,142.48,0,0,0-14.83,4.16,136.61,136.61,0,0,0-14.07,5.64A91.62,91.62,0,0,0,73.67,37.61,137.33,137.33,0,0,0,59.21,51,107.49,107.49,0,0,0,49.93,62.4q-3.34,4.91-3.92,6a97.1,97.1,0,0,0-12.25,35.9,5.43,5.43,0,0,1-2,3.33,4.47,4.47,0,0,1-3.74.93,5.68,5.68,0,0,1-3.44-2,4.15,4.15,0,0,1-1-3.61A101.73,101.73,0,0,1,37,63.42c.64-1.11,2.2-3.51,4.69-7.22A99.06,99.06,0,0,1,52.13,43.62a120.6,120.6,0,0,1,36.76-27.2A146.11,146.11,0,0,1,104,10.49q7.84-2.58,15.89-4.44a120,120,0,0,1,31.58-3.51q17.42.18,29.38,5.55t17.52,15.36q6.12,11.65.38,27a79.86,79.86,0,0,1-5.46,11.1,67.59,67.59,0,0,1-7.56,10.55Q168.9,91.37,144,106.73a78.29,78.29,0,0,1,12.25,1.38,52.3,52.3,0,0,1,12.83,4.35c1,.62,2.61,1.48,4.79,2.59A55.06,55.06,0,0,1,181,119.5a49.17,49.17,0,0,1,14.35,15.91,51.87,51.87,0,0,1,6.32,16.47,204.71,204.71,0,0,1,26.42-6.11,5.5,5.5,0,0,1,3.92.74A4.52,4.52,0,0,1,234.17,149.66ZM96.35,54q-2.49,24.43-5.65,48.21t-7,46.91q-9,52.38-21.63,102.16c-.64,2.46-2.37,3.7-5.17,3.7a2.63,2.63,0,0,1-1.15-.19,4.35,4.35,0,0,1-3.16-2.12,5.26,5.26,0,0,1-.67-3.8q12.25-47,20.67-95.49T86,53.06a4.89,4.89,0,0,1,1.92-3.43,4.59,4.59,0,0,1,3.83-1,4.92,4.92,0,0,1,3.44,1.75A4.7,4.7,0,0,1,96.35,54ZM188,184.45a65.24,65.24,0,0,0,4.21-19.24q-39,13.5-68.53,38.86-3.25,2.77-7.08,6.38t-7.94,7.68q-4.12,4.06-8.23,8.61t-7.76,9q-7.27,8.88-10.14,15.18a10.75,10.75,0,0,0-1.15,3.05c-.13.8-.26,1.45-.38,1.94a2.2,2.2,0,0,0,0,1.3,3.39,3.39,0,0,1,.95.37,9.49,9.49,0,0,0,2.88.56q6.12.36,16.36-2.69a145.89,145.89,0,0,0,21.73-8.6,191.88,191.88,0,0,0,25.27-14.9,157,157,0,0,0,21.43-17.86,49,49,0,0,0,4-4.53c1.54-1.92,3.13-4.14,4.79-6.66s3.32-5.34,5-8.43A94.42,94.42,0,0,0,188,184.45Z" transform="translate(-23.53 -2.5)" style="fill:#231f20"/><path d="M324.71,145.22a3.75,3.75,0,0,1,1.82,2.77,4.64,4.64,0,0,1-.67,3.34,95.26,95.26,0,0,1-10.24,11.47,57.21,57.21,0,0,1-11,8.33q-8.42,5-15.5,5a17.38,17.38,0,0,1-7.66-1.66,13.19,13.19,0,0,1-4-3.52,15.14,15.14,0,0,1-2.68-7q-7.65,8.33-17,10.36c-.64.12-1.24.22-1.81.28a17.74,17.74,0,0,1-1.82.09,13.15,13.15,0,0,1-13.4-12.4,22.07,22.07,0,0,1,1-8.69,52.45,52.45,0,0,1,3.93-9.26,65.38,65.38,0,0,1,5.83-9q3.36-4.35,6.8-8,12.24-13.33,21.63-10.74a13.72,13.72,0,0,1,7.27,5.37c0-.12,0-.18.1-.18s.09-.07.09-.19a5.12,5.12,0,0,1,2.68-2.31,4,4,0,0,1,3.45.28,5,5,0,0,1,2.39,2.59,3.66,3.66,0,0,1-.28,3.33q-2.12,4.26-4,8.32t-4,8.33q-3.84,10-3.93,16.66t2.2,7.77a8.45,8.45,0,0,0,5.94.56,27,27,0,0,0,8-3.34,59.6,59.6,0,0,0,9.57-7.49,82.89,82.89,0,0,0,9-10.09,3.88,3.88,0,0,1,2.87-1.75A4.52,4.52,0,0,1,324.71,145.22Zm-51.87,6.11q.38-.75,1.05-1.86c.45-.74.86-1.48,1.24-2.22q1-2,2-4.16t2-4.53q.39-1.31,1-3.33a18.1,18.1,0,0,0,.67-4.08,8.44,8.44,0,0,0-.67-3.79,4,4,0,0,0-2.87-2.31h-.57a9.65,9.65,0,0,0-4.41,1.75,36.83,36.83,0,0,0-7.08,6.39,75.6,75.6,0,0,0-11.48,15.54q-4.22,7.78-3.83,12.59a5.55,5.55,0,0,0,.76,2.5,4.59,4.59,0,0,0,1.15,1.2,3.27,3.27,0,0,0,2,.74,10.89,10.89,0,0,0,2-.18,25.38,25.38,0,0,0,8.71-4.54A30.47,30.47,0,0,0,272.84,151.33Z" transform="translate(-23.53 -2.5)" style="fill:#231f20"/><path d="M370.27,121.53a4.09,4.09,0,0,1-1.44,3.15,4.49,4.49,0,0,1-3.54,1.11q-12.82-1.49-25,16t-19.62,43a4.17,4.17,0,0,1-1.43,2.31,3.74,3.74,0,0,1-2.4.84l-.38.18a4.1,4.1,0,0,1-4-2.4,13,13,0,0,1-.77-5.37q0-17.58,16.47-81.8a3.33,3.33,0,0,1,1.43-2.22,4.57,4.57,0,0,1,2.78-.92A4.4,4.4,0,0,1,336,97.1a3.9,3.9,0,0,1,.77,3.7q-7.27,28.7-11.48,48.49,7.84-14.81,17.51-23.5t20.58-8.7a16.89,16.89,0,0,1,2.87.18,4.55,4.55,0,0,1,2.87,1.39A4,4,0,0,1,370.27,121.53Z" transform="translate(-23.53 -2.5)" style="fill:#231f20"/><path d="M437.46,140.41a3.67,3.67,0,0,1-1.15,2.77q-36.75,35.53-57,35.53a18.13,18.13,0,0,1-10.15-3.14q-6.31-4.81-6.32-13.33,0-9.62,6.13-20.17a158.3,158.3,0,0,1,11.29-17.21,34.76,34.76,0,0,1,5.36-5.18,10.39,10.39,0,0,1,6.51-2.41,5.62,5.62,0,0,1,2.3.37q5.92,1.86,5.93,11.29a4.36,4.36,0,0,1-1.24,3.15,4.21,4.21,0,0,1-3.16,1.29,4.64,4.64,0,0,1-3.25-1.2,3.9,3.9,0,0,1-1.34-3,10.1,10.1,0,0,0-.2-2.59,16.22,16.22,0,0,0-4,3.7A112.18,112.18,0,0,0,377,146q-5.18,9.43-5.17,16.1c0,3.08,1,5.31,2.87,6.66a7.29,7.29,0,0,0,4.79,1.3q6.32,0,15.88-5.56a148.88,148.88,0,0,0,19-13.13,158.39,158.39,0,0,0,15.31-13.88,4.83,4.83,0,0,1,3.45-1.48,4,4,0,0,1,2.87,1.11A4.51,4.51,0,0,1,437.46,140.41Z" transform="translate(-23.53 -2.5)" style="fill:#231f20"/><path d="M494.5,146.33a3.92,3.92,0,0,1-1.15,3,196.25,196.25,0,0,1-23.26,19.43q-14.64,10.74-27.46,10.74a17.65,17.65,0,0,1-11.87-4.08q-6.9-6.1-6.89-17.39,0-12,7.46-25.54a57.1,57.1,0,0,1,11.58-14.62q6.79-6.1,13.88-6.11a24.77,24.77,0,0,1,3.45.37c3.18.86,5.42,2.12,6.7,3.78a8.32,8.32,0,0,1,1.91,5.08q0,7.56-11.29,16.88a194.7,194.7,0,0,1-24.7,17.25v2.76q0,7.38,3.83,10.89a9.91,9.91,0,0,0,6.13,2q8.42,0,21.34-8.79a154.6,154.6,0,0,0,22.68-18.6,4.15,4.15,0,0,1,3.26-1.3,4.65,4.65,0,0,1,3.06,1.11A4.25,4.25,0,0,1,494.5,146.33Zm-58.38-3.52a136.52,136.52,0,0,0,17-12.95q6.9-6.29,6.89-8.7a16.45,16.45,0,0,0-2.1-.55,2.66,2.66,0,0,0-1.15-.19q-3.82,0-8.71,4.53a47.39,47.39,0,0,0-8.9,11.76A57.7,57.7,0,0,0,436.12,142.81Z" transform="translate(-23.53 -2.5)" style="fill:#231f20"/><path d="M559,171.5a3.39,3.39,0,0,1-.77,2.22,50.48,50.48,0,0,1-5.84,7.68,54.15,54.15,0,0,1-12.53,10.36,32.59,32.59,0,0,1-17.61,4.91,36.55,36.55,0,0,1-6.13-.56q-14.36-2.78-21.82-15.82t-7.47-34.7a165.32,165.32,0,0,1,2.87-29.06,281.16,281.16,0,0,1,14.17-50.24q9.95-26.37,22.59-44.14T551,4.39a9.6,9.6,0,0,1,2.1.18,1.16,1.16,0,0,1,.77.19,12,12,0,0,1,8,7.77,19.48,19.48,0,0,1,1,6.66q0,21.84-22.72,62.27T496.8,152.81l-1,.92q2.12,30,21.89,33.87c2,.24,3.46.37,4.23.37a24.68,24.68,0,0,0,13.83-4.17,50.44,50.44,0,0,0,10.56-9.06c2.82-3.27,4.22-5.09,4.22-5.46a4.06,4.06,0,0,1,3.84-2,5.23,5.23,0,0,1,2.3.56A4.06,4.06,0,0,1,559,171.5ZM495.84,138a779.18,779.18,0,0,0,40.42-69q17.58-34,17.58-49a15.9,15.9,0,0,0-.57-4.62,5.17,5.17,0,0,0-1.93-2.41H551q-7.11,0-18,15.54T512.45,68.51A254.61,254.61,0,0,0,498.34,118,169.45,169.45,0,0,0,495.84,138Z" transform="translate(-23.53 -2.5)" style="fill:#231f20"/><path d="M619.69,122.27a4.55,4.55,0,0,1-1.53,3.33q-7.86,5.93-19,5.92a41.46,41.46,0,0,1-9.76-1.11c.26,2.47.39,4.32.39,5.56a95.72,95.72,0,0,1-1,12.58q-.76,5.55-5.17,14t-10.53,12.12a14.47,14.47,0,0,1-7.66,2.22,11.13,11.13,0,0,1-4.4-.74Q550,172.61,550,156.69c0-1.48.19-4.25.57-8.33a6.45,6.45,0,0,0,.2-1.66,35.21,35.21,0,0,1,4.3-12.59,41,41,0,0,1,9.57-12,18.91,18.91,0,0,1,12.54-5,11.49,11.49,0,0,1,7.66,3,40.06,40.06,0,0,0,14.35,2.78q8.24,0,13.21-4.08a5.66,5.66,0,0,1,2.87-.92,3.89,3.89,0,0,1,3.45,1.67A3.67,3.67,0,0,1,619.69,122.27ZM580.83,136q0-5.92-1.34-8.7c-.51-.25-1.6-.74-3.26-1.48-2.29.37-4.69,1.82-7.17,4.35a36.77,36.77,0,0,0-6.32,8.69,24.66,24.66,0,0,0-3,8.61,6.23,6.23,0,0,0-.19,1.85,52.26,52.26,0,0,0-.57,7.59q0,9.44,5,11.1a6.37,6.37,0,0,0,1.53.37,7.72,7.72,0,0,0,3.07-.92q4-2.6,7.46-9.53t3.83-10.46A67.16,67.16,0,0,0,580.83,136Z" transform="translate(-23.53 -2.5)" style="fill:#231f20"/><path d="M675,171.5a4.2,4.2,0,0,1-1.33,3.14,52.39,52.39,0,0,1-6.13,4.17,14,14,0,0,1-7.08,1.76,10.44,10.44,0,0,1-5.94-1.67q-3.82-2.42-5.26-8.14a110.93,110.93,0,0,1-2.39-15.92q-1-12-2.49-14.43-4.59,1.29-23.16,23.13-6.71,7.77-10,11.2a17.66,17.66,0,0,1-5.55,4.34,3.11,3.11,0,0,1-1.91.56,4.44,4.44,0,0,1-2.49-.93,3.69,3.69,0,0,1-1.92-3.88q1-9.06,7-33.22T613,115.42a4.22,4.22,0,0,1,1.62-2.4,4.54,4.54,0,0,1,2.78-.93,4.16,4.16,0,0,1,3.54,1.67,4.55,4.55,0,0,1,.86,3.7q-1.34,4.62-4.88,19t-6,25.81l3.45-4.25q12.24-14.25,18.85-20.36T645,131.52q5.74,0,7.76,5.56t3.15,17q.76,7.41,1.53,12c.51,3.09,1.22,4.94,2.11,5.55s2,.34,3.64-.46a20,20,0,0,0,4.4-2.87,4.23,4.23,0,0,1,3.06-1.11,4.5,4.5,0,0,1,3.26,1.3A4.35,4.35,0,0,1,675,171.5Z" transform="translate(-23.53 -2.5)" style="fill:#231f20"/><path d="M749.47,145.22a3.74,3.74,0,0,1,1.81,2.77,4.59,4.59,0,0,1-.67,3.34,95.26,95.26,0,0,1-10.24,11.47,56.85,56.85,0,0,1-11,8.33q-8.43,5-15.51,5a17.31,17.31,0,0,1-7.65-1.66,13.1,13.1,0,0,1-4-3.52,15.25,15.25,0,0,1-2.68-7q-7.65,8.33-17,10.36c-.64.12-1.25.22-1.82.28a17.46,17.46,0,0,1-1.82.09,13.15,13.15,0,0,1-13.4-12.4,22.27,22.27,0,0,1,1.06-8.69,51.65,51.65,0,0,1,3.92-9.26,65.46,65.46,0,0,1,5.84-9q3.35-4.35,6.79-8,12.26-13.33,21.63-10.74A13.71,13.71,0,0,1,712,121.9q0-.18.09-.18c.07,0,.1-.07.1-.19a5.08,5.08,0,0,1,2.68-2.31,4,4,0,0,1,3.44.28,5,5,0,0,1,2.4,2.59,3.66,3.66,0,0,1-.29,3.33q-2.11,4.26-4,8.32t-4,8.33q-3.83,10-3.92,16.66c-.07,4.44.67,7,2.2,7.77a8.43,8.43,0,0,0,5.93.56,27,27,0,0,0,8-3.34,59.6,59.6,0,0,0,9.57-7.49,82.89,82.89,0,0,0,9-10.09,3.89,3.89,0,0,1,2.87-1.75A4.55,4.55,0,0,1,749.47,145.22Zm-51.88,6.11c.25-.5.61-1.12,1-1.86s.86-1.48,1.25-2.22q1-2,2-4.16t2-4.53l1-3.33a18.68,18.68,0,0,0,.67-4.08,8.58,8.58,0,0,0-.67-3.79,4.06,4.06,0,0,0-2.88-2.31h-.57a9.62,9.62,0,0,0-4.4,1.75,36.54,36.54,0,0,0-7.09,6.39,75.6,75.6,0,0,0-11.48,15.54q-4.22,7.78-3.83,12.59a5.55,5.55,0,0,0,.77,2.5,4.29,4.29,0,0,0,1.15,1.2,3.22,3.22,0,0,0,2,.74,10.89,10.89,0,0,0,2-.18,25.29,25.29,0,0,0,8.71-4.54A30.34,30.34,0,0,0,697.59,151.33Z" transform="translate(-23.53 -2.5)" style="fill:#231f20"/></svg>