<svg id="Layer_1" data-name="Layer 1" xmlns="http://www.w3.org/2000/svg" viewBox="0 0 600.94 266.27"><title>freespirit</title><path d="M228.34,33.63a3.47,3.47,0,0,1,2.45,1.43,3.72,3.72,0,0,1,.63,2.79A3.67,3.67,0,0,1,230,40.36a3.6,3.6,0,0,1-2.8.69q-13.58-1.94-32-2.74t-43.37-.57c-4.72.07-9.26.25-13.64.51s-8.62.63-12.73,1.09q.12,10.5-.4,21.4T124,83.17c5.48-.31,11-.53,16.66-.69q8.79-.35,17.58-.45t17.58-.12a3.77,3.77,0,1,1,0,7.53h-.11q-8.68,0-17.41.12T140.9,90q-8.79.23-17.35.68c-.07,1.14-.13,2.32-.17,3.54s-.09,2.43-.17,3.65q-1.26,21.92-3.48,43.6t-5.54,43.38a3.81,3.81,0,0,1-1.25,2.28,3.51,3.51,0,0,1-2.4.91A1.35,1.35,0,0,1,110,188a3.69,3.69,0,0,1-2.51-1.43,3.59,3.59,0,0,1-.69-2.79q3.32-21.58,5.48-43.09t3.43-43.21c.07-1.06.13-2.13.17-3.19s.09-2.13.17-3.2l-7.13.46-7.14.46h-.23A3.73,3.73,0,0,1,99,91a3.5,3.5,0,0,1-1.2-2.46,3.56,3.56,0,0,1,.91-2.74,4.27,4.27,0,0,1,2.63-1.37l7.53-.45,7.65-.46q.57-11.42,1.08-22.2t.4-21.17q-9.24,1.24-17.18,2.73T86,45.84a1.25,1.25,0,0,0-.4.06,1.2,1.2,0,0,1-.4.06,3.7,3.7,0,0,1-2.34-.86A3.4,3.4,0,0,1,81.55,43,3.8,3.8,0,0,1,82,40.08a3.53,3.53,0,0,1,2.39-1.66q8.56-1.81,16-3.19t15-2.29q9.24-1.24,18.26-1.88t18-.85q25.33-.24,44,.57A319.66,319.66,0,0,1,228.34,33.63Z" transform="translate(-81.45 -3.06)" style="fill:#231f20"/><path d="M231.42,93.33a3.57,3.57,0,0,1,1.48,2.45,3.69,3.69,0,0,1-.69,2.8,3.57,3.57,0,0,1-2.45,1.48,3.69,3.69,0,0,1-2.8-.69,8.61,8.61,0,0,0-2.68-1.19,13.75,13.75,0,0,0-4.16-.63,15,15,0,0,0-11,4.68,15.36,15.36,0,0,0-3.54,6.28c-.46,1.44-.91,3.21-1.37,5.3s-.91,4.67-1.37,7.71q-1.94,11.54-3.08,23.28c-.08.76-.14,1.51-.17,2.23s-.1,1.43-.17,2.11a4.12,4.12,0,0,1-1.26,2.45,3.5,3.5,0,0,1-2.51,1h-.34a3.94,3.94,0,0,1-2.57-1.36,3.68,3.68,0,0,1-.86-2.74c.08-.69.15-1.49.23-2.4s.15-1.86.23-2.85a152,152,0,0,0-.4-21.63,134.09,134.09,0,0,0-3.82-21.86,4,4,0,0,1,.4-2.91,3.94,3.94,0,0,1,5.13-1.32,3.94,3.94,0,0,1,1.77,2.29c.46,1.75.87,3.5,1.26,5.25s.72,3.5,1,5.25a31.25,31.25,0,0,1,2.4-6.34,22,22,0,0,1,3.54-4.85,19.44,19.44,0,0,1,2.45-2.22,25.12,25.12,0,0,1,3.6-2.29,23.9,23.9,0,0,1,4.68-1.82,20.71,20.71,0,0,1,5.71-.74,22.37,22.37,0,0,1,6.16.91A15.46,15.46,0,0,1,231.42,93.33Z" transform="translate(-81.45 -3.06)" style="fill:#231f20"/><path d="M281.64,121.06a3.85,3.85,0,0,1,2.05,4.91,36.47,36.47,0,0,1-1.82,3.65,45.36,45.36,0,0,1-5.71,7.65,46.9,46.9,0,0,1-5,5q-2.64,2.24-5.25,4.06a36.63,36.63,0,0,1-7.88,4,26.11,26.11,0,0,1-9.13,1.6c-.69,0-1.43,0-2.23-.11a18,18,0,0,1-2.57-.46,19.25,19.25,0,0,1-11.3-8.1,23.27,23.27,0,0,1-4-10.51,31.81,31.81,0,0,1,.57-10.95,39.86,39.86,0,0,1,3.42-9.59,22.45,22.45,0,0,1,5.25-7,17.55,17.55,0,0,1,4.17-2.69,15.69,15.69,0,0,1,4.74-1.37,12.58,12.58,0,0,1,4.73.35,10.66,10.66,0,0,1,4.29,2.34,9,9,0,0,1,3,5.65,14.42,14.42,0,0,1-1.14,7.36q-3,6.84-12.67,13.35c-1.44.92-2.87,1.75-4.28,2.51s-2.72,1.45-3.94,2.06a14.6,14.6,0,0,0,5.2,7.3,12.17,12.17,0,0,0,8.84,2.06,21.32,21.32,0,0,0,5.94-1.54,28.73,28.73,0,0,0,5.25-2.86,41.33,41.33,0,0,0,4.45-3.53q2.06-1.89,3.65-3.6a38.16,38.16,0,0,0,4.74-6.28c.87-1.6,1.46-2.66,1.77-3.19a3.42,3.42,0,0,1,2-2.06A3.86,3.86,0,0,1,281.64,121.06Zm-45,2.28c-.08.46-.16,1-.23,1.55s-.16,1.16-.23,1.76c.76-.38,1.54-.79,2.34-1.25a27.51,27.51,0,0,0,2.45-1.6,41.37,41.37,0,0,0,6.34-5.08,15.17,15.17,0,0,0,3.48-4.85,15.64,15.64,0,0,0,.63-2.28,2.34,2.34,0,0,0-.63-2.28,3.49,3.49,0,0,0-2.17-.69,7.73,7.73,0,0,0-2.91.63,11,11,0,0,0-2.8,1.65,17.41,17.41,0,0,0-3.42,4.68A29.84,29.84,0,0,0,236.67,123.34Z" transform="translate(-81.45 -3.06)" style="fill:#231f20"/><path d="M327.52,121.06a3.85,3.85,0,0,1,2.06,4.91,40.38,40.38,0,0,1-1.83,3.65,45.36,45.36,0,0,1-5.71,7.65,46.9,46.9,0,0,1-5,5q-2.62,2.24-5.25,4.06a36.63,36.63,0,0,1-7.88,4,26.07,26.07,0,0,1-9.13,1.6c-.68,0-1.42,0-2.22-.11a17.71,17.71,0,0,1-2.57-.46,19.22,19.22,0,0,1-11.3-8.1,23.17,23.17,0,0,1-4-10.51,32.32,32.32,0,0,1,.57-10.95,39.88,39.88,0,0,1,3.43-9.59,22.15,22.15,0,0,1,5.25-7,17.29,17.29,0,0,1,4.16-2.69,15.69,15.69,0,0,1,4.74-1.37,12.64,12.64,0,0,1,4.74.35,10.62,10.62,0,0,1,4.28,2.34,9.09,9.09,0,0,1,3,5.65,14.63,14.63,0,0,1-1.14,7.36q-3,6.84-12.67,13.35c-1.45.92-2.88,1.75-4.29,2.51s-2.72,1.45-3.93,2.06a14.52,14.52,0,0,0,5.19,7.3,12.21,12.21,0,0,0,8.85,2.06,21.34,21.34,0,0,0,5.93-1.54,28.73,28.73,0,0,0,5.25-2.86,41.33,41.33,0,0,0,4.45-3.53q2.06-1.89,3.66-3.6a38,38,0,0,0,4.73-6.28c.88-1.6,1.47-2.66,1.77-3.19a3.45,3.45,0,0,1,2-2.06A3.86,3.86,0,0,1,327.52,121.06Zm-45,2.28c-.08.46-.15,1-.23,1.55s-.15,1.16-.23,1.76c.76-.38,1.54-.79,2.34-1.25a27.61,27.61,0,0,0,2.46-1.6,41.26,41.26,0,0,0,6.33-5.08,15.17,15.17,0,0,0,3.48-4.85,15.64,15.64,0,0,0,.63-2.28,2.34,2.34,0,0,0-.63-2.28,3.49,3.49,0,0,0-2.17-.69,7.73,7.73,0,0,0-2.91.63,11,11,0,0,0-2.79,1.65,17.41,17.41,0,0,0-3.43,4.68A29.84,29.84,0,0,0,282.55,123.34Z" transform="translate(-81.45 -3.06)" style="fill:#231f20"/><path d="M377.29,119.35a3.68,3.68,0,0,1,1.88,2.17,3.89,3.89,0,0,1-.06,2.85,37.23,37.23,0,0,1-5.25,8.11q-3.19,3.77-6.51,7.07a40.41,40.41,0,0,1-5,4.23c-1.44,1-2.93,1.94-4.45,2.85a60.76,60.76,0,0,0-5.88,3.88q-2.91,2.18-5.65,4.45c1.07,1.52,2,2.86,2.69,4s1.5,2.47,2.34,4a28.46,28.46,0,0,1,2.85,5.71,44.36,44.36,0,0,1,1.83,6.39,48.37,48.37,0,0,1,.34,6,14,14,0,0,1-1.49,6.34,14.64,14.64,0,0,1-5.93,6.33,16.48,16.48,0,0,1-8.45,2.34c-.38,0-.74,0-1.08-.05s-.71-.1-1.09-.18a15.32,15.32,0,0,1-7.7-2.85,18.7,18.7,0,0,1-3.94-4.11,17.84,17.84,0,0,1-1.77-4.11,17.09,17.09,0,0,1-.63-4.79,31.12,31.12,0,0,1,1.6-9.93,40.77,40.77,0,0,1,9.59-15.3,6.48,6.48,0,0,0,.8-.91,63.76,63.76,0,0,1-4-6.85,86.58,86.58,0,0,1-3.88-8.79q-.92-2.28-1.77-5.08t-1.48-5.76a39.28,39.28,0,0,1-.8-6,23.8,23.8,0,0,1,.4-5.94,25.94,25.94,0,0,1,4.45-11.18,15.13,15.13,0,0,1,11.07-5.94,13.64,13.64,0,0,1,6.51,1.14,14.86,14.86,0,0,1,5.36,4.11,17.3,17.3,0,0,1,3.66,8.79,30.3,30.3,0,0,1-.92,12,3.55,3.55,0,0,1-4.56,2.74,3.33,3.33,0,0,1-2.34-1.66,4,4,0,0,1-.4-2.91,23.74,23.74,0,0,0,.91-8.27,10.81,10.81,0,0,0-2.17-5.88,6.22,6.22,0,0,0-5.59-2.51q-6.86.35-8.56,11a22.78,22.78,0,0,0,.11,7.48,55.86,55.86,0,0,0,2.12,8.5,67.37,67.37,0,0,0,3.48,8.56A84.07,84.07,0,0,0,342,148.8a34,34,0,0,1,5.65-4.57q3-1.93,6.33-4.11,2.06-1.25,3.88-2.45a27,27,0,0,0,4.11-3.48q2.85-2.85,5.65-6.05a31.43,31.43,0,0,0,4.62-7,3.67,3.67,0,0,1,2.11-1.89A4.09,4.09,0,0,1,377.29,119.35Zm-29.23,64.72a8.85,8.85,0,0,0,1-4.23,20.83,20.83,0,0,0-.51-4.56,21.34,21.34,0,0,0-1.54-4.45c-.69-1.45-1.37-2.78-2.06-4l-2.05-3.48a39.05,39.05,0,0,0-2.17-3.25,49.64,49.64,0,0,0-4.45,5.65,25.44,25.44,0,0,0-3.2,6.56q-2.62,8.34,0,12.56,1.83,2.85,6.28,3.54a9.09,9.09,0,0,0,5.14-.86A7,7,0,0,0,348.06,184.07Z" transform="translate(-81.45 -3.06)" style="fill:#231f20"/><path d="M467.91,126.54a3.66,3.66,0,0,1,1.89,2.17,3.57,3.57,0,0,1-.17,2.85c-.61,1.3-1.24,2.51-1.89,3.66s-1.39,2.33-2.22,3.59-1.85,2.65-3,4.17-2.64,3.31-4.39,5.36a78,78,0,0,1-6.79,7.25,81.48,81.48,0,0,1-7.19,6q-3.72,2.74-7.71,5.14t-8.33,4.68a104.07,104.07,0,0,1-22.94,9,105.81,105.81,0,0,1-17.92,3h-.35q.57,10.62.8,18.21t.23,12.84q0,5.25-.17,8.62c-.11,2.24-.25,4.12-.4,5.65q-.22,3.08-.63,6.56t-.85,7c-.31,2.32-.67,4.61-1.09,6.85s-.89,4.32-1.43,6.22a30.4,30.4,0,0,1-4,9.36,9.44,9.44,0,0,1-4.11,3.83,10.53,10.53,0,0,1-3.77.85,5.42,5.42,0,0,1-4.22-1.94,8.6,8.6,0,0,1-1.88-3.71,31.32,31.32,0,0,1-.86-6.1,58.75,58.75,0,0,1-.17-6c0-2.24.13-4.77.29-7.59q.45-7.53,1.25-15.46t1.6-14.67q1.48-12.45,3.42-24.77t4.45-24.43c.38-1.82.75-3.65,1.09-5.48s.7-3.61,1.08-5.36q-.33-5.48-.8-11.41t-1.19-11.82q-.75-5.88-2-11.41a64.39,64.39,0,0,0-3.08-10,3.75,3.75,0,0,1,2.17-4.91,3.86,3.86,0,0,1,2.91,0,3.44,3.44,0,0,1,2,2.06A81.69,81.69,0,0,1,380.94,118q1.37,6.28,2.28,12.9c.15-.69.32-1.43.51-2.23s.4-1.54.63-2.22a45.48,45.48,0,0,1,4.62-8.68,35.51,35.51,0,0,1,6-6.73,22.45,22.45,0,0,1,7-4.28,13.24,13.24,0,0,1,6.9-.74,15.13,15.13,0,0,1,5.42,2.11q3,1.77,5.54,6.67a21.75,21.75,0,0,1,2.23,5.43c.41,1.71.7,2.83.85,3.36q2.28,13.13-3.65,27.4a64.59,64.59,0,0,1-6.45,11.81,59.45,59.45,0,0,1-8.5,9.87l-.23.23a91.44,91.44,0,0,0,20.43-8.1,109,109,0,0,0,15.87-10.16,96.92,96.92,0,0,0,10.95-9.93,63.83,63.83,0,0,0,7.14-9c1.78-2.81,3.21-5.29,4.28-7.42a3.82,3.82,0,0,1,2.22-1.94A3.9,3.9,0,0,1,467.91,126.54ZM379.91,228c.08-1.37.17-3.12.29-5.25s.17-4.89.17-8.27-.08-7.54-.23-12.45-.42-10.86-.8-17.86q-1.26,7.2-2.34,14.78t-2,15.81q-.79,6.51-1.6,14.16t-1.25,14.83q-.22,4-.29,7c0,2,0,3.65,0,5s.12,2.49.23,3.37a12,12,0,0,0,.4,2,11,11,0,0,0,1.66-2.51,26.07,26.07,0,0,0,1.88-5.36,96,96,0,0,0,2.4-12.33Q379.35,234.06,379.91,228Zm19.4-60.95a48.31,48.31,0,0,0,7.14-8.27,59,59,0,0,0,5.76-10.45,49.42,49.42,0,0,0,3.37-11.58,35.25,35.25,0,0,0-.06-11.82,22.58,22.58,0,0,0-.85-3.25,26.6,26.6,0,0,0-1.54-3.65A12.35,12.35,0,0,0,410.9,115a5.2,5.2,0,0,0-3-1.55,7.56,7.56,0,0,0-3.89.69A16,16,0,0,0,399.6,117a29.6,29.6,0,0,0-4.39,5.08,35.17,35.17,0,0,0-3.77,7q-1.26,4.57-2.85,10.9c-1.07,4.22-2.21,9.08-3.43,14.55,0,.62,0,1.16.06,1.66s.09,1.05.17,1.66c.07,2.43.19,4.71.34,6.84.15,2,.27,3.88.34,5.71s.19,3.61.35,5.37A55.14,55.14,0,0,0,399.31,167.06Z" transform="translate(-81.45 -3.06)" style="fill:#231f20"/><path d="M501.36,127.34a3.28,3.28,0,0,1,1.76,2.22,3.67,3.67,0,0,1-.28,2.8c-.69,1.22-1.33,2.38-1.94,3.48s-1.22,2.19-1.83,3.26q-2.06,3.87-3.19,6.05c-.76,1.44-1.43,2.66-2,3.65s-1.14,1.9-1.71,2.74-1.35,1.9-2.34,3.19c-.69.84-1.43,1.72-2.23,2.63a18.82,18.82,0,0,1-2.68,2.51,13.59,13.59,0,0,1-3.2,1.83,9.87,9.87,0,0,1-3.65.68,10.67,10.67,0,0,1-3.2-.46q-4.68-1.36-6-6.84a20.48,20.48,0,0,1-.52-4.23c0-1.52-.1-3.27-.17-5.25v-2.28l1-29.68a3.37,3.37,0,0,1,1.14-2.62,3.92,3.92,0,0,1,2.74-1,3.77,3.77,0,0,1,2.62,1.26,3.92,3.92,0,0,1,1,2.73l-1,29.45v3.94q0,1.42.12,3a16,16,0,0,0,.45,2.85c.23.88.54,1.39.92,1.54a3.54,3.54,0,0,0,.85.17,2.45,2.45,0,0,0,1.32-.34,8.78,8.78,0,0,0,1.88-1.37,23.16,23.16,0,0,0,2.68-3c.91-1.22,1.62-2.19,2.11-2.91a26.58,26.58,0,0,0,1.49-2.46c.49-.91,1.1-2.07,1.82-3.48s1.77-3.37,3.14-5.88c.61-1.06,1.22-2.15,1.83-3.25s1.25-2.26,1.94-3.48a3.67,3.67,0,0,1,2.28-1.77A3.62,3.62,0,0,1,501.36,127.34ZM474,91.5a3.71,3.71,0,0,1-2.34-1.77,3.79,3.79,0,0,1-.4-2.8l2.17-8.9a3.73,3.73,0,0,1,1.77-2.34,3.79,3.79,0,0,1,2.8-.4,4,4,0,0,1,2.39,1.77A3.54,3.54,0,0,1,480.7,80l-2.17,8.79A3.85,3.85,0,0,1,476.81,91,3.22,3.22,0,0,1,474,91.5Z" transform="translate(-81.45 -3.06)" style="fill:#231f20"/><path d="M540.5,93.33A3.58,3.58,0,0,1,542,95.78a3.69,3.69,0,0,1-.69,2.8,3.57,3.57,0,0,1-2.45,1.48,3.69,3.69,0,0,1-2.8-.69,8.61,8.61,0,0,0-2.68-1.19,13.77,13.77,0,0,0-4.17-.63,15,15,0,0,0-11,4.68,15.36,15.36,0,0,0-3.54,6.28q-.69,2.16-1.37,5.3c-.46,2.1-.91,4.67-1.37,7.71q-2,11.54-3.08,23.28c-.08.76-.14,1.51-.17,2.23s-.1,1.43-.18,2.11a4.11,4.11,0,0,1-1.25,2.45,3.51,3.51,0,0,1-2.51,1h-.34a3.94,3.94,0,0,1-2.57-1.36,3.64,3.64,0,0,1-.86-2.74c.08-.69.15-1.49.23-2.4s.15-1.86.23-2.85a153.44,153.44,0,0,0-.4-21.63,134.09,134.09,0,0,0-3.82-21.86,4,4,0,0,1,.39-2.91A3.37,3.37,0,0,1,500,95.15a3.32,3.32,0,0,1,2.8.34,4,4,0,0,1,1.77,2.29c.46,1.75.87,3.5,1.26,5.25s.72,3.5,1,5.25a31.25,31.25,0,0,1,2.4-6.34,22,22,0,0,1,3.54-4.85,19.44,19.44,0,0,1,2.45-2.22,25.12,25.12,0,0,1,3.6-2.29,23.9,23.9,0,0,1,4.68-1.82,20.69,20.69,0,0,1,5.7-.74,22.38,22.38,0,0,1,6.17.91A15.31,15.31,0,0,1,540.5,93.33Z" transform="translate(-81.45 -3.06)" style="fill:#231f20"/><path d="M582.85,127.34a3.32,3.32,0,0,1,1.77,2.22,3.67,3.67,0,0,1-.29,2.8l-1.94,3.48c-.61,1.11-1.21,2.19-1.82,3.26q-2.05,3.87-3.2,6.05c-.76,1.44-1.43,2.66-2,3.65s-1.14,1.9-1.71,2.74-1.35,1.9-2.34,3.19c-.68.84-1.42,1.72-2.22,2.63a18.9,18.9,0,0,1-2.69,2.51,13.53,13.53,0,0,1-3.19,1.83,9.87,9.87,0,0,1-3.65.68,10.62,10.62,0,0,1-3.2-.46q-4.68-1.36-6-6.84a19.84,19.84,0,0,1-.51-4.23q-.06-2.28-.18-5.25v-2.28l1-29.68A3.37,3.37,0,0,1,551.8,111a3.94,3.94,0,0,1,2.74-1,3.79,3.79,0,0,1,2.63,1.26,4,4,0,0,1,1,2.73l-1,29.45v3.94c0,.95,0,1.94.11,3a16,16,0,0,0,.46,2.85c.23.88.53,1.39.91,1.54a3.63,3.63,0,0,0,.86.17,2.42,2.42,0,0,0,1.31-.34,8.78,8.78,0,0,0,1.88-1.37,23.1,23.1,0,0,0,2.69-3c.91-1.22,1.61-2.19,2.11-2.91A26.61,26.61,0,0,0,569,144.8c.5-.91,1.1-2.07,1.83-3.48s1.77-3.37,3.14-5.88c.61-1.06,1.21-2.15,1.82-3.25l1.94-3.48a3.72,3.72,0,0,1,2.29-1.77A3.59,3.59,0,0,1,582.85,127.34ZM555.46,91.5a3.68,3.68,0,0,1-2.34-1.77,3.74,3.74,0,0,1-.4-2.8l2.17-8.9a3.78,3.78,0,0,1,4.56-2.74,4,4,0,0,1,2.4,1.77,3.54,3.54,0,0,1,.34,2.91L560,88.76A3.87,3.87,0,0,1,558.31,91,3.22,3.22,0,0,1,555.46,91.5Z" transform="translate(-81.45 -3.06)" style="fill:#231f20"/><path d="M678.73,46A3.65,3.65,0,0,1,681.41,47a3.29,3.29,0,0,1,1,2.68,3.69,3.69,0,0,1-3.77,3.77q-11-.23-26.08,0t-32,1.71q-3.66,9.25-8.39,19.41T601.34,96.52q-.23,5.72-.4,11.7t-.4,12.5q-.12,10.85.34,18.49a106.11,106.11,0,0,0,1.72,14c.6,2.89,1.31,5.72,2.11,8.5a51.54,51.54,0,0,0,2.68,7.37,25,25,0,0,0,2.17,3.82,19.11,19.11,0,0,0,1.82,2.23,6.64,6.64,0,0,0,1.32,1.08,1.81,1.81,0,0,0,.74.28,10.93,10.93,0,0,0,5.94-.91,44.48,44.48,0,0,0,5.3-2.51,27,27,0,0,0,5.65-4.22c2.51-2.29,4.8-4.45,6.85-6.51a68.4,68.4,0,0,0,6.16-7.13,114.36,114.36,0,0,0,6.51-9.65q3.42-5.58,7.88-13.92a3.87,3.87,0,0,1,2.28-1.83,3.89,3.89,0,0,1,4.68,2.51,3.74,3.74,0,0,1-.23,2.86q-4.68,8.55-8.27,14.43a122.44,122.44,0,0,1-6.85,10.16,79.23,79.23,0,0,1-6.57,7.65q-3.3,3.36-7.3,6.91-6.63,5.92-11.93,7.87a27,27,0,0,1-8.85,1.94c-.45,0-.89,0-1.31-.05a10.79,10.79,0,0,1-1.2-.18q-6.73-1.24-11.52-11.64a58.85,58.85,0,0,1-3.6-9.81c-.88-3.28-1.5-5.9-1.88-7.88a122.89,122.89,0,0,1-1.77-14.73q-.51-8-.4-19.29.22-6.72.4-12.95t.51-12.16v-.34q.57-10.28,1.49-19.35t2.16-17.86q-8.1,1.26-17,3.08t-19.23,4.45a1.25,1.25,0,0,0-.4.06,1.16,1.16,0,0,1-.4.06,3.89,3.89,0,0,1-2.34-.8,3.67,3.67,0,0,1-1.42-2.05,3.88,3.88,0,0,1,.45-2.92,3.55,3.55,0,0,1,2.4-1.65q11.19-2.74,20.83-4.74t18.32-3.36q.34-2.18.91-5.37t1.43-7q.86-3.82,1.94-8.22c.72-2.93,1.58-5.91,2.57-9q.8-2.51,2.17-5.7a28.66,28.66,0,0,1,3.42-5.94c2-2.81,3.94-4.53,5.88-5.14a11.12,11.12,0,0,1,5-.57A9.34,9.34,0,0,1,629,7.83,15.2,15.2,0,0,1,630.85,13a25.77,25.77,0,0,1,.34,5.93,45,45,0,0,1-.8,6.23Q629.76,28.27,629,31q-1.14,4-2.51,8t-3,8.34q16.1-1.26,30.42-1.43T678.73,46ZM605.33,56.8q-.68,4.8-1.31,9.7t-1.2,10q5.25-11,9.25-20.55c-1.07.15-2.17.29-3.31.4S606.48,56.65,605.33,56.8Zm7.54-34a138,138,0,0,0-4,14.66q-1.49,7-2.28,11.59c.84-.15,1.66-.27,2.45-.34l2.46-.23,3.77-.34q1.93-5.15,3.53-9.88c1.07-3.15,2-6.26,2.86-9.3a42.35,42.35,0,0,0,2-11.36c0-2.77-.4-4.7-1.09-5.76a2.29,2.29,0,0,0-1.94-1.26c-.91,0-2,.88-3.2,2.63A28.24,28.24,0,0,0,615,17.36,37.69,37.69,0,0,0,612.87,22.79Z" transform="translate(-81.45 -3.06)" style="fill:#231f20"/></svg>