<svg id="Layer_1" data-name="Layer 1" xmlns="http://www.w3.org/2000/svg" viewBox="0 0 774.05 159.18"><title>lovenote</title><path d="M158,152.6q-5.46,10.46-12.16,21.12a126.53,126.53,0,0,1-14.65,19.2,75.33,75.33,0,0,1-17.38,14,39.89,39.89,0,0,1-20.33,5.46,68.92,68.92,0,0,1-13.84-1.48,40.18,40.18,0,0,1-14.79-6.7,23.08,23.08,0,0,1-17.94,8.18c-5.46,0-9.92-1-13.41-3.07a9.82,9.82,0,0,1-5.22-9q0-5.67,5.45-10.1a20.51,20.51,0,0,1,13.4-4.43,16.94,16.94,0,0,1,7.27,1.7,83.4,83.4,0,0,1,7.73,4.2,66.38,66.38,0,0,0,5.68-19q1.82-11.23,3-24a100.94,100.94,0,0,1-19.2,15.78q-10.56,6.71-21,6.71a33.43,33.43,0,0,1-11.25-1.82,27.08,27.08,0,0,1-8.86-5.11,22.85,22.85,0,0,1-5.79-7.84,23.56,23.56,0,0,1-2-9.77A4.35,4.35,0,0,1,4,143.51a4.4,4.4,0,0,1,6.36,0,4.35,4.35,0,0,1,1.36,3.18,13.78,13.78,0,0,0,1.71,7,14,14,0,0,0,4.43,4.77A20.05,20.05,0,0,0,24,161.23a25.36,25.36,0,0,0,6.59.91,30.52,30.52,0,0,0,11.36-2.27,44.9,44.9,0,0,0,10.9-6.36,77.25,77.25,0,0,0,10-9.43,103.07,103.07,0,0,0,8.86-11.47q.45-16.14.68-30.56t1.25-25.22q1-10.78,3.75-17.15t8.18-6.36A8.48,8.48,0,0,1,93,57.52q2.73,4.21,2.73,13.29,0,38.4-15,64.75-.24,8.87-1,17.61T77.49,170Q76.1,178,74.24,184.86a57.1,57.1,0,0,1-4.4,11.58,49.43,49.43,0,0,0,12.79,5.91,42.92,42.92,0,0,0,11.29,1.59,33,33,0,0,0,17.38-4.88A63.41,63.41,0,0,0,126.41,186a121.15,121.15,0,0,0,13.17-18.85q6.13-10.68,12-22.27a4.39,4.39,0,0,1,4.08-2.5,3.88,3.88,0,0,1,3.07,1.48,5,5,0,0,1,1.25,3.3,7.93,7.93,0,0,1-.23,1.47A20.83,20.83,0,0,1,158,152.6ZM47.12,194.85A11.26,11.26,0,0,0,40,196.9c-1.75,1.36-2.62,2.5-2.62,3.4a2.87,2.87,0,0,0,1.14,1.6,13.85,13.85,0,0,0,2.84.9,25.36,25.36,0,0,0,5.57.46,13.57,13.57,0,0,0,10-4.09q-3-1.81-5.45-3.07A10.07,10.07,0,0,0,47.12,194.85Zm38.44-132a33.21,33.21,0,0,0-1.3,3.86A59.61,59.61,0,0,0,82.73,77q-.65,6.81-1,15.79t-.32,18.74a122.82,122.82,0,0,0,3.81-18.06,164.71,164.71,0,0,0,1.41-22.61,34.51,34.51,0,0,0-.32-5.45A7.67,7.67,0,0,0,85.56,62.86Z" transform="translate(-2.6 -53.17)" style="fill:#231f20"/><path d="M144.36,172.82a63.63,63.63,0,0,1,.79-9.2,59.73,59.73,0,0,1,2.39-10.11,38.6,38.6,0,0,1,3.63-8.07q2-3.28,4.77-3.29a4,4,0,0,1,3.07,1.36,4.86,4.86,0,0,1,1.25,3.41,3.32,3.32,0,0,1-.68,2,34.82,34.82,0,0,0-4.32,11.25,63.09,63.09,0,0,0-1.36,13.06,63.74,63.74,0,0,0,.79,9.54,35.89,35.89,0,0,0,2.84,9.66,21.5,21.5,0,0,0,5.68,7.49,13.92,13.92,0,0,0,9.32,3.07,11.4,11.4,0,0,0,9.2-4.66,39,39,0,0,0,6.13-11.13,66.46,66.46,0,0,0,3.41-13.52,84.81,84.81,0,0,0,1-11.81q-4.09-.67-9-1.59a40,40,0,0,1-9.2-2.84,23.79,23.79,0,0,1-7.5-5.22,12.6,12.6,0,0,1-3.41-8.52,12.47,12.47,0,0,1,4.89-10.11,18.15,18.15,0,0,1,19.76-1.91,20.1,20.1,0,0,1,6.36,5.5,29.62,29.62,0,0,1,4.2,7.8,46.65,46.65,0,0,1,2.28,8.71h3.18a39.51,39.51,0,0,0,12.26-1.7,47.73,47.73,0,0,0,9-3.86q3.75-2.16,6.25-3.86a7.9,7.9,0,0,1,4.08-1.71,4.35,4.35,0,0,1,3.07,1.48,4.59,4.59,0,0,1,1.48,3.29,4.77,4.77,0,0,1-1.59,3.41,36.38,36.38,0,0,1-8.52,5.95,52.35,52.35,0,0,1-9.54,3.66,66.22,66.22,0,0,1-9.77,1.88,81.79,81.79,0,0,1-9.2.55,89.14,89.14,0,0,1-1.48,14.88,71.49,71.49,0,0,1-4.77,16.13,39.38,39.38,0,0,1-8.86,12.95,19.08,19.08,0,0,1-13.74,5.34,22.22,22.22,0,0,1-12.84-3.64,29.09,29.09,0,0,1-8.75-9.42,44.64,44.64,0,0,1-5-12.73A60.3,60.3,0,0,1,144.36,172.82Zm27.94-29.31a4.87,4.87,0,0,0,2.16,4.09,18.6,18.6,0,0,0,5.22,2.61,35.71,35.71,0,0,0,6.25,1.48c2.12.3,3.94.61,5.45.91a29.3,29.3,0,0,0-1.36-4.66,22.28,22.28,0,0,0-2.27-4.43,11.81,11.81,0,0,0-3.52-3.41,9,9,0,0,0-4.89-1.36,8.66,8.66,0,0,0-5.11,1.36A4.05,4.05,0,0,0,172.3,143.51Z" transform="translate(-2.6 -53.17)" style="fill:#231f20"/><path d="M319.51,144a4.13,4.13,0,0,1,1.36,3,4.78,4.78,0,0,1-1.59,3.41,51.33,51.33,0,0,1-14.42,9.2,40.57,40.57,0,0,1-15.79,3.29,50,50,0,0,1-10.23-.91,39.43,39.43,0,0,1-.79,5.34q-.8,4.2-2.27,9.77T272,188.72a78.62,78.62,0,0,1-5.23,11.36,34.44,34.44,0,0,1-6.7,8.63,12.06,12.06,0,0,1-8.29,3.41,10.55,10.55,0,0,1-7.84-3.41,26.61,26.61,0,0,1-5.45-9A73.55,73.55,0,0,1,235,187.13q-1.37-7-2.16-14.31t-1-14.09q-.23-6.81-.46-12a4.81,4.81,0,0,1,1.14-3.18,4.48,4.48,0,0,1,3.64-1.36,4.27,4.27,0,0,1,4.31,4.31q.23,6.14,1,15.68t2.16,18.63a118.89,118.89,0,0,0,3.3,15.67c1.28,4.4,2.84,6.59,4.65,6.59,1.37,0,2.8-.91,4.32-2.73a34.45,34.45,0,0,0,4.32-6.92,98.35,98.35,0,0,0,3.86-9.21q1.82-5,3.07-9.76t2-8.64a31.31,31.31,0,0,0,.79-5.68q-3.18-.9-6.47-2.15a24.4,24.4,0,0,1-5.79-3.07,14.19,14.19,0,0,1-4.09-4.66,14,14,0,0,1-1.59-6.93,15.39,15.39,0,0,1,3.18-9.31,10.37,10.37,0,0,1,8.86-4.32,12.45,12.45,0,0,1,11.7,6.82,33.42,33.42,0,0,1,3.75,16.35,29,29,0,0,0,3.63.69,38.24,38.24,0,0,0,4.55.22,39.63,39.63,0,0,0,12.83-2.38,35.7,35.7,0,0,0,12.61-7.61,4.12,4.12,0,0,1,3-1.37A4.82,4.82,0,0,1,319.51,144Zm-58.38-.9q0,3.85,3.06,5.33a38.41,38.41,0,0,0,6.25,2.39,32.48,32.48,0,0,0-.23-3.41,17.46,17.46,0,0,0-.91-4,10.66,10.66,0,0,0-1.81-3.3,3.91,3.91,0,0,0-3.18-1.36,2.64,2.64,0,0,0-2.39,1.25A5.61,5.61,0,0,0,261.13,143.06Z" transform="translate(-2.6 -53.17)" style="fill:#231f20"/><path d="M392.2,142.83a5,5,0,0,1,2.5,2.61,4.13,4.13,0,0,1-.22,3.52q-2.5,5.46-7.84,15.34t-12.84,21a104.73,104.73,0,0,1-8.06,10.45,71.9,71.9,0,0,1-8.07,8q-9.76,8.41-18.85,8.41h-1.14q-11.13-.69-18.17-12.5a41,41,0,0,1-4-8.4q-1.25-3.87-1.7-5.68a89.56,89.56,0,0,1-2.5-14.54,90.82,90.82,0,0,1-.23-14.31,72.9,72.9,0,0,1,1.82-12.38,27.9,27.9,0,0,1,3.86-9.21,9.79,9.79,0,0,1,4-4.2,25.77,25.77,0,0,1,3.74-1.48,14.16,14.16,0,0,1,6.37.57,16,16,0,0,1,5.9,3.52,25.86,25.86,0,0,1,6.48,9.09,25.16,25.16,0,0,1,2.16,11.13A37,37,0,0,1,338.82,173a49.6,49.6,0,0,1-6,7.5,86.55,86.55,0,0,1-8.75,7.72c.6,1.37,1.32,2.88,2.16,4.55a31,31,0,0,0,3,4.77,15.72,15.72,0,0,0,4,3.75,10.66,10.66,0,0,0,5,1.7q5.67.47,13.06-5.68t15.11-17.26a227.46,227.46,0,0,0,12.38-20.22q5.1-9.54,7.61-14.77a5,5,0,0,1,2.5-2.5A3.92,3.92,0,0,1,392.2,142.83Zm-67.92-2.73a26.55,26.55,0,0,0-2.5,6.14,46.08,46.08,0,0,0-1.59,9,77,77,0,0,0-.12,11.13,96.72,96.72,0,0,0,1.48,12.16q7.72-6.6,11-12.5a30.08,30.08,0,0,0,3.75-12.72,15.1,15.1,0,0,0-1.36-7,17.42,17.42,0,0,0-4.09-5.91c-.46-.3-1.07-.72-1.82-1.25a4.26,4.26,0,0,0-2.5-.79,1.62,1.62,0,0,0-1.25.68C324.92,139.42,324.58,139.8,324.28,140.1Z" transform="translate(-2.6 -53.17)" style="fill:#231f20"/><path d="M492.16,212.12q-8.64,0-15-7.73T465.81,179q-2.51-8.62-4.43-19t-3.52-21q-1.61-10.68-3.07-21.13T452,98.53q-1.36-8.86-2.84-15.34A40.34,40.34,0,0,0,446,73.77q-1.82,1.59-6.58,9.54T429,107.39q-3.4,9.54-7,21.24t-7.5,24.76q-3.85,13.06-7.61,27.15t-7.38,28.63a4.42,4.42,0,0,1-4.54,3.18c-2.43,0-3.86-1.14-4.32-3.41a83.5,83.5,0,0,1-1.93-10.57q-.8-6.24-1.25-13.74t-.68-15.9q-.22-8.4-.23-17,0-19.31.91-36.69t2.73-30.56q1.13-8.18,2.27-13.29a59.45,59.45,0,0,1,2.27-8.06,32.65,32.65,0,0,1,1.93-4.32c.53-.91.95-1.59,1.25-2A10.42,10.42,0,0,1,401.29,54a7.23,7.23,0,0,1,2.73-.68,10.47,10.47,0,0,1,3,.57,8.38,8.38,0,0,1,3.52,2.38,14.17,14.17,0,0,1,2.84,5.23,30.42,30.42,0,0,1,1.13,9.31q0,4.09-.56,10.68a127.5,127.5,0,0,1-2.61,15.9q-2.06,9.31-5.8,21.24t-9.88,26.92q0,10.9.23,20.79t.9,18.29q7.5-27.72,14-50t12.6-37.82q6.14-15.57,12.05-24t11.81-8.41c2.42,0,4.46,1.56,6.13,4.66a51.76,51.76,0,0,1,4.32,12.61q1.81,7.95,3.29,18.74t3.3,23.29q1.81,12.5,4.31,26t6.14,26.69q3.85,13.63,8.4,20.11t9.09,6.47q6.13,0,12.72-5.79a88.87,88.87,0,0,0,13-14.54,192.16,192.16,0,0,0,12-18.86q5.68-10.09,10-19a4.4,4.4,0,0,1,4.09-2.5,3.87,3.87,0,0,1,3.06,1.48,5,5,0,0,1,1.25,3.3,7.15,7.15,0,0,1-.23,1.47,20.18,20.18,0,0,1-1.81,4q-3.87,7.28-9.54,17.49a175.53,175.53,0,0,1-12.61,19.54A86.73,86.73,0,0,1,509,205.53Q500.79,212.11,492.16,212.12ZM404.47,63.32a36.94,36.94,0,0,0-1.59,5.11,112.56,112.56,0,0,0-2.27,11.24q-1.14,7-2.27,16.47t-1.82,20.79q5.91-18.41,7.38-29.87a148.9,148.9,0,0,0,1.48-16.25A22.14,22.14,0,0,0,404.47,63.32Z" transform="translate(-2.6 -53.17)" style="fill:#231f20"/><path d="M532.82,172.82a63.79,63.79,0,0,1,.8-9.2A59.73,59.73,0,0,1,536,153.51a38.08,38.08,0,0,1,3.64-8.07q2-3.28,4.77-3.29a4,4,0,0,1,3.06,1.36,4.82,4.82,0,0,1,1.25,3.41,3.26,3.26,0,0,1-.68,2,34.59,34.59,0,0,0-4.31,11.25,63.1,63.1,0,0,0-1.37,13.06,63.84,63.84,0,0,0,.8,9.54,35.54,35.54,0,0,0,2.84,9.66,21.26,21.26,0,0,0,5.68,7.49A13.9,13.9,0,0,0,561,203a11.39,11.39,0,0,0,9.2-4.66,39.06,39.06,0,0,0,6.14-11.13,66.44,66.44,0,0,0,3.4-13.52,83.51,83.51,0,0,0,1-11.81q-4.1-.67-9-1.59a40.2,40.2,0,0,1-9.2-2.84,23.79,23.79,0,0,1-7.5-5.22,12.59,12.59,0,0,1-3.4-8.52,12.46,12.46,0,0,1,4.88-10.11,18.17,18.17,0,0,1,19.77-1.91,20.21,20.21,0,0,1,6.36,5.5,29.62,29.62,0,0,1,4.2,7.8,45.85,45.85,0,0,1,2.27,8.71h3.18a39.58,39.58,0,0,0,12.27-1.7,47.9,47.9,0,0,0,9-3.86q3.75-2.16,6.25-3.86a8,8,0,0,1,4.09-1.71,4.35,4.35,0,0,1,3.07,1.48,4.57,4.57,0,0,1,1.47,3.29,4.77,4.77,0,0,1-1.59,3.41,36,36,0,0,1-8.52,5.95,51.8,51.8,0,0,1-9.54,3.66,66,66,0,0,1-9.77,1.88,81.52,81.52,0,0,1-9.2.55,89,89,0,0,1-1.47,14.88,71.49,71.49,0,0,1-4.77,16.13,39.38,39.38,0,0,1-8.86,12.95A19.12,19.12,0,0,1,561,212.12a22.17,22.17,0,0,1-12.83-3.64,29,29,0,0,1-8.75-9.42,44.66,44.66,0,0,1-5-12.73A60.3,60.3,0,0,1,532.82,172.82Zm27.94-29.31a4.87,4.87,0,0,0,2.16,4.09,18.67,18.67,0,0,0,5.23,2.61,35.29,35.29,0,0,0,6.25,1.48c2.11.3,3.93.61,5.45.91a29.37,29.37,0,0,0-1.37-4.66,21.76,21.76,0,0,0-2.27-4.43,11.7,11.7,0,0,0-3.52-3.41,8.92,8.92,0,0,0-4.88-1.36,8.64,8.64,0,0,0-5.11,1.36A4.06,4.06,0,0,0,560.76,143.51Z" transform="translate(-2.6 -53.17)" style="fill:#231f20"/><path d="M700.25,143.06a4.25,4.25,0,0,1,2,5.9A288,288,0,0,1,683,183.27q-2.5,3.85-6.48,9a76.67,76.67,0,0,1-9,9.66q-10.9,10.22-20.68,10.22a17.45,17.45,0,0,1-5-.68q-13.64-4.32-19.09-34.76a190.33,190.33,0,0,1-2.49-23.17q-.69-13-.69-28.86,0-6.34.12-12c.07-3.78.19-7.41.34-10.9-2.58.3-5.11.57-7.61.79s-5.11.57-7.84,1h-.45a4.37,4.37,0,0,1-3.07-1.14,4.63,4.63,0,0,1-1.48-3,4.16,4.16,0,0,1,1-3.3,4.7,4.7,0,0,1,3.07-1.7q8.17-.68,17-2,.68-11.13,2-19.88a138.72,138.72,0,0,1,3.41-16,4.16,4.16,0,0,1,2-2.73,4.46,4.46,0,0,1,3.4-.45,4.23,4.23,0,0,1,2.73,2,4.43,4.43,0,0,1,.45,3.4Q633,66,631.76,74.33t-1.93,16.93q3.85-.45,7.49-.91l7.5-.91,7.84-.91q4-.45,7.84-.91a3.54,3.54,0,0,1,3.29.8,4.68,4.68,0,0,1,1.7,3.07,4.31,4.31,0,0,1-.91,3.29,4.18,4.18,0,0,1-3,1.7q-3.87.47-7.84,1t-7.83,1l-8.18.91q-4.1.45-8.41,1.13-.68,13-.68,24.08,0,15.67.68,28.29a169.49,169.49,0,0,0,2.5,22.15c.3,1.51.8,3.83,1.48,6.93a72.67,72.67,0,0,0,2.72,9.31,32.35,32.35,0,0,0,4.32,8.18,7.8,7.8,0,0,0,6.47,3.52,13.58,13.58,0,0,0,7.62-2.5,54.83,54.83,0,0,0,6.92-5.45,85.18,85.18,0,0,0,8.3-9.09q3.75-4.77,5.79-7.72a364.82,364.82,0,0,0,18.63-33.17,4.34,4.34,0,0,1,6.13-2Z" transform="translate(-2.6 -53.17)" style="fill:#231f20"/><path d="M773.85,142.83a4.92,4.92,0,0,1,2.5,2.61,4.13,4.13,0,0,1-.22,3.52q-2.5,5.46-7.84,15.34t-12.84,21a104.73,104.73,0,0,1-8.06,10.45,71.9,71.9,0,0,1-8.07,8q-9.77,8.41-18.85,8.41h-1.14q-11.13-.69-18.17-12.5a41,41,0,0,1-4-8.4q-1.24-3.87-1.7-5.68A89.56,89.56,0,0,1,693,171a92,92,0,0,1-.23-14.31,72.9,72.9,0,0,1,1.82-12.38,27.9,27.9,0,0,1,3.86-9.21,9.79,9.79,0,0,1,4-4.2,25.4,25.4,0,0,1,3.75-1.48,14.13,14.13,0,0,1,6.36.57,15.9,15.9,0,0,1,5.9,3.52,25.86,25.86,0,0,1,6.48,9.09,25,25,0,0,1,2.16,11.13A37,37,0,0,1,720.47,173a49.6,49.6,0,0,1-6,7.5,86.55,86.55,0,0,1-8.75,7.72c.6,1.37,1.33,2.88,2.16,4.55a31,31,0,0,0,2.95,4.77,15.72,15.72,0,0,0,4,3.75,10.66,10.66,0,0,0,5,1.7q5.67.47,13.06-5.68T748,180.09a227.46,227.46,0,0,0,12.38-20.22q5.11-9.54,7.61-14.77a5,5,0,0,1,2.5-2.5A3.92,3.92,0,0,1,773.85,142.83Zm-67.92-2.73a27,27,0,0,0-2.5,6.14,46.08,46.08,0,0,0-1.59,9,75.63,75.63,0,0,0-.11,11.13,94.86,94.86,0,0,0,1.47,12.16q7.72-6.6,11-12.5A30.08,30.08,0,0,0,718,153.28a15.1,15.1,0,0,0-1.36-7,17.42,17.42,0,0,0-4.09-5.91c-.46-.3-1.06-.72-1.82-1.25a4.26,4.26,0,0,0-2.5-.79A1.62,1.62,0,0,0,707,139C706.57,139.42,706.23,139.8,705.93,140.1Z" transform="translate(-2.6 -53.17)" style="fill:#231f20"/></svg>