<svg id="Layer_1" data-name="Layer 1" xmlns="http://www.w3.org/2000/svg" viewBox="0 0 774.39 126.84"><title>loveneon</title><path d="M73.35,186a1.7,1.7,0,0,1,1.92,1.92c0,1.17-.64,1.76-1.92,1.76H6.7a1.56,1.56,0,0,1-1.76-1.76V73.34A1.56,1.56,0,0,1,6.7,71.58c1.28,0,1.93.59,1.93,1.76V186ZM27.69,73.34c0-1.17.64-1.76,1.92-1.76s1.92.59,1.92,1.76v89.72H73.35A1.7,1.7,0,0,1,75.27,165c0,1.18-.64,1.76-1.92,1.76H29.61c-1.28,0-1.92-.58-1.92-1.76Z" transform="translate(-3.44 -67.68)" style="fill:#231f20;stroke:#231f20;stroke-miterlimit:10;stroke-width:3px"/><path d="M199.43,112a1.56,1.56,0,0,1-.16,1.52,1.93,1.93,0,0,1-1.12.88,1.72,1.72,0,0,1-2.4-1.28,55.94,55.94,0,0,0-21.15-29A57.65,57.65,0,0,0,140.15,73q-25.31,0-41.41,16.1t-16.1,41.25q0,25.15,16.1,41.34t41.41,16.18a57.65,57.65,0,0,0,34.45-11.06,55.94,55.94,0,0,0,21.15-29.15,1.72,1.72,0,0,1,2.4-1.28c1.28.42,1.71,1.22,1.28,2.4a59.44,59.44,0,0,1-22.59,31.08,61.44,61.44,0,0,1-36.69,11.85q-27.08,0-44.13-17.3T79,130.37q0-26.58,17.14-43.89t44.05-17.3A61.44,61.44,0,0,1,176.84,81,59.53,59.53,0,0,1,199.43,112Zm-91.32,37.17a1.65,1.65,0,0,1,.64-2.56,1.8,1.8,0,0,1,2.73.64,32.73,32.73,0,0,0,28.67,17,31.58,31.58,0,0,0,23.47-9.93,34.23,34.23,0,0,0,0-47.75,31.58,31.58,0,0,0-23.47-9.93,32.73,32.73,0,0,0-28.67,17c-.54,1.18-1.44,1.44-2.73.8a2,2,0,0,1-.64-2.72,37.07,37.07,0,0,1,13.54-13.7,35.86,35.86,0,0,1,18.5-5,35.29,35.29,0,0,1,26.2,11,37.92,37.92,0,0,1,0,53,36.35,36.35,0,0,1-44.7,5.93A37.67,37.67,0,0,1,108.11,149.12Z" transform="translate(-3.44 -67.68)" style="fill:#231f20;stroke:#231f20;stroke-miterlimit:10;stroke-width:3px"/><path d="M291.87,74.46a2,2,0,0,1,2.56-1,1.52,1.52,0,0,1,1,2.24L248,191.73a1.74,1.74,0,0,1-3.36,0l-47.26-116a1.52,1.52,0,0,1,1-2.24,1.85,1.85,0,0,1,2.56,1l45.5,111.83Zm-69.53,1.28a1.49,1.49,0,0,1,1.12-2.24c1.17-.42,1.92-.1,2.24,1l20.67,50.31,20.51-50.31q.48-1.59,2.4-1c1.07.32,1.39,1.07,1,2.24L248,130.37a1.49,1.49,0,0,1-1.6,1.13,1.75,1.75,0,0,1-1.76-1.13Z" transform="translate(-3.44 -67.68)" style="fill:#231f20;stroke:#231f20;stroke-miterlimit:10;stroke-width:3px"/><path d="M358.67,186q1.77,0,1.77,1.92a1.56,1.56,0,0,1-1.77,1.76H299.4c-1.28,0-1.92-.59-1.92-1.76V73.34c0-1.17.64-1.76,1.92-1.76h59.27a1.56,1.56,0,0,1,1.77,1.76q0,1.92-1.77,1.92H301.16V186Zm0-91.48a1.56,1.56,0,0,1,1.77,1.76q0,1.92-1.77,1.92h-34.6v19.07h23.87a1.92,1.92,0,1,1,0,3.84H322.31a1.7,1.7,0,0,1-1.92-1.92V96.25c0-1.17.64-1.76,1.92-1.76Zm-10.73,45.66a1.7,1.7,0,0,1,1.92,1.92c0,1.18-.64,1.76-1.92,1.76H324.07v19.23h34.6q1.77,0,1.77,1.92a1.56,1.56,0,0,1-1.77,1.76H322.31c-1.28,0-1.92-.58-1.92-1.76V142.07a1.7,1.7,0,0,1,1.92-1.92Z" transform="translate(-3.44 -67.68)" style="fill:#231f20;stroke:#231f20;stroke-miterlimit:10;stroke-width:3px"/><path d="M373.57,187.89c0,1.17-.61,1.76-1.84,1.76s-1.84-.59-1.84-1.76V73.5c0-1.28.61-1.92,1.84-1.92s1.84.64,1.84,1.92ZM391,74.46a1.77,1.77,0,0,1-.16-1.92,1.68,1.68,0,0,1,3-.16l46.46,66.33V73.5a1.92,1.92,0,0,1,3.84,0v71.13a1.8,1.8,0,0,1-1.44,1.77,1.56,1.56,0,0,1-2.08-.65ZM446,186.77a2,2,0,0,1-3.21,2.24l-46.14-66.49v65.37c0,1.17-.64,1.76-1.92,1.76s-1.92-.59-1.92-1.76V116.6a1.76,1.76,0,0,1,1.28-1.77,1.87,1.87,0,0,1,2.24.65Zm21,1.12c0,1.17-.64,1.76-1.92,1.76s-1.92-.59-1.92-1.76V73.5a1.92,1.92,0,1,1,3.84,0Z" transform="translate(-3.44 -67.68)" style="fill:#231f20;stroke:#231f20;stroke-miterlimit:10;stroke-width:3px"/><path d="M542,186c1.17,0,1.76.64,1.76,1.92a1.56,1.56,0,0,1-1.76,1.76H482.67c-1.28,0-1.92-.59-1.92-1.76V73.34c0-1.17.64-1.76,1.92-1.76H542a1.56,1.56,0,0,1,1.76,1.76c0,1.28-.59,1.92-1.76,1.92H484.44V186Zm0-91.48a1.56,1.56,0,0,1,1.76,1.76c0,1.28-.59,1.92-1.76,1.92h-34.6v19.07h23.87a1.92,1.92,0,0,1,0,3.84H505.58a1.7,1.7,0,0,1-1.92-1.92V96.25c0-1.17.64-1.76,1.92-1.76Zm-10.73,45.66a1.7,1.7,0,0,1,1.92,1.92c0,1.18-.64,1.76-1.92,1.76H507.35v19.23H542c1.17,0,1.76.64,1.76,1.92a1.55,1.55,0,0,1-1.76,1.76H505.58c-1.28,0-1.92-.58-1.92-1.76V142.07a1.7,1.7,0,0,1,1.92-1.92Z" transform="translate(-3.44 -67.68)" style="fill:#231f20;stroke:#231f20;stroke-miterlimit:10;stroke-width:3px"/><path d="M669.63,112a1.54,1.54,0,0,1-.16,1.52,1.9,1.9,0,0,1-1.12.88,1.72,1.72,0,0,1-2.4-1.28,55.94,55.94,0,0,0-21.15-29A57.59,57.59,0,0,0,610.36,73Q585,73,568.94,89.12t-16.1,41.25q0,25.15,16.1,41.34t41.42,16.18a57.59,57.59,0,0,0,34.44-11.06A55.94,55.94,0,0,0,666,147.68a1.72,1.72,0,0,1,2.4-1.28c1.28.42,1.71,1.22,1.28,2.4A59.44,59.44,0,0,1,647,179.88a61.44,61.44,0,0,1-36.68,11.85q-27.08,0-44.14-17.3t-17.06-44.06q0-26.58,17.14-43.89t44.06-17.3A61.44,61.44,0,0,1,647,81,59.53,59.53,0,0,1,669.63,112Zm-91.31,37.17a1.64,1.64,0,0,1,.64-2.56,1.79,1.79,0,0,1,2.72.64,32.76,32.76,0,0,0,28.68,17,31.61,31.61,0,0,0,23.47-9.93,34.26,34.26,0,0,0,0-47.75,31.61,31.61,0,0,0-23.47-9.93,32.76,32.76,0,0,0-28.68,17c-.54,1.18-1.44,1.44-2.72.8a2,2,0,0,1-.64-2.72,37,37,0,0,1,13.53-13.7,35.89,35.89,0,0,1,18.51-5,35.28,35.28,0,0,1,26.19,11,37.92,37.92,0,0,1,0,53,36.35,36.35,0,0,1-44.7,5.93A37.64,37.64,0,0,1,578.32,149.12Z" transform="translate(-3.44 -67.68)" style="fill:#231f20;stroke:#231f20;stroke-miterlimit:10;stroke-width:3px"/><path d="M682.93,187.89c0,1.17-.62,1.76-1.84,1.76s-1.84-.59-1.84-1.76V73.5c0-1.28.61-1.92,1.84-1.92s1.84.64,1.84,1.92ZM700.39,74.46a1.79,1.79,0,0,1-.16-1.92,1.69,1.69,0,0,1,3-.16l46.46,66.33V73.5a1.92,1.92,0,0,1,3.84,0v71.13a1.8,1.8,0,0,1-1.44,1.77,1.56,1.56,0,0,1-2.08-.65Zm55,112.31a2,2,0,0,1-3.2,2.24L706,122.52v65.37c0,1.17-.64,1.76-1.92,1.76s-1.93-.59-1.93-1.76V116.6a1.77,1.77,0,0,1,1.29-1.77,1.87,1.87,0,0,1,2.24.65Zm21,1.12c0,1.17-.64,1.76-1.92,1.76s-1.92-.59-1.92-1.76V73.5a1.92,1.92,0,0,1,3.84,0Z" transform="translate(-3.44 -67.68)" style="fill:#231f20;stroke:#231f20;stroke-miterlimit:10;stroke-width:3px"/></svg>