<svg id="Layer_1" data-name="Layer 1" xmlns="http://www.w3.org/2000/svg" viewBox="0 0 759.98 176"><title>neotokyo</title><path d="M101.14,184a15.74,15.74,0,0,1-7.68-2A17.85,17.85,0,0,1,87,175.09L32.58,71.4q-2.73-4.09-6.14-4.1a4.53,4.53,0,0,0-3.07,1A6,6,0,0,0,21,72a20.15,20.15,0,0,0-.51,4.35V179.54a4,4,0,0,1-1.28,3.07,4.24,4.24,0,0,1-3,1.2,4.09,4.09,0,0,1-4.26-4.27V76.35a21.88,21.88,0,0,1,1-6.75,17.87,17.87,0,0,1,2.9-5.55,14.76,14.76,0,0,1,4.52-3.84,12.35,12.35,0,0,1,6.06-1.45,13.84,13.84,0,0,1,8.1,2.56,17.29,17.29,0,0,1,5.54,6.15L94.49,171.16a9,9,0,0,0,3.15,3.25,7.07,7.07,0,0,0,3.5,1,3.91,3.91,0,0,0,2.73-.93,7.87,7.87,0,0,0,1.7-2.31,10.06,10.06,0,0,0,.94-2.9,17.07,17.07,0,0,0,.26-2.74V63.37a4.22,4.22,0,0,1,1.19-3,4.32,4.32,0,0,1,6.14,0,4.22,4.22,0,0,1,1.19,3V166.55a24.43,24.43,0,0,1-.85,6.41,16.21,16.21,0,0,1-2.64,5.55,14.72,14.72,0,0,1-4.44,3.93A12.18,12.18,0,0,1,101.14,184Z" transform="translate(-11.94 -58.42)" style="fill:#231f20"/><path d="M210.63,136.49a23.06,23.06,0,0,1,.51,4.44,16.91,16.91,0,0,1-4.6,11.95,17.94,17.94,0,0,1-5.46,3.76,14,14,0,0,1-6.48,1.2H162.71a4.11,4.11,0,0,1-4.27-4.27,4.23,4.23,0,0,1,1.2-3,4,4,0,0,1,3.07-1.28H194.6a7.7,7.7,0,0,0,7.76-6.15,11.4,11.4,0,0,0-.09-4.61,32.28,32.28,0,0,0-4-8.63,28.72,28.72,0,0,0-6.4-6.92,29.77,29.77,0,0,0-8.36-4.53,29.89,29.89,0,0,0-21.23.69,31,31,0,0,0-15.69,15.71,30.05,30.05,0,0,0,0,23.06,30.12,30.12,0,0,0,6.39,9.49,29.44,29.44,0,0,0,9.3,6.23A28.83,28.83,0,0,0,173.79,176a27.78,27.78,0,0,0,10.06-1.71,4,4,0,0,1,3.33.08,3.87,3.87,0,0,1,2.13,2.48,3.8,3.8,0,0,1-.08,3.25,4.56,4.56,0,0,1-2.48,2.22,35.13,35.13,0,0,1-13,2.22,36.76,36.76,0,0,1-14.75-3,40.36,40.36,0,0,1-12.2-8.12,38.32,38.32,0,0,1-8.1-12,37.3,37.3,0,0,1-3-15,36.89,36.89,0,0,1,3-14.77A37,37,0,0,1,159,111.29a37.92,37.92,0,0,1,27.29-.86,41,41,0,0,1,10.83,5.9,38.71,38.71,0,0,1,8.44,8.8A33.56,33.56,0,0,1,210.63,136.49Z" transform="translate(-11.94 -58.42)" style="fill:#231f20"/><path d="M266.23,108.3a37.2,37.2,0,0,1,14.92,3,38.31,38.31,0,0,1,12,8.11,39.42,39.42,0,0,1,8.27,12.13,36.74,36.74,0,0,1,3,14.86,37.16,37.16,0,0,1-11.26,27,38.16,38.16,0,0,1-12,8.12,36.76,36.76,0,0,1-14.75,3h-.17a36.76,36.76,0,0,1-14.75-3,38.28,38.28,0,0,1-12-8.12,38.18,38.18,0,0,1-8.27-41.85,39.42,39.42,0,0,1,8.27-12.13,38.42,38.42,0,0,1,12-8.11A36.76,36.76,0,0,1,266.23,108.3Zm21,58.94a30.67,30.67,0,0,0,6.31-9.32,29,29,0,0,0,0-23.06,30.62,30.62,0,0,0-6.31-9.31,27.73,27.73,0,0,0-9.38-6.4,29.47,29.47,0,0,0-11.6-2.31,29,29,0,0,0-11.43,2.31,27.73,27.73,0,0,0-9.38,6.4,30.62,30.62,0,0,0-6.31,9.31,29.12,29.12,0,0,0,0,23.06,30.67,30.67,0,0,0,6.31,9.32,27.88,27.88,0,0,0,9.38,6.4A29,29,0,0,0,266.23,176a29.47,29.47,0,0,0,11.6-2.31A27.88,27.88,0,0,0,287.21,167.24Z" transform="translate(-11.94 -58.42)" style="fill:#231f20"/><path d="M365.83,179.54V74.47a17,17,0,0,1,1.54-7h-45a4.09,4.09,0,0,1-4.26-4.27,4.08,4.08,0,0,1,4.26-4.27H418a4.26,4.26,0,0,1,3,1.19,4.33,4.33,0,0,1,0,6.15,4.23,4.23,0,0,1-3,1.2H381.53a6.92,6.92,0,0,0-5.12,2,7.56,7.56,0,0,0-2.05,5V179.54a4.09,4.09,0,0,1-4.26,4.27,4.11,4.11,0,0,1-4.27-4.27Z" transform="translate(-11.94 -58.42)" style="fill:#231f20"/><path d="M448.55,108.3a37.24,37.24,0,0,1,14.93,3,38.38,38.38,0,0,1,12,8.11,39.42,39.42,0,0,1,8.27,12.13,36.74,36.74,0,0,1,3,14.86,37.16,37.16,0,0,1-11.26,27,38.23,38.23,0,0,1-12,8.12,36.84,36.84,0,0,1-14.76,3h-.17a36.8,36.8,0,0,1-14.75-3,38.23,38.23,0,0,1-12-8.12,36.88,36.88,0,0,1-8.28-12,37.3,37.3,0,0,1-3-15,36.73,36.73,0,0,1,3-14.86,39.27,39.27,0,0,1,8.28-12.13,38.38,38.38,0,0,1,12-8.11A36.8,36.8,0,0,1,448.55,108.3Zm21,58.94a30.49,30.49,0,0,0,6.31-9.32,29,29,0,0,0,0-23.06,30.44,30.44,0,0,0-6.31-9.31,27.64,27.64,0,0,0-9.38-6.4,29.44,29.44,0,0,0-11.6-2.31,29,29,0,0,0-11.42,2.31,27.64,27.64,0,0,0-9.38,6.4,30.44,30.44,0,0,0-6.31,9.31,29,29,0,0,0,0,23.06,30.49,30.49,0,0,0,6.31,9.32,27.78,27.78,0,0,0,9.38,6.4A29,29,0,0,0,448.55,176a29.44,29.44,0,0,0,11.6-2.31A27.78,27.78,0,0,0,469.53,167.24Z" transform="translate(-11.94 -58.42)" style="fill:#231f20"/><path d="M586.87,177.31a4.63,4.63,0,0,1,1.45,3.08,3.93,3.93,0,0,1-1.28,3.07,4.35,4.35,0,0,1-3,1.29,3.59,3.59,0,0,1-3-1.29l-30-29-18.59,23.06a21.09,21.09,0,0,1-5.8,5,14.15,14.15,0,0,1-7,1.71,11.53,11.53,0,0,1-4.94-1,12.35,12.35,0,0,1-5.63-5.55,18,18,0,0,1-1.88-8.28V62.69a4.09,4.09,0,0,1,4.27-4.27,4.25,4.25,0,0,1,3,1.19,4,4,0,0,1,1.28,3.08v106.6a13.09,13.09,0,0,0,.77,4,3.06,3.06,0,0,0,3.15,2.31A5.34,5.34,0,0,0,523,174.5a29.19,29.19,0,0,0,2.81-2.48l49.64-61a4.66,4.66,0,0,1,2.89-1.62,3.67,3.67,0,0,1,3.08.94,4.4,4.4,0,0,1,1.53,2.9,4.29,4.29,0,0,1-.85,3.08l-25.59,31.43Z" transform="translate(-11.94 -58.42)" style="fill:#231f20"/><path d="M682.55,108.64a4.51,4.51,0,0,1,2.13,2.48,4,4,0,0,1-.25,3.33L627.63,232a4.12,4.12,0,0,1-2.38,2.22A4.62,4.62,0,0,1,622,234a3.85,3.85,0,0,1-2.31-2.39,4.23,4.23,0,0,1,.26-3.42l21.15-43.73a9.81,9.81,0,0,1-7.34-3,31.72,31.72,0,0,1-5.11-7.09l-29-60a4,4,0,0,1-.25-3.33,4.55,4.55,0,0,1,2.13-2.48,3.83,3.83,0,0,1,3.33-.17,5,5,0,0,1,2.47,2.22l28.31,58.6q3.4,7,6.74,6.4t6.73-7.77l27.63-57.23a5,5,0,0,1,2.48-2.22A3.81,3.81,0,0,1,682.55,108.64Z" transform="translate(-11.94 -58.42)" style="fill:#231f20"/><path d="M733.72,108.3a37.2,37.2,0,0,1,14.92,3,38.42,38.42,0,0,1,12,8.11,39.42,39.42,0,0,1,8.27,12.13,36.9,36.9,0,0,1,3,14.86,37.47,37.47,0,0,1-3,15,37,37,0,0,1-8.27,12,38.28,38.28,0,0,1-12,8.12,36.76,36.76,0,0,1-14.75,3h-.17a36.84,36.84,0,0,1-14.76-3,38.23,38.23,0,0,1-12-8.12,38.12,38.12,0,0,1-8.27-41.85,39.42,39.42,0,0,1,8.27-12.13,38.38,38.38,0,0,1,12-8.11A36.84,36.84,0,0,1,733.72,108.3Zm21,58.94a30.85,30.85,0,0,0,6.31-9.32,29.12,29.12,0,0,0,0-23.06,30.8,30.8,0,0,0-6.31-9.31,27.83,27.83,0,0,0-9.38-6.4,29.51,29.51,0,0,0-11.6-2.31,29,29,0,0,0-11.43,2.31,27.64,27.64,0,0,0-9.38,6.4,30.44,30.44,0,0,0-6.31,9.31,29,29,0,0,0,0,23.06,30.49,30.49,0,0,0,6.31,9.32,27.78,27.78,0,0,0,9.38,6.4A29,29,0,0,0,733.72,176a29.51,29.51,0,0,0,11.6-2.31A28,28,0,0,0,754.7,167.24Z" transform="translate(-11.94 -58.42)" style="fill:#231f20"/></svg>