<svg id="Layer_1" data-name="Layer 1" xmlns="http://www.w3.org/2000/svg" viewBox="0 0 721.49 266.02"><title>northshore</title><path d="M153,77.89q2.9,14.22,1.85,34a376.08,376.08,0,0,1-6.06,46.88q-.54,3.17-1.84,8.56c-.89,3.6-1.89,7.73-3,12.38s-2.51,9.61-4.09,14.88-3.25,10.63-5,16.07q-2.9,8.69-5.66,15.93t-5.67,13a76.12,76.12,0,0,1-6.71,12,28.71,28.71,0,0,1-6.72,7,12.76,12.76,0,0,1-5.27,2.11,9.47,9.47,0,0,1-4-.26Q89.5,258,83.7,236.45q-3.15-11.85-4.74-30t-1.84-42.14q-.27-11.33-.27-22.39t-.52-20.28c0-.88,0-1.75-.13-2.63a25.94,25.94,0,0,1-.14-2.64Q74,123.2,70.8,133.73t-7.64,26.6Q60,171.65,57,183.11t-5.66,21.47q-2.64,10-4.75,18.17T43.4,235.92Q41,245.93,41,251.46A50.57,50.57,0,0,0,42.09,262a5.41,5.41,0,0,1-.92,4.34,5.11,5.11,0,0,1-4.61,2.24c-3,0-4.74-1.49-5.27-4.48A71.43,71.43,0,0,1,30,250.54a74.08,74.08,0,0,1,2.64-17.25q1.3-5.53,3.55-14.23t5-19.49q2.76-10.78,5.92-22.91t6.59-24q3.68-13.17,6.71-23.31t5.4-17.51q1.32-4.22,2.5-7.51A52.35,52.35,0,0,1,70.53,99a63,63,0,0,1,3.16-5.53,5.16,5.16,0,0,1,5.54-2.37,6.57,6.57,0,0,1,5,3.82,25.92,25.92,0,0,1,1.84,6.71c.18,1.94.35,4.18.53,6.72s.35,5.58.53,9.09q.53,9,.66,20.54T88.18,164q0,23.7,1.71,40.95a196.42,196.42,0,0,0,4.61,28.58q2.63,10.27,5.27,13a14.61,14.61,0,0,0,3.42,3,6.2,6.2,0,0,0,1.72-1.19A26.33,26.33,0,0,0,109,243.3a93,93,0,0,0,6.19-11.59,219,219,0,0,0,8-20.81q2.63-7.91,5-15.94t4.35-15.4q2-7.38,3.29-13.3c.88-4,1.58-7.16,2.11-9.62A373.42,373.42,0,0,0,143.75,112q1-18.57-1.58-32a34.78,34.78,0,0,0-.92-3.43,27,27,0,0,0-3.16-6.71,23.83,23.83,0,0,0-6.19-6.46q-3.94-2.9-10.27-2.89a5.12,5.12,0,0,1-3.95-1.72A5.5,5.5,0,0,1,116.1,55a5.4,5.4,0,0,1,5.53-5.53q14,0,23.18,11.07A32.15,32.15,0,0,1,151,70.91,48.73,48.73,0,0,1,153,77.89Z" transform="translate(-29.97 -2.56)" style="fill:#231f20"/><path d="M202.22,176.66a22.17,22.17,0,0,1,.79,7.64,38,38,0,0,1-1.18,7.37,40.54,40.54,0,0,1-2.11,6.06,42,42,0,0,1-2,4,45.39,45.39,0,0,1-10.67,13,21.51,21.51,0,0,1-14.09,5.4,17.1,17.1,0,0,1-7.11-1.32,14.69,14.69,0,0,1-3.56-2.76,15.1,15.1,0,0,1-3.29-5.67,28,28,0,0,1-.79-14,40.92,40.92,0,0,1,5.27-14.48,51,51,0,0,1,5.92-8.17,28.28,28.28,0,0,1,7-5.79,20.26,20.26,0,0,1,9.22-2.9,16.19,16.19,0,0,1,9,2.11A15.48,15.48,0,0,1,202.22,176.66ZM188,196.41a32.92,32.92,0,0,0,3.56-9.22,16.32,16.32,0,0,0,.13-7.37,5.49,5.49,0,0,0-2.11-2.9q-4.22-2.1-8.82,1.58a33.09,33.09,0,0,0-7.77,9,24.92,24.92,0,0,0-2.9,6.58,26.85,26.85,0,0,0-1.05,7.38,15,15,0,0,0,.26,5.27c.35,1.05.7,1.67,1,1.84a7,7,0,0,0,5,.26,14.18,14.18,0,0,0,5-2.76,27.74,27.74,0,0,0,4.35-4.61A44.46,44.46,0,0,0,188,196.41Z" transform="translate(-29.97 -2.56)" style="fill:#231f20"/><path d="M293.09,171.39a4.79,4.79,0,0,1,.26,4.08,7.31,7.31,0,0,1-2.63,3.3c-.35.35-.62.52-.79.52a.76.76,0,0,0-.53.27,27.6,27.6,0,0,1-4.87,2.37,32.31,32.31,0,0,1-7.77,1.58,31.42,31.42,0,0,1-10.4-1.06q-4.35-1.3-7.77-2.63-2.64-1-4.74-1.71a12,12,0,0,0-4.74-.4,15.64,15.64,0,0,0-4,1.32q-3.15,1.32-7.9,7.37Q227,199.84,217.76,230.13a4.9,4.9,0,0,1-2.76,3.42,5.76,5.76,0,0,1-3.82.26,5.84,5.84,0,0,1-3.43-2.37,4.62,4.62,0,0,1-.79-3.95q1.32-7.11,2.51-14.09t2.5-13.83q1.32-6.84,2.5-14t2.5-14q1.32-5.28,6.59-4.48a6.4,6.4,0,0,1,3.55,2.37,4.38,4.38,0,0,1,.92,3.95c-.35,1.58-.61,3.12-.79,4.61a33.61,33.61,0,0,1-.79,4.34,5.28,5.28,0,0,0,.93-1.31,4.69,4.69,0,0,1,.92-1.32q6.31-8.43,11.72-10.8a23.55,23.55,0,0,1,9.09-2.37,26.65,26.65,0,0,1,7.37.92c2.11.62,4.12,1.28,6.06,2a45.48,45.48,0,0,0,6.06,2.24,22.94,22.94,0,0,0,7.63.66,15.9,15.9,0,0,0,4.48-.93,20.64,20.64,0,0,0,2.9-1.45,19.75,19.75,0,0,1,1.84-1Q290.46,166.92,293.09,171.39Z" transform="translate(-29.97 -2.56)" style="fill:#231f20"/><path d="M404.24,109.23a5.27,5.27,0,0,1,3.29,2.5,5.75,5.75,0,0,1,.66,4.35,5.57,5.57,0,0,1-6.59,4,192.94,192.94,0,0,0-26.86-4.87,181.51,181.51,0,0,0-26.6-.92c-2.47.17-5.1.31-7.91.39s-5.88.31-9.21.66q-4,10.53-8.17,20.94t-8.56,19.89q-4.35,9.48-8.3,17.64T298.62,188a34.35,34.35,0,0,0-.26,4.35,34.33,34.33,0,0,1-.27,4.35c-.17,6.15-.09,11.76.27,16.85A121.38,121.38,0,0,0,299.94,227a32.82,32.82,0,0,0,2.89,8.56c1.06,1.84,2,2.93,2.9,3.29a4.29,4.29,0,0,0,2.9-.79,31,31,0,0,0,3.95-2.5,56,56,0,0,0,6.06-5.4q15.27-15.81,39-53.21a5.55,5.55,0,0,1,3.42-2.63,5.3,5.3,0,0,1,4.22.79,5.94,5.94,0,0,1,2.37,3.42,5.34,5.34,0,0,1-.79,4.22q-12.12,19.49-22.26,33.18a221.22,221.22,0,0,1-18,21.86,88,88,0,0,1-9.48,8.17A18.23,18.23,0,0,1,306,249.88a10.54,10.54,0,0,1-4.21-.79q-9.22-3.69-12.64-20a105.5,105.5,0,0,1-1.85-14.48q-.53-8.16-.26-18.18,0-2.62.26-5.79t.27-5.8q1.32-16,3.95-32.79t6.32-30.95c.35-1,.61-1.93.79-2.63q-12.92,1.32-24.76,2.24t-21.07.92c-2.11,0-4.08,0-5.93-.13s-3.46-.22-4.87-.4a6.4,6.4,0,0,1-3.55-2.37,4.38,4.38,0,0,1-.93-3.95,6.6,6.6,0,0,1,2.37-3.82,4.42,4.42,0,0,1,4-.92,73,73,0,0,0,10,.53q6.33,0,14.1-.53t16.59-1.31L302,107.13q5.26-17.38,10.67-30.69t9.09-20.68q2.9-6.32,5.79-11.72c1.93-3.59,3.78-6.89,5.53-9.87a43,43,0,0,1,6.06-8.3,14.18,14.18,0,0,1,3.69-2.77,5.64,5.64,0,0,1,5.53-.26,7.1,7.1,0,0,1,3.42,2.9,12.6,12.6,0,0,1,1.45,4,16.32,16.32,0,0,1,.27,4.08c-.1,1.32-.14,2.33-.14,3q-.52,3.69-1.31,8.56t-2.37,10.93q-2.37,9.23-6.06,21.47T335.23,104c2.28-.17,4.48-.3,6.58-.39s4.13-.22,6.06-.4A203.23,203.23,0,0,1,404.24,109.23ZM302,156.38q4.21-9.23,8.43-19.36t8.43-20.41c-1.41.17-2.81.31-4.21.39s-2.81.22-4.22.4c-.35,1-.66,2.15-.92,3.29s-.57,2.24-.92,3.29q-2.11,7.38-3.69,15.67T302,156.38Zm29-94.56q-4.74,10.27-9.09,21.47t-8,22.52c1.58-.17,3.11-.31,4.6-.4s3-.22,4.61-.39a4.58,4.58,0,0,0,.4-1.32,5.05,5.05,0,0,1,.39-1.32q3.17-8.94,7.12-20.94t6.84-23.83c1.06-3.51,1.85-6.59,2.37-9.22s1-4.91,1.32-6.85q-2.12,3.69-4.74,8.56T331,61.82Z" transform="translate(-29.97 -2.56)" style="fill:#231f20"/><path d="M418.72,2.82a7.89,7.89,0,0,1,4.74,3,14.29,14.29,0,0,1,2.24,5,29.71,29.71,0,0,1,.79,5.4c.09,1.75.14,3.07.14,3.95a80.56,80.56,0,0,1-.93,12q-.92,6.2-1.71,10.93a289.55,289.55,0,0,1-9.09,35.3A353.61,353.61,0,0,1,400.81,115a275.82,275.82,0,0,1-15,29.76,160.94,160.94,0,0,1-15,21.86l-.79.79q-1.32,5.53-2.37,10.27t-2.37,9q1.31-2.11,2.37-4.09T370,178.5A67.27,67.27,0,0,1,379,166.39a56.72,56.72,0,0,1,4.48-3.82,9.16,9.16,0,0,1,7.64-1.71,16.08,16.08,0,0,1,3.16,1,10.09,10.09,0,0,1,3.42,2.5,18.69,18.69,0,0,1,2.9,4.35,17.92,17.92,0,0,1,1.58,6.85,45.86,45.86,0,0,1-.39,8.95q-.67,4.74-1.45,9.48-.54,3.17-.79,5.93c-.18,1.84-.36,3.55-.53,5.13-.18,2.47-.09,4.05.26,4.75a9.09,9.09,0,0,1,1.32-1.06,9,9,0,0,0,1.32-1,5.61,5.61,0,0,1,4.08-1.05,4.9,4.9,0,0,1,3.55,2.1,5.11,5.11,0,0,1,1.32,4.09,4.91,4.91,0,0,1-2.11,3.55,53.54,53.54,0,0,1-6,3.82c-2.11,1.14-4.74,1.09-7.9-.13q-6.86-2.9-6.85-12.91a27.84,27.84,0,0,1,.39-7.11c.44-2.46.83-5,1.19-7.64q.78-4.47,1.31-8.69a36.62,36.62,0,0,0,.27-7.37,12.29,12.29,0,0,0-.66-3.43,2.21,2.21,0,0,0-.92-1.05,33.71,33.71,0,0,0-3.43,3.16q-2.62,2.64-7.63,11.06-3.71,6.33-7.38,13.43t-6.58,13.17q-1.32,2.91-2.51,5.4c-.79,1.67-1.54,3.12-2.23,4.35-.36.7-.66,1.32-.93,1.84a4.84,4.84,0,0,1-.92,1.32,7.28,7.28,0,0,1-3.29,2.63,6.47,6.47,0,0,1-4.08.27,9.09,9.09,0,0,1-2.37-1.58q-1.59-1.33-2.11-4.75V220a11.61,11.61,0,0,1,.53-3q.53-2.9,1.58-7t2.63-10.14q2.12-9,5.4-22.26t7.51-32.26q4.74-22.12,11.19-45.7t13.3-44.12q3.42-10.28,6.59-18.7t6.05-14.75q4.49-10,7.25-13.56a18.4,18.4,0,0,1,4.61-4.61A5.85,5.85,0,0,1,416,2.56,14.52,14.52,0,0,1,418.72,2.82Zm-3.16,14.49A106.8,106.8,0,0,0,409,30.74Q404.77,40.49,398.44,60q-6.06,17.91-11.85,38.72t-10.27,40.56q5.54-9.48,11.06-21.07t10.4-24.37q4.88-12.76,9-26.2A234.54,234.54,0,0,0,413.19,41a156.68,156.68,0,0,0,2.37-18.18Z" transform="translate(-29.97 -2.56)" style="fill:#231f20"/><path d="M451.38,159.54a6,6,0,0,1-.52,4.21,4.73,4.73,0,0,1-3.17,2.64q-7.63,2.37-11.19,6.19a24.44,24.44,0,0,0-4.87,7,17,17,0,0,0-1.58,8,14.72,14.72,0,0,0,1.58,6.19,13.06,13.06,0,0,0,2.11,3c.87,1,1.75,2,2.63,3q2.63,2.9,5.27,6.06a21,21,0,0,1,3.95,7.9,19.3,19.3,0,0,1,.66,8.42,21.7,21.7,0,0,1-2.24,6.59,22.83,22.83,0,0,1-3.82,5.14q-2.25,2.24-4.08,3.81a48.09,48.09,0,0,1-8.3,5.14,24.31,24.31,0,0,1-11.19,2.77,14,14,0,0,1-8.17-2.37A12.41,12.41,0,0,1,404.5,239a22.91,22.91,0,0,1-2-5.14,21,21,0,0,1-.65-5,25.34,25.34,0,0,1,.26-3.95,5.63,5.63,0,0,1,2-3.82,5.21,5.21,0,0,1,4.09-1.19,5.94,5.94,0,0,1,3.68,2,4.91,4.91,0,0,1,1.32,4.08q-.79,6.59,1.58,8.17c1.06.87,3.16.79,6.32-.27a21.16,21.16,0,0,0,7.64-4.21,31.9,31.9,0,0,0,5.8-6.19q1.58-2.5.26-6.72a13.84,13.84,0,0,0-2.5-4.74q-1.73-2.1-3.82-4.47-1.85-1.84-3.69-4a22.12,22.12,0,0,1-3.16-4.74A24,24,0,0,1,419,187.46a31.73,31.73,0,0,1,2.37-12.12,38.81,38.81,0,0,1,7.24-10.67q5.13-5.65,15.93-8.82a6,6,0,0,1,4.22.53A4.72,4.72,0,0,1,451.38,159.54Z" transform="translate(-29.97 -2.56)" style="fill:#231f20"/><path d="M528,2.82a8,8,0,0,1,4.74,3,14.48,14.48,0,0,1,2.24,5,30.61,30.61,0,0,1,.79,5.4c.08,1.75.13,3.07.13,3.95a81.88,81.88,0,0,1-.92,12q-.93,6.2-1.72,10.93a289.44,289.44,0,0,1-9.08,35.3A353.61,353.61,0,0,1,510.12,115a275.81,275.81,0,0,1-15,29.76,160,160,0,0,1-15,21.86l-.79.79Q478,173,476.93,177.71t-2.37,9q1.32-2.11,2.37-4.09t2.37-4.08a66.76,66.76,0,0,1,9-12.11,56.11,56.11,0,0,1,4.47-3.82,9.16,9.16,0,0,1,7.64-1.71,15.86,15.86,0,0,1,3.16,1,10.22,10.22,0,0,1,3.43,2.5,19,19,0,0,1,2.89,4.35,17.74,17.74,0,0,1,1.58,6.85,45.09,45.09,0,0,1-.39,8.95q-.66,4.74-1.45,9.48c-.35,2.11-.62,4.09-.79,5.93s-.35,3.55-.53,5.13c-.17,2.47-.09,4.05.27,4.75a9.53,9.53,0,0,1,1.31-1.06,8.45,8.45,0,0,0,1.32-1,5.63,5.63,0,0,1,4.08-1.05,4.92,4.92,0,0,1,3.56,2.1,5.18,5.18,0,0,1,1.32,4.09,4.91,4.91,0,0,1-2.11,3.55,53.67,53.67,0,0,1-6.06,3.82c-2.11,1.14-4.74,1.09-7.9-.13q-6.85-2.9-6.85-12.91a27.86,27.86,0,0,1,.4-7.11c.43-2.46.83-5,1.18-7.64.53-3,1-5.88,1.32-8.69a36.54,36.54,0,0,0,.26-7.37,11.92,11.92,0,0,0-.66-3.43,2.21,2.21,0,0,0-.92-1.05,32.93,32.93,0,0,0-3.42,3.16q-2.64,2.64-7.64,11.06-3.69,6.33-7.38,13.43t-6.58,13.17q-1.32,2.91-2.5,5.4T469,222.49c-.36.7-.66,1.32-.92,1.84a5.09,5.09,0,0,1-.93,1.32,7.23,7.23,0,0,1-3.29,2.63,6.47,6.47,0,0,1-4.08.27,9.09,9.09,0,0,1-2.37-1.58q-1.57-1.33-2.11-4.75V220a11.61,11.61,0,0,1,.53-3q.52-2.9,1.58-7t2.63-10.14q2.12-9,5.4-22.26T473,145.32q4.74-22.12,11.19-45.7t13.3-44.12q3.42-10.28,6.59-18.7t6.06-14.75q4.47-10,7.24-13.56A18.4,18.4,0,0,1,522,3.88a5.87,5.87,0,0,1,3.29-1.32A14.63,14.63,0,0,1,528,2.82Zm-3.16,14.49a106.47,106.47,0,0,0-6.59,13.43Q514.07,40.49,507.75,60q-6.06,17.91-11.86,38.72t-10.27,40.56q5.53-9.48,11.06-21.07t10.41-24.37Q512,81.06,516,67.62A234.61,234.61,0,0,0,522.5,41a161.15,161.15,0,0,0,2.37-18.18Z" transform="translate(-29.97 -2.56)" style="fill:#231f20"/><path d="M568.59,176.66a22.41,22.41,0,0,1,.79,7.64,38,38,0,0,1-1.19,7.37,38.41,38.41,0,0,1-2.11,6.06,39.65,39.65,0,0,1-2,4,45.39,45.39,0,0,1-10.67,13,21.49,21.49,0,0,1-14.09,5.4,17.1,17.1,0,0,1-7.11-1.32,14.89,14.89,0,0,1-3.56-2.76,15.23,15.23,0,0,1-3.29-5.67,28.24,28.24,0,0,1-.79-14,41.12,41.12,0,0,1,5.27-14.48,51,51,0,0,1,5.93-8.17,27.92,27.92,0,0,1,7-5.79,20.19,20.19,0,0,1,9.21-2.9,16.17,16.17,0,0,1,9,2.11A15.5,15.5,0,0,1,568.59,176.66Zm-14.23,19.75a32.62,32.62,0,0,0,3.56-9.22,16.18,16.18,0,0,0,.13-7.37,5.44,5.44,0,0,0-2.11-2.9q-4.22-2.1-8.82,1.58a33.44,33.44,0,0,0-7.77,9,24.92,24.92,0,0,0-2.9,6.58,26.85,26.85,0,0,0-1.05,7.38,15.29,15.29,0,0,0,.26,5.27c.36,1.05.71,1.67,1.06,1.84a7,7,0,0,0,5,.26,14.22,14.22,0,0,0,5-2.76,27.69,27.69,0,0,0,4.34-4.61A44.46,44.46,0,0,0,554.36,196.41Z" transform="translate(-29.97 -2.56)" style="fill:#231f20"/><path d="M659.45,171.39a4.83,4.83,0,0,1,.27,4.08,7.4,7.4,0,0,1-2.64,3.3c-.35.35-.61.52-.79.52a.74.74,0,0,0-.52.27,27.72,27.72,0,0,1-4.88,2.37,32.2,32.2,0,0,1-7.77,1.58,31.45,31.45,0,0,1-10.4-1.06q-4.35-1.3-7.77-2.63-2.64-1-4.74-1.71a12,12,0,0,0-4.74-.4,15.62,15.62,0,0,0-4,1.32q-3.16,1.32-7.9,7.37-10.27,13.44-19.49,43.73a4.91,4.91,0,0,1-2.77,3.42,5.76,5.76,0,0,1-3.82.26,5.85,5.85,0,0,1-3.42-2.37,4.59,4.59,0,0,1-.79-3.95q1.32-7.11,2.5-14.09t2.5-13.83q1.32-6.84,2.5-14t2.51-14q1.32-5.28,6.58-4.48a6.46,6.46,0,0,1,3.56,2.37,4.41,4.41,0,0,1,.92,3.95,42.4,42.4,0,0,0-.79,4.61,35.41,35.41,0,0,1-.79,4.34,5,5,0,0,0,.92-1.31,4.91,4.91,0,0,1,.92-1.32q6.33-8.43,11.72-10.8a23.6,23.6,0,0,1,9.09-2.37,26.55,26.55,0,0,1,7.37.92q3.17.93,6.06,2a45.48,45.48,0,0,0,6.06,2.24,23,23,0,0,0,7.64.66,16,16,0,0,0,4.48-.93,21.06,21.06,0,0,0,2.89-1.45,18.77,18.77,0,0,1,1.85-1Q656.82,166.92,659.45,171.39Z" transform="translate(-29.97 -2.56)" style="fill:#231f20"/><path d="M750.58,176.13a4.9,4.9,0,0,1,.66,4.22,6.19,6.19,0,0,1-2.76,3.42q-2.37,1.32-6.72,3.82t-10.14,5.53q-5.79,3-12.77,6.45t-14.36,6.59q-8.68,3.69-18.17,6.72A79,79,0,0,1,666,216.43q-9,.27-14.75-4.21a13.94,13.94,0,0,1-5.4-7.51,24.79,24.79,0,0,1-.79-8.82,37.23,37.23,0,0,1,1.58-8.17q1.19-3.69,2-5.79a38.13,38.13,0,0,1,12.91-17.12,36.55,36.55,0,0,1,16.33-7.64q9.21-1.57,13.69,3.16a9.2,9.2,0,0,1,2.51,7.37,33.17,33.17,0,0,1-1.71,7.91A36.34,36.34,0,0,1,684,189.3a32.79,32.79,0,0,1-8,5.66,34,34,0,0,1-7.9,2.77,34.46,34.46,0,0,1-7,.79,38.06,38.06,0,0,1-5-.26c0,2.46.7,4.12,2.1,5q2.64,2.12,8.83,2.11t16.46-3a196.77,196.77,0,0,0,25-9.75A384.06,384.06,0,0,0,743,174.29a5.27,5.27,0,0,1,4.21-.79A5.61,5.61,0,0,1,750.58,176.13Zm-91.66,9.75a2.12,2.12,0,0,0-.26.79,2.12,2.12,0,0,1-.26.79,51.29,51.29,0,0,0,8.16-.92,18.27,18.27,0,0,0,9.75-5.4,18.63,18.63,0,0,0,4.61-6.85,27.8,27.8,0,0,0,2-6.32,25.87,25.87,0,0,0-3,.26,24.75,24.75,0,0,0-4.87,1.32,30.46,30.46,0,0,0-16.07,16.33Z" transform="translate(-29.97 -2.56)" style="fill:#231f20"/></svg>