<svg id="Layer_1" data-name="Layer 1" xmlns="http://www.w3.org/2000/svg" viewBox="0 0 776.3 247.8"><title>photogenic</title><path d="M289.77,56a44.94,44.94,0,0,1,5.15,36.77q-4.21,16.16-17.8,31.15-13.59,14.52-34,26.23a147.65,147.65,0,0,1-22.49,10.54A184.66,184.66,0,0,1,196.08,168a187.72,187.72,0,0,1-28.81,4.45q-4,5.4-7.85,10.89t-7.84,11.13q-4.92,6.8-12,15.93t-14.52,17.33a123.55,123.55,0,0,1-9.84,10.07,79.84,79.84,0,0,1-7.26,5.85,26.23,26.23,0,0,1-5.15,2.93,18.45,18.45,0,0,1-3.51,1.06,6.36,6.36,0,0,1-1.88.23,7.62,7.62,0,0,1-3.16-.59A12.13,12.13,0,0,1,92.09,246q-5.86-4.46-4.45-17.34,1.39-10.31,7-24.59a279.59,279.59,0,0,1,18.74-39.35,49.53,49.53,0,0,1-11.24-8.19,43.52,43.52,0,0,1-11.71-16.05,38.82,38.82,0,0,1-2.81-18.85,5,5,0,0,1,1.75-3.4,4.24,4.24,0,0,1,3.4-1,5.4,5.4,0,0,1,3.51,1.75,4.07,4.07,0,0,1,1.17,3.4,29.29,29.29,0,0,0,5.16,19.91A44.21,44.21,0,0,0,118.55,156q1.88-3.28,4-6.44c1.4-2.11,2.81-4.18,4.21-6.21q2.82-4.22,9-12.18a161.26,161.26,0,0,1,14.17-15.81,107.6,107.6,0,0,1,17.21-13.82q9.25-6,18.39-6a25.37,25.37,0,0,1,9,1.64,43.48,43.48,0,0,1,7.37,3.51q3.28-5.14,6.09-9.83t5.39-9.14a4.93,4.93,0,0,1,3.05-2.34,4.71,4.71,0,0,1,3.74.7q4,2.58,1.64,6.56-9.36,15.69-21.08,34.78t-26.23,40.4q22-2.56,38.3-8.78t25.41-11.59q19-10.55,31.27-23.78t15.81-27.28a36.25,36.25,0,0,0-4-29.28,47.62,47.62,0,0,0-14.17-14.87A85.49,85.49,0,0,0,248,36.57a133.5,133.5,0,0,0-21.43-5.74,193,193,0,0,0-20.85-2.69,250.78,250.78,0,0,0-25.18-.59Q168.44,27.9,159,28.6t-15.34,1.64q-5.87.95-6.33.94c-1.72.32-4.53.86-8.43,1.64s-8.43,1.84-13.59,3.16-10.85,3-17.09,4.92a182.19,182.19,0,0,0-19,7.14Q29.55,69.13,16.44,101.91A39.84,39.84,0,0,0,13.74,121a35.76,35.76,0,0,0,6.91,17.45,5.78,5.78,0,0,1,.94,3.87,4.19,4.19,0,0,1-2.11,3.16,4.64,4.64,0,0,1-3.63.82,4.8,4.8,0,0,1-3.16-2,46.48,46.48,0,0,1-8.67-22A49,49,0,0,1,7.3,98.4a79.66,79.66,0,0,1,11-19.21A94.64,94.64,0,0,1,35.64,62.1Q51.81,49,75.22,39.14,85.3,34.92,95,31.77t17.8-5.27q8.07-2.12,14.05-3.4c4-.86,6.91-1.44,8.78-1.76q4.92-.69,12.53-1.64t16.87-1.52q9.24-.59,19.9-.58t21.43.7A234,234,0,0,1,232,21.81a119.28,119.28,0,0,1,21.67,6.33Q278.28,38,289.77,56ZM143.62,188.57c2-2.65,4-5.27,5.85-7.84s3.67-5.19,5.39-7.85h-.94q-7.26,0-15-.7a62.67,62.67,0,0,1-16.39-3.51q-5.4,9.6-10.19,19.32T104,206.61a138.72,138.72,0,0,0-4.56,13.7,77.37,77.37,0,0,0-2,9.37,24.35,24.35,0,0,0-.23,5.62,15.11,15.11,0,0,0,.47,2.69,4.81,4.81,0,0,0,1.64-.58,32.28,32.28,0,0,0,3.51-2.23,55.23,55.23,0,0,0,5.62-4.68q3.28-3,8-8.2,7.49-8.19,14.75-17.33T143.62,188.57Zm18.26-25.76q9.84-14.52,18.62-28t16.28-25.65a26.54,26.54,0,0,0-5.15-2.57,16.3,16.3,0,0,0-5.86-1.17h-.23q-10.54,0-26.47,14.75a124.8,124.8,0,0,0-14.52,15.69q-6.31,8.2-9.6,13.12c-1.25,1.72-2.46,3.51-3.63,5.39s-2.38,3.75-3.63,5.62a59.46,59.46,0,0,0,6,1.52,48.58,48.58,0,0,0,6.21.82c3.75.32,7.45.51,11.12.59S158.29,163,161.88,162.81Z" transform="translate(-3.7 -17.6)" style="fill:#231f20"/><path d="M339,158.59a4.83,4.83,0,0,1,0,6.8q-11.47,11.72-19.21,16.86-11,7.5-18.73,4.45a5.74,5.74,0,0,1-2.7-2.23,8.38,8.38,0,0,1-1.29-5c0-.94,0-1.91.12-2.93s.2-2.14.35-3.39a27.5,27.5,0,0,0,.59-4.57,25,25,0,0,0-.12-4.34,4,4,0,0,0-.47-1.63,2.42,2.42,0,0,0-.7-.47,13.54,13.54,0,0,0-4.1.23q-3.17.48-8.55,4-12.18,7.74-25.76,26.94a4.52,4.52,0,0,1-4,2.11,6.19,6.19,0,0,1-2.81-.71,5.19,5.19,0,0,1-2.11-3,4.72,4.72,0,0,1,.7-3.75q8.91-14.52,17.45-28.69t17-28Q301.47,103.56,319,74.28a5,5,0,0,1,3-2.35,4.71,4.71,0,0,1,3.74.71,5,5,0,0,1,2.35,3,4.73,4.73,0,0,1-.71,3.75Q318.58,93.95,310,108.12t-17,28.22q-3.29,5.16-6.32,10.19T280.4,157q6.78-4,11.35-4.45a25.12,25.12,0,0,1,6.91,0,14.21,14.21,0,0,1,5.27,2.58c1.95,1.41,3.24,4,3.87,7.73a46.27,46.27,0,0,1,.12,5.5,37.6,37.6,0,0,1-.47,4.69,19,19,0,0,0-.35,3.28c0,.86.23,1.29.7,1.29a46.17,46.17,0,0,0,8.31-4.81q5.75-3.85,15.81-14.17a4.66,4.66,0,0,1,3.4-1.4A5.5,5.5,0,0,1,339,158.59Z" transform="translate(-3.7 -17.6)" style="fill:#231f20"/><path d="M392.82,161.17a4.61,4.61,0,0,1-.59,3.63,4.67,4.67,0,0,1-2.92,2.23,80.56,80.56,0,0,1-9.61,1.87,62.34,62.34,0,0,1-13.35.47,25.28,25.28,0,0,1-2.1,6.56,47.78,47.78,0,0,1-4.57,9.36,32.34,32.34,0,0,1-5.16,6.21,24.93,24.93,0,0,1-5.15,3.75q-2.46,1.29-4.1,2a19.71,19.71,0,0,1-6.09,1.17,12.81,12.81,0,0,1-7.49-2.11q-4.68-2.81-5.86-11.71a34,34,0,0,1-.35-6.67,32.64,32.64,0,0,1,2-9.49q3-9.84,11.48-19.21a4.09,4.09,0,0,1,2.11-1.17,12,12,0,0,1,.23-4,13.53,13.53,0,0,1,7-9.37,8,8,0,0,1,5.5-.82,11.66,11.66,0,0,1,5.51,2.93,25.93,25.93,0,0,1,6.32,9,29.67,29.67,0,0,1,2.11,13.93,81.27,81.27,0,0,0,9.6-.58,75.27,75.27,0,0,0,9.6-1.76,4.4,4.4,0,0,1,3.63.71A5.06,5.06,0,0,1,392.82,161.17Zm-37.71,11.48c.31-.78.59-1.56.82-2.35s.51-1.55.82-2.34a34,34,0,0,1-6.21-2.93,15,15,0,0,1-4.8-4.56,5.76,5.76,0,0,1-.82-1.06c-.23-.38-.43-.74-.58-1a35.87,35.87,0,0,0-6.68,10.89,44.79,44.79,0,0,0-2.22,8.55,17.62,17.62,0,0,0,.35,7,14.9,14.9,0,0,0,1.29,3.27,5.81,5.81,0,0,0,1.87.36,7.64,7.64,0,0,0,3.28-.59q1.88-.47,5.74-3.63T355.11,172.65Zm-1.4-17.8a9.17,9.17,0,0,0,4.21,3,21.93,21.93,0,0,0-.7-6,34.78,34.78,0,0,0-1.41-4.1,9,9,0,0,0-3.51-4,4.65,4.65,0,0,0-1.4,2.34Q350.2,149.93,353.71,154.85Z" transform="translate(-3.7 -17.6)" style="fill:#231f20"/><path d="M457.46,112a4.68,4.68,0,0,1,3.51,1.44,5.85,5.85,0,0,1,1.64,3.6,5.1,5.1,0,0,1-1.4,3.48,4.3,4.3,0,0,1-3.28,1.56q-13.83.69-27.64.7c-1.09,0-2.19,0-3.28-.12s-2.26-.12-3.51-.12h-4.45q-10.55,16.17-17.57,28.11-4.92,8.43-8.43,14.87a117.12,117.12,0,0,0-5.62,11.6,36.27,36.27,0,0,0-2.69,7.73,26.28,26.28,0,0,0-.36,3,8.49,8.49,0,0,0,4.1,0q2.92-.47,8.32-3.51,14.06-7.26,36.54-27.87a4.73,4.73,0,0,1,3.51-1.41,4.45,4.45,0,0,1,3.51,1.64,4.38,4.38,0,0,1,1.29,3.51,4.11,4.11,0,0,1-1.76,3.28,268.25,268.25,0,0,1-21.19,18.15,154.67,154.67,0,0,1-17.22,11.6q-9.36,4.68-15.69,4.68a12.46,12.46,0,0,1-8-2.57,8.44,8.44,0,0,1-2.58-3.87,13.45,13.45,0,0,1-.59-4.68,22.79,22.79,0,0,1,.82-4.92c.47-1.64.94-3.16,1.41-4.57q3.28-9.84,13.58-27.4,3.52-6.09,7.73-12.88t9.37-14.76q-8.2-.23-16.39-.7l-16.4-.94a5.21,5.21,0,0,1-3.28-1.81,4.63,4.63,0,0,1-1.17-3.73,5.36,5.36,0,0,1,1.76-3.35,4.1,4.1,0,0,1,3.39-1.18q9.61.7,19.09,1t19.09.82q7.72-11.7,17.1-25.64T451.84,56A4.2,4.2,0,0,1,455,53.9a5.06,5.06,0,0,1,3.63.94,4.53,4.53,0,0,1,2.23,3,5.15,5.15,0,0,1-.82,3.75q-10.55,14.76-19,27.4t-15.69,23.42q8.2.24,16.16.12T457.46,112Z" transform="translate(-3.7 -17.6)" style="fill:#231f20"/><path d="M494.23,161.17a4.61,4.61,0,0,1-.59,3.63,4.67,4.67,0,0,1-2.92,2.23,80.56,80.56,0,0,1-9.61,1.87,62.34,62.34,0,0,1-13.35.47,24.9,24.9,0,0,1-2.1,6.56,47.78,47.78,0,0,1-4.57,9.36,32.69,32.69,0,0,1-5.15,6.21,25.24,25.24,0,0,1-5.16,3.75c-1.64.86-3,1.52-4.1,2a19.71,19.71,0,0,1-6.09,1.17,12.81,12.81,0,0,1-7.49-2.11q-4.68-2.81-5.85-11.71a33.13,33.13,0,0,1-.36-6.67,32.64,32.64,0,0,1,2-9.49q3.06-9.84,11.48-19.21a4.13,4.13,0,0,1,2.11-1.17,12,12,0,0,1,.23-4,13.53,13.53,0,0,1,7-9.37,8,8,0,0,1,5.5-.82,11.66,11.66,0,0,1,5.51,2.93,25.93,25.93,0,0,1,6.32,9,29.67,29.67,0,0,1,2.11,13.93,81.27,81.27,0,0,0,9.6-.58,75.74,75.74,0,0,0,9.61-1.76,4.42,4.42,0,0,1,3.63.71A5,5,0,0,1,494.23,161.17Zm-37.71,11.48c.31-.78.59-1.56.82-2.35s.51-1.55.82-2.34A34.26,34.26,0,0,1,452,165a15,15,0,0,1-4.8-4.56,5.76,5.76,0,0,1-.82-1.06c-.23-.38-.43-.74-.58-1a35.87,35.87,0,0,0-6.68,10.89,44.79,44.79,0,0,0-2.22,8.55,17.62,17.62,0,0,0,.35,7,14.9,14.9,0,0,0,1.29,3.27,5.81,5.81,0,0,0,1.87.36,7.64,7.64,0,0,0,3.28-.59q1.88-.47,5.74-3.63T456.52,172.65Zm-1.4-17.8a9.17,9.17,0,0,0,4.21,3,21.93,21.93,0,0,0-.7-6,34.78,34.78,0,0,0-1.41-4.1,9,9,0,0,0-3.51-4,4.65,4.65,0,0,0-1.4,2.34Q451.6,149.93,455.12,154.85Z" transform="translate(-3.7 -17.6)" style="fill:#231f20"/><path d="M552.08,201.92a5.26,5.26,0,0,1,4.92,4.92,4.58,4.58,0,0,1-1.53,3.52,4.89,4.89,0,0,1-3.39,1.4q-27.87.48-49,2.81L500,220,497,224.88q-5.62,8.9-10.31,16.27a138.3,138.3,0,0,1-9,12.77,40.37,40.37,0,0,1-8.66,8.31,17.3,17.3,0,0,1-8.78,3.17h-.94a21.31,21.31,0,0,1-9.72-2.58,29.49,29.49,0,0,1-9-7.26,23.74,23.74,0,0,1-4.57-8.43,14.87,14.87,0,0,1-.11-8.43q1.39-6.8,7.73-13.12,6.8-6.79,19.2-11.71,13.59-5.15,34.2-8.43,2.56-4.22,5.38-9.14t6.09-10.54A51.1,51.1,0,0,1,497.74,190a26.64,26.64,0,0,1-9.6.94,12.41,12.41,0,0,1-5-1.64,11.5,11.5,0,0,1-2.69-2.35q-3-4.22-2-10.54A34.66,34.66,0,0,1,484.16,163a51.15,51.15,0,0,1,6.2-7.26,43.47,43.47,0,0,1,7.15-5.62q9.14-5.85,17.56-3.75a22.51,22.51,0,0,1,11,7l.47-.94c.47-.78.94-1.55,1.4-2.34s.94-1.48,1.41-2.11a5,5,0,0,1,3-2.34,4.72,4.72,0,0,1,3.75.7,5.89,5.89,0,0,1,2.23,2.93,4.18,4.18,0,0,1-.59,3.63Q528.9,169.14,522,181.66T509.45,204Q528.43,202.16,552.08,201.92Zm-64.41,19.44c.78-1.4,1.37-2.42,1.76-3s.74-1.25,1.05-1.87A141.94,141.94,0,0,0,466.36,223q-18.27,7.5-21.08,18-.7,3.51,3,8.43a19.36,19.36,0,0,0,5.51,4.57,10.51,10.51,0,0,0,6,1.52c.93,0,2.3-.59,4.1-1.76s4.18-3.63,7.14-7.38a118.47,118.47,0,0,0,7.85-11.24Q483,228.63,487.67,221.36Zm9.84-41.69a43.65,43.65,0,0,0,15.92-9.37,35.88,35.88,0,0,0,6.56-7.72q.93-1.87-2-4a13.94,13.94,0,0,0-5.5-2.57q-4-1.17-9.84,2.46a34.43,34.43,0,0,0-10.31,10.19,23.85,23.85,0,0,0-4,7.84c-.47,2.11-.54,3.55-.23,4.33a5.35,5.35,0,0,0,2.93.36A26.91,26.91,0,0,0,497.51,179.67Z" transform="translate(-3.7 -17.6)" style="fill:#231f20"/><path d="M608.76,161.17a4.1,4.1,0,0,1,1.75,3.28,4.4,4.4,0,0,1-1.28,3.51A59.7,59.7,0,0,1,599,177.68a98.54,98.54,0,0,1-12.53,7.85,72.78,72.78,0,0,1-13.35,5.39A52.18,52.18,0,0,1,561,193h-1.17q-9.37,0-14.52-4.92a16.79,16.79,0,0,1-4.46-8.08,27.89,27.89,0,0,1-.58-9.83,37.28,37.28,0,0,1,2.69-10.07,32.23,32.23,0,0,1,5.39-8.79,62.86,62.86,0,0,1,15.34-12.76q8.55-5,15.34-5.27a10.68,10.68,0,0,1,5.27.7,11.21,11.21,0,0,1,3.16,2.11,17.53,17.53,0,0,1,1.88,3,9.53,9.53,0,0,1,.7,4.92,25.08,25.08,0,0,1-3.51,10,30.45,30.45,0,0,1-8.43,9.25,33.86,33.86,0,0,1-14.88,6.91A73.91,73.91,0,0,1,550,171.71q-.24,6.33,2.34,9.37,2.34,2.58,8.43,2.11a37.1,37.1,0,0,0,9.49-1.41,59.36,59.36,0,0,0,10.77-4.1A70.24,70.24,0,0,0,591.89,171,63.66,63.66,0,0,0,602,161.64a4.11,4.11,0,0,1,3.27-1.76A4.39,4.39,0,0,1,608.76,161.17Zm-52.93-3.51a49.57,49.57,0,0,0-2.82,4.21c2.66-.31,5.82-.85,9.49-1.64a21.78,21.78,0,0,0,9.49-4.45,23.41,23.41,0,0,0,6.55-7.49q1.88-3.75,1.64-5.15a19,19,0,0,0-8.9,2.34,62.71,62.71,0,0,0-8.08,5.15A41.54,41.54,0,0,0,555.83,157.66Z" transform="translate(-3.7 -17.6)" style="fill:#231f20"/><path d="M680.89,158.59a5.09,5.09,0,0,1,0,7q-3,2.81-7.14,6.44a90.07,90.07,0,0,1-8.67,6.79,68.5,68.5,0,0,1-9.13,5.39,19.53,19.53,0,0,1-8.55,2.22h-.23a11.68,11.68,0,0,1-4.22-1.05,7.45,7.45,0,0,1-2.57-2,6.46,6.46,0,0,1-2.11-5.27,15.24,15.24,0,0,1,.7-4.1,66.35,66.35,0,0,1,2.81-8.43c.62-1.41,1.21-2.81,1.76-4.22a33.66,33.66,0,0,0,1.28-4,7.41,7.41,0,0,0,.47-2.34v-1.41a13.62,13.62,0,0,0-4.21,1.29q-3,1.29-9.14,6-5.38,4.44-10.77,9.72t-10.07,10c-1.41,1.41-2.7,2.73-3.87,4a23.39,23.39,0,0,1-3.39,3A32.21,32.21,0,0,1,601,190.1a5.9,5.9,0,0,1-3.75,1.28,4.09,4.09,0,0,1-1.52-.23c-.39-.15-.74-.31-1.06-.47a4.19,4.19,0,0,1-2.34-3.28,6.56,6.56,0,0,1,0-3.51q.46-2.34,3.75-8.67,2.58-5.39,6.56-12.18T612,147.82a5,5,0,0,1,3.05-2.34,4.72,4.72,0,0,1,3.75.7,5,5,0,0,1,2.34,3,4.71,4.71,0,0,1-.7,3.75q-2.12,3.28-3.87,6.21c-1.17,1.95-2.3,3.79-3.39,5.5q5.61-5.38,10.65-9.72a72.11,72.11,0,0,1,9.72-7.14,28.12,28.12,0,0,1,8.79-3.63,13.1,13.1,0,0,1,7.61.59,12.41,12.41,0,0,1,2,1.28,7.77,7.77,0,0,1,1.87,2.23,10.26,10.26,0,0,1,1.17,3.63,17.19,17.19,0,0,1-.11,5.27,36,36,0,0,1-1.53,5.85q-1.05,3.06-2.22,6.09-.71,1.65-1.41,3.63t-1.17,3.63a26.75,26.75,0,0,0,2.81-.93,24.8,24.8,0,0,0,4.69-2.58q4-2.58,8.55-6.09a118.77,118.77,0,0,0,9.48-8.2,4.82,4.82,0,0,1,6.79,0Z" transform="translate(-3.7 -17.6)" style="fill:#231f20"/><path d="M719.07,158.83a4.37,4.37,0,0,1,1.29,3.51,5.2,5.2,0,0,1-1.52,3.51q-6.8,6.33-13.35,11.6a101.44,101.44,0,0,1-12.65,8.78,59,59,0,0,1-7.38,4,19.33,19.33,0,0,1-8.08,1.88,8.21,8.21,0,0,1-6.09-2.35q-2.1-1.86-2.93-6.32c-.54-3,.35-7.34,2.7-13.12a97,97,0,0,1,6.2-11.59A115.4,115.4,0,0,1,690,142.2a5,5,0,0,1,3.39-1.52,5,5,0,0,1,3.63,1.28,3.8,3.8,0,0,1,1.64,3.28,5.32,5.32,0,0,1-1.17,3.52,107.56,107.56,0,0,0-11,13.82,92.61,92.61,0,0,0-5.62,9.83,29.75,29.75,0,0,0-2.34,6.33,20,20,0,0,0-.47,3.51,23.68,23.68,0,0,0,4-1.41,57.44,57.44,0,0,0,8-4.45q4.92-3.27,10.65-7.84t11.36-10a4.8,4.8,0,0,1,3.52-1.4A4.45,4.45,0,0,1,719.07,158.83Zm-16.39-28.11a4,4,0,0,1-1.76-3.16,5.51,5.51,0,0,1,1.05-3.63l7.73-9.84a4.12,4.12,0,0,1,3.28-1.75,5.71,5.71,0,0,1,3.75,1,4.05,4.05,0,0,1,1.76,3.16,5.56,5.56,0,0,1-1.06,3.63L709.7,130a5.58,5.58,0,0,1-4,1.87A5.26,5.26,0,0,1,702.68,130.72Z" transform="translate(-3.7 -17.6)" style="fill:#231f20"/><path d="M779,160a5,5,0,0,1,.93,3.63,4.33,4.33,0,0,1-1.87,3.16q-15.23,11.25-26.58,18a108.58,108.58,0,0,1-19.56,9.6,38,38,0,0,1-10.3,1.87,15.8,15.8,0,0,1-10.54-3.75q-7.5-6.78-6.33-19a38.67,38.67,0,0,1,9.37-20.37q7.5-8.67,14.05-10.66A32.54,32.54,0,0,1,742,141.5,13.07,13.07,0,0,1,753,149a4.72,4.72,0,0,1,.7,3.75,4.94,4.94,0,0,1-2.34,3,4.33,4.33,0,0,1-3.75.59,5.46,5.46,0,0,1-3-2.46,5.18,5.18,0,0,0-1.88-2.11,9.48,9.48,0,0,0-1.87-.7,24.91,24.91,0,0,0-9,.7q-4.33,1.17-10.18,7.73-6.33,7.5-7,15.22a22,22,0,0,0,.12,5,7.67,7.67,0,0,0,2.92,5.27,8,8,0,0,0,2.7,1.17q2.22.71,8.31-1.17a101.53,101.53,0,0,0,18.39-9.13q10.89-6.56,25.18-17.1a5.06,5.06,0,0,1,3.63-.94A4.21,4.21,0,0,1,779,160Z" transform="translate(-3.7 -17.6)" style="fill:#231f20"/></svg>