<svg id="Layer_1" data-name="Layer 1" xmlns="http://www.w3.org/2000/svg" viewBox="0 0 678.96 267.75"><title>royalty</title><path d="M226.51,101a3.18,3.18,0,0,1,1.4,2.47,3.77,3.77,0,0,1-.93,2.73,186,186,0,0,1-24.36,22.19,133.94,133.94,0,0,1-37.76,20.2q-12.56,4.25-22.58,4.24h-1.13a35.59,35.59,0,0,1-7.73-1,32.81,32.81,0,0,1-4.92-1.69q-8.61-3.57-15.55-13.27a41.39,41.39,0,0,1-7.45-19,37.65,37.65,0,0,1,2.76-19.46,3.65,3.65,0,0,1,2.82-2.26q21.17-4.41,43.47-16.59a258.11,258.11,0,0,0,44.6-31.43,99.33,99.33,0,0,0,8.76-8.58,71.72,71.72,0,0,0,6.56-8.4,38.58,38.58,0,0,0,4-7.81,16.76,16.76,0,0,0,1.17-6.67,5.94,5.94,0,0,0-2.44-4.85,12.77,12.77,0,0,0-5-2.08,25.09,25.09,0,0,0-5.81-.39,34.21,34.21,0,0,0-6,.78q-3,.64-5.63,1.43A91.73,91.73,0,0,0,181.11,17a119.38,119.38,0,0,0-13.82,8.06,187.21,187.21,0,0,0-15.69,12q-7.26,6.24-12.88,11.92t-9.51,10.14q-3.9,4.47-5.67,6.63Q116.79,76.6,110.33,86T98.1,103.29q-5.76,8-10.68,14.52t-8.76,11.48c-.88,1.22-1.72,2.34-2.53,3.38A189.13,189.13,0,0,1,63.24,148a123,123,0,0,1-12.32,11.57,4.14,4.14,0,0,1-2.62,1,4.5,4.5,0,0,1-3.09-1.3,3.73,3.73,0,0,1-.94-2.73,3.42,3.42,0,0,1,1.41-2.56,114,114,0,0,0,11.66-11,184,184,0,0,0,12.23-14.6c.37-.52.78-1,1.22-1.6s.87-1.15,1.31-1.78q4.13-5.37,9.56-12.53t11.8-16Q99.84,87.52,107,76.9T121.66,54c1.69-2.78,3.52-5.82,5.48-9.15s4-6.87,6-10.66,4-7.8,6-12,3.72-8.74,5.34-13.47a3.84,3.84,0,0,1,2-2.17,4.17,4.17,0,0,1,5.43,1.6,3.09,3.09,0,0,1,.23,2.82q-2.43,7-5.15,13.22t-5.71,11.83q4.68-4.24,10-8.5t11.29-8.32a114.17,114.17,0,0,1,14.85-8.71,110,110,0,0,1,14.85-6A55.41,55.41,0,0,1,208,1.79q8.61.16,14.14,4.07a11.77,11.77,0,0,1,4,4.42,14.58,14.58,0,0,1,1.6,6,23.2,23.2,0,0,1-1.27,8.28A42.63,42.63,0,0,1,222,33.82a75,75,0,0,1-7.4,9.79,105.44,105.44,0,0,1-10,9.84,260,260,0,0,1-45.06,32A171.13,171.13,0,0,1,115,102.86a29.5,29.5,0,0,0-1.64,7.49,32.22,32.22,0,0,0,.28,7.72,34.94,34.94,0,0,0,2.11,7.58,33.13,33.13,0,0,0,3.94,7.11,38.31,38.31,0,0,0,5.85,6.54,24.64,24.64,0,0,0,6.33,4c.68.29,1.73.65,3.13,1.09a24,24,0,0,0,5.72.82,48.26,48.26,0,0,0,8.85-.56,77.67,77.67,0,0,0,12.56-3.08,121.36,121.36,0,0,0,30.22-15.3,168.56,168.56,0,0,0,28.43-24.92,3.8,3.8,0,0,1,2.72-1.34A4.12,4.12,0,0,1,226.51,101Z" transform="translate(-44.26 -1.79)" style="fill:#231f20"/><path d="M295.09,104.5a3.73,3.73,0,0,1,.94,2.73,3.16,3.16,0,0,1-1.41,2.47c-1.93,1.51-3.74,2.82-5.43,4s-3.36,2.14-5,3-3.35,1.72-5.06,2.47-3.61,1.5-5.67,2.25a92,92,0,0,1-13,3.73A94,94,0,0,1,247,127a59.35,59.35,0,0,1-7.78,0q-1.5,2.25-3.7,5.16a56.79,56.79,0,0,1-4.92,5.63,43.45,43.45,0,0,1-5.81,4.9,20,20,0,0,1-6.46,3,11,11,0,0,1-3.28.52,10.09,10.09,0,0,1-5.16-1.3,11.8,11.8,0,0,1-1.87-1.26,8.52,8.52,0,0,1-1.87-2.16,11.69,11.69,0,0,1-1.36-3.25,13.75,13.75,0,0,1-.33-4.6A22.26,22.26,0,0,1,205.8,127q1.13-3,1.78-4.34,5.25-10.65,12.27-14.21c.32-1.1.68-2.15,1.08-3.16a13.31,13.31,0,0,1,1.55-2.82,22.51,22.51,0,0,1,6.37-6.5,21.4,21.4,0,0,1,7.87-3.47q4.68-.78,7.68,1.3,5.25,3.64,3.19,14.13a41.44,41.44,0,0,1-1.64,5.76q-1.08,3-2.48,5.94c.5,0,1,0,1.49,0s1,0,1.5,0a94.94,94.94,0,0,0,12.18-1.77,84.82,84.82,0,0,0,11.9-3.34q2.71-1,5-2t4.49-2.16a49.72,49.72,0,0,0,4.45-2.69q2.25-1.52,5-3.6a4.29,4.29,0,0,1,2.95-.82A3.77,3.77,0,0,1,295.09,104.5ZM216.2,138.65q3-.78,6.84-4.29a58.07,58.07,0,0,0,7.68-8.8,18,18,0,0,1-8.15-4.59,14,14,0,0,1-2.25-3.38,31.52,31.52,0,0,0-5.34,8.15,25.32,25.32,0,0,0-1.64,4.2,21,21,0,0,0-.75,3.86,10.81,10.81,0,0,0,.14,3,2.39,2.39,0,0,0,1.13,1.74,1.92,1.92,0,0,0,.79.21A6.49,6.49,0,0,0,216.2,138.65Zm23.33-31.37a18.93,18.93,0,0,0,.56-5.33,5,5,0,0,0-.47-2c-.12-.18-.39-.23-.79-.18a3.43,3.43,0,0,0-.8.18,13.52,13.52,0,0,0-4.4,2.17,16.29,16.29,0,0,0-4.31,4.33,10.73,10.73,0,0,0-1.22,2.47,12,12,0,0,0-.61,2.64,8.42,8.42,0,0,0,.09,2.47,3.86,3.86,0,0,0,1,2q2,2.09,6.37,3a41.25,41.25,0,0,0,2.76-5.85A47.29,47.29,0,0,0,239.53,107.28Z" transform="translate(-44.26 -1.79)" style="fill:#231f20"/><path d="M386.35,104.76a3.18,3.18,0,0,1,.61,2.73,3.66,3.66,0,0,1-1.73,2.39q-10.87,6.68-20.52,12.74t-18.6,11.79q-9,5.72-17.24,11.13t-16.45,10.88q-6.27,11.63-11.33,20.72t-9.18,16.16q-4.12,7.06-7.41,12.18t-6.09,8.76l-1.59,2.21c-.69,1-1.47,2.06-2.34,3.34-1.37,2-3,4.2-4.78,6.71s-3.78,5.17-5.9,8-4.33,5.65-6.61,8.54-4.57,5.66-6.88,8.32A102.71,102.71,0,0,1,236.44,265c-.44.28-1,.69-1.73,1.21a19.88,19.88,0,0,1-2.53,1.52A22.89,22.89,0,0,1,229,269a10.79,10.79,0,0,1-3.47.57,8.47,8.47,0,0,1-3.56-.69,10.22,10.22,0,0,1-6.09-6.94,21,21,0,0,1,.28-10.53,67,67,0,0,1,4.78-13,123.58,123.58,0,0,1,7.78-13.78,146.37,146.37,0,0,1,9.37-12.92q6.18-7.62,12.46-14.34t13-13q8.14-7.53,17-14.56t19-13.87c1.12-.75,2.23-1.49,3.33-2.21s2.16-1.46,3.23-2.21q7-12.82,15.74-29.12c.37-.7.84-1.53,1.4-2.52s1.19-2,1.88-3.2,1.37-2.27,2.06-3.51,1.37-2.5,2.06-3.77q-3.66,3.38-8.34,7.54t-10.59,8.93l-1.68,1.38-1.78,1.48c-1.94,1.61-3.94,3.25-6,4.89a56.9,56.9,0,0,1-6.09,4.29c-.37.23-.87.54-1.5.91a17.17,17.17,0,0,1-2.15,1.09,18,18,0,0,1-2.63.86,11.69,11.69,0,0,1-2.81.35,8.73,8.73,0,0,1-4.87-1.47,15.74,15.74,0,0,1-1.73-1.48,6.74,6.74,0,0,1-1.46-2.16A9.75,9.75,0,0,1,277,133a13.2,13.2,0,0,1,.33-3.81,24.71,24.71,0,0,1,1.73-4.94q1.17-2.52,2.58-5.29c.25-.46.48-.93.7-1.39s.46-.92.7-1.39q1.5-3,3.1-6.06c1.06-2,2.11-4,3.14-5.81s2-3.6,3-5.25,1.86-3.07,2.67-4.29a4,4,0,0,1,2.53-1.73,4.21,4.21,0,0,1,3.1.52,3.52,3.52,0,0,1,1.78,2.3,3.48,3.48,0,0,1-.47,2.81c-.82,1.16-1.69,2.53-2.63,4.12s-1.9,3.28-2.9,5.07-2,3.66-3.05,5.59-2,3.86-2.95,5.77c-.25.52-.48,1-.7,1.51s-.45,1-.7,1.43-.66,1.25-1.22,2.34-1.09,2.26-1.59,3.47a16.24,16.24,0,0,0-1,3.43,2.08,2.08,0,0,0,.56,2.21l.47,0a4.62,4.62,0,0,0,1-.3c.43-.17,1-.43,1.68-.78s1.53-.84,2.53-1.47a57.6,57.6,0,0,0,5-3.64l5.2-4.25,1.78-1.48,1.68-1.38q6.75-5.46,12-10.14t9-8.24q4.31-4,7-6.24a27.28,27.28,0,0,1,2.62-1.91,5.82,5.82,0,0,1,3.23-.78,4.93,4.93,0,0,1,2,.61,8.88,8.88,0,0,1,1.5,1.34,3.74,3.74,0,0,1,.75,3,16.2,16.2,0,0,1-1.17,4.25c-.6,1.39-1.3,2.83-2.11,4.34-1.07,2.19-2.28,4.5-3.66,6.93s-2.68,4.68-3.93,6.76q-1,1.74-1.83,3.12c-.53.93-1,1.71-1.36,2.34q-2.34,4.42-4.54,8.5t-4.26,8q13.49-8.93,28.29-18.33t32.14-20.07a4.21,4.21,0,0,1,3-.56A4,4,0,0,1,386.35,104.76ZM271.86,209.9c1.49-2,3.12-4.29,4.87-7s3.68-5.81,5.81-9.37,4.46-7.58,7-12.09,5.38-9.56,8.44-15.17q-8,5.64-15.09,11.45t-13.72,12q-6.62,6.15-12.7,12.7t-11.9,13.73a145.8,145.8,0,0,0-9.09,12.66,118.81,118.81,0,0,0-7.12,12.66,57.44,57.44,0,0,0-4.17,11q-1.17,4.8-.42,7.58a3.38,3.38,0,0,0,.7,1.39,2.34,2.34,0,0,0,.89.6,7.54,7.54,0,0,0,3.94-1.47,49.53,49.53,0,0,0,5.71-4.55,106.27,106.27,0,0,0,9-9.4q3.38-3.91,6.74-8.15t6.47-8.32q3.09-4.08,5.76-7.85t4.73-6.63c.88-1.33,1.67-2.47,2.39-3.42S271.42,210.54,271.86,209.9Z" transform="translate(-44.26 -1.79)" style="fill:#231f20"/><path d="M483.32,102.77a3.85,3.85,0,0,1,1.6,2.47,3.19,3.19,0,0,1-.75,2.73,147.5,147.5,0,0,1-12,13.22,123.88,123.88,0,0,1-18.23,14.43,61.89,61.89,0,0,1-8.48,4.9,56.74,56.74,0,0,1-8.66,3.33,33.32,33.32,0,0,1-9.37,1.56,16.35,16.35,0,0,1-9.18-2.51q-6.75-4.68-6.09-18.11c.06-.58.1-1.16.14-1.74s.07-1.15.14-1.73c-1.25,1.62-2.58,3.2-4,4.77a44.31,44.31,0,0,1-4.64,4.42,47.27,47.27,0,0,1-8.95,5.72,44.65,44.65,0,0,1-10,3.55,26.66,26.66,0,0,1-9.6.61,12.16,12.16,0,0,1-6.7-2.86q-4.87-4.51-.1-15.26a61.72,61.72,0,0,1,3.71-7A64.44,64.44,0,0,1,376,109.7a68.81,68.81,0,0,1,6.89-7.84,47.36,47.36,0,0,1,7.07-5.77A30.75,30.75,0,0,1,395.67,93a21.71,21.71,0,0,1,4.92-1.34,14.39,14.39,0,0,1,4,0,15.36,15.36,0,0,1,3.19.78A10.12,10.12,0,0,1,411,94.45,11.62,11.62,0,0,1,412.87,97a3.59,3.59,0,0,1,.28,2.86,3.52,3.52,0,0,1-2,2.17,4.4,4.4,0,0,1-3.09.26,3.59,3.59,0,0,1-2.34-1.82l-.57-.83a1.51,1.51,0,0,0-.56-.3,5.77,5.77,0,0,0-2.44-.35,11.06,11.06,0,0,0-2.62.52A16.18,16.18,0,0,0,397,100.6a18.81,18.81,0,0,0-2.29,1.48,40.65,40.65,0,0,0-6.09,5.07,75,75,0,0,0-6.09,6.89q-1.32,1.72-3.09,4.55a51.71,51.71,0,0,0-3.19,5.85,20.14,20.14,0,0,0-2,5.68,6,6,0,0,0,0,2.21,6.58,6.58,0,0,0,2.86.78,19,19,0,0,0,5.86-.52,38,38,0,0,0,8.1-2.91,34.72,34.72,0,0,0,7.26-4.72,39.84,39.84,0,0,0,6-6,61.71,61.71,0,0,0,4.5-6.41,62.83,62.83,0,0,0,3.28-6.11c.9-2,1.67-3.64,2.29-5a17.76,17.76,0,0,0,.75-1.65,12.69,12.69,0,0,1,.57-1.21,3.7,3.7,0,0,1,.84-1.3,4.22,4.22,0,0,1,2.25-1.6,4.66,4.66,0,0,1,2.25-.05,4.73,4.73,0,0,1,2.25,1.26,3.89,3.89,0,0,1,1,2.9v.87a4.8,4.8,0,0,1-.19,1.13c-.13.69-.27,1.49-.42,2.38s-.36,1.87-.61,2.91c-.56,2.54-1.16,5.41-1.78,8.62a62.75,62.75,0,0,0-1.13,9.49,28.31,28.31,0,0,0,.1,5.25,21.51,21.51,0,0,0,.7,3.46,6.25,6.25,0,0,0,1,2,3.91,3.91,0,0,0,1,1,8,8,0,0,0,4.83,1.13,24.9,24.9,0,0,0,6.65-1.21,56,56,0,0,0,7.5-3,53.59,53.59,0,0,0,7.26-4.21q5.25-3.47,9.46-6.89t7.69-6.67q3.45-3.26,6.23-6.37c1.84-2.08,3.54-4.08,5.1-6a4.1,4.1,0,0,1,2.67-1.56A3.76,3.76,0,0,1,483.32,102.77Z" transform="translate(-44.26 -1.79)" style="fill:#231f20"/><path d="M555.94,106a3.73,3.73,0,0,1,1.07,2.73,3.28,3.28,0,0,1-1.35,2.55c-.32.29-.63.57-.94.83s-.63.53-.94.82q-3.28,2.78-6.89,5.76t-7.44,6q-3.86,3-7.78,5.86t-7.87,5.2c-.63.4-1.64,1-3,1.82s-3.06,1.7-5,2.68-4,2-6.42,3.17-4.81,2.18-7.31,3.16Q490.54,151,482.48,151q-7.12,0-11.52-3.55t-4.88-10.32q-.56-8.31,4.31-21.06,2.16-5.64,4.92-11.53t5.81-11.7q3-5.8,6.23-11.31t6.23-10.36q3-4.84,5.76-8.93c1.82-2.71,3.44-5,4.88-6.93q7.11-9.71,12.93-17.12t10.77-13q3.38-3.9,6.28-6.72c1.93-1.87,3.72-3.48,5.34-4.81.75-.57,1.59-1.18,2.53-1.82a17.21,17.21,0,0,1,2.95-1.6,10.43,10.43,0,0,1,3.19-.78,7.22,7.22,0,0,1,3.23.48,4.51,4.51,0,0,1,2.81,3.2c.06.35.14.9.23,1.65a11.13,11.13,0,0,1-.46,3.6,51.78,51.78,0,0,1-2.3,6.58Q550,29.1,546.66,35.59q-4.3,8.23-9.84,16.77T525.39,68.53q-5.52,7.11-11.48,13.52t-11.8,11.88q-5.87,5.46-11.24,9.88T481,111.35c-.56,1.21-1.08,2.43-1.55,3.64s-.95,2.4-1.45,3.55a59.61,59.61,0,0,0-3.28,10.84,30.3,30.3,0,0,0-.56,6.93,9.1,9.1,0,0,0,.94,3.86,7.94,7.94,0,0,0,1.22,1.69c1.74,1.44,4.55,2,8.43,1.6A55.36,55.36,0,0,0,499,139.61c2.44-.93,4.78-1.92,7-3s4.29-2.1,6.13-3.08,3.39-1.83,4.64-2.56,2.09-1.22,2.53-1.51q3.75-2.27,7.54-5t7.55-5.63c2.49-1.94,4.92-3.89,7.26-5.85l6.7-5.64c.31-.29.62-.56.93-.82s.63-.53.94-.82a4.25,4.25,0,0,1,2.95-1A4.12,4.12,0,0,1,555.94,106ZM510.87,59.43c-1.37,1.85-2.94,4.09-4.69,6.72s-3.6,5.5-5.57,8.62-4,6.46-6,10-4.06,7.18-6,10.88q7.31-6.15,15.13-14.13A201.67,201.67,0,0,0,518.83,64.2q5.53-7.11,10.73-15.17T539,33.17q2.71-5.21,4.26-8.72t2.3-5.76q-1.87,1.47-5,4.46a116.51,116.51,0,0,0-7.91,8.63c-3.07,3.47-6.37,7.48-9.94,12S515.18,53.59,510.87,59.43Z" transform="translate(-44.26 -1.79)" style="fill:#231f20"/><path d="M634.83,99.47a3.75,3.75,0,0,1,1.08,2.74,3.41,3.41,0,0,1-1.27,2.55q-6,5.2-16.07,12.74a289.66,289.66,0,0,1-24.5,16.21l-3.84,2.21c-1.75,1-3.8,2.13-6.14,3.34s-4.89,2.46-7.63,3.73-5.53,2.42-8.34,3.47a52.64,52.64,0,0,1-13.59,3.38,15.19,15.19,0,0,1-6.37-.53,9.33,9.33,0,0,1-5.15-3.55q-3.57-4.94-.47-15.34a68.68,68.68,0,0,1,3-8.41q1.92-4.59,4.64-10,2.34-4.68,4.87-9.1c1.69-2.94,3.28-5.65,4.78-8.1s2.82-4.57,4-6.33,2-3.05,2.58-3.86q2.8-4.16,5.9-8.06t6.37-7.8c-2.31.58-4.47,1-6.46,1.34a40.42,40.42,0,0,1-6.38.48h-.09a14.81,14.81,0,0,1-3.61-.43,20.44,20.44,0,0,1-3.28-1.13,18.42,18.42,0,0,1-2.71-1.47,10.5,10.5,0,0,1-1.83-1.48,3.58,3.58,0,0,1-1-2.73,3.18,3.18,0,0,1,1.41-2.47,4.23,4.23,0,0,1,3-.95,3.76,3.76,0,0,1,2.67,1.21,9.61,9.61,0,0,0,2.15,1.22,7.82,7.82,0,0,0,3.28.78,40.07,40.07,0,0,0,10.4-1.39q5.16-1.38,10.21-3c.63-.81,1.28-1.67,2-2.6s1.37-1.9,2.06-2.95Q598.2,42.44,603,35.12t7.35-11.49a4.29,4.29,0,0,1,5.53-1.39,3.88,3.88,0,0,1,1.88,2.26,3.14,3.14,0,0,1-.38,2.77q-2.53,4.17-7.17,11.27T598,56.14q3.56-.53,7.91-.78a85.4,85.4,0,0,1,9.61,0,4.1,4.1,0,0,1,2.81,1.21,3.38,3.38,0,0,1,1,2.69,3.67,3.67,0,0,1-1.31,2.55,3.88,3.88,0,0,1-2.91,1,70,70,0,0,0-13.82.43,93.15,93.15,0,0,0-10,2q-2.62,3.38-4.68,6t-3.94,4.85q-1.22,1.47-2.34,2.91c-.75,1-1.51,1.93-2.29,2.94s-1.58,2.08-2.39,3.21-1.69,2.33-2.63,3.6c-.44.63-1.2,1.79-2.29,3.46s-2.38,3.72-3.84,6.11-3,5.06-4.69,8-3.26,5.91-4.82,9a112.77,112.77,0,0,0-5.72,12.7,51.83,51.83,0,0,0-2.3,7.93,11.4,11.4,0,0,0-.18,4.25,7,7,0,0,0,.51,1.56,2.48,2.48,0,0,0,1.22.6,8.4,8.4,0,0,0,2.76.13,29.52,29.52,0,0,0,4.64-.78,54.66,54.66,0,0,0,6.75-2.12q4-1.47,7.92-3.29t7.21-3.51c2.22-1.13,4.15-2.17,5.81-3.12s2.86-1.66,3.61-2.13a273.48,273.48,0,0,0,23.84-15.77q9.79-7.36,15.6-12.4a4.51,4.51,0,0,1,2.95-1A3.92,3.92,0,0,1,634.83,99.47Z" transform="translate(-44.26 -1.79)" style="fill:#231f20"/><path d="M722.53,104.76a3.18,3.18,0,0,1,.6,2.73,3.6,3.6,0,0,1-1.73,2.39q-10.87,6.68-20.52,12.74t-18.6,11.79q-8.94,5.72-17.24,11.13T648.6,156.42q-6.27,11.63-11.34,20.72t-9.18,16.16q-4.12,7.06-7.4,12.18t-6.09,8.76c-.38.52-.91,1.25-1.59,2.21s-1.47,2.06-2.35,3.34q-2.05,2.94-4.77,6.71c-1.81,2.52-3.78,5.17-5.91,8s-4.32,5.65-6.6,8.54-4.58,5.66-6.89,8.32A102.13,102.13,0,0,1,572.61,265c-.43.28-1,.69-1.73,1.21a19.88,19.88,0,0,1-2.53,1.52,22.38,22.38,0,0,1-3.14,1.29,10.73,10.73,0,0,1-3.46.57,8.44,8.44,0,0,1-3.56-.69,10.18,10.18,0,0,1-6.09-6.94,20.86,20.86,0,0,1,.28-10.53,67,67,0,0,1,4.78-13,121.89,121.89,0,0,1,7.77-13.78,148.44,148.44,0,0,1,9.37-12.92q6.18-7.62,12.46-14.34t13-13q8.15-7.53,17-14.56t19-13.87l3.33-2.21c1.09-.72,2.17-1.46,3.23-2.21q7-12.82,15.74-29.12c.38-.7.85-1.53,1.41-2.52s1.19-2,1.87-3.2,1.38-2.27,2.06-3.51,1.38-2.5,2.07-3.77q-3.66,3.38-8.34,7.54t-10.59,8.93l-1.69,1.38-1.78,1.48c-1.93,1.61-3.93,3.25-6,4.89a59,59,0,0,1-6.09,4.29l-1.5.91a18.07,18.07,0,0,1-2.16,1.09,17.49,17.49,0,0,1-2.62.86,11.82,11.82,0,0,1-2.81.35,8.7,8.7,0,0,1-4.87-1.47,15.79,15.79,0,0,1-1.74-1.48,6.72,6.72,0,0,1-1.45-2.16,9.19,9.19,0,0,1-.7-2.95,12.82,12.82,0,0,1,.32-3.81,25.4,25.4,0,0,1,1.74-4.94q1.17-2.52,2.58-5.29c.25-.46.48-.93.7-1.39s.45-.92.7-1.39q1.5-3,3.09-6.06c1.06-2,2.11-4,3.14-5.81s2-3.6,3-5.25,1.86-3.07,2.67-4.29a4,4,0,0,1,2.53-1.73,4.2,4.2,0,0,1,3.09.52,3.49,3.49,0,0,1,1.78,2.3,3.4,3.4,0,0,1-.47,2.81q-1.21,1.74-2.62,4.12t-2.9,5.07c-1,1.79-2,3.66-3,5.59s-2,3.86-3,5.77c-.25.52-.49,1-.7,1.51s-.46,1-.71,1.43-.65,1.25-1.21,2.34-1.1,2.26-1.6,3.47a16.86,16.86,0,0,0-1,3.43,2.08,2.08,0,0,0,.56,2.21l.47,0a4.48,4.48,0,0,0,1-.3c.44-.17,1-.43,1.69-.78s1.53-.84,2.53-1.47a59.08,59.08,0,0,0,5-3.64q2.58-2.08,5.2-4.25l1.78-1.48,1.69-1.38q6.75-5.46,11.94-10.14t9.05-8.24q4.3-4,7-6.24a27.26,27.26,0,0,1,2.63-1.91,5.8,5.8,0,0,1,3.23-.78,4.87,4.87,0,0,1,2,.61,8.17,8.17,0,0,1,1.5,1.34,3.67,3.67,0,0,1,.75,3,15.83,15.83,0,0,1-1.17,4.25c-.59,1.39-1.3,2.83-2.11,4.34q-1.59,3.28-3.65,6.93t-3.94,6.76c-.68,1.16-1.29,2.2-1.82,3.12s-1,1.71-1.36,2.34q-2.34,4.42-4.55,8.5c-1.46,2.71-2.89,5.37-4.26,8q13.5-8.93,28.3-18.33t32.13-20.07a4.23,4.23,0,0,1,3.05-.56A4,4,0,0,1,722.53,104.76ZM608,209.9c1.5-2,3.13-4.29,4.87-7s3.69-5.81,5.81-9.37,4.47-7.58,7-12.09,5.37-9.56,8.43-15.17q-8,5.64-15.08,11.45t-13.73,12q-6.6,6.15-12.69,12.7t-11.9,13.73a145.8,145.8,0,0,0-9.09,12.66,117.08,117.08,0,0,0-7.12,12.66,57.44,57.44,0,0,0-4.17,11q-1.17,4.8-.42,7.58a3.27,3.27,0,0,0,.7,1.39,2.34,2.34,0,0,0,.89.6,7.48,7.48,0,0,0,3.93-1.47,49.46,49.46,0,0,0,5.72-4.55,107.91,107.91,0,0,0,9-9.4q3.38-3.91,6.75-8.15t6.47-8.32q3.09-4.08,5.76-7.85t4.73-6.63c.87-1.33,1.67-2.47,2.39-3.42S607.59,210.54,608,209.9Z" transform="translate(-44.26 -1.79)" style="fill:#231f20"/></svg>