<svg id="Layer_1" data-name="Layer 1" xmlns="http://www.w3.org/2000/svg" viewBox="0 0 767.99 262.46"><title>signature</title><path d="M123.1,11.25q5.69,5.37,4.88,15.58a37,37,0,0,1-6.51,18.63,4.37,4.37,0,0,1-3,2.17A5.48,5.48,0,0,1,114.7,47a6,6,0,0,1-2.17-3.07,3.31,3.31,0,0,1,.81-3.32q4.6-7.14,4.88-13.91t-1.9-8.81c-1.62-1.36-4.38-1.91-8.26-1.66a44.2,44.2,0,0,0-13.41,3.45A87.49,87.49,0,0,0,79.2,27.59,82.51,82.51,0,0,0,65.65,38.32a62.75,62.75,0,0,0-10,12.89A24.28,24.28,0,0,0,52.1,63.08a28.43,28.43,0,0,0,5.83,17.49A195,195,0,0,0,71.61,96.78q7,7.41,14.09,16a58.07,58.07,0,0,1,10.57,19.79q5.15,17.1-7,32.42a55.63,55.63,0,0,1-12.06,11.49,65.39,65.39,0,0,1-15.58,8.17,60.6,60.6,0,0,1-11.38,3.19A68.4,68.4,0,0,1,37.74,189a44.28,44.28,0,0,1-19.51-4.08A25.26,25.26,0,0,1,4.41,167.5,4.09,4.09,0,0,1,5,163.93a5.32,5.32,0,0,1,3.25-2c3.08-.51,5,.68,5.69,3.57a16.73,16.73,0,0,0,9,11.23A21.91,21.91,0,0,0,31,179.38a49.21,49.21,0,0,0,9.34.38,57.46,57.46,0,0,0,9.35-1.28,79.88,79.88,0,0,0,8.4-2.3,59.09,59.09,0,0,0,12.87-6.76,47.73,47.73,0,0,0,10.44-9.7,32,32,0,0,0,6-11.75,22.59,22.59,0,0,0-.54-12.89,50.8,50.8,0,0,0-9.22-17.36q-6.22-7.66-13-14.81A162.56,162.56,0,0,1,49.26,84.65a35.93,35.93,0,0,1-6.91-21.57,31.26,31.26,0,0,1,5.28-17.49,84,84,0,0,1,11-13.66,94.17,94.17,0,0,1,15.18-12,95.35,95.35,0,0,1,17.07-8.68Q102,6.91,110.23,6.91T123.1,11.25Z" transform="translate(-4.23 -6.91)" style="fill:#231f20"/><path d="M201.14,138.4a3.58,3.58,0,0,1,.94,3.32,5.32,5.32,0,0,1-2,3.06q-8.4,5.63-17.75,10.72t-21.27,11a90.27,90.27,0,0,1-9.21,4.22A77.17,77.17,0,0,1,141,174.14a40.17,40.17,0,0,1-8.94,1.28q-6.24,0-9.49-3.07-4.32-4.33-2.71-11.48c.37-1.54.86-3.24,1.49-5.11a29.38,29.38,0,0,1,2.85-5.87q3-5.37,6.1-10t4.47-6.38a6.76,6.76,0,0,1,3.25-2.43,4.8,4.8,0,0,1,4.06.64,5.38,5.38,0,0,1,2,3.06,3.6,3.6,0,0,1-.95,3.32c-.73,1-2,2.68-3.8,5a79.36,79.36,0,0,0-5.28,7.66,54.43,54.43,0,0,0-4.2,8.3c-1.08,2.72-1.18,4.94-.27,6.64.18.34,1,.55,2.3.63a22.88,22.88,0,0,0,6.64-1.14A95.4,95.4,0,0,0,148,162q4.89-1.9,8.41-3.7,11.64-5.61,20.86-10.59a195.23,195.23,0,0,0,17.07-10.34,4.18,4.18,0,0,1,3.52-.9A5.85,5.85,0,0,1,201.14,138.4ZM148.3,116.19a4.7,4.7,0,0,1-2.44-2.81,4.19,4.19,0,0,1,.27-3.32l4.33-8.17a4.44,4.44,0,0,1,2.71-2.43,4.65,4.65,0,0,1,3.8.39,4.34,4.34,0,0,1,2.57,2.55,4,4,0,0,1-.4,3.57l-4.34,8.17a4.57,4.57,0,0,1-4.34,2.56A9.27,9.27,0,0,1,148.3,116.19Z" transform="translate(-4.23 -6.91)" style="fill:#231f20"/><path d="M300,139.42a3.81,3.81,0,0,1,1.22,3.19,4.32,4.32,0,0,1-1.76,3.19,80.65,80.65,0,0,1-9.89,6.13q-3.66,1.78-6.1,3.06-12.19,6.13-21.54,11.62t-15.31,9.06c-2,1.37-4,2.68-6,4s-4.07,2.6-6.23,4q-4.35,2.81-8,5.36t-6.91,4.85c-1.45,2.89-2.75,5.66-3.93,8.3s-2.48,5.49-3.93,8.55Q210.35,213.2,209,216t-2.71,5.87q-3.79,8.18-8.67,16.47t-9.48,14.94c-1.81,2.38-3.52,4.51-5.15,6.38s-3.16,3.49-4.61,4.85q-5.42,4.85-10,4.85H167a8.92,8.92,0,0,1-7-5.61,17.74,17.74,0,0,1-.27-11.11,87.41,87.41,0,0,1,3.25-10.34,80.25,80.25,0,0,1,15.71-25q5.16-5.88,12.6-12.89a211.73,211.73,0,0,1,20.46-16.47c1.27-2.39,2.53-4.94,3.8-7.66s2.71-5.79,4.33-9.19c1.81-3.41,3.84-7.06,6.1-11s4.92-8.08,8-12.51a183.93,183.93,0,0,1-19.24,12q-19,9.71-25.74,4.34-6-4.85-.27-18.13a94.58,94.58,0,0,1,5-9.19,56.22,56.22,0,0,1,6.1-8.17,52.46,52.46,0,0,1,7.59-6.77,55.53,55.53,0,0,1,9.21-5.48,38.93,38.93,0,0,1,10-3.2,32.3,32.3,0,0,1,10.29-.12,20.79,20.79,0,0,1,7.32,2.68,17.7,17.7,0,0,1,6.23,6c.18.17.27.3.27.38s.09.22.28.38a36.6,36.6,0,0,1,2.84-2.42c1-.77,1.94-1.57,2.85-2.43a4.78,4.78,0,0,1,6.5,0c2.17,2,2.34,4.17.54,6.39q-12.2,14.81-21.14,28.08a218.64,218.64,0,0,0-13.82,23,12.37,12.37,0,0,1-.81,1.27c-.36.51-.36.69,0,.51l6.23-4.08q3.52-2.3,7.32-4.6,6-3.57,15.45-9.19t22-12c1.62-.85,3.38-1.78,5.28-2.81s4.92-2.8,9.08-5.36a4.53,4.53,0,0,1,3.52-1A5.17,5.17,0,0,1,300,139.42Zm-102.7,78.89c.9-2.21,1.81-4.21,2.71-6s1.8-3.53,2.71-5.23q-5.41,4.59-9.48,8.55a101.76,101.76,0,0,0-7.05,7.53,77.76,77.76,0,0,0-8.4,11.24,78.59,78.59,0,0,0-6.23,12.25A33.35,33.35,0,0,0,169,255.2a17.31,17.31,0,0,0-.13,4.73,24.65,24.65,0,0,0,4.2-3.58,85,85,0,0,0,8-10A124.69,124.69,0,0,0,189.62,233Q193.82,225.46,197.34,218.31Zm15.18-68.17a123,123,0,0,0,14.22-8.93q7.45-5.37,16.13-12a5.65,5.65,0,0,0-.82-3.07,8.93,8.93,0,0,0-3.93-3.19,14.22,14.22,0,0,0-5.82-1.15,28.91,28.91,0,0,0-13.69,3.7,42.24,42.24,0,0,0-11.51,8.81,45.78,45.78,0,0,0-4.61,6.39q-2.18,3.57-4.06,7.14a64.14,64.14,0,0,0-2.44,6q-.83,2.43-.27,2.94t5-.89A60.6,60.6,0,0,0,212.52,150.14Z" transform="translate(-4.23 -6.91)" style="fill:#231f20"/><path d="M388.38,136.1a3.61,3.61,0,0,1,.95,3.32,5.94,5.94,0,0,1-1.76,3.06q-12.19,8.94-20.73,14.43a119,119,0,0,1-14.77,8.3,32,32,0,0,1-8.94,3.06,10.37,10.37,0,0,1-8.95-2q-3.53-2.8-3.66-6.26a26.12,26.12,0,0,1,.14-5c.36-1.7.81-3.48,1.36-5.36l1.62-5.62c.54-1.69,1.09-3.44,1.63-5.23a28.49,28.49,0,0,0,1.08-5.74,15.21,15.21,0,0,0-2.71.38,26.23,26.23,0,0,0-4.88,1.66,61.92,61.92,0,0,0-13.27,7.66,156.13,156.13,0,0,0-18.84,16.08q-7.45,7.67-11.24,11.49a17.06,17.06,0,0,1-1.63,1.79l-1.9,1.79a5.56,5.56,0,0,1-3.52,1.27,4.74,4.74,0,0,1-4.2-2.29A4.49,4.49,0,0,1,274,168a26.58,26.58,0,0,1,3.25-4.34q2.72-3.31,6.64-8.55t8-11.87q2.16-3.57,5.15-7.92t6.77-10a18.66,18.66,0,0,0,1.9-2.68,17.41,17.41,0,0,1,1.9-2.68,4.45,4.45,0,0,1,3.11-2.17,5,5,0,0,1,3.66.63,6.13,6.13,0,0,1,2.17,3.07,3.31,3.31,0,0,1-.81,3.32q-2.17,3.06-4.2,6c-1.36,1.95-2.76,4.13-4.2,6.51a7.8,7.8,0,0,1,2.16-1.79,84.07,84.07,0,0,1,8-5.23,63.42,63.42,0,0,1,8-4q10-4.08,15.72-1.53a10.29,10.29,0,0,1,3.52,3.44q1.62,2.43,1.08,7.53a31.34,31.34,0,0,1-1.08,5.37c-.54,1.87-1.18,3.74-1.9,5.61-.54,1.88-1.17,3.83-1.89,5.88a12.51,12.51,0,0,0-.54,6.38,4.84,4.84,0,0,0,2.43-.13,31.16,31.16,0,0,0,6.78-2.94,135.83,135.83,0,0,0,13.55-7.91q7.86-5.1,18.15-12.77a4.81,4.81,0,0,1,3.66-1A5.27,5.27,0,0,1,388.38,136.1Z" transform="translate(-4.23 -6.91)" style="fill:#231f20"/><path d="M477,140.44a4.71,4.71,0,0,1,.68,3.57,4.35,4.35,0,0,1-2,2.81q-7.32,4.6-13.69,8.17t-15.58,7.92a56.35,56.35,0,0,1-9.21,3.57,42.64,42.64,0,0,1-9.76,1.79,16.05,16.05,0,0,1-3.92-.51,6.52,6.52,0,0,1-3.39-2q-4.06-3.84-2.71-11.49a17.26,17.26,0,0,0-2,1.66,19.19,19.19,0,0,1-2,1.66q-2.43,1.78-6.09,3.95a71,71,0,0,1-7.73,4q-11.66,4.86-17.88.26-6.24-5.11-3.25-16.6a74.86,74.86,0,0,1,3.39-8.81,35.35,35.35,0,0,1,5-8,44.36,44.36,0,0,1,12.19-10.08A40.45,40.45,0,0,1,413.3,117q7.86-.77,12.47,2.81a14.48,14.48,0,0,1,2.3,2,12.94,12.94,0,0,1,2.58,4.34,16.36,16.36,0,0,0,1.08-1.78q2.7-3.31,6.77-1.28a4.89,4.89,0,0,1,2.17,2.81,3.65,3.65,0,0,1-.54,3.32,13.3,13.3,0,0,1-1.35,2,12.69,12.69,0,0,0-1.36,2l-3.25,5.49a68.4,68.4,0,0,0-3.52,6.77q-3.25,6.88-3.53,9.95a10.43,10.43,0,0,0,0,3.58c.55.17,2.08,0,4.61-.51s6.77-2.21,12.74-5.11l6-2.81c1.8-.85,3.66-1.78,5.55-2.81s4-2.21,6.23-3.57,4.92-3.06,8-5.11a4.68,4.68,0,0,1,3.52-.63A5.75,5.75,0,0,1,477,140.44Zm-55.55-2.81a26.86,26.86,0,0,0,.68-5.61q.13-3.59-2.3-5.11a6.26,6.26,0,0,0-1.9-.77,12.5,12.5,0,0,0-3.52,0A26.15,26.15,0,0,0,403.68,130a35.66,35.66,0,0,0-9.34,7.92,39.06,39.06,0,0,0-3.93,6.25,29.79,29.79,0,0,0-2.58,7,20.05,20.05,0,0,0-.68,5.37c.09,1.19.32,1.87.68,2a4.28,4.28,0,0,0,2,.25,15.18,15.18,0,0,0,5.56-1.78,54,54,0,0,0,6.64-3.45q3.1-1.92,5.28-3.45a100.58,100.58,0,0,0,7.73-6.51Z" transform="translate(-4.23 -6.91)" style="fill:#231f20"/><path d="M560.44,73a4.46,4.46,0,0,1,3.39,1.27,4.64,4.64,0,0,1,1.22,3.32A4.16,4.16,0,0,1,563.56,81a5.41,5.41,0,0,1-3.66,1.28q-10.3-.51-21.27,0t-24,1.79a19.59,19.59,0,0,0-2.17.12,17.67,17.67,0,0,1-2.17.13q-5.15,7.16-9.89,14.55t-8.81,14.3q-5.14,8.94-10.56,19.15a204,204,0,0,0-9.22,19.66,87.71,87.71,0,0,0-4.06,12,33.08,33.08,0,0,0-1.09,7.15,7.22,7.22,0,0,0,.55,3.44,3.5,3.5,0,0,1,.54,1.15,12.72,12.72,0,0,0,2,.64,12,12,0,0,0,4.61-.13,52.85,52.85,0,0,0,8.26-2.29,124.54,124.54,0,0,0,13-5.62q10.83-5.36,22.62-12.51t22.09-13.53c1.8-1,3.52-2,5.15-3.07l4.88-3.06a4.67,4.67,0,0,1,3.52-.64,5.86,5.86,0,0,1,3.25,1.92,4.7,4.7,0,0,1,.68,3.57,4.22,4.22,0,0,1-2.31,2.81q-4.6,3.06-9.75,6.13-10.3,6.65-22.36,13.78t-23.16,12.77c-2.17,1-4.52,2.09-7.05,3.19s-5.11,2.09-7.72,2.94-5.15,1.57-7.59,2.17a28.5,28.5,0,0,1-6.64.89,17,17,0,0,1-9.21-2.55,11.72,11.72,0,0,1-4.61-6.51,22,22,0,0,1-.41-8.81,57.44,57.44,0,0,1,2.31-9.83q1.62-5,3.25-9.32,4.06-9.71,9.62-20.17t11-19.66a258.23,258.23,0,0,1,14.37-22.72q-7.05,1.27-14.37,2.55T468,91.93A4.75,4.75,0,0,1,462.75,85a4.75,4.75,0,0,1,3.12-2,356.17,356.17,0,0,1,38.75-7.15q6-8.17,11.11-14.81t8.67-11a5.25,5.25,0,0,1,3.39-1.79,4.77,4.77,0,0,1,3.66,1,6,6,0,0,1,1.76,3.07,3.61,3.61,0,0,1-1,3.32q-2.71,3.32-6.5,8t-8.13,10.59q11.91-1,22.35-1.4T560.44,73Z" transform="translate(-4.23 -6.91)" style="fill:#231f20"/><path d="M646.61,134.82a3.61,3.61,0,0,1,.95,3.32,5.39,5.39,0,0,1-2,3.07q-13.56,9.18-22.77,14.93t-15.71,9.07a84.47,84.47,0,0,1-8.13,3.57,22.26,22.26,0,0,1-7.86,1.53,9.43,9.43,0,0,1-6.77-2.3q-5.43-5.1-2.17-16.34-3.52,2.82-6.78,5.24t-6.23,4.47q-17.07,11-23.85,6.12c-2.34-1.7-3.34-4.17-3-7.4a42.78,42.78,0,0,1,2.44-10q1.9-4.84,4.74-10.85t6.64-13.15q2.45-3.83,6.78-2a4.77,4.77,0,0,1,2.44,2.81,4.27,4.27,0,0,1-.54,3.57q-7,12.51-10.57,20.17t-1.9,8.94q.81.76,4.47-1.53t9.08-5.88a176.8,176.8,0,0,0,14.5-11.1,206.57,206.57,0,0,0,15.58-14.68,5.11,5.11,0,0,1,3.25-1.41,4.17,4.17,0,0,1,3.25,1.15,4.8,4.8,0,0,1,1.9,3.07,3.67,3.67,0,0,1-.82,3.06,107.77,107.77,0,0,0-8.12,12.51,56.14,56.14,0,0,0-3.8,8.43,20.65,20.65,0,0,0-1.08,5.49,3.58,3.58,0,0,0,.54,2.42c.36.17,1.58,0,3.66-.64a59.74,59.74,0,0,0,10.16-4.72q6.23-3.31,14.63-8.55t20.32-13.41a4.15,4.15,0,0,1,3.53-.89A5.79,5.79,0,0,1,646.61,134.82Z" transform="translate(-4.23 -6.91)" style="fill:#231f20"/><path d="M678.31,119a4.91,4.91,0,0,1,3.52,1.28,5.34,5.34,0,0,1,1.63,3.32,4.36,4.36,0,0,1-1.35,3.32,5,5,0,0,1-3.53,1.28A17.62,17.62,0,0,0,671,130a48.56,48.56,0,0,0-6.92,4,50.05,50.05,0,0,0-5.55,4.47L654.74,142q-4.62,4.35-9,9.32a69.18,69.18,0,0,0-7.85,11.11,27.09,27.09,0,0,0-2.17,3.83,34.33,34.33,0,0,1-1.9,3.57,5.06,5.06,0,0,1-4.33,2.3,9,9,0,0,1-2.44-.51,3.92,3.92,0,0,1-2.44-2.68,4.51,4.51,0,0,1,.54-3.7q2.44-4.08,4.88-8.56t5.15-10.34l2.44-5.36q2.7-5.61,4.74-10.08a88.48,88.48,0,0,0,3.66-9.58,4.45,4.45,0,0,1,2.16-2.93A5.17,5.17,0,0,1,652,118a4.19,4.19,0,0,1,3,2.17,5.2,5.2,0,0,1,.27,3.71c-.37,1.19-.91,2.64-1.63,4.34a44.61,44.61,0,0,0-1.62,4.34c1.26-1.19,2.84-2.56,4.74-4.09a50.32,50.32,0,0,1,6.37-4.34,56.8,56.8,0,0,1,7.31-3.57A20.65,20.65,0,0,1,678.31,119Z" transform="translate(-4.23 -6.91)" style="fill:#231f20"/><path d="M771.25,139.42a3.83,3.83,0,0,1,.82,3.57,4.94,4.94,0,0,1-2.17,2.81,292.63,292.63,0,0,1-26.83,15.07,129.38,129.38,0,0,1-22,8.42,60.36,60.36,0,0,1-15.17,2.3q-8.4,0-13.55-3.83a16.11,16.11,0,0,1-6.77-13A30.21,30.21,0,0,1,689,140.31a38.76,38.76,0,0,1,9.62-12.64,32,32,0,0,1,6.24-4.08,45,45,0,0,1,7.31-2.94,65.73,65.73,0,0,1,7.32-1.78,24.94,24.94,0,0,1,6.5-.39c3.25.35,5.6,1.28,7,2.81q3.24,3.84,2.44,10.47-1.37,10.73-11.38,18.38a29.61,29.61,0,0,1-7.19,3.7,67,67,0,0,1-7.85,2.3,49.49,49.49,0,0,1-7.46,1.15c-2.35.17-4.24.26-5.69.26a6.24,6.24,0,0,0,2.44,3.06A17.9,17.9,0,0,0,703,162.4q3.51,1,11-.51t19.65-6.77q12.2-5.24,30.89-17a5,5,0,0,1,3.66-.64A4.73,4.73,0,0,1,771.25,139.42Zm-66.11-5.11a32.93,32.93,0,0,0-5.29,6.51,39.32,39.32,0,0,0-3.66,7.54,76.86,76.86,0,0,0,10.44-1,24.1,24.1,0,0,0,11.51-4.59,16,16,0,0,0,4.61-4.6,24.21,24.21,0,0,0,2.44-4.85,12,12,0,0,0,.81-3.83c0-1-.09-1.61-.27-1.79-.54-.33-1.67-.38-3.39-.12s-3.38.55-5,.89A31.88,31.88,0,0,0,705.14,134.31Z" transform="translate(-4.23 -6.91)" style="fill:#231f20"/></svg>