<svg id="Layer_1" data-name="Layer 1" xmlns="http://www.w3.org/2000/svg" viewBox="0 0 771.26 225.76"><title>venetian</title><path d="M303.1,34.64c.64,3-.75,4.83-4.14,5.62a123.56,123.56,0,0,0-40,13.88,127.09,127.09,0,0,0-33,26.3Q216.75,91.09,209.43,101T196,120.48q-6,9.61-11.31,18.92t-10.35,19.06q-5.43,9.45-10.84,19.35t-12.1,20.24a178.33,178.33,0,0,1-11,15.07,94.6,94.6,0,0,1-17,16.26q-24.54,19.2-53.21,20.09h-.32a5.11,5.11,0,0,1-4.78-3,4.36,4.36,0,0,1,1.27-5.32,126.23,126.23,0,0,0,17.53-20.83,184.66,184.66,0,0,0,13.54-23.79q5.89-12.4,10.83-25.56t9.4-26.44q4.45-13.31,9.4-26.15t10.67-25.27q13.4-26.88,30.91-42.85a46.67,46.67,0,0,1,5.9-5.17c2-1.48,4.08-2.9,6.21-4.28a188.74,188.74,0,0,0-29.16-5.17,173.35,173.35,0,0,0-32.81-.15A162.34,162.34,0,0,0,47.25,59.76,73,73,0,0,0,24.78,80.59q-9.08,12.85-11,25.56a40.32,40.32,0,0,0,0,10.2,16.6,16.6,0,0,0,5.1,10.19q4.77,5.33,15.61,5.32h.64q9.24,0,22.14-4.88t25-17A70.56,70.56,0,0,0,94.88,92.41q4.62-9.3,4-15.51c-.21-2.37-1.06-4-2.55-5q-1.91-1.47-6.69-1.47a35.6,35.6,0,0,0-11.47,2.36q-2.24.88-6.85,3a45.07,45.07,0,0,0-9.72,6.2,53.57,53.57,0,0,0-9.72,10.64,49.42,49.42,0,0,0-7.16,16,5.3,5.3,0,0,1-2.39,3.1,5,5,0,0,1-4,.44A5.58,5.58,0,0,1,35,109.85a4.06,4.06,0,0,1-.48-3.7A62.48,62.48,0,0,1,50.75,78.08,66.33,66.33,0,0,1,74.65,63.6q17.84-5.91,28,.59A16.37,16.37,0,0,1,109.38,76a31.78,31.78,0,0,1-1.12,10.2A53.74,53.74,0,0,1,104.12,97a76.16,76.16,0,0,1-6.37,10.34,76.56,76.56,0,0,1-7.81,9.16A82.33,82.33,0,0,1,62.22,135.7q-14.34,5.93-27.08,5.91H34.5a39.81,39.81,0,0,1-13.7-2.21A24.77,24.77,0,0,1,10.92,133Q.72,121.82,3.59,105,5.83,89.9,16.18,75.42A89.67,89.67,0,0,1,41.51,51.49q42.38-26.31,93.36-26.3h.63a202.64,202.64,0,0,1,57,8.57c1.27-.6,2.49-1.19,3.66-1.78a33.5,33.5,0,0,1,3.35-1.48,5.57,5.57,0,0,1,4-.29,4.79,4.79,0,0,1,3,2.36,4.52,4.52,0,0,1,.32,3.7,4.59,4.59,0,0,1-2.87,2.8q-3.82,1.78-11.79,6.06A80.17,80.17,0,0,0,176,57.1a103.08,103.08,0,0,0-16.25,18.47,160.32,160.32,0,0,0-12.59,21.87q-5.56,11.67-10.19,24.23t-9.08,25.85q-8.3,23.94-18.16,47.58a159.19,159.19,0,0,1-26.45,42.84,71,71,0,0,0,20.87-7.68,102.32,102.32,0,0,0,16.73-11.67,99.83,99.83,0,0,0,12.74-13.15A136,136,0,0,0,142.51,193q6.38-10,11.79-19.8T164.82,154Q175,135.41,187,115.76T218,74.24a129.84,129.84,0,0,1,35.53-28.52A141.86,141.86,0,0,1,297.05,30.5a5.65,5.65,0,0,1,4,.89A4.62,4.62,0,0,1,303.1,34.64Z" transform="translate(-2.96 -25.19)" style="fill:#231f20"/><path d="M263.59,186.53a5.23,5.23,0,0,1,2.71,2.8,4.11,4.11,0,0,1-.16,3.7,5.53,5.53,0,0,0-.48,1.18,2.54,2.54,0,0,1-.8,1.18q-1.91,3.56-4.62,8.87t-6.37,11.08A127.81,127.81,0,0,1,245.43,227a74,74,0,0,1-10.52,10.64A57.24,57.24,0,0,1,219,246.37a53.34,53.34,0,0,1-18.48,3.39q-11.16,0-18.8-5.31a25.71,25.71,0,0,1-10.83-19.21,32.09,32.09,0,0,1,1.43-12.86,73.28,73.28,0,0,1,5.42-12.85,86.11,86.11,0,0,1,7.81-12,102.94,102.94,0,0,1,8.92-10.19,48.91,48.91,0,0,1,16.41-11.08,39.51,39.51,0,0,1,17.68-3.11q9.87.6,14.66,6.8,4.14,6.21,1.27,13.89A29,29,0,0,1,235.55,196a46.85,46.85,0,0,1-15,8.28q-12.12,4.14-21.35,4.43a102.16,102.16,0,0,1-14.34-.3q-3.82,9.17-3.51,16.26a15.71,15.71,0,0,0,7,12.11,14.73,14.73,0,0,0,7.81,3,39.49,39.49,0,0,0,10.67-.3,43.49,43.49,0,0,0,11.32-3.4,46.56,46.56,0,0,0,9.71-5.76,63.65,63.65,0,0,0,9.4-9.45A121.27,121.27,0,0,0,245.11,210q3.49-5.46,6-10.34t4.15-8.42a2.66,2.66,0,0,0,.79-1.19,6.1,6.1,0,0,1,.48-1.18,5.3,5.3,0,0,1,3-2.51A5.08,5.08,0,0,1,263.59,186.53Zm-61.49-2.66a87.29,87.29,0,0,0-6.54,7.39,85,85,0,0,0-5.57,8,68.51,68.51,0,0,0,11.47-.44,71.61,71.61,0,0,0,15.61-3.69q7.65-2.37,11.79-6.65a23.58,23.58,0,0,0,5.42-7.83q1.59-3.26,0-5.32a12.76,12.76,0,0,0-2.23-1.48,11.94,11.94,0,0,0-4.47-1.18c-.63,0-1.8.05-3.5.15A27.49,27.49,0,0,0,218,174a36.31,36.31,0,0,0-7.65,3.4A39.6,39.6,0,0,0,202.1,183.87Z" transform="translate(-2.96 -25.19)" style="fill:#231f20"/><path d="M381.16,186.82a4.18,4.18,0,0,1,2.71,2.51,4.78,4.78,0,0,1-.16,4q-4.47,10.35-9.4,20.39A143,143,0,0,1,363.64,232a53.68,53.68,0,0,1-13.7,13.3,26.9,26.9,0,0,1-13.71,4.14,29.14,29.14,0,0,1-4.77-.59,16.17,16.17,0,0,1-7.33-3,13.55,13.55,0,0,1-3.51-3.84,17.73,17.73,0,0,1-2.07-7.83,32.54,32.54,0,0,1,1.12-9.31A95.38,95.38,0,0,1,323,214.45q2.07-5.46,4.62-11.08,2.55-5.91,4.62-11.67a81.9,81.9,0,0,0,3-10.2c.64-3.54.64-5.76,0-6.64a5.15,5.15,0,0,0-1.59-1.63,9.93,9.93,0,0,0-2.71-.3,11.88,11.88,0,0,0-4.62,1.33,38.56,38.56,0,0,0-7,4.58,103.76,103.76,0,0,0-9.88,9.16q-14.66,15.08-36.32,47-1.61,3.25-3.19,6.5c-1.06,2.17-2.13,4.34-3.19,6.5a4.74,4.74,0,0,1-4.77,3,6,6,0,0,1-2.24-.3,5.16,5.16,0,0,1-2.7-2.81,4.1,4.1,0,0,1,.16-3.69q4.77-10,9.55-19.5t8.93-17.44q3.49-7.38,6.37-12.85t3.82-7.83c2.12-4.92,3.13-8.28,3-10.05s-.27-2.66-.48-2.66c-.21-.39-.75-.59-1.59-.59q-2.55-.58-8,3.55T269,189.19a4.61,4.61,0,0,1-3,2.66,5.57,5.57,0,0,1-4-.3,4.54,4.54,0,0,1-2.55-2.81,4.49,4.49,0,0,1,.31-3.69,55.34,55.34,0,0,1,12.43-15.66q8.93-6.79,16.25-5.91a12.75,12.75,0,0,1,5.9,2.22,13.32,13.32,0,0,1,3,3.1q4.14,5.31-.32,17.43a21.08,21.08,0,0,0,2.23-2.36,23.08,23.08,0,0,1,2.23-2.37q9.88-10,17.53-14.48,10.19-5.6,18.48-3a15.66,15.66,0,0,1,6.85,5.61q3,4.15,1.43,13.3a92.47,92.47,0,0,1-3.66,11.53q-2.38,6.19-4.94,12.41-1.9,5-3.82,9.9t-3.19,9.3c-1.06,3.36-1.49,5.87-1.27,7.54a10.86,10.86,0,0,0,.95,3.69,3,3,0,0,0,1,1,10.47,10.47,0,0,0,2.55,1c2.33.4,5.25,0,8.76-1.18s7.7-5.12,12.59-11.82a113.44,113.44,0,0,0,10.19-17.14q4.79-9.75,9.24-19.8Q376.37,184.76,381.16,186.82Z" transform="translate(-2.96 -25.19)" style="fill:#231f20"/><path d="M453.8,186.53a5.19,5.19,0,0,1,2.71,2.8,4.11,4.11,0,0,1-.16,3.7,5.47,5.47,0,0,0-.47,1.18,2.61,2.61,0,0,1-.8,1.18q-1.92,3.56-4.62,8.87t-6.37,11.08A128,128,0,0,1,435.64,227a74,74,0,0,1-10.51,10.64,57.24,57.24,0,0,1-15.93,8.72,53.38,53.38,0,0,1-18.48,3.39q-11.16,0-18.8-5.31-9.87-7.39-10.84-19.21a32.1,32.1,0,0,1,1.44-12.86,71.8,71.8,0,0,1,5.42-12.85,87,87,0,0,1,7.8-12,104.25,104.25,0,0,1,8.92-10.19,49.11,49.11,0,0,1,16.41-11.08,39.55,39.55,0,0,1,17.69-3.11q9.87.6,14.65,6.8,4.14,6.21,1.28,13.89A29.19,29.19,0,0,1,425.77,196a46.9,46.9,0,0,1-15,8.28q-12.12,4.14-21.35,4.43a102.26,102.26,0,0,1-14.34-.3q-3.81,9.17-3.5,16.26a15.68,15.68,0,0,0,7,12.11,14.7,14.7,0,0,0,7.81,3,39.49,39.49,0,0,0,10.67-.3A43.54,43.54,0,0,0,408.4,236a46.38,46.38,0,0,0,9.72-5.76,64.62,64.62,0,0,0,9.4-9.45,123.17,123.17,0,0,0,7.8-10.79q3.51-5.46,6.06-10.34t4.14-8.42a2.69,2.69,0,0,0,.8-1.19,5.47,5.47,0,0,1,.47-1.18,5.33,5.33,0,0,1,3-2.51A5.08,5.08,0,0,1,453.8,186.53Zm-61.49-2.66a86.82,86.82,0,0,0-12.11,15.36,68.48,68.48,0,0,0,11.47-.44,71.82,71.82,0,0,0,15.62-3.69q7.63-2.37,11.78-6.65a23.43,23.43,0,0,0,5.42-7.83q1.59-3.26,0-5.32a12.76,12.76,0,0,0-2.23-1.48,11.89,11.89,0,0,0-4.46-1.18q-1,0-3.51.15a27.6,27.6,0,0,0-6.05,1.18,36.31,36.31,0,0,0-7.65,3.4A39.86,39.86,0,0,0,392.31,183.87Z" transform="translate(-2.96 -25.19)" style="fill:#231f20"/><path d="M564.05,98.47a4.1,4.1,0,0,1-.48,3.69,5.6,5.6,0,0,1-3.35,2.22,61.35,61.35,0,0,1-13.7,1.77A57.38,57.38,0,0,1,535.21,105q-5.9-1.17-14.18-3.55-4.14-1.17-8.28-2.21t-8.6-2.51L448.07,215.49q-3.51,7.38-3.19,12a20.66,20.66,0,0,0,1.59,7.24c1.49,2.77,3,4.34,4.47,4.73a16.06,16.06,0,0,0,7.8-.15q4.62-1,11-9a84.65,84.65,0,0,0,10.2-15.51q5.1-9.6,12.11-24.68a4.11,4.11,0,0,1,2.71-2.8,5.93,5.93,0,0,1,4.3.14,4.21,4.21,0,0,1,2.71,2.52,4.16,4.16,0,0,1-.16,3.69q-7,16-12.43,26a100.16,100.16,0,0,1-10.83,16.55,45.4,45.4,0,0,1-13.7,11.53,23.21,23.21,0,0,1-9.88,2.06,18.38,18.38,0,0,1-7-1.18,14.5,14.5,0,0,1-6.37-3.54,19,19,0,0,1-4.46-6.21,25.06,25.06,0,0,1-2.39-13.74,41,41,0,0,1,4-13.44l54.8-116.73A95,95,0,0,0,449,100.83a5,5,0,0,1-4,.15,5.36,5.36,0,0,1-2.87-6.5,4.28,4.28,0,0,1,3-2.51,103.12,103.12,0,0,1,52.57-6.21l25.17-53.19q1.92-4.12,7-2.66a5.18,5.18,0,0,1,2.71,2.81,4.12,4.12,0,0,1-.16,3.7L508.29,87.83a1.45,1.45,0,0,1,.63.15,1.5,1.5,0,0,0,.64.15c3,.79,5.63,1.47,8,2.07s4.56,1.18,6.69,1.77q6.38,1.77,10.67,2.81a69,69,0,0,0,8,1.47,31.79,31.79,0,0,0,6.85.15,47.21,47.21,0,0,0,7.65-1.48Q562.44,93.75,564.05,98.47Z" transform="translate(-2.96 -25.19)" style="fill:#231f20"/><path d="M541.74,186.53q5.1,2.07,2.87,6.5-4.79,10.93-9.72,21.13a116.46,116.46,0,0,1-10.67,18,58.52,58.52,0,0,1-12.11,12.56,22.15,22.15,0,0,1-13.38,4.73,5.73,5.73,0,0,1-2.23-.3q-8.61-.88-13.39-7.09-6.36-7.68-4.46-19.8a63.59,63.59,0,0,1,5.9-17.14q4.62-9.45,11-21.86,1.59-3.56,3.51-7.09t3.82-7.69a4.77,4.77,0,0,1,3-2.36,6.91,6.91,0,0,1,4,0,5.25,5.25,0,0,1,2.71,2.81,4.1,4.1,0,0,1-.16,3.69c-1.28,2.76-2.55,5.32-3.83,7.68s-2.54,4.73-3.82,7.09q-5.73,11.24-10.2,20.54t-5.41,15.81q-1.59,7.69,2.23,12.41a9.54,9.54,0,0,0,6.37,3.55,8.59,8.59,0,0,0,4.78-.89,20.84,20.84,0,0,0,4.94-3.25A37.93,37.93,0,0,0,512,231q2.07-2.5,3.66-4.88a128,128,0,0,0,10.84-18.32q5.09-10.34,8.6-18.61a4.11,4.11,0,0,1,2.71-2.51A6.2,6.2,0,0,1,541.74,186.53Zm-29-30.14a4.55,4.55,0,0,1-2.87-2.81,4.46,4.46,0,0,1,.32-3.69l6.37-12.41a5.31,5.31,0,0,1,3-2.52,5.08,5.08,0,0,1,4,.15,5.21,5.21,0,0,1,2.71,2.81,4.1,4.1,0,0,1-.16,3.69L519.76,154a5.22,5.22,0,0,1-4.78,2.66A5.78,5.78,0,0,1,512.75,156.39Z" transform="translate(-2.96 -25.19)" style="fill:#231f20"/><path d="M655.17,186.23A4.73,4.73,0,0,1,658,188.6a4.07,4.07,0,0,1,0,3.84,249.32,249.32,0,0,1-11.15,24.38A127.55,127.55,0,0,1,635.42,235q-7,8-12.75,11.23a18.8,18.8,0,0,1-10.83,3.25,18,18,0,0,1-3.83-.3,18.59,18.59,0,0,1-8.28-4.28,22.26,22.26,0,0,1-4.14-5.17q-2.57-4.44-1.91-11.23-10.84,11.23-21.51,16.25t-19.92,5a29.85,29.85,0,0,1-11.47-2.36q-12.42-5-15.29-17.14-3.5-12.1,4.78-29.25a75.59,75.59,0,0,1,21.67-26.89q16.24-13,35-11.53A37.07,37.07,0,0,1,602.76,167a70.64,70.64,0,0,1,11.31,7.69c.64-1,1.27-2.07,1.91-3.25s1.27-2.26,1.91-3.25a4.75,4.75,0,0,1,3-2.37,5.57,5.57,0,0,1,4,.3,4.59,4.59,0,0,1,2.55,2.81,4.49,4.49,0,0,1-.32,3.69A285.35,285.35,0,0,0,613,199.83a152.42,152.42,0,0,0-7,18.46q-2.07,7.25-1.91,11.38a17.08,17.08,0,0,0,1.12,6.21c.84,2,2.65,3.25,5.41,3.84h1.28q6,0,16.09-12.12t20.23-38.41Q650.38,184.75,655.17,186.23ZM568.5,235.29q5.75-3,14-10T600.05,204a79.82,79.82,0,0,1,4-9.6q2.38-4.87,5.26-10.49a64.91,64.91,0,0,0-9.72-7.24A29.44,29.44,0,0,0,586,172.34a33.64,33.64,0,0,0-14.66,2.07,52.57,52.57,0,0,0-13.06,7.24,55.48,55.48,0,0,0-10.68,10.64,75.4,75.4,0,0,0-7.8,12.56q-6.37,14.18-4.14,23.34,1.9,7.09,9.24,10.35Q554.8,242.68,568.5,235.29Z" transform="translate(-2.96 -25.19)" style="fill:#231f20"/><path d="M771.15,186.82a4.2,4.2,0,0,1,2.71,2.51,4.78,4.78,0,0,1-.16,4q-4.47,10.35-9.4,20.39A143,143,0,0,1,753.63,232a53.55,53.55,0,0,1-13.71,13.3,26.86,26.86,0,0,1-13.7,4.14,29.23,29.23,0,0,1-4.78-.59,16.17,16.17,0,0,1-7.32-3,13.55,13.55,0,0,1-3.51-3.84,17.6,17.6,0,0,1-2.07-7.83,32.87,32.87,0,0,1,1.11-9.31A97.71,97.71,0,0,1,713,214.45q2.07-5.46,4.62-11.08,2.55-5.91,4.62-11.67a81.9,81.9,0,0,0,3-10.2c.63-3.54.63-5.76,0-6.64a5.05,5.05,0,0,0-1.6-1.63,9.8,9.8,0,0,0-2.7-.3,11.88,11.88,0,0,0-4.62,1.33,37.89,37.89,0,0,0-7,4.58,103.76,103.76,0,0,0-9.88,9.16q-14.65,15.08-36.33,47l-3.18,6.5q-1.61,3.25-3.19,6.5a4.74,4.74,0,0,1-4.78,3,6,6,0,0,1-2.23-.3,5.21,5.21,0,0,1-2.71-2.81,4.16,4.16,0,0,1,.16-3.69q4.78-10,9.56-19.5t8.92-17.44q3.51-7.38,6.38-12.85t3.82-7.83c2.12-4.92,3.13-8.28,3-10.05s-.27-2.66-.48-2.66c-.22-.39-.75-.59-1.59-.59q-2.57-.58-8,3.55T659,189.19a4.64,4.64,0,0,1-3,2.66,5.6,5.6,0,0,1-4-.3,4.6,4.6,0,0,1-2.55-2.81,4.53,4.53,0,0,1,.32-3.69,55.16,55.16,0,0,1,12.43-15.66q8.91-6.79,16.25-5.91a12.66,12.66,0,0,1,5.89,2.22,13.39,13.39,0,0,1,3,3.1q4.14,5.31-.32,17.43a21.08,21.08,0,0,0,2.23-2.36,23.08,23.08,0,0,1,2.23-2.37q9.87-10,17.53-14.48,10.18-5.6,18.48-3a15.66,15.66,0,0,1,6.85,5.61q3,4.15,1.43,13.3a92.47,92.47,0,0,1-3.66,11.53q-2.4,6.19-4.94,12.41-1.92,5-3.82,9.9t-3.19,9.3c-1.07,3.36-1.49,5.87-1.28,7.54a10.83,10.83,0,0,0,1,3.69,3,3,0,0,0,1,1,10.47,10.47,0,0,0,2.55,1c2.33.4,5.25,0,8.76-1.18s7.69-5.12,12.58-11.82a113.45,113.45,0,0,0,10.2-17.14q4.79-9.75,9.24-19.8Q766.36,184.76,771.15,186.82Z" transform="translate(-2.96 -25.19)" style="fill:#231f20"/></svg>