<svg id="Layer_1" data-name="Layer 1" xmlns="http://www.w3.org/2000/svg" viewBox="0 0 709.63 263.53"><title>vintage</title><path d="M274.07,8.29c-.27,2.7-2.9,4.92-6.06,4.92-11.05-.74-23.95,10.34-37.37,31.27-11.84,19-21.32,41.62-27.11,55.16C191.69,126,181.43,154.56,163,179.43c-6.58,9.11-13.42,15.76-20.53,20.19a40.38,40.38,0,0,1-21.31,6.4,41.16,41.16,0,0,1-5.53-.49,21.38,21.38,0,0,1-15.26-9.11c-7.11-9.61-8.16-26.35-2.9-46.79a610.83,610.83,0,0,1,17.9-61.81c7.1-21.67,15.26-42.35,23.95-62.79-14.74,8.62-27.64,12.31-40,15.76C83,46.21,65.36,50.39,50.36,62c-6.84,5.41-11,11.32-13.16,18.71-2.1,8.87-.79,17,3.95,22.66a20.7,20.7,0,0,0,15.79,7.38,5.3,5.3,0,1,1,0,10.59,32.37,32.37,0,0,1-24.48-11.57c-7.1-8.37-9.21-19.45-6.05-31.52C29,68.86,34.57,60.74,43.25,53.84c15-11.33,34.22-18.22,52.9-22.9,15.53-4.43,31.59-9.11,51.85-24.62,2.11-1.48,5-1.73,6.84-.25a4.86,4.86,0,0,1,1.85,6.16C145.63,38.08,135.11,63.69,125.89,91c-7.89,22.91-12.1,39.16-17.63,61.07-4.21,17.24-4,31.28,1.32,38.42a11.41,11.41,0,0,0,7.63,4.68c29.48,3.94,49.48-40.39,65.53-76.09,3.16-7.64,7.11-15,10.27-23.15,6.05-14,15.79-37.18,27.89-56.64C228,28.23,235.12,19.61,242,13.46c8.95-7.64,17.89-11.33,26.84-10.84A5.78,5.78,0,0,1,274.07,8.29Z" transform="translate(-24.98 -2.58)" style="fill:#231f20"/><path d="M276.43,144.71c-12.37,28.56-25.79,45.55-39.74,50.72a26.38,26.38,0,0,1-8.42,1.48,22.45,22.45,0,0,1-9-2c-4.74-2.22-10.27-7.14-10.53-18.47,0-7.14,2.11-16.5,6.32-28.32,5.26-14.52,10.52-28.56,16-42.1,2.63-7.39,5.53-14.78,8.42-22.41a5.68,5.68,0,0,1,7.11-3.2,5.14,5.14,0,0,1,3.42,6.64c-2.9,7.64-5.79,15.27-8.69,22.41-5.26,14-10.52,27.83-15.79,42.11-3.68,10.34-5.79,18.72-5.52,24.87,0,7.14,3.16,8.62,4.21,9.11a11,11,0,0,0,8.42,0c6-2.21,18.69-11.08,33.16-44.81a5.87,5.87,0,0,1,7.37-2.71A5.08,5.08,0,0,1,276.43,144.71ZM247.74,62.46l6.32-15.27a5.55,5.55,0,0,1,7.1-2.95c2.9,1,4.48,3.94,3.16,6.65l-6.05,15.26A5.87,5.87,0,0,1,253,69.6a6.08,6.08,0,0,1-2.1-.25A5.34,5.34,0,0,1,247.74,62.46Z" transform="translate(-24.98 -2.58)" style="fill:#231f20"/><path d="M381.7,142.74a6.92,6.92,0,0,1-.53,2.21c-17.9,37.19-30.26,51.71-48.16,51.71-12.63,0-18.95-8.61-18.95-20.68,0-23.15,20.53-51.71,20.53-73.14,0-7.14-3.42-12.8-13.69-12.8-16,0-36,33.24-44.48,54.17L258,193a5.8,5.8,0,0,1-7.1,3.45,5.06,5.06,0,0,1-3.43-6.65c13.69-35.46,30.27-80,40.53-106.38a5.37,5.37,0,0,1,5.27-3.45c4,0,6.58,3.7,5.26,6.9l-2.1,4.92c7.63-7.38,15.79-12.06,24.47-12.06,19,0,24.74,10.09,24.74,23.14,0,21.92-20.53,54.18-20.53,73.14,0,7.14,2.37,10.34,7.9,10.34,12.37,0,21.84-13,37.9-45.55a5.69,5.69,0,0,1,5-3.21,8,8,0,0,1,2.37.5A5.33,5.33,0,0,1,381.7,142.74Z" transform="translate(-24.98 -2.58)" style="fill:#231f20"/><path d="M436.43,142.74a6.89,6.89,0,0,1-.52,2.21c-15.27,30.78-30,51.71-54.22,51.71-12.63,0-19.47-8.86-19.47-20.68,0-9.11,6.58-30.53,15-50.73L390.64,90H374.06a5.24,5.24,0,0,1-5.53-5.17,5.39,5.39,0,0,1,5.53-5.17h20.26C394.85,78.71,407.75,44,408,43a5.36,5.36,0,0,1,5.26-3.45c4,0,6.58,3.69,5.27,6.89C419.33,45,408,75,406.17,79.7H423.8a5.39,5.39,0,0,1,5.53,5.17A5.24,5.24,0,0,1,423.8,90H402.22c-1.58,4.68-6.05,16-14.74,38.91-10.79,28.56-14.21,39.89-14.21,47,0,6.65,3.16,10.34,8.42,10.34,18.95,0,31.58-20.44,43.95-45.8a6.42,6.42,0,0,1,5.27-3,8,8,0,0,1,2.37.5A5.49,5.49,0,0,1,436.43,142.74Z" transform="translate(-24.98 -2.58)" style="fill:#231f20"/><path d="M542.49,142.74A6.89,6.89,0,0,1,542,145l-.27.74c-10,20.69-24.21,51-47.9,51-12.63,0-18.94-8.61-18.94-20.68-10.53,13.79-21.59,20.68-32.9,20.68-14.74,0-21.58-11.82-21.58-26.59,0-32.26,26.58-89.88,58.16-89.88,11,0,19.21,4.19,23.95,13,1.58-4.19,3.16-7.88,4.47-11.08a5.52,5.52,0,0,1,5.27-3.2,5,5,0,0,1,5,6.89l-13.16,33c-9.48,24.87-18.16,46.29-18.16,57.13,0,7.39,2.37,10.34,7.89,10.34,16.32,0,28.95-26.59,37.64-44.82l.26-.73a5.72,5.72,0,0,1,5-3.21,8,8,0,0,1,2.37.5A5.31,5.31,0,0,1,542.49,142.74Zm-53.42-18.47,6.31-15.76c-.52-11.33-7.37-18-16.84-18C454.33,91,432,144,431.43,168.35c0,10.83,2.37,18,10.26,18C463,186.32,478.54,149.38,489.07,124.27Z" transform="translate(-24.98 -2.58)" style="fill:#231f20"/><path d="M651.19,143a6.91,6.91,0,0,1-.53,2.22c-16.32,36-38.16,58.85-76.59,69.44-12.63,33.74-29,51.22-47.9,51.47-15.79.24-26-9.36-26-23.89,0-15.51,12.89-26.84,44.48-32.26,6.58-1,13.68-2.21,20.79-3.94l7.89-21.18c-7.1,6.9-15.52,11.82-25,11.82-17.37,0-21.58-12.55-21.58-28.31C528,135.84,553,80.19,584.34,80.19c11.84,0,19.74,5.17,24.21,13.54l4.21-10.09a5.26,5.26,0,0,1,5-3.45c3.69,0,7.11,2.71,5.53,7.14-4.21,9.6-11.32,27.33-19.74,48.26l-13.95,36.7-11.05,30c30.26-9.61,48.69-32.26,61.85-61.32a5.68,5.68,0,0,1,5-3.2,8.28,8.28,0,0,1,2.36.49A5.33,5.33,0,0,1,651.19,143Zm-90,74.61c-5,1-9.74,2-14.48,2.71-24.21,3.94-34.48,10.35-35.53,21.67,0,8.62,6.06,14,15,13.79C540.39,255.52,552.49,242.47,561.18,217.59Zm34.21-93.08,5.79-14c0-13-7.1-20-16.58-20-24.47.49-46.06,53.68-46.58,78.06-.53,10.1,0,17.73,9.73,17.73C568.81,186.32,584.86,149.63,595.39,124.51Z" transform="translate(-24.98 -2.58)" style="fill:#231f20"/><path d="M734.61,143a5.55,5.55,0,0,1-.52,2C717,180.41,697,196.66,670.39,196.66c-21.84,0-35-13.54-34.47-33.73,1.58-31.52,29-82.74,60-82.74,13.16,0,22.37,6.4,22.37,18.22,0,26.1-39.21,41.86-68.42,48.51a67.26,67.26,0,0,0-2.9,16.25c-.52,14,7.9,22.66,23.69,23.15,21.58.49,38.42-13.79,53.16-45.55a6.13,6.13,0,0,1,7.37-2.71A5.63,5.63,0,0,1,734.61,143ZM707.24,98.41c0-6.65-5.53-7.88-11.32-7.88-18.16,0-33.42,25.61-41.84,44.57C675.92,128.7,707.24,116.63,707.24,98.41Z" transform="translate(-24.98 -2.58)" style="fill:#231f20"/></svg>